<svg
  version="1.1"
  id="Layer_1"
  xmlns="http://www.w3.org/2000/svg"
  xmlns:xlink="http://www.w3.org/1999/xlink"
  x="0px"
  y="0px"
  viewBox="0 0 53 53"
  style="enable-background:new 0 0 53 53;"
  xml:space="preserve"
>
  <path
    d="M14.9,52.7c-0.5,0-1.1-0.1-1.6-0.3c-0.9-0.4-1.6-1.2-2-2.3L6.7,38.3c-0.4-1-0.4-2.1,0.1-3c0.4-0.9,1.2-1.6,2.2-1.9l2-0.9
	c1-0.4,2.1-0.4,3.1,0c0.9,0.4,1.6,1.2,2,2.3l4.6,11.8c0.4,1,0.4,2.1-0.1,3c-0.4,0.9-1.2,1.6-2.2,1.9l-2,0.9
	C15.9,52.6,15.4,52.7,14.9,52.7z M12.5,35.1c-0.1,0-0.2,0-0.3,0.1l-2,0.9c0,0-0.1,0-0.1,0.1c-0.2,0.1-0.4,0.2-0.5,0.4
	c-0.1,0.2-0.1,0.4,0,0.7c0,0,0,0,0,0l4.7,11.9c0.1,0.3,0.2,0.5,0.4,0.6c0.2,0.1,0.4,0.1,0.7,0l2-0.9c0,0,0.1,0,0.1-0.1
	c0.2-0.1,0.4-0.2,0.5-0.4c0.1-0.2,0.1-0.4,0-0.7l-4.7-11.9c-0.1-0.3-0.2-0.5-0.4-0.6C12.7,35.1,12.6,35.1,12.5,35.1z M38,52.6
	c-0.5,0-0.9-0.1-1.3-0.3l-2.2-1c-1.9-0.8-2.9-3.1-2.2-5L37,34.6c0.8-2,3.1-3,5-2.2l2.2,1c0.9,0.3,1.6,1.1,2.1,2c0.5,1,0.5,2,0.1,3
	l-4.7,11.9c0,0,0,0,0,0c-0.4,0.9-1.1,1.7-2,2.1C39.1,52.5,38.6,52.6,38,52.6z M40.7,35.1c-0.3,0-0.7,0.3-0.9,0.6l-4.7,11.9
	c-0.2,0.4,0.1,0.9,0.6,1.1l2.2,1c0.3,0.1,0.9-0.2,1-0.6l4.7-11.9c0.1-0.2,0.1-0.4,0-0.6c-0.1-0.2-0.3-0.4-0.5-0.5l-2.2-1
	C40.8,35.1,40.7,35.1,40.7,35.1z M40.3,49.6L40.3,49.6L40.3,49.6z M44,52.5c-0.2,0-0.5-0.1-0.7-0.2c-0.7-0.4-1-1.3-0.6-2
	c0.1-0.1,6.8-12.6,6.8-23.8c0-12.7-10.3-23-23-23c-12.7,0-23,10.3-23,23c0,11.1,6.7,23.7,6.8,23.8c0.4,0.7,0.1,1.6-0.6,2
	c-0.7,0.4-1.6,0.1-2-0.6c-0.3-0.5-7.2-13.3-7.2-25.2c0-14.3,11.7-26,26-26c14.3,0,26,11.7,26,26c0,11.9-6.9,24.7-7.2,25.2
	C45,52.2,44.5,52.5,44,52.5z"
  />
</svg>
