<svg width="90" height="89" viewBox="0 0 90 89" xmlns="http://www.w3.org/2000/svg">
<path fill-rule="evenodd" clip-rule="evenodd" d="M44.9993 34.3444C41.2527 34.3444 38.2156 37.3816 38.2156 41.1282C38.2156 44.8747 41.2527 47.9119 44.9993 47.9119C48.7459 47.9119 51.783 44.8747 51.783 41.1282C51.783 37.3816 48.7459 34.3444 44.9993 34.3444ZM31.4318 41.1282C31.4318 33.635 37.5062 27.5607 44.9993 27.5607C52.4924 27.5607 58.5668 33.635 58.5668 41.1282C58.5668 48.6213 52.4924 54.6957 44.9993 54.6957C37.5062 54.6957 31.4318 48.6213 31.4318 41.1282Z" />
<path fill-rule="evenodd" clip-rule="evenodd" d="M38.2881 54.6956C37.7673 54.6904 37.2521 54.8043 36.7821 55.0286C36.312 55.2529 35.8995 55.5817 35.5759 55.9898C35.2523 56.3979 35.0263 56.8747 34.9152 57.3835C34.8049 57.8885 34.8106 58.4118 34.9318 58.9141L40.0931 79.2377C40.2887 79.9822 40.7259 80.6408 41.3362 81.1101C41.9487 81.5811 42.7006 81.8347 43.4733 81.8308L43.4905 81.8308H46.5092L46.5264 81.8308C47.2991 81.8347 48.051 81.5811 48.6635 81.1101C49.2738 80.6408 49.711 79.9821 49.9066 79.2376L55.068 58.9141C55.1891 58.4117 55.1948 57.8884 55.0845 57.3835C54.9734 56.8747 54.7474 56.3979 54.4238 55.9898C54.1003 55.5817 53.6877 55.2529 53.2176 55.0286C52.7476 54.8043 52.2325 54.6904 51.7116 54.6956L51.6776 54.6958H38.3221L38.2881 54.6956ZM38.3374 47.912C36.7891 47.8993 35.2581 48.2392 33.8606 48.9061C32.4574 49.5757 31.2258 50.5572 30.2599 51.7756C29.2941 52.9939 28.6195 54.4169 28.2877 55.9359C27.9559 57.4548 27.9757 59.0295 28.3456 60.5397L28.3526 60.5676L33.521 80.9188L33.5259 80.9381C34.1002 83.1449 35.3932 85.0975 37.2008 86.4876C39.0057 87.8756 41.221 88.6238 43.4977 88.6145H46.502C48.7788 88.6238 50.994 87.8756 52.799 86.4876C54.6065 85.0975 55.8995 83.1449 56.4738 80.9381L56.4788 80.9188L61.6471 60.5676L61.6541 60.5397C62.024 59.0295 62.0438 57.4548 61.712 55.9359C61.3802 54.4169 60.7056 52.9939 59.7398 51.7756C58.7739 50.5572 57.5424 49.5757 56.1392 48.9061C54.7416 48.2392 53.2106 47.8993 51.6623 47.912H38.3374Z" />
<path fill-rule="evenodd" clip-rule="evenodd" d="M45 20.8062C41.3403 20.8062 37.7302 21.6522 34.4515 23.2781C31.1729 24.904 28.3144 27.2658 26.0995 30.1791C23.8845 33.0923 22.3729 36.4782 21.6828 40.0722C20.9927 43.6662 21.1428 47.3711 22.1213 50.8975C22.6222 52.7026 21.5649 54.572 19.7598 55.0728C17.9547 55.5737 16.0854 54.5164 15.5845 52.7113C14.3265 48.1773 14.1335 43.4139 15.0208 38.793C15.908 34.1721 17.8515 29.8189 20.6993 26.0733C23.5471 22.3277 27.2223 19.291 31.4377 17.2006C35.6531 15.1102 40.2947 14.0225 45 14.0225C49.7053 14.0225 54.3469 15.1102 58.5623 17.2006C62.7778 19.291 66.4529 22.3277 69.3007 26.0733C72.1486 29.8189 74.092 34.1721 74.9793 38.793C75.8665 43.4139 75.6736 48.1773 74.4155 52.7113C73.9147 54.5164 72.0453 55.5737 70.2402 55.0728C68.4352 54.572 67.3779 52.7026 67.8787 50.8975C68.8572 47.3711 69.0073 43.6662 68.3172 40.0722C67.6271 36.4782 66.1156 33.0923 63.9006 30.1791C61.6856 27.2658 58.8272 24.904 55.5485 23.2781C52.2698 21.6522 48.6597 20.8062 45 20.8062Z" />
<path fill-rule="evenodd" clip-rule="evenodd" d="M44.9994 7.21515C36.9964 7.21515 29.2054 9.78845 22.7768 14.5551C16.3482 19.3218 11.6226 26.0293 9.29776 33.6872C6.97291 41.3451 7.172 49.5476 9.86564 57.0837C12.5593 64.6198 17.6047 71.0901 24.257 75.5393C25.8141 76.5807 26.2322 78.6872 25.1908 80.2443C24.1493 81.8015 22.0428 82.2195 20.4857 81.1781C12.6239 75.9199 6.66108 68.2733 3.47769 59.367C0.294294 50.4607 0.0590003 40.7668 2.80655 31.7165C5.55409 22.6663 11.1389 14.7393 18.7363 9.10594C26.3338 3.47257 35.5413 0.431396 44.9994 0.431396C54.4575 0.431396 63.665 3.47258 71.2624 9.10594C78.8599 14.7393 84.4447 22.6663 87.1922 31.7165C89.9398 40.7668 89.7045 50.4607 86.5211 59.367C83.3377 68.2733 77.3749 75.9199 69.5131 81.1781C67.956 82.2195 65.8494 81.8015 64.808 80.2443C63.7666 78.6872 64.1846 76.5807 65.7417 75.5393C72.394 71.0901 77.4395 64.6198 80.1331 57.0837C82.8268 49.5476 83.0258 41.3451 80.701 33.6872C78.3762 26.0293 73.6506 19.3218 67.222 14.5551C60.7933 9.78845 53.0024 7.21515 44.9994 7.21515Z" />
</svg>
