<svg width="56" height="56" viewBox="0 0 56 56" xmlns="http://www.w3.org/2000/svg">
<path fill-rule="evenodd" clip-rule="evenodd" d="M6.05683 9.05218C6.04799 9.06114 6 9.11343 6 9.27148V25.7909C6 25.949 6.04799 26.0013 6.05683 26.0102C6.06453 26.018 6.10977 26.0624 6.25515 26.0624H25.6826C25.828 26.0624 25.8732 26.018 25.8809 26.0102C25.8898 26.0013 25.9378 25.949 25.9378 25.7909V9.27148C25.9378 9.11343 25.8898 9.06113 25.8809 9.05218C25.8732 9.04437 25.828 9 25.6826 9H6.25515C6.10977 9 6.06453 9.04437 6.05683 9.05218ZM4.6335 7.64714C5.0651 7.20992 5.64744 7 6.25515 7H25.6826C26.2903 7 26.8727 7.20992 27.3043 7.64714C27.7347 8.0832 27.9378 8.66664 27.9378 9.27148V25.7909C27.9378 26.3958 27.7347 26.9792 27.3043 27.4153C26.8727 27.8525 26.2903 28.0624 25.6826 28.0624H6.25515C5.64744 28.0624 5.0651 27.8525 4.6335 27.4153C4.20304 26.9792 4 26.3958 4 25.7909V9.27148C4 8.66664 4.20304 8.0832 4.6335 7.64714ZM35.5423 8C35.5423 7.44772 35.9901 7 36.5424 7H52C52.5523 7 53 7.44772 53 8C53 8.55228 52.5523 9 52 9H36.5424C35.9901 9 35.5423 8.55228 35.5423 8ZM35.5423 16.9507C35.5423 16.3985 35.9901 15.9507 36.5424 15.9507H52C52.5523 15.9507 53 16.3985 53 16.9507C53 17.503 52.5523 17.9507 52 17.9507H36.5424C35.9901 17.9507 35.5423 17.503 35.5423 16.9507ZM35.5423 27.0624C35.5423 26.5101 35.9901 26.0624 36.5424 26.0624H52C52.5523 26.0624 53 26.5101 53 27.0624C53 27.6147 52.5523 28.0624 52 28.0624H36.5424C35.9901 28.0624 35.5423 27.6147 35.5423 27.0624ZM4 37.1741C4 36.6218 4.44772 36.1741 5 36.1741H52C52.5523 36.1741 53 36.6218 53 37.1741C53 37.7263 52.5523 38.1741 52 38.1741H5C4.44772 38.1741 4 37.7263 4 37.1741ZM4 47.2857C4 46.7334 4.44772 46.2857 5 46.2857H18C18.5523 46.2857 19 46.7334 19 47.2857C19 47.838 18.5523 48.2857 18 48.2857H5C4.44772 48.2857 4 47.838 4 47.2857ZM24.5 47.2857C24.5 46.7334 24.9477 46.2857 25.5 46.2857H30C30.5523 46.2857 31 46.7334 31 47.2857C31 47.838 30.5523 48.2857 30 48.2857H25.5C24.9477 48.2857 24.5 47.838 24.5 47.2857Z"/>
</svg>
