<svg width="28" height="28" viewBox="0 0 28 28" fill="currentColor" xmlns="http://www.w3.org/2000/svg">
<path fill-rule="evenodd" clip-rule="evenodd" d="M14 4C8.47715 4 4 8.47715 4 14C4 19.5228 8.47715 24 14 24C14.5523 24 15 24.4477 15 25C15 25.5523 14.5523 26 14 26C7.37258 26 2 20.6274 2 14C2 7.37258 7.37258 2 14 2C20.6274 2 26 7.37258 26 14V16C26 18.2091 24.2091 20 22 20C20.5017 20 19.1958 19.1762 18.5105 17.9568C17.4108 19.2093 15.7978 20 14 20C10.6863 20 8 17.3137 8 14C8 10.6863 10.6863 8 14 8C15.5367 8 16.9385 8.57771 18 9.52779V9C18 8.44772 18.4477 8 19 8C19.5523 8 20 8.44772 20 9V16C20 17.1046 20.8954 18 22 18C23.1046 18 24 17.1046 24 16V14C24 8.47715 19.5228 4 14 4ZM18 14C18 11.7909 16.2091 10 14 10C11.7909 10 10 11.7909 10 14C10 16.2091 11.7909 18 14 18C16.2091 18 18 16.2091 18 14Z"/>
</svg>
