<svg version="1.1" id="Layer_1" xmlns="http://www.w3.org/2000/svg" xmlns:xlink="http://www.w3.org/1999/xlink" x="0px" y="0px"
	 viewBox="0 0 16 16" style="enable-background:new 0 0 16 16;" xml:space="preserve">

<path class="st0" d="M8,15.6c-4.2,0-7.6-3.4-7.6-7.6S3.8,0.4,8,0.4s7.6,3.4,7.6,7.6v1.3c0,1.3-1.1,2.4-2.4,2.4c-1,0-1.8-0.6-2.2-1.4
	c-0.7,0.9-1.7,1.4-2.9,1.4C6,11.7,4.3,10,4.3,8C4.3,6,6,4.3,8,4.3c1.1,0,2,0.5,2.7,1.2V4.8h1v4.5c0,0.8,0.6,1.4,1.4,1.4
	s1.4-0.6,1.4-1.4V8c0-3.6-2.9-6.6-6.6-6.6C4.4,1.4,1.4,4.4,1.4,8c0,3.6,2.9,6.6,6.6,6.6V15.6z M8,5.3C6.5,5.3,5.3,6.5,5.3,8
	c0,1.5,1.2,2.7,2.7,2.7c1.5,0,2.7-1.2,2.7-2.7C10.7,6.5,9.5,5.3,8,5.3z"/>
</svg>
