<svg width="28" height="28" viewBox="0 0 28 28" fill="currentColor" xmlns="http://www.w3.org/2000/svg">
<path fill-rule="evenodd" clip-rule="evenodd" d="M6.57424 5.5H5C4.58638 5.5 4.20284 5.64006 3.92145 5.92145C3.64006 6.20284 3.5 6.58638 3.5 7V22C3.5 22.4136 3.64006 22.7972 3.92145 23.0786C4.20284 23.3599 4.58638 23.5 5 23.5H23C23.4136 23.5 23.7972 23.3599 24.0786 23.0786C24.3599 22.7972 24.5 22.4136 24.5 22V7C24.5 6.58638 24.3599 6.20284 24.0786 5.92145C23.7972 5.64006 23.4136 5.5 23 5.5H14.4258C14.3574 5.28217 14.2417 5.08463 14.0786 4.92145C13.7972 4.64006 13.4136 4.5 13 4.5H8C7.58638 4.5 7.20284 4.64006 6.92145 4.92145C6.75826 5.08463 6.64261 5.28217 6.57424 5.5ZM7.5 6C7.5 5.81362 7.55994 5.69716 7.62855 5.62855C7.69716 5.55994 7.81362 5.5 8 5.5H13C13.1864 5.5 13.3028 5.55994 13.3714 5.62855C13.4401 5.69716 13.5 5.81362 13.5 6V14.6693L10.8763 11.6707C10.7813 11.5622 10.6442 11.5 10.5 11.5C10.3558 11.5 10.2187 11.5622 10.1237 11.6707L7.5 14.6693V6ZM14.5 6.5V15C14.5 15.1699 14.4752 15.347 14.4074 15.5073C14.3399 15.6668 14.2108 15.8492 13.9857 15.9392C13.7525 16.0325 13.5228 15.9845 13.348 15.8939C13.1827 15.8082 13.04 15.6737 12.9169 15.5215L10.5 12.7593L8.07629 15.5293C8.06898 15.5376 8.0614 15.5457 8.05355 15.5536C7.92754 15.6796 7.78652 15.79 7.63194 15.8615C7.47838 15.9326 7.27343 15.9815 7.05633 15.9164C6.82783 15.8479 6.68051 15.6818 6.60028 15.5104C6.52421 15.3479 6.5 15.1681 6.5 15V6.5H5C4.81362 6.5 4.69716 6.55994 4.62855 6.62855C4.55994 6.69716 4.5 6.81362 4.5 7V22C4.5 22.1864 4.55994 22.3028 4.62855 22.3714C4.69716 22.4401 4.81362 22.5 5 22.5H23C23.1864 22.5 23.3028 22.4401 23.3714 22.3714C23.4401 22.3028 23.5 22.1864 23.5 22V7C23.5 6.81362 23.4401 6.69716 23.3714 6.62855C23.3028 6.55994 23.1864 6.5 23 6.5H14.5Z"/>
<path fill-rule="evenodd" clip-rule="evenodd" d="M16.5 11C16.5 10.7239 16.7239 10.5 17 10.5H21C21.2761 10.5 21.5 10.7239 21.5 11C21.5 11.2761 21.2761 11.5 21 11.5H17C16.7239 11.5 16.5 11.2761 16.5 11Z"/>
<path fill-rule="evenodd" clip-rule="evenodd" d="M16.5 14C16.5 13.7239 16.7239 13.5 17 13.5H21C21.2761 13.5 21.5 13.7239 21.5 14C21.5 14.2761 21.2761 14.5 21 14.5H17C16.7239 14.5 16.5 14.2761 16.5 14Z"/>
<path fill-rule="evenodd" clip-rule="evenodd" d="M6.5 19C6.5 18.7239 6.72386 18.5 7 18.5H21C21.2761 18.5 21.5 18.7239 21.5 19C21.5 19.2761 21.2761 19.5 21 19.5H7C6.72386 19.5 6.5 19.2761 6.5 19Z"/>
</svg>
