<svg width="28" height="28" viewBox="0 0 28 28" fill="none" xmlns="http://www.w3.org/2000/svg">
<path fill-rule="evenodd" clip-rule="evenodd" d="M19.7419 4.01651C19.8264 4.00562 19.9125 4 20 4H23C24.1046 4 25 4.89543 25 6V22C25 23.1046 24.1046 24 23 24H5C3.89543 24 3 23.1046 3 22V6C3 4.89543 3.89543 4 5 4H8C8.08747 4 8.17362 4.00561 8.25812 4.0165C8.60152 3.40961 9.25293 3 10 3H18C18.7471 3 19.3985 3.40961 19.7419 4.01651ZM8 6L5 6V22H23V6H20V18.0198C20 19.0311 18.8616 19.6238 18.0332 19.0439L14 16.2207L9.96683 19.0439C9.13836 19.6238 8 19.0311 8 18.0198V6ZM18 5L10 5V16.5793L13.2832 14.2811C13.7136 13.9798 14.2864 13.9798 14.7168 14.2811L18 16.5793V5Z"/>
</svg>
