<svg width="28" height="28" viewBox="0 0 28 28" fill="none" xmlns="http://www.w3.org/2000/svg">
<path fill-rule="evenodd" clip-rule="evenodd" d="M4 3C2.89543 3 2 3.89543 2 5V23C2 24.1046 2.89543 25 4 25H24C25.1046 25 26 24.1046 26 23V5C26 3.89543 25.1046 3 24 3H4ZM5 7C5 6.44772 5.44772 6 6 6H22C22.5523 6 23 6.44772 23 7C23 7.55228 22.5523 8 22 8H6C5.44772 8 5 7.55228 5 7ZM5 21C5 20.4477 5.44772 20 6 20H14C14.5523 20 15 20.4477 15 21C15 21.5523 14.5523 22 14 22H6C5.44772 22 5 21.5523 5 21ZM6 13C5.44772 13 5 13.4477 5 14C5 14.5523 5.44772 15 6 15H22C22.5523 15 23 14.5523 23 14C23 13.4477 22.5523 13 22 13H6Z"/>
</svg>
