<svg width="28" height="28" viewBox="0 0 28 28" fill="none" xmlns="http://www.w3.org/2000/svg">
<path fill-rule="evenodd" clip-rule="evenodd" d="M4 6C4 5.44772 4.44772 5 5 5H23C23.5523 5 24 5.44772 24 6C24 6.55228 23.5523 7 23 7H5C4.44772 7 4 6.55228 4 6Z"/>
<path fill-rule="evenodd" clip-rule="evenodd" d="M4 22C4 21.4477 4.44772 21 5 21H13C13.5523 21 14 21.4477 14 22C14 22.5523 13.5523 23 13 23H5C4.44772 23 4 22.5523 4 22Z"/>
<path fill-rule="evenodd" clip-rule="evenodd" d="M4 14C4 13.4477 4.44772 13 5 13H23C23.5523 13 24 13.4477 24 14C24 14.5523 23.5523 15 23 15H5C4.44772 15 4 14.5523 4 14Z"/>
</svg>
