<svg width="28" height="28" viewBox="0 0 28 28" fill="none" xmlns="http://www.w3.org/2000/svg">
<path fill-rule="evenodd" clip-rule="evenodd" d="M9.00022 2.5C9.27636 2.5 9.50022 2.72386 9.50022 3V4.5014H18.4998V3C18.4998 2.72386 18.7237 2.5 18.9998 2.5C19.2759 2.5 19.4998 2.72386 19.4998 3V4.5014H22.9972C23.8254 4.5014 24.4954 5.17164 24.4954 5.9998V9.93449C24.4984 9.95676 24.5 9.9795 24.5 10.0026C24.5 10.0257 24.4984 10.0484 24.4954 10.0707V23.0016C24.4954 23.8298 23.8254 24.5 22.9972 24.5H4.9982C4.16996 24.5 3.5 23.8298 3.5 23.0016V5.9998C3.5 5.17164 4.16996 4.5014 4.9982 4.5014H8.50022V3C8.50022 2.72386 8.72407 2.5 9.00022 2.5ZM8.50022 5.5014H4.9982C4.72244 5.5014 4.5 5.72374 4.5 5.9998V9.5026H23.4954V5.9998C23.4954 5.72374 23.273 5.5014 22.9972 5.5014H19.4998V7C19.4998 7.27614 19.2759 7.5 18.9998 7.5C18.7237 7.5 18.4998 7.27614 18.4998 7V5.5014H9.50022V7C9.50022 7.27614 9.27636 7.5 9.00022 7.5C8.72407 7.5 8.50022 7.27614 8.50022 7V5.5014ZM23.4954 10.5026H4.5V23.0016C4.5 23.2777 4.72244 23.5 4.9982 23.5H22.9972C23.273 23.5 23.4954 23.2777 23.4954 23.0016V10.5026Z"/>
</svg>
