<svg xmlns="http://www.w3.org/2000/svg" viewBox="0 0 640 640"><!--!Font Awesome Pro v7.0.0 by @fontawesome - https://fontawesome.com License - https://fontawesome.com/license (Commercial License) Copyright 2025 Fonticons, Inc.--><path d="M416 96L458.7 160L576 160L576 544L64 544L64 160L181.3 160L224 96L416 96zM458.7 208L433 208C425.9 197.3 411.6 176 390.3 144L249.7 144C228.4 176 214.2 197.3 207 208L112 208L112 496L528 496L528 208L458.7 208zM320 224C381.9 224 432 274.1 432 336C432 397.9 381.9 448 320 448C258.1 448 208 397.9 208 336C208 274.1 258.1 224 320 224zM384 336C384 300.7 355.3 272 320 272C284.7 272 256 300.7 256 336C256 371.3 284.7 400 320 400C355.3 400 384 371.3 384 336z"/></svg>
