<svg width="28" height="28" viewBox="0 0 28 28" fill="currentColor" xmlns="http://www.w3.org/2000/svg">
<path fill-rule="evenodd" clip-rule="evenodd" d="M14 3C7.92487 3 3 7.92487 3 14C3 20.0751 7.92487 25 14 25C20.0751 25 25 20.0751 25 14C25 7.92487 20.0751 3 14 3ZM1 14C1 6.8203 6.8203 1 14 1C21.1797 1 27 6.8203 27 14C27 21.1797 21.1797 27 14 27C6.8203 27 1 21.1797 1 14ZM20.0035 9.25787C20.4134 9.62806 20.4455 10.2604 20.0754 10.6703L13.062 18.435C12.7 18.8358 12.0851 18.8767 11.6732 18.5274L8.01983 15.4293C7.5986 15.0721 7.5467 14.4411 7.9039 14.0199C8.2611 13.5987 8.89213 13.5467 9.31335 13.9039L12.2275 16.3751L18.5912 9.32968C18.9613 8.91983 19.5937 8.88768 20.0035 9.25787Z"/>
</svg>
