<svg width="28" height="28" viewBox="0 0 28 28" fill="none" xmlns="http://www.w3.org/2000/svg">
<path fill-rule="evenodd" clip-rule="evenodd" d="M14 7C10.134 7 7 10.134 7 14C7 17.866 10.134 21 14 21C17.866 21 21 17.866 21 14C21 10.134 17.866 7 14 7ZM6 14C6 9.58172 9.58172 6 14 6C18.4183 6 22 9.58172 22 14C22 18.4183 18.4183 22 14 22C9.58172 22 6 18.4183 6 14ZM17.6684 11.1289C17.8734 11.314 17.8894 11.6302 17.7043 11.8351L13.321 16.6881C13.14 16.8885 12.8325 16.9089 12.6266 16.7343L10.3432 14.798C10.1326 14.6194 10.1067 14.3039 10.2853 14.0933C10.4639 13.8827 10.7794 13.8567 10.99 14.0353L12.9037 15.6582L16.9622 11.1648C17.1473 10.9599 17.4635 10.9438 17.6684 11.1289Z"/>
</svg>
