<?xml version="1.0" encoding="utf-8"?>
<svg version="1.1" aria-hidden="true" focusable="false" xmlns="http://www.w3.org/2000/svg"
	xmlns:xlink="http://www.w3.org/1999/xlink"
	x="0px" y="0px" viewBox="0 0 512 512" style="enable-background:new 0 0 512 512;"
	xml:space="preserve">
<path d="M431.9,236.3c-20.8,0-39.6,8.3-53.5,21.7L228.6,108c3.4-8.7,5.3-18.1,5.3-27.9c0-42.5-34.4-76.9-76.9-76.9
	S80.1,37.6,80.1,80.1c0,31.7,19.2,59,46.6,70.7L83.5,355.4c-1.1,0-2.3-0.1-3.4-0.1c-42.5,0-76.9,34.4-76.9,76.9S37.6,509,80.1,509
	c41.3,0,74.9-32.5,76.8-73.3l214.4-75.4c14.1,18.1,36,29.7,60.7,29.7c42.5,0,76.9-34.4,76.9-76.9S474.4,236.3,431.9,236.3z
	 M156.9,38c23.2,0,42,18.8,42,42s-18.8,42-42,42s-42-18.8-42-42S133.7,38,156.9,38z M80.1,474.2c-23.2,0-42-18.8-42-42
	s18.8-42,42-42s42,18.8,42,42S103.3,474.2,80.1,474.2z M150.7,401.8c-6.9-16.1-19.1-29.3-34.4-37.5l43.9-207.5
	c18.8-0.8,35.9-8.3,48.9-20.3l150.5,150.5c-2.9,8.1-4.5,16.9-4.5,26c0,5.6,0.6,11,1.7,16.2L150.7,401.8z M431.9,355.2
	c-23.2,0-42-18.8-42-42s18.8-42,42-42s42,18.8,42,42S455.2,355.2,431.9,355.2z"/>
</svg>
