<svg width="28" height="28" viewBox="0 0 28 28" fill="none" xmlns="http://www.w3.org/2000/svg">
<path d="M14 8.5C14 8.22386 13.7761 8 13.5 8C13.2239 8 13 8.22386 13 8.5V13.4511C13 13.9639 13.262 14.4412 13.6947 14.7165L18.7316 17.9218C18.9645 18.0701 19.2736 18.0014 19.4218 17.7684C19.5701 17.5355 19.5014 17.2264 19.2684 17.0782L14.2316 13.8729C14.0873 13.7811 14 13.622 14 13.4511V8.5Z"/>
<path fill-rule="evenodd" clip-rule="evenodd" d="M14 2C7.32386 2 2 7.32386 2 14C2 20.6761 7.32386 26 14 26C20.6761 26 26 20.6761 26 14C26 7.32386 20.6761 2 14 2ZM3 14C3 7.87614 7.87614 3 14 3C20.1239 3 25 7.87614 25 14C25 20.1239 20.1239 25 14 25C7.87614 25 3 20.1239 3 14Z"/>
</svg>
