<svg xmlns="http://www.w3.org/2000/svg" viewBox="0 0 640 640"><!--!Font Awesome Pro 7.2.0 by @fontawesome - https://fontawesome.com License - https://fontawesome.com/license (Commercial License) Copyright 2026 Fonticons, Inc.--><path d="M112 528L368 528L368 464L416 464L416 576L64 576L64 224L176 224L176 272L112 272L112 528zM528 368L528 112L272 112L272 368L528 368zM272 416L224 416L224 64L576 64L576 416L272 416zM376 320L376 264L320 264L320 216L376 216L376 160L424 160L424 216L480 216L480 264L424 264L424 320L376 320z"/></svg>
