<svg width="28" height="28" viewBox="0 0 28 28" fill="none" xmlns="http://www.w3.org/2000/svg">
<path fill-rule="evenodd" clip-rule="evenodd" d="M13.211 7.02701L12.8804 7.89031C12.7562 8.42063 12.3409 8.7984 11.8907 8.97924C11.4233 9.16704 10.9419 9.16704 10.4745 8.97924C10.4616 8.97406 10.4489 8.96834 10.4365 8.96211L9.6167 8.55042C9.34536 8.43968 8.99194 8.50302 8.68613 8.75897C8.48182 8.92998 8.40136 9.29947 8.54445 9.64091L8.95867 10.5423C8.96228 10.5502 8.96567 10.5581 8.96886 10.5661C9.15531 11.0342 9.15531 11.516 8.96886 11.9841C8.96375 11.997 8.95811 12.0096 8.95195 12.022C8.76068 12.4062 8.39203 12.7744 7.92552 12.9618C7.9128 12.9669 7.89986 12.9715 7.88676 12.9755L7.01085 13.2462C6.7093 13.3859 6.5 13.6941 6.5 14.0349C6.5 14.381 6.71576 14.6934 7.02477 14.83L7.8839 15.1618C8.41391 15.2872 8.78952 15.7053 8.96886 16.1556C9.15531 16.6238 9.15531 17.1055 8.96886 17.5736C8.96375 17.5865 8.95811 17.5991 8.95195 17.6115L8.54198 18.435C8.43053 18.7102 8.49489 19.0676 8.75001 19.3751C8.91982 19.5797 9.28508 19.6597 9.62275 19.5169L10.5202 19.101C10.528 19.0973 10.536 19.0939 10.544 19.0906C11.0115 18.9028 11.4929 18.9028 11.9603 19.0906C11.9732 19.0958 11.9859 19.1015 11.9983 19.1078C12.3808 19.2998 12.7461 19.6689 12.9327 20.1346L13.2782 20.9674C13.4136 21.2826 13.7263 21.5 14.0696 21.5C14.4057 21.5 14.7125 21.2916 14.8523 20.9869L15.1154 20.1283C15.2341 19.5882 15.6539 19.2037 16.1093 19.0208C16.5767 18.833 17.0581 18.833 17.5255 19.0208C17.5384 19.0259 17.5511 19.0317 17.5635 19.0379L18.3838 19.4498C18.6931 19.5781 19.0219 19.5313 19.2805 19.2717C19.2911 19.261 19.3023 19.2507 19.3139 19.241C19.5169 19.0711 19.5976 18.7052 19.4582 18.3655L19.048 17.5416C19.0419 17.5292 19.0362 17.5166 19.0311 17.5038C18.8447 17.0356 18.8447 16.5539 19.0311 16.0857C19.0362 16.0729 19.0419 16.0603 19.048 16.0479C19.2393 15.6637 19.608 15.2955 20.0745 15.1081L20.0807 15.1056L20.9752 14.7601C21.2842 14.6235 21.5 14.3112 21.5 13.9651C21.5 13.6242 21.2907 13.3161 20.9892 13.1763L20.1348 12.9123C19.5949 12.7925 19.2126 12.3699 19.0311 11.9143C18.8447 11.4461 18.8447 10.9644 19.0311 10.4962C19.0362 10.4834 19.0419 10.4708 19.048 10.4584L19.4583 9.6344C19.5871 9.32129 19.5396 8.98857 19.2805 8.72833C19.2698 8.71762 19.2596 8.70644 19.25 8.69481C19.0802 8.49016 18.7149 8.4102 18.3773 8.55291L17.4798 8.96891C17.472 8.97256 17.464 8.97601 17.456 8.97924C16.9885 9.16704 16.5071 9.16704 16.0397 8.97924C16.0268 8.97406 16.0141 8.96834 16.0017 8.96211C15.6183 8.76955 15.2521 8.3991 15.0659 7.93172C15.0609 7.91907 15.0564 7.90621 15.0524 7.89318L14.7828 7.01312C14.643 6.70844 14.3361 6.5 14 6.5C13.6588 6.5 13.3478 6.7148 13.211 7.02701ZM12.2879 6.64219C12.5703 5.98038 13.231 5.5 14 5.5C14.769 5.5 15.4297 5.98038 15.7121 6.64219C15.719 6.65845 15.7251 6.67507 15.7302 6.69197L16.0018 7.57851C16.093 7.79435 16.2688 7.97096 16.4328 8.05925C16.6498 8.14154 16.8548 8.14035 17.0722 8.05568L17.9762 7.63663C18.6048 7.36602 19.478 7.42255 20.0046 8.03851C20.5631 8.61176 20.6526 9.38352 20.3729 10.039C20.3691 10.048 20.365 10.0569 20.3606 10.0656L19.9533 10.8838C19.8684 11.1078 19.8707 11.3196 19.9602 11.5443C20.0539 11.7796 20.2181 11.9094 20.3593 11.9377C20.3759 11.9411 20.3923 11.9452 20.4085 11.9502L21.3128 12.2297C21.3298 12.235 21.3466 12.2411 21.3629 12.2482C22.0237 12.5326 22.5 13.1961 22.5 13.9651C22.5 14.734 22.0237 15.3975 21.3629 15.682C21.3571 15.6845 21.3513 15.6868 21.3454 15.6891L20.4445 16.0371C20.2243 16.1265 20.0425 16.3068 19.9524 16.4759C19.8706 16.6931 19.871 16.8989 19.9533 17.1162L20.3606 17.9344C20.365 17.9431 20.3691 17.952 20.3729 17.961C20.6414 18.5901 20.5861 19.4644 19.9734 19.9928C19.4021 20.5543 18.6313 20.6451 17.9762 20.3632C17.9672 20.3593 17.9583 20.3552 17.9495 20.3508L17.1351 19.9418C16.9135 19.8571 16.7044 19.8594 16.482 19.9487C16.2494 20.0421 16.1191 20.2067 16.0904 20.3509C16.0871 20.3674 16.083 20.3837 16.0781 20.3997L15.7998 21.308C15.7946 21.3249 15.7886 21.3415 15.7816 21.3578C15.4992 22.0196 14.8386 22.5 14.0696 22.5C13.3005 22.5 12.6399 22.0196 12.3575 21.3578L12.3555 21.3532L12.005 20.5082C11.916 20.2847 11.7354 20.1012 11.5672 20.0106C11.3502 19.9283 11.1452 19.9295 10.9278 20.0142L10.0238 20.4332C9.38917 20.7064 8.50532 20.6462 7.98042 20.0136C7.54352 19.487 7.32778 18.7322 7.62707 18.0308C7.63091 18.0219 7.635 18.013 7.63935 18.0042L8.04666 17.1861C8.13159 16.962 8.12931 16.7503 8.03983 16.5256C7.9461 16.2903 7.78186 16.1605 7.64066 16.1321C7.6128 16.1265 7.58547 16.1186 7.55896 16.1083L6.65461 15.759C6.64873 15.7567 6.64289 15.7543 6.6371 15.7518C5.9763 15.4674 5.5 14.8039 5.5 14.0349C5.5 13.266 5.9763 12.6025 6.6371 12.318C6.65344 12.311 6.67015 12.3048 6.68715 12.2996L7.56959 12.0269C7.78345 11.9357 7.9594 11.7594 8.04765 11.5939C8.1302 11.3745 8.12903 11.1668 8.04413 10.947L7.6269 10.0391C7.35587 9.40394 7.41496 8.51886 8.0443 7.99212C8.56886 7.55308 9.32268 7.33503 10.0238 7.63681C10.0328 7.64069 10.0417 7.64484 10.0505 7.64925L10.8649 8.05824C11.0865 8.14295 11.2956 8.14064 11.518 8.05133C11.7506 7.95787 11.8809 7.79331 11.9096 7.64908C11.9151 7.62141 11.923 7.59426 11.9331 7.56792L12.2809 6.65962C12.2831 6.65377 12.2855 6.64796 12.2879 6.64219ZM10.3696 14.0349C10.3696 12.0141 11.9827 10.3908 14 10.3908C16.0173 10.3908 17.6304 12.0141 17.6304 14.0349C17.6304 16.0557 16.0173 17.679 14 17.679C11.9827 17.679 10.3696 16.0557 10.3696 14.0349ZM14 11.3908C12.5391 11.3908 11.3696 12.5623 11.3696 14.0349C11.3696 15.5076 12.5391 16.679 14 16.679C15.4609 16.679 16.6304 15.5076 16.6304 14.0349C16.6304 12.5623 15.4609 11.3908 14 11.3908Z"/>
</svg>
