<svg width="28" height="28" viewBox="0 0 28 28" fill="none" xmlns="http://www.w3.org/2000/svg">
<path fill-rule="evenodd" clip-rule="evenodd" d="M13.0478 3.63568L12.56 4.90938C12.3463 5.79322 11.656 6.40891 10.9293 6.70084C10.1683 7.00656 9.37949 7.00656 8.61852 6.70084C8.59272 6.69048 8.56737 6.67905 8.54253 6.66657L7.32228 6.05378C7.02096 5.9352 6.59175 5.99362 6.18966 6.33017C5.98911 6.49802 5.86387 6.92327 6.04567 7.36096L6.66517 8.70908C6.67238 8.72476 6.67917 8.74061 6.68555 8.75664C6.98887 9.51825 6.98887 10.3071 6.68555 11.0687C6.67533 11.0944 6.66404 11.1196 6.65173 11.1443C6.33876 11.773 5.74059 12.3697 4.98148 12.6746C4.95603 12.6849 4.93016 12.694 4.90395 12.7021L3.60697 13.103C3.2462 13.2768 3 13.6489 3 14.0524C3 14.4656 3.25813 14.8459 3.63309 15.014L4.90037 15.5035C5.78428 15.7194 6.39629 16.4146 6.68555 17.1409C6.98887 17.9025 6.98887 18.6914 6.68555 19.453C6.67533 19.4786 6.66404 19.5039 6.65173 19.5286L6.04142 20.7546C5.92106 21.0625 5.98171 21.4983 6.31742 21.9029C6.48363 22.1033 6.90178 22.2274 7.33298 22.0468L8.67509 21.4246C8.69083 21.4173 8.70676 21.4104 8.72286 21.404C9.48384 21.0982 10.2727 21.0982 11.0337 21.404C11.0595 21.4143 11.0848 21.4258 11.1096 21.4382C11.7354 21.7525 12.3269 22.3508 12.6305 23.1074L13.1475 24.3538C13.3141 24.7398 13.696 25 14.1043 25C14.4997 25 14.8702 24.7562 15.0446 24.3904L15.4311 23.1286C15.634 22.2244 16.3337 21.5953 17.0707 21.2992C17.8317 20.9934 18.6205 20.9934 19.3815 21.2992C19.4073 21.3095 19.4326 21.321 19.4575 21.3334L20.6795 21.9471C21.0542 22.0996 21.4347 22.0413 21.7435 21.7311C21.7649 21.7097 21.7872 21.6892 21.8103 21.6698C22.009 21.5035 22.1338 21.0846 21.9593 20.6513L21.3483 19.4238C21.336 19.3991 21.3247 19.3738 21.3144 19.3482C21.0111 18.5866 21.0111 17.7977 21.3144 17.0361C21.3247 17.0104 21.336 16.9852 21.3483 16.9605C21.6612 16.3318 22.2594 15.7351 23.0185 15.4302L23.0309 15.4252L23.031 15.4253L24.3669 14.9092C24.7419 14.7411 25 14.3608 25 13.9476C25 13.5441 24.7538 13.172 24.393 12.9982L23.1379 12.6103C22.2334 12.4054 21.6079 11.7006 21.3144 10.9639C21.0111 10.2023 21.0111 9.41344 21.3144 8.65184C21.3247 8.62616 21.336 8.60092 21.3483 8.57618L21.9594 7.34853C22.1133 6.96727 22.0535 6.5802 21.7435 6.26888C21.7222 6.24747 21.7019 6.22511 21.6826 6.20186C21.5164 6.00153 21.0982 5.87745 20.667 6.05805L19.3249 6.68019C19.3092 6.68749 19.2932 6.69437 19.2771 6.70084C18.5162 7.00656 17.7273 7.00656 16.9663 6.70084C16.9405 6.69048 16.9152 6.67905 16.8904 6.66657C16.2626 6.35132 15.6693 5.75016 15.3666 4.99008C15.3565 4.96477 15.3475 4.93906 15.3395 4.913L14.9402 3.60962C14.7659 3.24385 14.3953 3 14 3C13.5953 3 13.2167 3.25547 13.0478 3.63568ZM11.202 2.86517C11.6624 1.78608 12.7402 1 14 1C15.2598 1 16.3376 1.78608 16.798 2.86517C16.8119 2.89769 16.824 2.93092 16.8344 2.96473L17.2378 4.28166C17.3503 4.53974 17.5625 4.7535 17.7536 4.86099C18.0127 4.95568 18.2502 4.95311 18.5105 4.85328L19.8403 4.23684C19.8486 4.23297 19.857 4.22922 19.8655 4.22558C20.8797 3.78902 22.3129 3.86727 23.1917 4.88916C24.1001 5.82614 24.2444 7.0901 23.7893 8.15666C23.7817 8.17463 23.7735 8.19236 23.7648 8.20985L23.1596 9.42553C23.0586 9.69871 23.0629 9.94874 23.1725 10.2239C23.2904 10.5199 23.4798 10.6397 23.5882 10.6615C23.6214 10.6682 23.6542 10.6765 23.6866 10.6865L25.0431 11.1057C25.0771 11.1162 25.1105 11.1285 25.1432 11.1426C26.2213 11.6067 27 12.6892 27 13.9476C27 15.206 26.2213 16.2885 25.1432 16.7526C25.1316 16.7576 25.1199 16.7623 25.1082 16.7669L23.7589 17.2881C23.4922 17.3969 23.2681 17.6176 23.1567 17.8175C23.0628 18.0765 23.0637 18.3151 23.1596 18.5745L23.7648 19.7901C23.7735 19.8076 23.7817 19.8254 23.7893 19.8433C24.2221 20.8574 24.1458 22.2916 23.1295 23.1733C22.1955 24.0867 20.9322 24.2336 19.8655 23.7744C19.8475 23.7666 19.8296 23.7584 19.8121 23.7495L18.6021 23.1419C18.333 23.0417 18.0875 23.046 17.8163 23.155C17.5249 23.272 17.4034 23.4614 17.3807 23.5752C17.3742 23.6081 17.366 23.6407 17.3561 23.6728L16.9387 25.0353C16.9284 25.0691 16.9162 25.1023 16.9024 25.1348C16.4419 26.2139 15.3642 27 14.1043 27C12.8445 27 11.7668 26.2139 11.3063 25.1348L11.3024 25.1256L11.3024 25.1255L10.7807 23.8679L10.7753 23.8547C10.6669 23.5825 10.4452 23.3557 10.2464 23.2438C9.98734 23.1491 9.74977 23.1517 9.48951 23.2515L8.1597 23.868C8.15135 23.8718 8.14295 23.8756 8.1345 23.8792C7.10863 24.3208 5.65411 24.2357 4.77824 23.18C4.07835 22.3365 3.71642 21.1064 4.21067 19.9481C4.21834 19.9302 4.22653 19.9124 4.23523 19.895L4.84043 18.6793C4.94138 18.4061 4.93707 18.1561 4.82749 17.8809C4.70959 17.5849 4.52025 17.4651 4.41176 17.4433C4.35603 17.4321 4.30137 17.4162 4.24835 17.3957L2.89183 16.8717C2.88007 16.8671 2.86839 16.8624 2.8568 16.8574C1.77869 16.3933 1 15.3108 1 14.0524C1 12.794 1.77869 11.7115 2.8568 11.2474C2.88949 11.2333 2.92291 11.221 2.95692 11.2105L4.26756 10.8055C4.52261 10.6932 4.73562 10.4806 4.84326 10.2873C4.93877 10.0241 4.93624 9.78197 4.83567 9.51764L4.22178 8.18175C4.21796 8.17344 4.21426 8.16507 4.21067 8.15666C3.77296 7.13087 3.85601 5.67528 4.906 4.79647C5.74642 4.09306 6.9758 3.72683 8.1345 4.22558C8.15254 4.23335 8.17035 4.24164 8.1879 4.25046L9.39789 4.85809C9.66703 4.95832 9.91254 4.95396 10.1837 4.84501C10.4751 4.72797 10.5966 4.53858 10.6193 4.42479C10.6303 4.36946 10.646 4.31516 10.6661 4.26247L11.1879 2.90002C11.1924 2.88832 11.1971 2.8767 11.202 2.86517ZM8.30435 14.0524C8.30435 10.8841 10.8349 8.33624 14 8.33624C17.1651 8.33624 19.6957 10.8841 19.6957 14.0524C19.6957 17.2207 17.1651 19.7686 14 19.7686C10.8349 19.7686 8.30435 17.2207 8.30435 14.0524ZM14 10.3362C11.9477 10.3362 10.3043 11.9805 10.3043 14.0524C10.3043 16.1243 11.9477 17.7686 14 17.7686C16.0523 17.7686 17.6957 16.1243 17.6957 14.0524C17.6957 11.9805 16.0523 10.3362 14 10.3362Z"/>
</svg>
