<svg xmlns="http://www.w3.org/2000/svg" viewBox="0 0 512 512"><!--!Font Awesome Free 6.5.2 by @fontawesome - https://fontawesome.com License - https://fontawesome.com/license/free Copyright 2024 Fonticons, Inc.--><path d="M510.5 255.8c-70-.9-126.5-57.7-126.5-127.9-70.2 0-127-56.5-127.9-126.5-27.3-4.1-55.1 .3-79.7 12.8l-69.1 35.2a132.2 132.2 0 0 0 -57.8 57.8l-35.1 68.9a132.6 132.6 0 0 0 -12.8 81l12.1 76.3a132.5 132.5 0 0 0 37.2 73l54.8 54.8a132 132 0 0 0 72.7 37.1l76.7 12.2c27.5 4.4 55.7-.1 80.5-12.8l69.1-35.2a132.3 132.3 0 0 0 57.8-57.8l35.1-68.9c12.6-24.6 17-52.6 12.9-79.9zM176 368c-17.7 0-32-14.3-32-32s14.3-32 32-32 32 14.3 32 32-14.3 32-32 32zm32-160c-17.7 0-32-14.3-32-32s14.3-32 32-32 32 14.3 32 32-14.3 32-32 32zm160 128c-17.7 0-32-14.3-32-32s14.3-32 32-32 32 14.3 32 32-14.3 32-32 32z"/></svg>