<svg width="28" height="28" viewBox="0 0 28 28" fill="currentColor" xmlns="http://www.w3.org/2000/svg">
<path d="M4 19C4 18.4477 4.44772 18 5 18H8C8.55228 18 9 18.4477 9 19C9 19.5523 8.55228 20 8 20H5C4.44772 20 4 19.5523 4 19Z"/>
<path d="M12 18C11.4477 18 11 18.4477 11 19C11 19.5523 11.4477 20 12 20H14C14.5523 20 15 19.5523 15 19C15 18.4477 14.5523 18 14 18H12Z"/>
<path fill-rule="evenodd" clip-rule="evenodd" d="M3.5 4C1.567 4 0 5.567 0 7.5V20.5C0 22.433 1.567 24 3.5 24H24.5C26.433 24 28 22.433 28 20.5V7.5C28 5.567 26.433 4 24.5 4H3.5ZM2 7.5C2 6.67157 2.67157 6 3.5 6H24.5C25.3284 6 26 6.67157 26 7.5V9H2V7.5ZM2 13V20.5C2 21.3284 2.67157 22 3.5 22H24.5C25.3284 22 26 21.3284 26 20.5V13H2Z"/>
</svg>
