<svg width="28" height="28" viewBox="0 0 28 28" xmlns="http://www.w3.org/2000/svg">
<path d="M0 7.5C0 5.567 1.567 4 3.5 4H24.5C26.433 4 28 5.567 28 7.5V9H0V7.5Z"/>
<path fill-rule="evenodd" clip-rule="evenodd" d="M0 13H28V20.5C28 22.433 26.433 24 24.5 24H3.5C1.567 24 0 22.433 0 20.5V13ZM4 19C4 18.4477 4.44772 18 5 18H8C8.55228 18 9 18.4477 9 19C9 19.5523 8.55228 20 8 20H5C4.44772 20 4 19.5523 4 19ZM11 19C11 18.4477 11.4477 18 12 18H14C14.5523 18 15 18.4477 15 19C15 19.5523 14.5523 20 14 20H12C11.4477 20 11 19.5523 11 19Z"/>
</svg>
