<?xml version="1.0" encoding="utf-8"?>
<svg version="1.1" id="Lag_1" focusable="false" xmlns="http://www.w3.org/2000/svg" xmlns:xlink="http://www.w3.org/1999/xlink"
	 x="0px" y="0px" viewBox="0 0 512 512" style="enable-background:new 0 0 512 512;" xml:space="preserve">
<path d="M256,8C119,8,8,119,8,256s111,248,248,248s248-111,248-248S393,8,256,8z M256,472c-118.7,0-216-96.1-216-216
	c0-118.7,96.1-216,216-216c118.7,0,216,96.1,216,216C472,374.7,375.9,472,256,472z M256,176c-44.2,0-80,35.8-80,80s35.8,80,80,80
	s80-35.8,80-80S300.2,176,256,176z"/>
</svg>
