<svg width="28" height="28" viewBox="0 0 28 28" fill="none" xmlns="http://www.w3.org/2000/svg">
<path fill-rule="evenodd" clip-rule="evenodd" d="M17.4314 4.82055C18.5254 3.72648 20.2993 3.72648 21.3934 4.82055L23.3494 6.77665C24.4435 7.87072 24.4435 9.64456 23.3494 10.7386L11.9181 22.17H19.4124C19.9646 22.17 20.4124 22.6177 20.4124 23.17C20.4124 23.7223 19.9646 24.17 19.4124 24.17H5.90077C4.851 24.17 4 23.319 4 22.2692V19.0392C4 18.5351 4.20026 18.0517 4.55672 17.6952L17.4314 4.82055ZM9.08965 22.17L18.8989 12.3607L15.8093 9.27108L6 19.0804V22.17H9.08965ZM17.2235 7.85687L20.3131 10.9465L21.9352 9.32442C22.2483 9.01139 22.2483 8.50389 21.9352 8.19086L19.9791 6.23477C19.6661 5.92175 19.1586 5.92174 18.8456 6.23477L17.2235 7.85687Z"/>
</svg>
