<svg width="28" height="28" viewBox="0 0 28 28" xmlns="http://www.w3.org/2000/svg">
<path fill-rule="evenodd" clip-rule="evenodd" d="M4.82062 22.8271C3.48616 21.4503 2.65683 19.7115 2.52007 18.1143C2.50701 18.0697 2.5 18.0225 2.5 17.9736V3.9967C2.5 2.61766 3.61766 1.5 4.9967 1.5C6.37574 1.5 7.49341 2.61766 7.49341 3.9967V8.98538C7.91044 8.6726 8.42861 8.4873 8.9901 8.4873C9.80723 8.4873 10.5326 8.87971 10.988 9.48638C11.4435 8.87971 12.1688 8.4873 12.986 8.4873C13.5464 8.4873 14.0636 8.67188 14.4802 8.98356V5.99341C14.4802 4.61437 15.5979 3.4967 16.9769 3.4967C18.356 3.4967 19.4736 4.61437 19.4736 5.99341V14.4788C19.4736 14.755 19.2498 14.9788 18.9736 14.9788C18.6975 14.9788 18.4736 14.755 18.4736 14.4788V5.99341C18.4736 5.16665 17.8037 4.4967 16.9769 4.4967C16.1502 4.4967 15.4802 5.16665 15.4802 5.99341V10.8726C15.4818 10.9096 15.4827 10.9467 15.4827 10.984V14.4788C15.4827 15.2607 15.115 15.9988 14.4914 16.47C13.9978 16.8431 13.3874 17.0162 12.7811 16.9667C12.3979 17.8533 11.5156 18.4736 10.4882 18.4736H9.81998C10.8369 19.2974 11.4868 20.5562 11.4868 21.967C11.4868 22.2432 11.263 22.467 10.9868 22.467C10.7107 22.467 10.4868 22.2432 10.4868 21.967C10.4868 20.0374 8.92306 18.4736 6.99341 18.4736C6.71726 18.4736 6.49341 18.2498 6.49341 17.9736C6.49341 17.6975 6.71726 17.4736 6.99341 17.4736H10.4882C11.315 17.4736 11.9849 16.8037 11.9849 15.9769C11.9849 15.1502 11.315 14.4802 10.4882 14.4802H6.96583C6.22106 14.4802 5.49411 14.7158 4.88994 15.1528L4.87833 15.1609C4.04786 15.7264 3.53627 16.6553 3.50001 17.6604C3.50287 19.0687 4.22158 20.7722 5.5387 22.1312C6.84907 23.4832 8.72067 24.4609 10.9868 24.4609C11.2577 24.4609 11.5276 24.4459 11.799 24.4177C12.0737 24.3891 12.3195 24.5886 12.3481 24.8633C12.3766 25.1379 12.1771 25.3837 11.9025 25.4123C11.5994 25.4438 11.2949 25.4609 10.9868 25.4609C8.41629 25.4609 6.29449 24.3478 4.82062 22.8271ZM4.9967 2.5C4.16995 2.5 3.5 3.16995 3.5 3.9967V15.0642C3.73431 14.7908 4.00563 14.5461 4.3096 14.3384C4.95446 13.8735 5.70811 13.5872 6.49341 13.5049V10.9854L6.49341 10.984V3.9967C6.49341 3.16995 5.82346 2.5 4.9967 2.5ZM12.9849 15.975C13.3076 15.9749 13.6258 15.8708 13.8885 15.6723C14.2621 15.3899 14.4827 14.947 14.4827 14.4788V11.0337C14.4811 11.0174 14.4802 11.0008 14.4802 10.984V10.8978C14.4356 10.1112 13.7838 9.4873 12.986 9.4873C12.1592 9.4873 11.4893 10.1573 11.4893 10.984V13.689C12.3693 14.0745 12.9841 14.9528 12.9849 15.975ZM10.4893 13.4802V11.0339C10.4876 11.0175 10.4868 11.0008 10.4868 10.984C10.4868 10.1573 9.81685 9.4873 8.9901 9.4873C8.16336 9.4873 7.49341 10.1573 7.49341 10.984V13.4802H10.4893Z"/>
<path d="M18.6339 20.0996C18.888 19.9915 19.0064 19.6979 18.8983 19.4438C18.7902 19.1897 18.4966 19.0713 18.2425 19.1794L16.5031 19.9192C16.249 20.0273 16.1307 20.3209 16.2388 20.575C16.3468 20.8292 16.6405 20.9475 16.8946 20.8394L18.6339 20.0996Z"/>
<path d="M19.6842 21.0315C19.7923 21.2856 19.6739 21.5792 19.4198 21.6873L17.6805 22.4271C17.4264 22.5352 17.1327 22.4169 17.0246 22.1628C16.9166 21.9086 17.0349 21.615 17.289 21.5069L19.0284 20.7671C19.2825 20.659 19.5761 20.7774 19.6842 21.0315Z"/>
<path fill-rule="evenodd" clip-rule="evenodd" d="M22.7687 14.9922C23.4651 14.6484 24.3135 14.9247 24.6741 15.6143C24.6805 15.6265 24.6863 15.639 24.6917 15.6517L24.8525 16.0331C25.031 16.4588 24.896 16.9596 24.5161 17.2329C24.5092 17.2379 24.5022 17.2427 24.495 17.2473C24.1734 17.4547 24.034 17.8489 24.1501 18.2073C24.3266 18.538 24.7058 18.7112 25.0744 18.6243C25.0831 18.6223 25.0918 18.6205 25.1006 18.6189C25.5609 18.536 26.0167 18.7843 26.1969 19.216L26.3571 19.5935C26.3625 19.6062 26.3673 19.619 26.3716 19.632C26.6163 20.3731 26.2259 21.17 25.4947 21.4337L16.3348 25.3322C15.6372 25.6766 14.7927 25.3983 14.4303 24.7118C14.4235 24.6991 14.4173 24.686 14.4117 24.6727L14.2498 24.2886C14.0727 23.8619 14.2072 23.3649 14.5873 23.0914C14.601 23.0816 14.6153 23.0724 14.6299 23.064C14.9576 22.8753 15.0926 22.4739 14.945 22.125C14.7975 21.7763 14.415 21.5932 14.0509 21.6966C14.0351 21.7011 14.0191 21.7049 14.0029 21.7078C13.5423 21.7907 13.0864 21.5422 12.9063 21.1101L12.7459 20.7298C12.7407 20.7175 12.736 20.705 12.7318 20.6923C12.4878 19.9532 12.8757 19.1522 13.6096 18.8903L22.7687 14.9922ZM23.7798 16.0629C23.6657 15.8637 23.4113 15.7868 23.2059 15.8915C23.1956 15.8968 23.1852 15.9017 23.1745 15.9062L20.3193 17.1214L22.3871 21.6695L25.1174 20.5075C25.128 20.5029 25.1388 20.4988 25.1497 20.495C25.3713 20.4184 25.4913 20.184 25.427 19.9616L25.2757 19.605C24.4537 19.7851 23.6121 19.3806 23.24 18.6239C23.2319 18.6074 23.2247 18.5903 23.2184 18.573C22.9305 17.7749 23.2286 16.8887 23.9307 16.4215L23.7798 16.0629ZM13.986 19.8169L19.3989 17.5132L21.4667 22.0612L15.9289 24.4181C15.9183 24.4227 15.9078 24.4276 15.8975 24.4328C15.6936 24.5368 15.44 24.4621 15.3232 24.2605L15.1734 23.9054L15.173 23.9043C15.9068 23.4531 16.2035 22.5334 15.866 21.7355C15.5285 20.9375 14.6616 20.5104 13.8276 20.7213L13.6766 20.3632C13.6115 20.1391 13.7334 19.9045 13.9517 19.83C13.9633 19.8261 13.9748 19.8217 13.986 19.8169Z"/>
<path d="M24.7288 4.55266C24.8913 4.46562 25.0885 4.47505 25.2419 4.57719L27.489 6.07297C27.7189 6.22598 27.7812 6.53637 27.6282 6.76624C27.4752 6.99612 27.1648 7.05842 26.9349 6.90541L25.4648 5.92687V9.4842C25.4648 9.50725 25.4633 9.52995 25.4603 9.55218C25.4261 10.6216 24.5479 11.4834 23.4655 11.4834C22.3615 11.4834 21.4697 10.5867 21.4697 9.4876C21.4697 8.3885 22.3615 7.49182 23.4655 7.49182C23.8292 7.49182 24.1707 7.58944 24.4648 7.76007V4.99341C24.4648 4.80907 24.5663 4.63969 24.7288 4.55266Z"/>
</svg>
