<svg width="28" height="28" viewBox="0 0 28 28" fill="none" xmlns="http://www.w3.org/2000/svg">
<path d="M17.2 5.5C16.9239 5.5 16.7 5.72386 16.7 6C16.7 6.27614 16.9239 6.5 17.2 6.5H20.7929L13.6464 13.6464C13.4512 13.8417 13.4512 14.1583 13.6464 14.3536C13.8417 14.5488 14.1583 14.5488 14.3536 14.3536L21.5 7.20711V10.8C21.5 11.0761 21.7239 11.3 22 11.3C22.2761 11.3 22.5 11.0761 22.5 10.8V5.5H17.2Z"/>
<path d="M6.5 9.59998C6.5 8.77155 7.17157 8.09998 8 8.09998H14.4C14.6761 8.09998 14.9 7.87612 14.9 7.59998C14.9 7.32383 14.6761 7.09998 14.4 7.09998H8C6.61929 7.09998 5.5 8.21927 5.5 9.59998V20C5.5 21.3807 6.61929 22.5 8 22.5H18.4C19.7807 22.5 20.9 21.3807 20.9 20V13.6C20.9 13.3238 20.6761 13.1 20.4 13.1C20.1239 13.1 19.9 13.3238 19.9 13.6V20C19.9 20.8284 19.2284 21.5 18.4 21.5H8C7.17157 21.5 6.5 20.8284 6.5 20V9.59998Z"/>
</svg>
