<svg width="56" height="56" viewBox="0 0 56 56" fill="currentColor" xmlns="http://www.w3.org/2000/svg">
<path fill-rule="evenodd" clip-rule="evenodd" d="M4.31579 4.31579C4.14123 4.49036 4 4.77663 4 5.2134V35.201H7.56811C7.6932 33.3941 8.15671 31.5985 8.94774 29.8187C8.95389 29.8049 8.96035 29.7912 8.96712 29.7776C9.57626 28.5594 10.9775 27.6636 12.5599 26.914C14.1955 26.1393 16.292 25.4043 18.6058 24.6329C18.6228 24.618 18.6723 24.5645 18.7326 24.4159C18.8285 24.1793 18.8935 23.8303 18.9053 23.4177C18.9168 23.0126 18.8754 22.6057 18.8017 22.2807C18.7449 22.0303 18.6866 21.9058 18.6666 21.8633C18.6563 21.8413 18.6563 21.8412 18.6721 21.857C18.6582 21.8432 18.6448 21.8289 18.6318 21.8143C16.7019 19.6432 15.7115 16.9579 15.9445 14.0255C15.9515 12.0911 16.4469 10.3131 17.7256 8.77868C19.0406 7.20072 20.8829 6.42681 22.9206 6.42681C25.0319 6.42681 26.8213 7.47853 28.0545 8.71176C28.0759 8.73313 28.0963 8.75546 28.1157 8.77868C29.384 10.3007 29.9043 12.0932 29.6801 14.087C29.8879 16.9118 28.9637 19.7637 27.0642 21.7384C27.043 21.8029 26.9971 21.9537 26.955 22.2171C26.8992 22.5665 26.8686 22.9952 26.8806 23.4177C26.893 23.8487 26.9483 24.2189 27.0338 24.4754C27.0698 24.5836 27.101 24.6432 27.1193 24.6726C27.8239 24.9405 28.5183 25.1968 29.1901 25.4448C30.6581 25.9867 32.0188 26.489 33.1459 26.9857C33.9866 27.3562 34.7509 27.7456 35.3762 28.1782C35.9961 28.607 36.5476 29.1245 36.8741 29.7776C36.8809 29.7912 36.8874 29.8049 36.8935 29.8187C37.6845 31.5985 38.148 33.3941 38.2731 35.201H41.8412V5.2134C41.8412 4.77663 41.7 4.49036 41.5255 4.31579C41.3509 4.14123 41.0646 4 40.6278 4H5.2134C4.77663 4 4.49036 4.14123 4.31579 4.31579ZM43.8412 5.2134C43.8412 4.32213 43.5398 3.5017 42.9397 2.90158C42.3395 2.30145 41.5191 2 40.6278 2H5.2134C4.32213 2 3.5017 2.30145 2.90158 2.90158C2.30145 3.5017 2 4.32213 2 5.2134V40.6278C2 41.5191 2.30145 42.3395 2.90158 42.9397C3.5017 43.5398 4.32213 43.8412 5.2134 43.8412H40.6278C41.5191 43.8412 42.3395 43.5398 42.9397 42.9397C43.5398 42.3395 43.8412 41.5191 43.8412 40.6278V5.2134ZM41.8412 37.201H4V40.6278C4 41.0646 4.14123 41.3509 4.31579 41.5255C4.49036 41.7 4.77663 41.8412 5.2134 41.8412H40.6278C41.0646 41.8412 41.3509 41.7 41.5255 41.5255C41.7 41.3509 41.8412 41.0646 41.8412 40.6278V37.201ZM36.2676 35.201C36.1468 33.6977 35.7531 32.1836 35.0765 30.6549C34.9567 30.4258 34.7065 30.1468 34.2383 29.8229C33.7639 29.4947 33.131 29.1647 32.3393 28.8159C31.2687 28.3441 30.005 27.8777 28.5759 27.3503C27.8661 27.0884 27.1155 26.8114 26.3274 26.5112L26.312 26.5052C25.6187 26.2279 25.2938 25.58 25.1364 25.1079C24.966 24.5966 24.8968 24.0123 24.8815 23.4749C24.8659 22.9291 24.9044 22.3756 24.98 21.9018C25.047 21.4822 25.1672 20.9574 25.4087 20.5952C25.4452 20.5404 25.4871 20.4894 25.5336 20.4428C27.0735 18.903 27.8787 16.5469 27.6789 14.1501C27.6732 14.0811 27.6746 14.0117 27.6832 13.943C27.8695 12.4527 27.5099 11.1933 26.608 10.0938C25.6314 9.13012 24.3351 8.42681 22.9206 8.42681C21.4169 8.42681 20.1605 8.98093 19.262 10.0591C18.3365 11.1698 17.9444 12.4761 17.9444 14.067C17.9444 14.0947 17.9433 14.1224 17.941 14.1501C17.7446 16.5066 18.5194 18.6698 20.1123 20.4694C20.4732 20.8476 20.6539 21.4054 20.7521 21.8382C20.8651 22.3364 20.9205 22.9117 20.9045 23.4749C20.8886 24.0307 20.8014 24.6362 20.5861 25.1673C20.3746 25.689 19.9746 26.2848 19.2527 26.5254C16.9241 27.3016 14.9312 28.0038 13.4161 28.7215C11.8611 29.4581 11.0496 30.1057 10.765 30.6543C10.0883 32.1833 9.69446 33.6975 9.57368 35.201H36.2676ZM46.2842 13.6668C46.383 13.1235 46.9035 12.7631 47.4469 12.8619L52.3098 13.746C54.2918 14.0811 55.1991 16.0319 54.8888 17.5833L47.821 52.4808C47.7885 52.9373 47.5804 53.3611 47.3807 53.6607C47.1557 53.9981 46.8152 54.3674 46.3872 54.5814C46.3449 54.6026 46.3011 54.6207 46.2562 54.6357C46.1919 54.6571 46.1232 54.6818 46.0505 54.708C45.5358 54.893 44.8128 55.153 43.9172 54.8776L11.2122 48.2482C10.671 48.1385 10.3211 47.6107 10.4308 47.0694C10.5406 46.5282 11.0683 46.1783 11.6096 46.288L44.3679 52.9282C44.4077 52.9363 44.447 52.9468 44.4855 52.9596C44.6338 53.0091 44.7322 53.0083 44.8585 52.9831C44.9369 52.9674 45.0298 52.9409 45.1603 52.8974C45.224 52.8762 45.2901 52.8531 45.3667 52.8264L45.3716 52.8248C45.418 52.8086 45.4678 52.7913 45.5199 52.7734C45.5326 52.7635 45.5496 52.7492 45.5701 52.7294C45.6185 52.6826 45.6701 52.621 45.7166 52.5513C45.7634 52.481 45.7957 52.4165 45.814 52.3682C45.8204 52.3513 45.8239 52.3395 45.8257 52.3327C45.8272 52.2749 45.8338 52.2172 45.8452 52.1604L52.9277 17.1911C52.9277 17.1908 52.9276 17.1913 52.9277 17.1911C53.0591 16.5313 52.6414 15.8289 51.9731 15.7175L51.9586 15.715L47.0891 14.8296C46.5458 14.7308 46.1854 14.2102 46.2842 13.6668Z"/>
</svg>
