<svg
  version="1.1"
  id="Layer_1"
  xmlns="http://www.w3.org/2000/svg"
  xmlns:xlink="http://www.w3.org/1999/xlink"
  x="0px"
  y="0px"
  viewBox="0 0 55 55"
  style="enable-background:new 0 0 55 55;"
  xml:space="preserve"
>
  <path
    d="M43.7,54.5c-0.3,0-0.6,0-0.9-0.1l-32.7-6.6c-0.8-0.2-1.3-1-1.2-1.8c0.2-0.8,1-1.3,1.8-1.2l32.8,6.6c0.1,0,0.1,0,0.2,0
	c0.1,0,0.1,0,0.6-0.1l0.1,0c0,0,0-0.1,0.1-0.1c0-0.1,0-0.1,0-0.2l7.1-35c0-0.2,0-0.4-0.1-0.6c-0.1-0.1-0.2-0.2-0.4-0.3L46,14.3
	c-0.8-0.1-1.4-0.9-1.2-1.7c0.1-0.8,0.9-1.4,1.7-1.2l4.9,0.9c1,0.2,1.8,0.7,2.4,1.5c0.6,0.9,0.8,1.9,0.6,2.9l-7.1,34.9
	c-0.1,1-0.8,2-1.7,2.5c-0.1,0-0.1,0.1-0.2,0.1l-0.2,0.1C44.8,54.3,44.3,54.5,43.7,54.5z M39.6,43.3H4.2c-2.2,0-3.7-1.6-3.7-3.7V4.2
	c0-2.2,1.6-3.7,3.7-3.7h35.4c2.2,0,3.7,1.6,3.7,3.7v35.4C43.3,41.8,41.8,43.3,39.6,43.3z M3.5,36.7v2.9c0,0.5,0.2,0.7,0.7,0.7h35.4
	c0.5,0,0.7-0.2,0.7-0.7v-2.9H3.5z M37.7,33.7h2.6V4.2c0-0.5-0.2-0.7-0.7-0.7H4.2c-0.5,0-0.7,0.2-0.7,0.7v29.5h2.6
	c0.2-1.7,0.6-3.4,1.4-5.1c1.2-2.4,4.8-3.7,9.8-5.4c0.2-0.5,0.2-1.7,0-2.1c-2.1-2.4-3-5.2-2.8-8.1c0-2.2,0.6-4,1.9-5.5
	c1.4-1.6,3.3-2.5,5.6-2.5c2,0,3.9,0.9,5.5,2.4c0,0,0.1,0.1,0.1,0.1c1.3,1.6,1.9,3.5,1.7,5.6c0.2,3-0.8,5.9-2.7,7.9
	c-0.2,0.5-0.2,1.8,0,2.3c0.6,0.2,1.3,0.5,1.9,0.7c4,1.5,6.9,2.6,7.9,4.6C37.1,30.3,37.6,32,37.7,33.7z M9.1,33.7h25.6
	c-0.2-1.3-0.5-2.6-1.1-3.9c-0.4-0.9-3.4-2-6.2-3c-0.7-0.3-1.4-0.5-2.2-0.8c-0.5-0.2-1.2-0.7-1.5-1.8c-0.5-1.5-0.3-3.9,0.4-4.9
	c0.1-0.1,0.1-0.2,0.2-0.2c1.4-1.4,2.2-3.6,2-5.9c0-0.1,0-0.2,0-0.3c0.2-1.3-0.1-2.5-0.9-3.4c-0.6-0.6-1.8-1.5-3.3-1.5
	c-1.4,0-2.5,0.5-3.3,1.5c-0.8,1-1.2,2.2-1.2,3.7c0,0,0,0.1,0,0.1c-0.2,2.2,0.5,4.2,2.1,6c0.9,0.9,1.1,3.3,0.8,4.6
	c-0.4,1.6-1.3,2.1-1.8,2.3c-2.8,0.9-7.5,2.5-8.2,3.9C9.7,31.1,9.3,32.4,9.1,33.7z M17.3,21.1C17.3,21.2,17.3,21.2,17.3,21.1
	C17.3,21.2,17.3,21.2,17.3,21.1z"
  />
</svg>
