<svg width="28" height="28" viewBox="0 0 28 28" xmlns="http://www.w3.org/2000/svg">
<path fill-rule="evenodd" clip-rule="evenodd" d="M14 2C7.37126 2 2 7.37126 2 14C2 20.6287 7.37126 26 14 26C20.6287 26 26 20.6287 26 14C26 7.37126 20.6287 2 14 2ZM3 14C3 7.92354 7.92354 3 14 3C14.4568 3 14.9072 3.02783 15.3494 3.08189L13.6473 4.05693L13.6463 4.05748C13.3109 4.24831 13.1147 4.60935 13.1424 4.99659C13.1696 5.37769 13.4129 5.71724 13.7746 5.85833L14.0567 5.97209L14.058 5.97261C14.6264 6.19997 14.9995 6.75159 14.9995 7.36677V8.51193L14.9987 8.51281L14.9978 8.51357H11.5496L11.5472 8.51335L11.5369 8.51209L11.531 8.51127L10.2431 8.25188C9.35313 8.07387 8.43796 8.38977 7.85052 9.08074L6.12639 11.1037C5.91177 11.3545 5.82322 11.7102 5.92751 12.0452L6.59417 14.2337C6.91568 15.2843 7.88613 16.0088 8.99049 16.0088H10.6917L11.4654 17.5562C11.4658 17.5573 11.4664 17.5594 11.4667 17.5622C11.4669 17.5642 11.4669 17.5657 11.4668 17.5667C11.4668 17.5673 11.4667 17.5677 11.4667 17.5679L11.261 18.3997L11.2607 18.4008C11.0654 19.1779 11.2562 19.9933 11.7599 20.6058L11.7622 20.6085L13.2924 22.442L13.2934 22.4432C13.6468 22.8697 14.2746 22.9212 14.6955 22.5734L16.5962 20.9949C17.1708 20.518 17.4991 19.8157 17.4991 19.0738L17.4991 16.6268C17.4993 16.6262 17.4998 16.6243 17.5012 16.6208L19.0839 13.46C19.2393 13.1492 19.222 12.7824 19.0407 12.4886C18.8619 12.1914 18.5385 12.0096 18.1905 12.0096L17.8093 12.0092L17.2622 10.9196C17.2619 10.9189 17.262 10.9175 17.2618 10.9169L19.3888 10.6505L19.3899 10.6504C20.291 10.5356 21.0615 9.94363 21.4009 9.09819L22.3198 6.80273C23.9898 8.73163 25 11.2475 25 14C25 20.0765 20.0765 25 14 25C7.92354 25 3 20.0765 3 14ZM21.5604 6.00895C20.2534 4.77207 18.6431 3.85248 16.8525 3.37326L14.1409 4.92662C14.141 4.92642 14.1409 4.92672 14.1409 4.92662C14.1408 4.92686 14.1406 4.9276 14.1407 4.92774L14.1455 4.92959L14.4294 5.04413C15.3786 5.42416 15.9995 6.34462 15.9995 7.36677V8.51217C15.9995 9.06431 15.5502 9.51357 14.9981 9.51357H11.5481C11.475 9.51357 11.4125 9.50457 11.381 9.50004L11.3762 9.49934C11.3668 9.498 11.3575 9.4964 11.3482 9.49452L10.047 9.23246C9.51126 9.12546 8.96333 9.3156 8.61245 9.72839L6.88703 11.7529L6.88611 11.754L6.88479 11.756L7.5504 13.9411C7.74418 14.5738 8.32854 15.0088 8.99049 15.0088H10.6925C11.0653 15.0088 11.4172 15.2172 11.5869 15.5632L12.3672 17.1238C12.4667 17.3317 12.4938 17.5732 12.4391 17.8013L12.4383 17.8046L12.2313 18.6418L12.2307 18.6439C12.1139 19.1079 12.2263 19.5978 12.5312 19.9693L12.5323 19.9706L14.0601 21.8012L15.9574 20.2255C16.3029 19.9388 16.4991 19.5186 16.4991 19.0738V16.6266C16.4991 16.4674 16.537 16.322 16.5966 16.1943L16.6024 16.1818L18.1893 13.0131L18.1871 13.0096H17.8087C17.4361 13.0096 17.0843 12.8013 16.9145 12.4556L16.3683 11.3677C16.2266 11.0844 16.2201 10.7435 16.3768 10.4513C16.5288 10.1544 16.8171 9.96235 17.137 9.92476L19.2635 9.65838C19.8066 9.58901 20.2693 9.23292 20.4727 8.72613L21.5604 6.00895Z"/>
</svg>
