<svg width="28" height="28" viewBox="0 0 28 28" fill="currentColor" xmlns="http://www.w3.org/2000/svg">
<path d="M3 5C3 4.44772 3.44772 4 4 4H12C12.5523 4 13 4.44772 13 5V10C13 10.5523 12.5523 11 12 11H4C3.44772 11 3 10.5523 3 10V5Z"/>
<path d="M3 14C3 13.4477 3.44772 13 4 13H12C12.5523 13 13 13.4477 13 14V23C13 23.5523 12.5523 24 12 24H4C3.44772 24 3 23.5523 3 23V14Z"/>
<path d="M15 5C15 4.44772 15.4477 4 16 4H24C24.5523 4 25 4.44772 25 5V15C25 15.5523 24.5523 16 24 16H16C15.4477 16 15 15.5523 15 15V5Z"/>
<path d="M15 19C15 18.4477 15.4477 18 16 18H24C24.5523 18 25 18.4477 25 19V23C25 23.5523 24.5523 24 24 24H16C15.4477 24 15 23.5523 15 23V19Z"/>
</svg>
