<svg width="28" height="28" viewBox="0 0 28 28" fill="none" xmlns="http://www.w3.org/2000/svg">
<path fill-rule="evenodd" clip-rule="evenodd" d="M5 6V9H11V6H5ZM4 4C3.44772 4 3 4.44772 3 5V10C3 10.5523 3.44772 11 4 11H12C12.5523 11 13 10.5523 13 10V5C13 4.44772 12.5523 4 12 4H4Z"/>
<path fill-rule="evenodd" clip-rule="evenodd" d="M5 15V22H11V15H5ZM4 13C3.44772 13 3 13.4477 3 14V23C3 23.5523 3.44772 24 4 24H12C12.5523 24 13 23.5523 13 23V14C13 13.4477 12.5523 13 12 13H4Z"/>
<path fill-rule="evenodd" clip-rule="evenodd" d="M17 6V14H23V6H17ZM16 4C15.4477 4 15 4.44772 15 5V15C15 15.5523 15.4477 16 16 16H24C24.5523 16 25 15.5523 25 15V5C25 4.44772 24.5523 4 24 4H16Z"/>
<path fill-rule="evenodd" clip-rule="evenodd" d="M17 20V22H23V20H17ZM16 18C15.4477 18 15 18.4477 15 19V23C15 23.5523 15.4477 24 16 24H24C24.5523 24 25 23.5523 25 23V19C25 18.4477 24.5523 18 24 18H16Z"/>
</svg>
