<svg width="28" height="28" viewBox="0 0 28 28" fill="none" xmlns="http://www.w3.org/2000/svg">
<path fill-rule="evenodd" clip-rule="evenodd" d="M12.5 5H5L5 10.3684L12.5 10.3684V5ZM5 4C4.44772 4 4 4.44771 4 5V10.3684C4 10.9207 4.44772 11.3684 5 11.3684H12.5C13.0523 11.3684 13.5 10.9207 13.5 10.3684V5C13.5 4.44772 13.0523 4 12.5 4H5Z"/>
<path fill-rule="evenodd" clip-rule="evenodd" d="M12.5 13.4211H5L5 23H12.5V13.4211ZM5 12.4211C4.44772 12.4211 4 12.8688 4 13.4211V23C4 23.5523 4.44772 24 5 24H12.5C13.0523 24 13.5 23.5523 13.5 23V13.4211C13.5 12.8688 13.0523 12.4211 12.5 12.4211H5Z"/>
<path fill-rule="evenodd" clip-rule="evenodd" d="M23 5H15.5001V14.5789H23V5ZM15.5001 4C14.9478 4 14.5001 4.44771 14.5001 5V14.5789C14.5001 15.1312 14.9478 15.5789 15.5001 15.5789H23C23.5523 15.5789 24 15.1312 24 14.5789V5C24 4.44772 23.5523 4 23 4H15.5001Z"/>
<path fill-rule="evenodd" clip-rule="evenodd" d="M23 17.6316L15.5 17.6316V23L23 23V17.6316ZM15.5 16.6316C14.9477 16.6316 14.5 17.0793 14.5 17.6316V23C14.5 23.5523 14.9477 24 15.5 24L23 24C23.5523 24 24 23.5523 24 23V17.6316C24 17.0793 23.5523 16.6316 23 16.6316L15.5 16.6316Z"/>
</svg>
