<svg width="28" height="28" viewBox="0 0 28 28" fill="none" xmlns="http://www.w3.org/2000/svg">
<path fill-rule="evenodd" clip-rule="evenodd" d="M14 8.56064C13.4611 8.56064 12.9451 8.34318 12.5687 7.95754C10.1521 5.48141 6.37112 5.47078 4.59745 7.28816C2.56225 9.37353 2.45665 12.6675 4.36683 14.9176C7.64256 18.7761 11.6938 21.7442 14 23.3413C16.3062 21.7442 20.3574 18.7761 23.6332 14.9176C25.5434 12.6675 25.4378 9.37353 23.4025 7.28816C21.6289 5.47078 17.8479 5.48141 15.4313 7.95754C15.0549 8.34318 14.5389 8.56064 14 8.56064ZM14.87 23.9376C14.8711 23.9383 14.8721 23.939 14.8731 23.9397L14.8731 23.9397C14.8721 23.939 14.8711 23.9383 14.87 23.9376ZM14.2524 25.593C16.2614 24.2252 21.2222 20.8479 25.1578 16.2119C27.7259 13.1869 27.6007 8.72631 24.8339 5.89127C22.1932 3.18555 17.3388 3.44341 14.2896 6.27801C14.1911 6.36954 14.0946 6.46375 14 6.56064C13.9054 6.46374 13.8089 6.36953 13.7104 6.27799C10.6612 3.44341 5.80676 3.18556 3.16613 5.89127C0.399282 8.72631 0.274076 13.1869 2.84216 16.2119C6.77783 20.8479 11.7386 24.2252 13.7476 25.593C13.901 25.6974 14.099 25.6974 14.2524 25.593Z"/>
</svg>
