<svg width="28" height="28" viewBox="0 0 28 28" fill="currentColor" xmlns="http://www.w3.org/2000/svg">
<path d="M7.533 7.06573H5.42829C7.4358 4.57875 10.5146 3 13.9999 3C20.1237 3 24.9999 7.87614 24.9999 14C24.9999 20.1239 20.1237 25 13.9999 25C9.17128 25 5.12057 21.9689 3.62144 17.6887C3.53016 17.428 3.24489 17.2908 2.98427 17.382C2.72365 17.4733 2.58638 17.7586 2.67766 18.0192C4.31452 22.6928 8.7383 26 13.9999 26C20.676 26 25.9999 20.6761 25.9999 14C25.9999 7.32386 20.676 2 13.9999 2C10.367 2 7.13249 3.57701 4.9397 6.09254V4.42603C4.9397 4.14988 4.71584 3.92603 4.4397 3.92603C4.16355 3.92603 3.9397 4.14988 3.9397 4.42603V7.56573C3.9397 7.84187 4.16355 8.06573 4.4397 8.06573H7.533C7.80914 8.06573 8.033 7.84187 8.033 7.56573C8.033 7.28959 7.80914 7.06573 7.533 7.06573Z"/>
<path d="M14.0002 8.5C14.0002 8.22386 13.7764 8 13.5002 8C13.2241 8 13.0002 8.22386 13.0002 8.5V13.4511C13.0002 13.9639 13.2623 14.4412 13.6949 14.7165L18.7318 17.9218C18.9648 18.0701 19.2738 18.0014 19.4221 17.7684C19.5703 17.5355 19.5017 17.2264 19.2687 17.0782L14.2318 13.8729C14.0876 13.7811 14.0002 13.622 14.0002 13.4511V8.5Z"/>
</svg>
