<svg width="28" height="28" viewBox="0 0 28 28" fill="none" xmlns="http://www.w3.org/2000/svg">
<path fill-rule="evenodd" clip-rule="evenodd" d="M14 5C9.02944 5 5 9.02944 5 14C5 18.9706 9.02944 23 14 23C18.9706 23 23 18.9706 23 14C23 9.02944 18.9706 5 14 5ZM3 14C3 7.92487 7.92487 3 14 3C20.0751 3 25 7.92487 25 14C25 20.0751 20.0751 25 14 25C7.92487 25 3 20.0751 3 14Z"/>
<path fill-rule="evenodd" clip-rule="evenodd" d="M11.5 13.5C11.5 12.9477 11.9477 12.5 12.5 12.5H14C14.5523 12.5 15 12.9477 15 13.5V16.5H15.5C16.0523 16.5 16.5 16.9477 16.5 17.5C16.5 18.0523 16.0523 18.5 15.5 18.5H12.5C11.9477 18.5 11.5 18.0523 11.5 17.5C11.5 16.9477 11.9477 16.5 12.5 16.5H13V14.5H12.5C11.9477 14.5 11.5 14.0523 11.5 13.5Z"/>
<path fill-rule="evenodd" clip-rule="evenodd" d="M14 8.5C14.5523 8.5 15 8.94772 15 9.5V10C15 10.5523 14.5523 11 14 11C13.4477 11 13 10.5523 13 10V9.5C13 8.94772 13.4477 8.5 14 8.5Z"/>
</svg>
