<svg width="28" height="28" viewBox="0 0 28 28" xmlns="http://www.w3.org/2000/svg">
<path fill-rule="evenodd" clip-rule="evenodd" d="M1 6C1 4.34315 2.34315 3 4 3H24C25.6569 3 27 4.34315 27 6V20C27 21.6569 25.6569 23 24 23H4C2.34315 23 1 21.6569 1 20V6ZM4 5C3.44772 5 3 5.44772 3 6V20C3 20.5523 3.44772 21 4 21H24C24.5523 21 25 20.5523 25 20V6C25 5.44771 24.5523 5 24 5H4Z"/>
<path fill-rule="evenodd" clip-rule="evenodd" d="M0 25C0 24.4477 0.447715 24 1 24H27C27.5523 24 28 24.4477 28 25C28 25.5523 27.5523 26 27 26H1C0.447715 26 0 25.5523 0 25Z"/>
</svg>
