<svg width="56" height="56" viewBox="0 0 56 56" fill="none" xmlns="http://www.w3.org/2000/svg">
<path fill-rule="evenodd" clip-rule="evenodd" d="M27.9999 8C15.8728 8 5.78564 17.0739 5.78564 28.5788C5.78564 34.0678 7.81265 39.744 9.47355 43.5C9.65853 43.9183 9.97955 44.231 10.3633 44.4117C10.7671 44.6019 11.1896 44.7445 11.6734 44.9078C11.8747 44.9757 12.0865 45.0472 12.312 45.1272C13.0229 45.3793 13.8322 45.7072 14.5143 46.263C16.8297 48.1496 19.9447 49.0057 23.0898 48.3345C23.3614 48.2765 23.6231 47.9608 23.5263 47.507L19.5693 28.9664C19.4724 28.5125 19.1046 28.3312 18.833 28.3892C15.9796 28.9981 13.6629 30.7442 12.2541 33.0545C11.9412 33.5677 11.3805 33.7515 10.9064 33.6782C10.4233 33.6035 9.92149 33.2401 9.81042 32.6105C9.57405 31.2706 9.43236 29.912 9.43236 28.5788C9.43236 19.37 17.5927 11.6467 27.9999 11.6467C38.4071 11.6467 46.5675 19.37 46.5675 28.5788C46.5675 29.912 46.4258 31.2706 46.1894 32.6105C46.0784 33.2401 45.5765 33.6035 45.0935 33.6782C44.6193 33.7515 44.0587 33.5677 43.7457 33.0545C42.3369 30.7442 40.0202 28.9981 37.1669 28.3892C36.8953 28.3312 36.5275 28.5125 36.4306 28.9664L32.4736 47.507C32.3767 47.9608 32.6385 48.2765 32.9101 48.3345C36.0551 49.0057 39.1702 48.1496 41.4855 46.263C42.1676 45.7072 42.977 45.3793 43.6878 45.1272C43.9133 45.0472 44.1252 44.9757 44.3264 44.9078C44.8102 44.7445 45.2328 44.6019 45.6366 44.4117C46.0203 44.231 46.3413 43.9183 46.5263 43.5C48.1872 39.744 50.2142 34.0678 50.2142 28.5788C50.2142 17.0739 40.1271 8 27.9999 8ZM3.78564 28.5788C3.78564 15.8095 14.9351 6 27.9999 6C41.0647 6 52.2142 15.8095 52.2142 28.5788C52.2142 34.4913 50.0501 40.4766 48.3555 44.3088C47.9685 45.1839 47.2912 45.8432 46.4886 46.2211C45.9731 46.4639 45.3846 46.6625 44.8619 46.8388C44.6839 46.8989 44.5136 46.9564 44.3564 47.0121C43.6809 47.2517 43.1489 47.4875 42.7489 47.8134C39.9838 50.0664 36.2555 51.0935 32.4927 50.2905C30.963 49.964 30.2301 48.4369 30.5177 47.0895L34.4746 28.549C34.7622 27.2016 36.0547 26.1068 37.5843 26.4332C40.3906 27.0321 42.7644 28.5529 44.4552 30.6089C44.5281 29.9222 44.5675 29.2433 44.5675 28.5788C44.5675 20.6211 37.455 13.6467 27.9999 13.6467C18.5449 13.6467 11.4324 20.6211 11.4324 28.5788C11.4324 29.2433 11.4717 29.9222 11.5447 30.6089C13.2355 28.5529 15.6093 27.0321 18.4155 26.4332C19.9451 26.1068 21.2377 27.2016 21.5252 28.549L25.4822 47.0895C25.7698 48.4369 25.0368 49.964 23.5072 50.2905C19.7444 51.0935 16.016 50.0664 13.251 47.8134C12.851 47.4875 12.319 47.2517 11.6434 47.0121C11.4862 46.9564 11.3159 46.8989 11.138 46.8388C10.6153 46.6625 10.0268 46.4639 9.51123 46.2211C8.70863 45.8432 8.03137 45.1839 7.64441 44.3088C5.94977 40.4766 3.78564 34.4913 3.78564 28.5788Z"/>
</svg>
