<svg width="56" height="56" viewBox="0 0 56 56" fill="none" xmlns="http://www.w3.org/2000/svg">
<path fill-rule="evenodd" clip-rule="evenodd" d="M8.09938 7C6.39701 7 5 8.39701 5 10.0994V45.9006C5 47.603 6.39701 49 8.09938 49H47.0435C48.7458 49 50.1429 47.603 50.1429 45.9006V10.0994C50.1429 8.39701 48.7458 7 47.0435 7H8.09938ZM3 10.0994C3 7.29244 5.29244 5 8.09938 5H47.0435C49.8504 5 52.1429 7.29244 52.1429 10.0994V45.9006C52.1429 48.7076 49.8504 51 47.0435 51H8.09938C5.29244 51 3 48.7076 3 45.9006V10.0994ZM22.3183 17.5559C22.298 17.563 22.2735 17.5729 22.2453 17.587C22.2249 17.5972 22.2143 17.6084 22.2052 17.6243C22.1938 17.6442 22.1832 17.6767 22.1832 17.7174V31.6553C22.1832 31.6961 22.1938 31.7285 22.2052 31.7485C22.2143 31.7643 22.2249 31.7755 22.2453 31.7857C22.2649 31.7955 22.284 31.8059 22.3028 31.8169C22.3179 31.8116 22.3353 31.8048 22.3548 31.7958L34.4168 24.8448C34.4339 24.835 34.4513 24.8256 34.4689 24.8168C34.4893 24.8066 34.5 24.7954 34.5091 24.7795C34.5205 24.7596 34.5311 24.7271 34.5311 24.6864C34.5311 24.6456 34.5205 24.6132 34.5091 24.5932C34.5 24.5774 34.4893 24.5662 34.4689 24.556C34.4513 24.5472 34.4339 24.5378 34.4168 24.528L22.3237 17.559C22.3219 17.558 22.3201 17.5569 22.3183 17.5559ZM23.4045 15.8736C23.0821 15.618 22.7007 15.5389 22.3874 15.5389C22.0257 15.5389 21.6682 15.6395 21.3509 15.7982C20.5553 16.196 20.1832 16.9842 20.1832 17.7174V31.6553C20.1832 32.3497 20.5169 33.0933 21.2279 33.5081C21.5479 33.7566 21.924 33.8339 22.2337 33.8339C22.5954 33.8339 22.9529 33.7333 23.2702 33.5746C23.2878 33.5658 23.3052 33.5564 23.3223 33.5466L35.3937 26.5902C36.1684 26.1877 36.5311 25.4103 36.5311 24.6864C36.5311 23.9625 36.1684 23.1851 35.3937 22.7826L23.4045 15.8736ZM30.5025 37.5584C31.074 36.9869 31.8535 36.7019 32.6957 36.7019C33.5378 36.7019 34.3173 36.9869 34.8888 37.5584C35.4603 38.1299 35.7453 38.9094 35.7453 39.7516V40.8012H44.9938C45.5461 40.8012 45.9938 41.249 45.9938 41.8012C45.9938 42.3535 45.5461 42.8012 44.9938 42.8012H35.7453V43.8509C35.7453 44.6931 35.4603 45.4726 34.8888 46.0441C34.3173 46.6155 33.5378 46.9006 32.6957 46.9006C31.8535 46.9006 31.074 46.6155 30.5025 46.0441C29.931 45.4726 29.646 44.6931 29.646 43.8509V42.8012H10.1491C9.59678 42.8012 9.14907 42.3535 9.14907 41.8012C9.14907 41.249 9.59678 40.8012 10.1491 40.8012H29.646V39.7516C29.646 38.9094 29.931 38.1299 30.5025 37.5584ZM31.646 43.8509C31.646 44.2386 31.7708 44.4839 31.9167 44.6298C32.0626 44.7758 32.308 44.9006 32.6957 44.9006C33.0833 44.9006 33.3287 44.7758 33.4746 44.6298C33.6205 44.4839 33.7453 44.2386 33.7453 43.8509V39.7516C33.7453 39.3639 33.6205 39.1185 33.4746 38.9726C33.3287 38.8267 33.0833 38.7019 32.6957 38.7019C32.308 38.7019 32.0626 38.8267 31.9167 38.9726C31.7708 39.1185 31.646 39.3639 31.646 39.7516V43.8509Z"/>
</svg>
