<svg width="28" height="28" viewBox="0 0 28 28" fill="currentColor" xmlns="http://www.w3.org/2000/svg">
<path d="M5.61399 7.21063C5.17804 6.87156 4.54976 6.9501 4.21069 7.38604C3.87162 7.82199 3.95016 8.45027 4.38611 8.78934L13.3861 15.7893C13.7472 16.0702 14.2529 16.0702 14.614 15.7893L23.614 8.78934C24.0499 8.45027 24.1285 7.82199 23.7894 7.38604C23.4503 6.9501 22.8221 6.87156 22.3861 7.21063L14 13.7331L5.61399 7.21063Z"/>
<path fill-rule="evenodd" clip-rule="evenodd" d="M3.5 3C1.567 3 0 4.567 0 6.5V21.5C0 23.433 1.567 25 3.5 25H24.5C26.433 25 28 23.433 28 21.5V6.5C28 4.567 26.433 3 24.5 3H3.5ZM2 6.5C2 5.67157 2.67157 5 3.5 5H24.5C25.3284 5 26 5.67157 26 6.5V21.5C26 22.3284 25.3284 23 24.5 23H3.5C2.67157 23 2 22.3284 2 21.5V6.5Z"/>
</svg>
