<svg width="28" height="28" viewBox="0 0 28 28" fill="none" xmlns="http://www.w3.org/2000/svg">
<path fill-rule="evenodd" clip-rule="evenodd" d="M5.5 11C5.5 6.30558 9.30558 2.5 14 2.5C18.6944 2.5 22.5 6.30558 22.5 11C22.5 14.259 21.0588 17.302 19.4179 19.7173C17.7729 22.1386 15.8938 23.9778 14.9443 24.8398C14.4032 25.3311 13.5968 25.3311 13.0557 24.8398C12.1062 23.9778 10.2271 22.1386 8.58206 19.7173C6.94118 17.302 5.5 14.259 5.5 11ZM14 14C15.6569 14 17 12.6569 17 11C17 9.34315 15.6569 8 14 8C12.3431 8 11 9.34315 11 11C11 12.6569 12.3431 14 14 14Z"/>
</svg>
