<svg width="28" height="28" viewBox="0 0 28 28" xmlns="http://www.w3.org/2000/svg">
<path fill-rule="evenodd" clip-rule="evenodd" d="M14 3.5C9.85786 3.5 6.5 6.85786 6.5 11C6.5 13.9735 7.82105 16.8177 9.40922 19.1553C10.9932 21.4869 12.81 23.2662 13.7278 24.0994C13.8877 24.2445 14.1123 24.2445 14.2722 24.0994C15.19 23.2662 17.0068 21.4869 18.5908 19.1553C20.1789 16.8177 21.5 13.9735 21.5 11C21.5 6.85786 18.1421 3.5 14 3.5ZM5.5 11C5.5 6.30558 9.30558 2.5 14 2.5C18.6944 2.5 22.5 6.30558 22.5 11C22.5 14.259 21.0588 17.302 19.4179 19.7173C17.7729 22.1386 15.8938 23.9778 14.9443 24.8398C14.4032 25.3311 13.5968 25.3311 13.0557 24.8398C12.1062 23.9778 10.2271 22.1386 8.58206 19.7173C6.94118 17.302 5.5 14.259 5.5 11Z"/>
<path fill-rule="evenodd" clip-rule="evenodd" d="M14 8C12.3431 8 11 9.34315 11 11C11 12.6569 12.3431 14 14 14C15.6569 14 17 12.6569 17 11C17 9.34315 15.6569 8 14 8ZM10 11C10 8.79086 11.7909 7 14 7C16.2091 7 18 8.79086 18 11C18 13.2091 16.2091 15 14 15C11.7909 15 10 13.2091 10 11Z"/>
</svg>
