<svg version="1.1" id="miteb-regular" xmlns="http://www.w3.org/2000/svg" xmlns:xlink="http://www.w3.org/1999/xlink" x="0" y="0" viewBox="0 0 512 512" xml:space="preserve"><path d="M210.3 26.5H22.5C10 26.5-.1 36.5-.1 48.8v115.4c0 12.3 10.1 22.3 22.6 22.3h187.8c12.5 0 22.6-10 22.6-22.3V48.8c.1-12.3-10.1-22.3-22.6-22.3zm-23.3 115H45.8V71.7H187v69.8zM489.4 26.5H301.6c-12.5 0-22.6 10-22.6 22.3v231.1c0 12.3 10.1 22.3 22.6 22.3h187.8c12.5 0 22.6-10 22.6-22.3V48.8c0-12.3-10.1-22.3-22.6-22.3zm-23.3 230.7H324.9V71.7h141.2v185.5zM210.3 235.3H22.5c-12.5 0-22.6 10-22.6 22.3v205.6c0 12.3 10.1 22.3 22.6 22.3h187.8c12.5 0 22.6-10 22.6-22.3V257.6c.1-12.3-10.1-22.3-22.6-22.3zM187 440.5H45.8v-160H187v160zM489.4 350.1H301.6c-12.5 0-22.6 10-22.6 22.3v90.8c0 12.3 10.1 22.3 22.6 22.3h187.8c12.5 0 22.6-10 22.6-22.3v-90.8c0-12.3-10.1-22.3-22.6-22.3zm-23.3 90.4H324.9v-45.2h141.2v45.2z"/></svg>
