<?xml version="1.0" encoding="utf-8"?>
<svg version="1.1" id="miteb" xmlns="http://www.w3.org/2000/svg" xmlns:xlink="http://www.w3.org/1999/xlink" x="0px"
	 y="0px" viewBox="0 0 512 512" style="enable-background:new 0 0 512 512;" xml:space="preserve">
<path d="M475,63.5v201.7H316V63.5H475 M195.9,63.5v86h-159v-86H195.9 M195.9,272.3v176.2h-159V272.3H195.9 M475,387.1v61.4H316
	v-61.4H475 M489.4,26.5H301.6c-12.5,0-22.6,10-22.6,22.3v231.1c0,12.3,10.1,22.3,22.6,22.3h187.8c12.5,0,22.6-10,22.6-22.3V48.8
	C512,36.5,501.9,26.5,489.4,26.5L489.4,26.5z M210.3,26.5H22.5c-12.5,0-22.6,10-22.6,22.3v115.4c0,12.3,10.1,22.3,22.6,22.3h187.8
	c12.5,0,22.6-10,22.6-22.3V48.8C233,36.5,222.8,26.5,210.3,26.5L210.3,26.5z M210.3,235.3H22.5c-12.5,0-22.6,10-22.6,22.3v205.6
	c0,12.3,10.1,22.3,22.6,22.3h187.8c12.5,0,22.6-10,22.6-22.3V257.6C233,245.3,222.8,235.3,210.3,235.3L210.3,235.3z M489.4,350.1
	H301.6c-12.5,0-22.6,10-22.6,22.3v90.8c0,12.3,10.1,22.3,22.6,22.3h187.8c12.5,0,22.6-10,22.6-22.3v-90.8
	C512,360.1,501.9,350.1,489.4,350.1L489.4,350.1z"/>
</svg>
