<svg width="28" height="28" viewBox="0 0 28 28" xmlns="http://www.w3.org/2000/svg">
<path fill-rule="evenodd" clip-rule="evenodd" d="M2.5 2C1.11929 2 0 3.11929 0 4.5V6H28V4.5C28 3.11929 26.8807 2 25.5 2H2.5ZM0 23.5V8H28V23.5C28 24.8807 26.8807 26 25.5 26H2.5C1.11929 26 0 24.8807 0 23.5ZM5 13C4.44772 13 4 13.4477 4 14C4 14.5523 4.44772 15 5 15H14C14.5523 15 15 14.5523 15 14C15 13.4477 14.5523 13 14 13H5ZM5 17C4.44772 17 4 17.4477 4 18C4 18.5523 4.44772 19 5 19H10C10.5523 19 11 18.5523 11 18C11 17.4477 10.5523 17 10 17H5ZM18 18C18 17.4477 18.4477 17 19 17H23C23.5523 17 24 17.4477 24 18V21C24 21.5523 23.5523 22 23 22H19C18.4477 22 18 21.5523 18 21V18Z"/>
</svg>
