<svg xmlns="http://www.w3.org/2000/svg" viewBox="0 0 640 640"><!--!Font Awesome Pro 7.2.0 by @fontawesome - https://fontawesome.com License - https://fontawesome.com/license (Commercial License) Copyright 2026 Fonticons, Inc.--><path d="M160 96L576 96L576 544L64 544L64 152L112 152L112 496L120 496C142.1 496 160 478.1 160 456L160 96zM198.4 496L528 496L528 144L208 144L208 456C208 470.4 204.5 484 198.4 496zM256 192L352 192L352 288L256 288L256 192zM408 240L480 240L480 288L384 288L384 240L408 240zM280 320L480 320L480 368L256 368L256 320L280 320zM280 400L480 400L480 448L256 448L256 400L280 400z"/></svg>
