<svg
  version="1.1"
  id="Layer_1"
  xmlns="http://www.w3.org/2000/svg"
  xmlns:xlink="http://www.w3.org/1999/xlink"
  x="0px"
  y="0px"
  viewBox="0 0 42 39"
  style="enable-background:new 0 0 42 39;"
  xml:space="preserve"
>
  <path
    d="M35.8,38.5H6.2c-3.5,0-6.2-2.7-6.2-6.2V2.7C0,1.2,1.2,0,2.7,0h26.1c1.6,0,2.7,1.2,2.7,2.7v29.6c0,2.4,1.8,4.2,4.2,4.2
	s4.2-1.8,4.2-4.2V6.2c0-0.6,0.4-1,1-1s1,0.4,1,1v26.1C42,35.8,39.3,38.5,35.8,38.5z M2.7,2C2.2,2,2,2.2,2,2.7v29.6
	c0,2.4,1.8,4.2,4.2,4.2h25c-1-1.1-1.6-2.6-1.6-4.2V2.7c0-0.5-0.2-0.7-0.7-0.7H2.7z M35.8,33.8c-0.6,0-1-0.4-1-1V6.2c0-0.6,0.4-1,1-1
	s1,0.4,1,1v26.5C36.8,33.3,36.3,33.8,35.8,33.8z M25.3,29.8H6.2c-0.6,0-1-0.4-1-1s0.4-1,1-1h19.1c0.6,0,1,0.4,1,1
	S25.9,29.8,25.3,29.8z M25.3,24.6H6.2c-0.6,0-1-0.4-1-1s0.4-1,1-1h19.1c0.6,0,1,0.4,1,1S25.9,24.6,25.3,24.6z M25.3,19.4h-4.9
	c-0.6,0-1-0.4-1-1s0.4-1,1-1h4.9c0.6,0,1,0.4,1,1S25.9,19.4,25.3,19.4z M15.8,19.4H7.1c-1.1,0-1.9-0.8-1.9-1.9V8.8
	C5.2,7.8,6,7,7.1,7h8.7c1.1,0,1.9,0.8,1.9,1.9v8.7C17.7,18.6,16.8,19.4,15.8,19.4z M7.2,17.4l8.4,0V9L7.2,9L7.2,17.4z M25.3,14.2
	h-4.9c-0.6,0-1-0.4-1-1s0.4-1,1-1h4.9c0.6,0,1,0.4,1,1S25.9,14.2,25.3,14.2z M25.3,9h-4.9c-0.6,0-1-0.4-1-1s0.4-1,1-1h4.9
	c0.6,0,1,0.4,1,1S25.9,9,25.3,9z"
  />
</svg>
