<svg xmlns="http://www.w3.org/2000/svg" viewBox="0 0 640 640"><!--!Font Awesome Pro v7.0.0 by @fontawesome - https://fontawesome.com License - https://fontawesome.com/license (Commercial License) Copyright 2025 Fonticons, Inc.--><path d="M64 544L64 160L112 160L112 496L128 496C145.7 496 160 481.7 160 464L160 96L576 96L576 544L64 544zM224 160L224 288L352 288L352 160L224 160zM512 432L224 432L224 480L512 480L512 432zM224 336L224 384L512 384L512 336L224 336zM512 240L400 240L400 288L512 288L512 240z"/></svg>
