<svg width="56" height="56" viewBox="0 0 56 56" xmlns="http://www.w3.org/2000/svg">
<path fill-rule="evenodd" clip-rule="evenodd" d="M6.25711 8.25711C6.11989 8.39433 6 8.62725 6 9V43C6 45.8477 8.15228 48 11 48H40.0359C38.7692 46.7428 38 44.9855 38 43V9C38 8.62725 37.8801 8.39433 37.7429 8.25711C37.6057 8.11989 37.3728 8 37 8H7C6.62725 8 6.39433 8.11989 6.25711 8.25711ZM45 48C47.8477 48 50 45.8477 50 43V13C50 12.4477 50.4477 12 51 12C51.5523 12 52 12.4477 52 13V43C52 46.9523 48.9523 50 45 50H11C7.04771 50 4 46.9523 4 43V9C4 8.17275 4.28011 7.40567 4.84289 6.84289C5.40567 6.28011 6.17275 6 7 6H37C37.8272 6 38.5943 6.28011 39.1571 6.84289C39.7199 7.40567 40 8.17275 40 9V43C40 45.8477 42.1523 48 45 48ZM45 12C45.5523 12 46 12.4477 46 13V43.5217C46 44.074 45.5523 44.5217 45 44.5217C44.4477 44.5217 44 44.074 44 43.5217V13C44 12.4477 44.4477 12 45 12ZM12 16V26H22V16H12ZM10.5679 14.5679C10.9557 14.1801 11.4728 14 12 14H22C22.5272 14 23.0443 14.1801 23.4321 14.5679C23.8199 14.9557 24 15.4728 24 16V26C24 26.5272 23.8199 27.0443 23.4321 27.4321C23.0443 27.8199 22.5272 28 22 28H12C11.4728 28 10.9557 27.8199 10.5679 27.4321C10.1801 27.0443 10 26.5272 10 26V16C10 15.4728 10.1801 14.9557 10.5679 14.5679ZM26.3696 15C26.3696 14.4477 26.8173 14 27.3696 14H33C33.5523 14 34 14.4477 34 15C34 15.5523 33.5523 16 33 16H27.3696C26.8173 16 26.3696 15.5523 26.3696 15ZM26.3696 21C26.3696 20.4477 26.8173 20 27.3696 20H33C33.5523 20 34 20.4477 34 21C34 21.5523 33.5523 22 33 22H27.3696C26.8173 22 26.3696 21.5523 26.3696 21ZM26.3696 27C26.3696 26.4477 26.8173 26 27.3696 26H33C33.5523 26 34 26.4477 34 27C34 27.5523 33.5523 28 33 28H27.3696C26.8173 28 26.3696 27.5523 26.3696 27ZM10 33C10 32.4477 10.4477 32 11 32H33C33.5523 32 34 32.4477 34 33C34 33.5523 33.5523 34 33 34H11C10.4477 34 10 33.5523 10 33ZM10 39C10 38.4477 10.4477 38 11 38H33C33.5523 38 34 38.4477 34 39C34 39.5523 33.5523 40 33 40H11C10.4477 40 10 39.5523 10 39Z"/>
</svg>
