<svg width="28" height="28" viewBox="0 0 28 28" fill="none" xmlns="http://www.w3.org/2000/svg">
<path fill-rule="evenodd" clip-rule="evenodd" d="M5.41041 5.5C4.82852 5.5 4.45993 5.95395 4.50401 6.39854C5.39401 15.3754 12.5351 22.5164 21.5119 23.4064C21.9565 23.4505 22.4104 23.0819 22.4104 22.5V18.9415C22.4104 18.5111 22.135 18.1289 21.7266 17.9928L18.2668 16.8396C17.9075 16.7198 17.5113 16.8133 17.2435 17.0811L16.6897 17.6349C16.0271 18.2976 14.9716 18.4243 14.1719 17.8773C12.2808 16.5836 11.1794 15.4895 10.0048 13.7209C9.47374 12.9213 9.61283 11.8834 10.2635 11.2327L10.8293 10.6669C11.0971 10.3991 11.1906 10.0029 11.0709 9.64359L9.91758 6.18377C9.78146 5.77543 9.39932 5.5 8.96889 5.5H5.41041ZM2.51376 6.59586C2.33989 4.84208 3.78316 3.5 5.41041 3.5H8.96889C10.2602 3.5 11.4066 4.32629 11.8149 5.55132L12.9682 9.01113C13.3276 10.0891 13.047 11.2776 12.2435 12.0811L11.6866 12.6381C12.6963 14.1536 13.6047 15.064 15.2824 16.2138L15.8293 15.6669C16.6328 14.8634 17.8213 14.5829 18.8993 14.9422L22.3591 16.0955C23.5841 16.5038 24.4104 17.6502 24.4104 18.9415V22.5C24.4104 24.1273 23.0683 25.5705 21.3146 25.3966C11.3892 24.4126 3.49781 16.5212 2.51376 6.59586ZM16.4104 4.5C16.4104 3.94772 16.8581 3.5 17.4104 3.5C21.2764 3.5 24.4104 6.63401 24.4104 10.5C24.4104 11.0523 23.9627 11.5 23.4104 11.5C22.8581 11.5 22.4104 11.0523 22.4104 10.5C22.4104 7.73858 20.1718 5.5 17.4104 5.5C16.8581 5.5 16.4104 5.05228 16.4104 4.5ZM16.4104 8.5C16.4104 7.94772 16.8581 7.5 17.4104 7.5C19.0673 7.5 20.4104 8.84315 20.4104 10.5C20.4104 11.0523 19.9627 11.5 19.4104 11.5C18.8581 11.5 18.4104 11.0523 18.4104 10.5C18.4104 9.94772 17.9627 9.5 17.4104 9.5C16.8581 9.5 16.4104 9.05228 16.4104 8.5Z"/>
</svg>
