<svg version="1.1" id="Layer_1" xmlns="http://www.w3.org/2000/svg" xmlns:xlink="http://www.w3.org/1999/xlink" x="0px" y="0px"
	 viewBox="0 0 15 15" style="enable-background:new 0 0 15 15;" xml:space="preserve">
<path d="M12.9,14.2c-0.1,0-0.1,0-0.2,0v0c-6.3-0.6-11.3-5.7-12-12c0-0.5,0.1-0.9,0.4-1.3C1.5,0.6,2,0.4,2.5,0.4h2.3
	c0.8,0,1.5,0.5,1.7,1.2l0.7,2.2c0.2,0.6,0,1.3-0.4,1.8L6.4,6c0,0-0.1,0.1,0,0.2c0.7,1,1.3,1.6,2.4,2.4c0.1,0,0.1,0,0.2,0l0.4-0.4
	c0.5-0.5,1.2-0.6,1.8-0.4l2.2,0.7c0.7,0.2,1.2,0.9,1.2,1.7v2.3c0,0.5-0.2,1-0.6,1.3C13.7,14,13.3,14.2,12.9,14.2z M2.5,1.4
	c-0.2,0-0.4,0.1-0.6,0.2C1.8,1.8,1.7,1.9,1.8,2.1C2.3,8,7,12.6,12.8,13.2l0,0c0.2,0,0.4,0,0.5-0.2c0.2-0.1,0.2-0.3,0.2-0.6v-2.3
	c0-0.3-0.2-0.6-0.5-0.7l-2.2-0.7c-0.3-0.1-0.6,0-0.8,0.2L9.6,9.2c-0.4,0.4-1,0.4-1.4,0.1C7,8.5,6.3,7.9,5.6,6.7
	c-0.3-0.4-0.2-1,0.1-1.4L6.1,5c0.2-0.2,0.3-0.5,0.2-0.8L5.5,1.9C5.4,1.6,5.1,1.4,4.8,1.4H2.5z M14,5.2c-0.3,0-0.5-0.2-0.5-0.5
	c0-1.9-1.5-3.4-3.4-3.4c-0.3,0-0.5-0.2-0.5-0.5s0.2-0.5,0.5-0.5c2.4,0,4.4,2,4.4,4.4C14.5,5,14.3,5.2,14,5.2z M11.5,5.2
	C11.2,5.2,11,5,11,4.8C11,4.3,10.6,4,10.2,4C9.9,4,9.7,3.7,9.7,3.5S9.9,3,10.2,3c1,0,1.8,0.8,1.8,1.8C12,5,11.8,5.2,11.5,5.2z"/>
</svg>
