<svg width="28" height="28" viewBox="0 0 28 28" xmlns="http://www.w3.org/2000/svg">
<path fill-rule="evenodd" clip-rule="evenodd" d="M14 5C9.02944 5 5 9.02944 5 14C5 18.9706 9.02944 23 14 23C18.9706 23 23 18.9706 23 14C23 9.02944 18.9706 5 14 5ZM3 14C3 7.92487 7.92487 3 14 3C20.0751 3 25 7.92487 25 14C25 20.0751 20.0751 25 14 25C7.92487 25 3 20.0751 3 14Z"/>
<path fill-rule="evenodd" clip-rule="evenodd" d="M14.1158 10.4103C13.6387 10.4103 13.1342 10.7064 12.8083 11.2365C12.5191 11.707 11.9032 11.8539 11.4327 11.5647C10.9622 11.2754 10.8153 10.6596 11.1045 10.1891C11.7145 9.19686 12.804 8.41033 14.1158 8.41033C14.9371 8.41033 15.8015 8.77291 16.4176 9.37292C17.0605 9.99901 17.4892 10.9492 17.2305 12.0622C17.0126 12.9999 16.4008 13.5344 15.9295 13.8758C15.8136 13.9597 15.6981 14.0375 15.5995 14.104L15.5982 14.1049C15.4943 14.1749 15.4099 14.2318 15.332 14.2883C15.1712 14.4047 15.1053 14.4727 15.0765 14.5125C15.0467 14.5539 15.0254 14.5919 15.0128 14.6236C15.0007 14.6537 15 14.6688 15 14.6729V15.3513C15 15.9036 14.5523 16.3513 14 16.3513C13.4477 16.3513 13 15.9036 13 15.3513V14.6729C13 14.0701 13.2643 13.6062 13.4544 13.3426C13.6711 13.0422 13.9427 12.825 14.1587 12.6685C14.2654 12.5913 14.3752 12.5173 14.4704 12.4531L14.4805 12.4463C14.583 12.3773 14.6716 12.3174 14.7564 12.256C15.0897 12.0146 15.228 11.8435 15.2825 11.6094C15.3546 11.2991 15.2593 11.0366 15.0223 10.8057C14.7585 10.5488 14.3871 10.4103 14.1158 10.4103Z"/>
<path fill-rule="evenodd" clip-rule="evenodd" d="M14 17.25C14.5523 17.25 15 17.6977 15 18.25V18.75C15 19.3023 14.5523 19.75 14 19.75C13.4477 19.75 13 19.3023 13 18.75V18.25C13 17.6977 13.4477 17.25 14 17.25Z"/>
</svg>
