<svg width="28" height="28" viewBox="0 0 28 28" xmlns="http://www.w3.org/2000/svg">
<path fill-rule="evenodd" clip-rule="evenodd" d="M3 14C3 7.92487 7.92487 3 14 3C20.0751 3 25 7.92487 25 14C25 20.0751 20.0751 25 14 25C7.92487 25 3 20.0751 3 14ZM12.8083 11.2365C13.1342 10.7065 13.6387 10.4103 14.1158 10.4103C14.3871 10.4103 14.7585 10.5488 15.0223 10.8057C15.2593 11.0366 15.3546 11.2991 15.2825 11.6094C15.2281 11.8435 15.0897 12.0146 14.7564 12.256C14.6716 12.3174 14.583 12.3773 14.4805 12.4463L14.4705 12.4531C14.3752 12.5173 14.2654 12.5913 14.1588 12.6685C13.9428 12.825 13.6711 13.0422 13.4544 13.3426C13.2643 13.6062 13 14.0701 13 14.6729V15.3513C13 15.9036 13.4477 16.3513 14 16.3513C14.5523 16.3513 15 15.9036 15 15.3513V14.6729C15 14.6688 15.0007 14.6537 15.0128 14.6236C15.0255 14.5919 15.0467 14.5539 15.0765 14.5125C15.1053 14.4727 15.1712 14.4047 15.332 14.2883C15.4099 14.2318 15.4943 14.1749 15.5982 14.1049L15.5995 14.104C15.6982 14.0375 15.8136 13.9597 15.9295 13.8758C16.4008 13.5345 17.0126 12.9999 17.2306 12.0622C17.4893 10.9492 17.0605 9.99902 16.4177 9.37293C15.8015 8.77292 14.9371 8.41034 14.1158 8.41034C12.804 8.41034 11.7145 9.19687 11.1045 10.1891C10.8153 10.6596 10.9622 11.2754 11.4327 11.5647C11.9032 11.8539 12.5191 11.707 12.8083 11.2365ZM15 18.25C15 17.6977 14.5523 17.25 14 17.25C13.4477 17.25 13 17.6977 13 18.25V18.75C13 19.3023 13.4477 19.75 14 19.75C14.5523 19.75 15 19.3023 15 18.75V18.25Z"/>
</svg>
