<svg width="28" height="28" viewBox="0 0 28 28" fill="none" xmlns="http://www.w3.org/2000/svg">
<path fill-rule="evenodd" clip-rule="evenodd" d="M19.8822 8.68116C17.8848 6.49352 14.8413 5.54413 11.9937 6.20858L11.9863 6.21031L11.9863 6.21025C9.80869 6.68364 7.9048 8.10779 6.76148 10.0133C5.77442 11.6584 5.35736 13.5821 5.62594 15.48L8.16921 12.4598C8.34708 12.2486 8.66251 12.2216 8.87373 12.3994C9.08496 12.5773 9.112 12.8927 8.93412 13.104L5.70659 16.9367C5.60527 17.057 5.45324 17.1226 5.29618 17.1138C5.13913 17.105 4.99537 17.0228 4.90811 16.8919L2.08403 12.6558C1.93085 12.426 1.99294 12.1156 2.2227 11.9624C2.45247 11.8093 2.7629 11.8713 2.91608 12.1011L4.54836 14.5495C4.50862 12.7749 4.98801 11.0255 5.90399 9.49882C7.18068 7.37102 9.3097 5.7699 11.7701 5.23388C14.973 4.48797 18.3828 5.55591 20.6207 8.00689C20.8069 8.21082 20.7925 8.52708 20.5886 8.71327C20.3847 8.89947 20.0684 8.88509 19.8822 8.68116ZM21.874 12.4112L18.8604 15.9899C18.6825 16.2011 18.7096 16.5166 18.9208 16.6944C19.132 16.8723 19.4474 16.8453 19.6253 16.6341L21.9775 13.8409C21.9782 17.5489 19.4477 20.9241 15.7028 21.7752L15.7028 21.7751L15.6963 21.7767C12.9491 22.4398 10.1953 21.5911 8.19048 19.6817C7.99051 19.4913 7.67402 19.499 7.48358 19.699C7.29314 19.899 7.30086 20.2154 7.50082 20.4059C9.73135 22.5302 12.826 23.497 15.9276 22.7496C20.045 21.8122 22.8434 18.1742 22.9727 14.1342L24.8784 16.9928C25.0316 17.2225 25.3421 17.2846 25.5718 17.1315C25.8016 16.9783 25.8637 16.6678 25.7105 16.4381L22.8864 12.2019C22.7992 12.0711 22.6554 11.9889 22.4983 11.9801C22.4722 11.9786 22.4462 11.9792 22.4205 11.9818C22.3783 11.9775 22.3349 11.9785 22.291 11.9855C22.0681 12.021 21.9032 12.1986 21.874 12.4112Z"/>
</svg>
