<svg version="1.1" id="Layer_1" xmlns="http://www.w3.org/2000/svg" xmlns:xlink="http://www.w3.org/1999/xlink" x="0px" y="0px"
	 viewBox="0 0 24 10" style="enable-background:new 0 0 24 10;" xml:space="preserve">
<path d="M0,9V0.4h3.7c0.9,0,1.6,0.1,2,0.2c0.4,0.2,0.8,0.4,1,0.8C6.9,1.9,7,2.3,7,2.8C7,3.5,6.8,4,6.5,4.4C6.1,4.8,5.5,5.1,4.8,5.2
	c0.4,0.2,0.7,0.5,0.9,0.7c0.2,0.3,0.6,0.7,1,1.4l1,1.7H5.6L4.4,7.1C3.9,6.5,3.6,6,3.5,5.9C3.3,5.7,3.1,5.6,3,5.5
	C2.8,5.4,2.5,5.4,2.1,5.4H1.7V9H0z M1.7,4H3c0.8,0,1.4,0,1.6-0.1s0.4-0.2,0.5-0.4c0.1-0.2,0.2-0.4,0.2-0.6c0-0.3-0.1-0.5-0.2-0.7
	C4.9,2.1,4.6,1.9,4.4,1.9c-0.1,0-0.6,0-1.3,0H1.7V4z"/>
<path d="M8.2,6.2L9.9,6c0.1,0.6,0.3,1,0.6,1.2c0.3,0.3,0.7,0.4,1.3,0.4c0.6,0,1-0.1,1.3-0.4c0.3-0.2,0.4-0.5,0.4-0.8
	c0-0.2-0.1-0.4-0.2-0.5c-0.1-0.1-0.3-0.3-0.6-0.4c-0.2-0.1-0.7-0.2-1.4-0.4c-0.9-0.2-1.6-0.5-2-0.8c-0.5-0.5-0.8-1-0.8-1.7
	c0-0.4,0.1-0.8,0.4-1.2C9.2,1.1,9.5,0.8,10,0.6c0.5-0.2,1-0.3,1.7-0.3c1.1,0,1.9,0.2,2.4,0.7c0.5,0.5,0.8,1.1,0.9,1.9l-1.7,0.1
	C13.2,2.5,13,2.2,12.8,2c-0.2-0.2-0.6-0.3-1.1-0.3c-0.5,0-0.9,0.1-1.2,0.3c-0.2,0.1-0.3,0.3-0.3,0.5c0,0.2,0.1,0.4,0.3,0.5
	c0.2,0.2,0.8,0.4,1.6,0.6c0.8,0.2,1.5,0.4,1.9,0.6c0.4,0.2,0.7,0.5,0.9,0.9c0.2,0.4,0.3,0.8,0.3,1.4c0,0.5-0.1,1-0.4,1.4
	c-0.3,0.4-0.7,0.8-1.2,1c-0.5,0.2-1.1,0.3-1.9,0.3c-1.1,0-1.9-0.2-2.5-0.8C8.7,7.9,8.3,7.2,8.2,6.2z"/>
<path d="M16.2,6.2L17.9,6c0.1,0.6,0.3,1,0.6,1.2c0.3,0.3,0.7,0.4,1.3,0.4c0.6,0,1-0.1,1.3-0.4c0.3-0.2,0.4-0.5,0.4-0.8
	c0-0.2-0.1-0.4-0.2-0.5c-0.1-0.1-0.3-0.3-0.6-0.4c-0.2-0.1-0.7-0.2-1.4-0.4c-0.9-0.2-1.6-0.5-2-0.8c-0.5-0.5-0.8-1-0.8-1.7
	c0-0.4,0.1-0.8,0.4-1.2c0.2-0.4,0.6-0.7,1.1-0.9c0.5-0.2,1-0.3,1.7-0.3c1.1,0,1.9,0.2,2.4,0.7c0.5,0.5,0.8,1.1,0.9,1.9l-1.7,0.1
	C21.2,2.5,21,2.2,20.8,2c-0.2-0.2-0.6-0.3-1.1-0.3c-0.5,0-0.9,0.1-1.2,0.3c-0.2,0.1-0.3,0.3-0.3,0.5c0,0.2,0.1,0.4,0.3,0.5
	c0.2,0.2,0.8,0.4,1.6,0.6c0.8,0.2,1.5,0.4,1.9,0.6c0.4,0.2,0.7,0.5,0.9,0.9c0.2,0.4,0.3,0.8,0.3,1.4c0,0.5-0.1,1-0.4,1.4
	c-0.3,0.4-0.7,0.8-1.2,1c-0.5,0.2-1.1,0.3-1.9,0.3c-1.1,0-1.9-0.2-2.5-0.8C16.7,7.9,16.3,7.2,16.2,6.2z"/>
</svg>
