<svg width="33" height="28" viewBox="0 0 33 28" fill="none" xmlns="http://www.w3.org/2000/svg">
<path d="M6.73438 13.043H8.01758C8.84961 13.043 9.36914 13.0078 9.57617 12.9375C9.7832 12.8672 9.94531 12.7461 10.0625 12.5742C10.1797 12.4023 10.2383 12.1875 10.2383 11.9297C10.2383 11.6406 10.1602 11.4082 10.0039 11.2324C9.85156 11.0527 9.63477 10.9395 9.35352 10.8926C9.21289 10.873 8.79102 10.8633 8.08789 10.8633H6.73438V13.043Z"/>
<path fill-rule="evenodd" clip-rule="evenodd" d="M4 2C1.79086 2 0 3.79086 0 6V22C0 24.2091 1.79086 26 4 26H29C31.2091 26 33 24.2091 33 22V6C33 3.79086 31.2091 2 29 2H4ZM13.2266 15.2051L14.9141 15.041C15.0156 15.6074 15.2207 16.0234 15.5293 16.2891C15.8418 16.5547 16.2617 16.6875 16.7891 16.6875C17.3477 16.6875 17.7676 16.5703 18.0488 16.3359C18.334 16.0977 18.4766 15.8203 18.4766 15.5039C18.4766 15.3008 18.416 15.1289 18.2949 14.9883C18.1777 14.8438 17.9707 14.7188 17.6738 14.6133C17.4707 14.543 17.0078 14.418 16.2852 14.2383C15.3555 14.0078 14.7031 13.7246 14.3281 13.3887C13.8008 12.916 13.5371 12.3398 13.5371 11.6602C13.5371 11.2227 13.6602 10.8145 13.9062 10.4355C14.1562 10.0527 14.5137 9.76172 14.9785 9.5625C15.4473 9.36328 16.0117 9.26367 16.6719 9.26367C17.75 9.26367 18.5605 9.5 19.1035 9.97266C19.6504 10.4453 19.9375 11.0762 19.9648 11.8652L18.2305 11.9414C18.1562 11.5 17.9961 11.1836 17.75 10.9922C17.5078 10.7969 17.1426 10.6992 16.6543 10.6992C16.1504 10.6992 15.7559 10.8027 15.4707 11.0098C15.2871 11.1426 15.1953 11.3203 15.1953 11.543C15.1953 11.7461 15.2812 11.9199 15.4531 12.0645C15.6719 12.248 16.2031 12.4395 17.0469 12.6387C17.8906 12.8379 18.5137 13.0449 18.916 13.2598C19.3223 13.4707 19.6387 13.7617 19.8652 14.1328C20.0957 14.5 20.2109 14.9551 20.2109 15.498C20.2109 15.9902 20.0742 16.4512 19.8008 16.8809C19.5273 17.3105 19.1406 17.6309 18.6406 17.8418C18.1406 18.0488 17.5176 18.1523 16.7715 18.1523C15.6855 18.1523 14.8516 17.9023 14.2695 17.4023C13.6875 16.8984 13.3398 16.166 13.2266 15.2051ZM5 18V9.41016H8.65039C9.56836 9.41016 10.2344 9.48828 10.6484 9.64453C11.0664 9.79688 11.4004 10.0703 11.6504 10.4648C11.9004 10.8594 12.0254 11.3105 12.0254 11.8184C12.0254 12.4629 11.8359 12.9961 11.457 13.418C11.0781 13.8359 10.5117 14.0996 9.75781 14.209C10.1328 14.4277 10.4414 14.668 10.6836 14.9297C10.9297 15.1914 11.2598 15.6562 11.6738 16.3242L12.7227 18H10.6484L9.39453 16.1309C8.94922 15.4629 8.64453 15.043 8.48047 14.8711C8.31641 14.6953 8.14258 14.5762 7.95898 14.5137C7.77539 14.4473 7.48438 14.4141 7.08594 14.4141H6.73438V18H5ZM22.918 15.041L21.2305 15.2051C21.3438 16.166 21.6914 16.8984 22.2734 17.4023C22.8555 17.9023 23.6895 18.1523 24.7754 18.1523C25.5215 18.1523 26.1445 18.0488 26.6445 17.8418C27.1445 17.6309 27.5312 17.3105 27.8047 16.8809C28.0781 16.4512 28.2148 15.9902 28.2148 15.498C28.2148 14.9551 28.0996 14.5 27.8691 14.1328C27.6426 13.7617 27.3262 13.4707 26.9199 13.2598C26.5176 13.0449 25.8945 12.8379 25.0508 12.6387C24.207 12.4395 23.6758 12.248 23.457 12.0645C23.2852 11.9199 23.1992 11.7461 23.1992 11.543C23.1992 11.3203 23.291 11.1426 23.4746 11.0098C23.7598 10.8027 24.1543 10.6992 24.6582 10.6992C25.1465 10.6992 25.5117 10.7969 25.7539 10.9922C26 11.1836 26.1602 11.5 26.2344 11.9414L27.9688 11.8652C27.9414 11.0762 27.6543 10.4453 27.1074 9.97266C26.5645 9.5 25.7539 9.26367 24.6758 9.26367C24.0156 9.26367 23.4512 9.36328 22.9824 9.5625C22.5176 9.76172 22.1602 10.0527 21.9102 10.4355C21.6641 10.8145 21.541 11.2227 21.541 11.6602C21.541 12.3398 21.8047 12.916 22.332 13.3887C22.707 13.7246 23.3594 14.0078 24.2891 14.2383C25.0117 14.418 25.4746 14.543 25.6777 14.6133C25.9746 14.7188 26.1816 14.8438 26.2988 14.9883C26.4199 15.1289 26.4805 15.3008 26.4805 15.5039C26.4805 15.8203 26.3379 16.0977 26.0527 16.3359C25.7715 16.5703 25.3516 16.6875 24.793 16.6875C24.2656 16.6875 23.8457 16.5547 23.5332 16.2891C23.2246 16.0234 23.0195 15.6074 22.918 15.041Z"/>
</svg>
