<svg width="28" height="28" viewBox="0 0 28 28" fill="currentColor" xmlns="http://www.w3.org/2000/svg">
<path fill-rule="evenodd" clip-rule="evenodd" d="M13.1819 6.5C9.4972 6.5 6.5 9.52445 6.5 13.2679C6.5 17.0113 9.4972 20.0357 13.1819 20.0357C16.8667 20.0357 19.8639 17.0113 19.8639 13.2679C19.8639 9.52445 16.8667 6.5 13.1819 6.5ZM5.5 13.2679C5.5 8.98341 8.93373 5.5 13.1819 5.5C17.4301 5.5 20.8639 8.98341 20.8639 13.2679C20.8639 15.1813 20.179 16.9349 19.0426 18.2899L22.8556 22.1486C23.0497 22.345 23.0479 22.6616 22.8514 22.8556C22.655 23.0497 22.3384 23.0479 22.1444 22.8514L18.3518 19.0135C16.9879 20.2694 15.1745 21.0357 13.1819 21.0357C8.93373 21.0357 5.5 17.5523 5.5 13.2679Z"/>
</svg>
