<svg xmlns="http://www.w3.org/2000/svg" viewBox="0 0 640 640"><!--!Font Awesome Pro v7.0.0 by @fontawesome - https://fontawesome.com License - https://fontawesome.com/license (Commercial License) Copyright 2025 Fonticons, Inc.--><path d="M69.3 100L49.3 86.7L22.7 126.6C31.3 132.4 54 147.5 90.7 171.9L110.7 185.2L137.3 145.3L69.3 100zM597.3 140L617.3 126.7L590.7 86.8C582.1 92.6 559.4 107.7 522.7 132.1L502.7 145.4L529.3 185.3C537.9 179.5 560.6 164.4 597.3 140zM24 256L0 256L0 304L112 304L112 256L24 256zM552 256L528 256L528 304L640 304L640 256L552 256zM176 96L144 368L212.3 368L231.9 192L280.2 192L279.9 194.7L260.6 368L496 368L464 96L176 96zM544 416L96 416L96 544L544 544L544 416z"/></svg>
