<svg width="28" height="28" viewBox="0 0 28 28" xmlns="http://www.w3.org/2000/svg">
<path fill-rule="evenodd" clip-rule="evenodd" d="M7 5C7 3.34314 8.34315 2 10 2H18C19.6569 2 21 3.34315 21 5V23C21 24.6569 19.6569 26 18 26H10C8.34315 26 7 24.6569 7 23V5ZM10 4C9.44771 4 9 4.44772 9 5V23C9 23.5523 9.44772 24 10 24H18C18.5523 24 19 23.5523 19 23V5C19 4.44772 18.5523 4 18 4H10Z"/>
<path fill-rule="evenodd" clip-rule="evenodd" d="M12.5 21.5C12.5 20.9477 12.9477 20.5 13.5 20.5H14.5C15.0523 20.5 15.5 20.9477 15.5 21.5C15.5 22.0523 15.0523 22.5 14.5 22.5H13.5C12.9477 22.5 12.5 22.0523 12.5 21.5Z"/>
</svg>
