<svg width="28" height="28" viewBox="0 0 28 28" fill="currentColor" xmlns="http://www.w3.org/2000/svg">
<path fill-rule="evenodd" clip-rule="evenodd" d="M14 2C7.37011 2 2 7.37011 2 14C2 19.6778 5.93851 24.4317 11.2339 25.6799C11.266 25.6909 11.2991 25.6985 11.3328 25.7028C12.1905 25.8973 13.0832 26 14 26C14.9422 26 15.8589 25.8916 16.7383 25.6865C16.7525 25.6838 16.7665 25.6805 16.7804 25.6766C22.0686 24.4231 26 19.6727 26 14C26 9.01218 22.9606 4.73739 18.6319 2.92582C18.6123 2.91615 18.5921 2.90775 18.5714 2.9007C17.1626 2.32018 15.6189 2 14 2ZM17.7298 24.3522C19.7172 23.6365 21.4387 22.3651 22.707 20.7251L19.4436 21.4773L17.7298 24.3522ZM23.5234 19.5107C24.2877 18.1921 24.786 16.6998 24.945 15.1073L22.1548 11.8983L19.5337 13.1826L17.738 18.7393L19.2989 20.4844L23.5234 19.5107ZM18.5057 21.0975L16.9505 19.3588H11.0778L9.51942 21.0959L11.712 24.762C12.45 24.918 13.2154 25 14 25C14.7981 25 15.5763 24.9151 16.3261 24.7539L18.5057 21.0975ZM8.72128 20.4881L10.2903 18.7391L8.49154 13.1894L5.86809 11.904L3.0576 15.1333C3.21934 16.7154 3.71605 18.1981 4.47572 19.5092L8.72128 20.4881ZM6.21631 10.961L8.8443 12.2487L13.5117 8.84653V5.58422L9.60521 3.9122C8.15981 4.54238 6.87634 5.47402 5.83413 6.62782L6.21631 10.961ZM19.1739 12.2453L21.8069 10.9552L22.1891 6.65358C21.1461 5.49166 19.8593 4.55316 18.4089 3.91838L14.5117 5.58424V8.84695L19.1739 12.2453ZM23.0909 7.80289C24.2325 9.47486 24.9248 11.4783 24.9942 13.6398L22.7969 11.1127L23.0909 7.80289ZM8.58577 21.4831L5.29181 20.7236C6.56869 22.3753 8.30526 23.6533 10.3102 24.3665L8.58577 21.4831ZM14 3C15.0501 3 16.0657 3.14695 17.0274 3.42141L14.0117 4.71046L10.989 3.41674C11.9459 3.14528 12.9559 3 14 3ZM3.00483 13.6706L5.22629 11.1182L4.93106 7.77083C3.77092 9.45715 3.06906 11.4835 3.00483 13.6706ZM9.48707 13.0176L14.0114 9.71974L18.5361 13.0178L16.8101 18.3588H11.2182L9.48707 13.0176Z"/>
</svg>
