<svg width="19" height="19" viewBox="0 0 19 19" xmlns="http://www.w3.org/2000/svg">
<path fill-rule="evenodd" clip-rule="evenodd" d="M9.51991 1.60003C5.14581 1.60003 1.59991 5.14594 1.59991 9.52003C1.59991 13.8941 5.14581 17.44 9.51991 17.44C13.894 17.44 17.4399 13.8941 17.4399 9.52003C17.4399 5.14594 13.894 1.60003 9.51991 1.60003ZM0.159912 9.52003C0.159912 4.35065 4.35052 0.160034 9.51991 0.160034C14.6893 0.160034 18.8799 4.35065 18.8799 9.52003C18.8799 14.6894 14.6893 18.88 9.51991 18.88C4.35052 18.88 0.159912 14.6894 0.159912 9.52003Z" />
<path fill-rule="evenodd" clip-rule="evenodd" d="M9.51979 13.1201C8.88456 13.1201 8.25911 13.2764 7.69861 13.5753C7.34775 13.7625 6.91162 13.6297 6.7245 13.2789C6.53737 12.928 6.6701 12.4919 7.02097 12.3048C7.79001 11.8946 8.6482 11.6801 9.51979 11.6801C10.3914 11.6801 11.2496 11.8946 12.0186 12.3048C12.3695 12.4919 12.5022 12.928 12.3151 13.2789C12.128 13.6297 11.6918 13.7625 11.341 13.5753C10.7805 13.2764 10.155 13.1201 9.51979 13.1201Z" />
<path fill-rule="evenodd" clip-rule="evenodd" d="M9.51991 7.36004C7.88014 7.36004 6.26558 7.76368 4.81873 8.53534C4.46787 8.72246 4.03174 8.58973 3.84461 8.23887C3.65749 7.888 3.79022 7.45188 4.14108 7.26475C5.79649 6.38187 7.64378 5.92004 9.51991 5.92004C11.396 5.92004 13.2433 6.38187 14.8987 7.26475C15.2496 7.45188 15.3823 7.888 15.1952 8.23887C15.0081 8.58973 14.5719 8.72246 14.2211 8.53534C12.7742 7.76368 11.1597 7.36004 9.51991 7.36004Z" />
<path fill-rule="evenodd" clip-rule="evenodd" d="M9.51985 10.24C8.38235 10.24 7.26235 10.5201 6.25867 11.0553C5.90781 11.2425 5.47168 11.1097 5.28456 10.7589C5.09743 10.408 5.23016 9.97188 5.58103 9.78475C6.79325 9.13823 8.14599 8.80005 9.51985 8.80005C10.8937 8.80005 12.2464 9.13823 13.4587 9.78475C13.8095 9.97188 13.9423 10.408 13.7551 10.7589C13.568 11.1097 13.1319 11.2425 12.781 11.0553C11.7774 10.5201 10.6573 10.24 9.51985 10.24Z" />
</svg>
