<svg width="28" height="28" viewBox="0 0 28 28" xmlns="http://www.w3.org/2000/svg">
<path fill-rule="evenodd" clip-rule="evenodd" d="M18.1169 9.81415L15.296 3.27014C15.0407 2.79485 14.5434 2.5 14.0065 2.5C13.4696 2.5 12.9723 2.79485 12.7171 3.27014L9.89178 9.81415H4.39516C3.82745 9.79215 3.30816 10.131 3.09692 10.6591C2.88568 11.1828 3.02651 11.7857 3.45339 12.1642L8.22387 16.4066L5.58338 22.4797C5.34574 23.0474 5.49976 23.7031 5.96185 24.1124C6.42393 24.5217 7.09726 24.5877 7.62976 24.2796L14.0065 20.6842L20.3833 24.2796C20.9158 24.5877 21.5891 24.5217 22.0512 24.1124C22.5133 23.7075 22.6673 23.0474 22.4297 22.4797L19.7892 16.4066L24.5509 12.1642C24.9734 11.7857 25.1142 11.1828 24.903 10.6547C24.6917 10.131 24.1724 9.79215 23.6047 9.81415H18.1169ZM21.5091 22.8703L18.8721 16.8053C18.6999 16.4092 18.8015 15.9473 19.124 15.6599L23.8836 11.4193V11.4193C23.9916 11.3222 24.0297 11.166 23.975 11.0275C23.9206 10.894 23.7869 10.8078 23.6434 10.8134C23.6305 10.8139 23.6176 10.8141 23.6047 10.8141H18.1169C17.7176 10.8141 17.3566 10.5767 17.1986 10.21L14.3995 3.71662C14.3158 3.58325 14.167 3.5 14.0065 3.5C13.846 3.5 13.6972 3.58332 13.6135 3.71679L10.8099 10.2105C10.6517 10.5769 10.2908 10.8141 9.89178 10.8141H4.39516C4.38225 10.8141 4.36933 10.8139 4.35643 10.8134C4.21398 10.8079 4.08044 10.8929 4.0254 11.0305L4.02432 11.0332C3.97171 11.1636 4.00563 11.3174 4.11679 11.4159L4.11792 11.4169L8.8884 15.6593C9.21142 15.9466 9.3133 16.4089 9.14094 16.8053L6.50399 22.8703C6.43664 23.0365 6.4797 23.2352 6.62488 23.3638C6.76357 23.4866 6.96789 23.5072 7.129 23.414L7.13858 23.4085L13.5154 19.8131C13.8203 19.6412 14.1928 19.6412 14.4977 19.8131L20.8841 23.414C21.0452 23.5072 21.2495 23.4866 21.3882 23.3638L21.3922 23.3602C21.5307 23.2389 21.5776 23.0393 21.5091 22.8703Z"/>
</svg>
