<svg width="28" height="28" viewBox="0 0 28 28" fill="currentColor" xmlns="http://www.w3.org/2000/svg">
<path d="M15.296 3.27014L18.1169 9.81415H23.6047C24.1724 9.79215 24.6917 10.131 24.903 10.6547C25.1142 11.1828 24.9734 11.7857 24.5509 12.1642L19.7892 16.4066L22.4297 22.4797C22.6673 23.0474 22.5133 23.7075 22.0512 24.1124C21.5891 24.5217 20.9158 24.5877 20.3833 24.2796L14.0065 20.6842L7.62976 24.2796C7.09726 24.5877 6.42393 24.5217 5.96185 24.1124C5.49976 23.7031 5.34574 23.0474 5.58338 22.4797L8.22387 16.4066L3.45339 12.1642C3.02651 11.7857 2.88568 11.1828 3.09692 10.6591C3.30816 10.131 3.82745 9.79215 4.39516 9.81415H9.89178L12.7171 3.27014C12.9723 2.79485 13.4696 2.5 14.0065 2.5C14.5434 2.5 15.0407 2.79485 15.296 3.27014Z"/>
</svg>
