<svg width="28" height="28" viewBox="0 0 28 28" xmlns="http://www.w3.org/2000/svg">
<path fill-rule="evenodd" clip-rule="evenodd" d="M7.13858 23.4085L7.13861 23.4085L13.0065 20.1V5.1226L10.8099 10.2105C10.6517 10.5769 10.2908 10.8142 9.89178 10.8142H4.39516C4.38225 10.8142 4.36933 10.8139 4.35643 10.8134C4.21398 10.8079 4.08044 10.8929 4.0254 11.0305L4.02432 11.0332C3.97171 11.1636 4.00563 11.3174 4.11679 11.4159L4.11792 11.4169L8.8884 15.6593C9.21142 15.9466 9.3133 16.4089 9.14094 16.8053L6.50399 22.8703C6.43664 23.0364 6.4797 23.2352 6.62488 23.3638C6.76357 23.4866 6.96789 23.5072 7.129 23.414L7.13858 23.4085ZM5.58338 22.4797L8.22387 16.4066L3.45339 12.1642C3.02651 11.7857 2.88568 11.1828 3.09692 10.6591C3.30816 10.131 3.82745 9.79215 4.39516 9.81415H9.89178L12.7171 3.27014C12.8918 2.94493 13.1797 2.70419 13.5162 2.58459C13.7764 2.4921 14.0065 2.72386 14.0065 3V20.3921C14.0065 20.5725 13.9093 20.739 13.7521 20.8276L7.62976 24.2796C7.09726 24.5877 6.42393 24.5217 5.96185 24.1124C5.49976 23.7031 5.34574 23.0474 5.58338 22.4797Z"/>
</svg>
