<svg width="28" height="28" viewBox="0 0 28 28" fill="currentColor" xmlns="http://www.w3.org/2000/svg">
<path fill-rule="evenodd" clip-rule="evenodd" d="M3 4.5C3 2.567 4.567 1 6.5 1H21.5C23.433 1 25 2.567 25 4.5V23.5C25 25.433 23.433 27 21.5 27H6.5C4.567 27 3 25.433 3 23.5V4.5ZM6.5 3C5.67157 3 5 3.67157 5 4.5V23.5C5 24.3284 5.67157 25 6.5 25H21.5C22.3284 25 23 24.3284 23 23.5V4.5C23 3.67157 22.3284 3 21.5 3H6.5Z"/>
<path fill-rule="evenodd" clip-rule="evenodd" d="M12.5 22.5C12.5 21.9477 12.9477 21.5 13.5 21.5H14.5C15.0523 21.5 15.5 21.9477 15.5 22.5C15.5 23.0523 15.0523 23.5 14.5 23.5H13.5C12.9477 23.5 12.5 23.0523 12.5 22.5Z"/>
</svg>
