<svg width="28" height="28" viewBox="0 0 28 28" xmlns="http://www.w3.org/2000/svg">
<path fill-rule="evenodd" clip-rule="evenodd" d="M15.2119 4.70923C14.0184 4.70923 12.8738 5.18333 12.0299 6.02725L4.00909 14.0481C3.03278 15.0244 3.03278 16.6073 4.00909 17.5836L10.373 23.9476C11.3494 24.9239 12.9323 24.9239 13.9086 23.9476L21.9294 15.9267C22.7733 15.0828 23.2474 13.9382 23.2474 12.7448V6.20923C23.2474 5.3808 22.5758 4.70923 21.7474 4.70923H15.2119ZM15.7268 9.50218C16.4801 8.74891 17.7014 8.74891 18.4547 9.50218C19.2079 10.2554 19.2079 11.4767 18.4547 12.23C17.7014 12.9833 16.4801 12.9833 15.7268 12.23C14.9736 11.4767 14.9736 10.2554 15.7268 9.50218Z"/>
</svg>
