<svg width="28" height="28" viewBox="0 0 28 28" fill="none" xmlns="http://www.w3.org/2000/svg">
<path fill-rule="evenodd" clip-rule="evenodd" d="M18.8585 9.09836C17.8822 8.12205 16.2993 8.12205 15.323 9.09836C14.3467 10.0747 14.3467 11.6576 15.323 12.6339C16.2993 13.6102 17.8822 13.6102 18.8585 12.6339C19.8348 11.6576 19.8348 10.0747 18.8585 9.09836ZM16.0301 9.80547C16.6159 9.21968 17.5656 9.21968 18.1514 9.80547C18.7372 10.3913 18.7372 11.341 18.1514 11.9268C17.5656 12.5126 16.6159 12.5126 16.0301 11.9268C15.4443 11.341 15.4443 10.3913 16.0301 9.80547Z"/>
<path fill-rule="evenodd" clip-rule="evenodd" d="M23.2477 6.20929C23.2477 5.38086 22.5761 4.70929 21.7477 4.70929H15.2121C14.0187 4.70929 12.8741 5.18339 12.0301 6.02731L4.00933 14.0481C3.03302 15.0244 3.03302 16.6073 4.00933 17.5837L10.3733 23.9476C11.3496 24.9239 12.9325 24.9239 13.9088 23.9476L21.9296 15.9268C22.7736 15.0829 23.2477 13.9383 23.2477 12.7448L23.2477 6.20929ZM21.7477 5.70929C22.0238 5.70929 22.2477 5.93315 22.2477 6.20929V12.7448C22.2477 13.6731 21.8789 14.5633 21.2225 15.2197L13.2017 23.2405C12.6159 23.8263 11.6662 23.8263 11.0804 23.2405L4.71644 16.8766C4.13065 16.2908 4.13065 15.341 4.71644 14.7552L12.7373 6.73442C13.3936 6.07804 14.2839 5.70929 15.2121 5.70929L21.7477 5.70929Z"/>
</svg>
