<svg width="28" height="28" viewBox="0 0 28 28" fill="currentColor" xmlns="http://www.w3.org/2000/svg">
<path fill-rule="evenodd" clip-rule="evenodd" d="M23.6339 7.39792C23.833 7.39792 24.0001 7.56498 24.0001 7.7641V14.5746C23.9598 15.1905 23.7201 15.775 23.3135 16.2513L14.3932 24.5631C14.3846 24.5712 14.3761 24.5793 14.3678 24.5877C14.3011 24.6544 14.2039 24.6949 14.1088 24.6949C14.0137 24.6949 13.9165 24.6544 13.8498 24.5877L6.20897 16.9468C6.14227 16.8801 6.10177 16.7829 6.10177 16.6878C6.10177 16.5966 6.13902 16.5035 6.20092 16.4372L15.1348 8.10301C15.6028 7.6875 16.1947 7.439 16.8234 7.39792H23.6339ZM26.0001 7.7641C26.0001 6.46041 24.9376 5.39792 23.6339 5.39792H16.7932C16.7745 5.39792 16.7558 5.39844 16.7371 5.39949C15.6418 5.46103 14.607 5.89214 13.7945 6.61847L13.7788 6.63278L4.81973 14.9905C4.81127 14.9984 4.80294 15.0065 4.79476 15.0146C4.35403 15.4554 4.10177 16.0608 4.10177 16.6878C4.10177 17.3149 4.35403 17.9203 4.79476 18.361L12.4356 26.0019C12.8763 26.4426 13.4818 26.6949 14.1088 26.6949C14.7291 26.6949 15.3282 26.448 15.7677 26.016L24.7157 17.6784C24.7398 17.656 24.7627 17.6323 24.7845 17.6076C25.5054 16.789 25.9369 15.7574 25.9985 14.6608C25.9995 14.6422 26.0001 14.6235 26.0001 14.6047V7.7641Z"/>
<path fill-rule="evenodd" clip-rule="evenodd" d="M21.8076 3C21.8076 2.44772 21.3599 2 20.8076 2H12.3568C11.3827 2 10.425 2.37892 9.72317 3.0873L1.08425 11.3364L1.06774 11.3525C0.627007 11.7932 0.374756 12.3987 0.374756 13.0257C0.374756 13.6527 0.627007 14.2582 1.06774 14.6989L1.46784 15.099C1.85837 15.4895 2.49153 15.4895 2.88205 15.099C3.27258 14.7085 3.27258 14.0753 2.88205 13.6848L2.48196 13.2847C2.41525 13.218 2.37476 13.1208 2.37476 13.0257C2.37476 12.9332 2.41308 12.8387 2.47658 12.7722L11.1152 4.52343C11.1231 4.51592 11.1308 4.50829 11.1384 4.50053C11.4504 4.18259 11.8924 4 12.3568 4H20.8076C21.3599 4 21.8076 3.55228 21.8076 3Z"/>
<path fill-rule="evenodd" clip-rule="evenodd" d="M21.892 12.5555C21.892 10.8712 20.527 9.50623 18.8428 9.50623C17.1585 9.50623 15.7935 10.8712 15.7935 12.5555C15.7935 14.2398 17.1585 15.6048 18.8428 15.6048C20.527 15.6048 21.892 14.2398 21.892 12.5555ZM18.8428 11.5062C19.4224 11.5062 19.892 11.9758 19.892 12.5555C19.892 13.1352 19.4224 13.6048 18.8428 13.6048C18.2631 13.6048 17.7935 13.1352 17.7935 12.5555C17.7935 11.9758 18.2631 11.5062 18.8428 11.5062Z"/>
</svg>
