<svg width="28" height="28" viewBox="0 0 28 28" fill="currentColor" xmlns="http://www.w3.org/2000/svg">
<path d="M20.8076 2C21.3599 2 21.8076 2.44772 21.8076 3C21.8076 3.55228 21.3599 4 20.8076 4H12.3568C11.8924 4 11.4504 4.18259 11.1384 4.50053C11.1308 4.50829 11.1231 4.51592 11.1152 4.52343L2.47658 12.7722C2.41308 12.8387 2.37476 12.9332 2.37476 13.0257C2.37476 13.1208 2.41525 13.218 2.48196 13.2847L2.88205 13.6848C3.27258 14.0753 3.27258 14.7085 2.88205 15.099C2.49153 15.4895 1.85837 15.4895 1.46784 15.099L1.06774 14.6989C0.627007 14.2582 0.374756 13.6527 0.374756 13.0257C0.374756 12.3987 0.627007 11.7932 1.06774 11.3525L1.08425 11.3364L9.72317 3.0873C10.425 2.37892 11.3827 2 12.3568 2H20.8076Z"/>
<path d="M18.8428 11.5062C19.4225 11.5062 19.892 11.9758 19.892 12.5555C19.892 13.1352 19.4225 13.6048 18.8428 13.6048C18.2631 13.6048 17.7935 13.1352 17.7935 12.5555C17.7935 11.9758 18.2631 11.5062 18.8428 11.5062Z"/>
<path fill-rule="evenodd" clip-rule="evenodd" d="M23.6341 5.39795C24.9378 5.39795 26.0003 6.46044 26.0003 7.76413V14.6048C26.0003 14.6235 25.9998 14.6422 25.9987 14.6609C25.9371 15.7574 25.5056 16.789 24.7847 17.6077C24.763 17.6324 24.74 17.656 24.7159 17.6784L15.7679 26.016C15.3285 26.448 14.7293 26.6949 14.109 26.6949C13.482 26.6949 12.8766 26.4426 12.4358 26.0019L4.79499 18.3611C4.35426 17.9203 4.102 17.3149 4.102 16.6879C4.102 16.0608 4.35426 15.4554 4.79499 15.0147C4.80317 15.0065 4.81149 14.9985 4.81996 14.9906L13.7791 6.63281L13.7947 6.6185C14.6072 5.89217 15.642 5.46106 16.7374 5.39952C16.7561 5.39847 16.7748 5.39795 16.7935 5.39795H23.6341ZM21.892 12.5555C21.892 10.8712 20.527 9.50623 18.8428 9.50623C17.1585 9.50623 15.7935 10.8712 15.7935 12.5555C15.7935 14.2398 17.1585 15.6048 18.8428 15.6048C20.527 15.6048 21.892 14.2398 21.892 12.5555Z"/>
</svg>
