<svg width="28" height="28" viewBox="0 0 28 28" fill="currentColor" xmlns="http://www.w3.org/2000/svg">
<path d="M20.6464 6.64645C20.8417 6.45118 21.1583 6.45118 21.3536 6.64645C21.5488 6.84171 21.5488 7.15829 21.3536 7.35355L14.7071 14L21.3536 20.6464C21.5488 20.8417 21.5488 21.1583 21.3536 21.3536C21.1583 21.5488 20.8417 21.5488 20.6464 21.3536L14 14.7071L7.35355 21.3536C7.15829 21.5488 6.84171 21.5488 6.64645 21.3536C6.45118 21.1583 6.45118 20.8417 6.64645 20.6464L13.2929 14L6.64645 7.35355C6.45118 7.15829 6.45118 6.84171 6.64645 6.64645C6.84171 6.45118 7.15829 6.45118 7.35355 6.64645L14 13.2929L20.6464 6.64645Z"/>
</svg>
