<svg width="16" height="16" viewBox="0 0 16 16" fill="none" xmlns="http://www.w3.org/2000/svg">
<path fill-rule="evenodd" clip-rule="evenodd" d="M1 8C1 4.10647 4.10647 1 8 1C11.8935 1 15 4.10647 15 8C15 11.8935 11.8935 15 8 15C4.10647 15 1 11.8935 1 8ZM8 2C4.65875 2 2 4.65875 2 8C2 11.3412 4.65875 14 8 14C11.3412 14 14 11.3412 14 8C14 4.65875 11.3412 2 8 2Z"/>
<path fill-rule="evenodd" clip-rule="evenodd" d="M8 4.5C8.27614 4.5 8.5 4.72386 8.5 5V7.7169L10.7572 9.07125C10.994 9.21333 11.0708 9.52046 10.9287 9.75725C10.7867 9.99404 10.4795 10.0708 10.2428 9.92875L7.9855 8.5744C7.6843 8.39367 7.5 8.06817 7.5 7.7169V5C7.5 4.72386 7.72386 4.5 8 4.5Z"/>
</svg>
