<svg width="28" height="28" viewBox="0 0 28 28" xmlns="http://www.w3.org/2000/svg">
<path fill-rule="evenodd" clip-rule="evenodd" d="M26.751 6.34235C25.8492 6.75226 24.8771 7.02164 23.8699 7.15046C24.9006 6.52974 25.697 5.54595 26.0717 4.36306C25.0997 4.94865 24.0222 5.35856 22.8861 5.5928C21.9609 4.58559 20.6609 4 19.1852 4C16.4329 4 14.1843 6.24866 14.1843 9.02435C14.1843 9.42255 14.2311 9.80903 14.3131 10.1721C10.1437 9.96129 6.4311 7.95858 3.95992 4.92523C3.52658 5.66307 3.28064 6.52974 3.28064 7.44326C3.28064 9.18831 4.15902 10.7343 5.51758 11.6126C4.68605 11.6126 3.91307 11.3784 3.23379 11.0271C3.23379 11.0271 3.23379 11.0271 3.23379 11.0622C3.23379 13.4982 4.96713 15.5361 7.26264 15.9928C6.84101 16.11 6.39597 16.1685 5.93921 16.1685C5.62299 16.1685 5.30677 16.1334 5.00226 16.0748C5.6347 18.0541 7.47345 19.5298 9.68697 19.5649C7.97705 20.9235 5.81038 21.7199 3.4446 21.7199C3.0464 21.7199 2.6482 21.6965 2.25 21.6496C4.47524 23.0785 7.12209 23.91 9.95634 23.91C19.1852 23.91 24.2564 16.2505 24.2564 9.60994C24.2564 9.38741 24.2564 9.1766 24.2447 8.95408C25.2285 8.25137 26.0717 7.36128 26.751 6.34235Z"/>
</svg>
