<svg width="28" height="28" viewBox="0 0 28 28" fill="currentColor" xmlns="http://www.w3.org/2000/svg">
<path d="M11.3076 11.6923C11.3076 10.2575 12.519 9.0434 13.9999 9.0434C15.4504 9.0434 16.6922 10.3139 16.6922 11.7791C16.6922 13.2139 15.4808 14.428 13.9999 14.428C12.5494 14.428 11.3076 13.1575 11.3076 11.6923Z"/>
<path fill-rule="evenodd" clip-rule="evenodd" d="M26 14C26 20.6783 20.6783 26 14 26C7.32174 26 2 20.6783 2 14C2 7.32174 7.32174 2 14 2C20.6783 2 26 7.32174 26 14ZM13.9999 7.0434C11.4368 7.0434 9.30759 9.13067 9.30759 11.6923C9.30759 14.2234 11.4065 16.428 13.9999 16.428C16.563 16.428 18.6922 14.3407 18.6922 11.7791C18.6922 9.24802 16.5933 7.0434 13.9999 7.0434ZM8.8555 22.0177L9.59374 20.7975C10.0944 20.0585 10.9292 19.6154 11.8226 19.6154H16.1782C17.0715 19.6154 17.9062 20.0584 18.4069 20.7972L19.144 22.0172C19.4297 22.4899 20.0444 22.6415 20.5171 22.3559C20.9898 22.0703 21.1414 21.4555 20.8558 20.9828L20.0947 19.7233L20.0824 19.7048C19.2121 18.3995 17.747 17.6154 16.1782 17.6154H11.8226C10.2537 17.6154 8.78862 18.3995 7.91835 19.7048L7.90618 19.7231L7.14431 20.9824C6.85842 21.4549 7.00972 22.0697 7.48225 22.3556C7.95479 22.6415 8.56961 22.4902 8.8555 22.0177Z"/>
</svg>
