<svg width="28" height="28" viewBox="0 0 28 28" fill="none" xmlns="http://www.w3.org/2000/svg">
<path fill-rule="evenodd" clip-rule="evenodd" d="M9.30762 11.6923C9.30762 9.13067 11.4369 7.0434 13.9999 7.0434C16.5933 7.0434 18.6922 9.24802 18.6922 11.7791C18.6922 14.3407 16.563 16.428 13.9999 16.428C11.4065 16.428 9.30762 14.2234 9.30762 11.6923ZM13.9999 9.0434C12.519 9.0434 11.3076 10.2575 11.3076 11.6923C11.3076 13.1575 12.5494 14.428 13.9999 14.428C15.4808 14.428 16.6922 13.2139 16.6922 11.7791C16.6922 10.3139 15.4505 9.0434 13.9999 9.0434Z"/>
<path fill-rule="evenodd" clip-rule="evenodd" d="M26 14C26 20.6783 20.6783 26 14 26C7.32174 26 2 20.6783 2 14C2 7.32174 7.32174 2 14 2C20.6783 2 26 7.32174 26 14ZM21.0394 21.1405C22.8726 19.3336 24 16.8129 24 14C24 8.42631 19.5737 4 14 4C8.42631 4 4 8.42631 4 14C4 16.813 5.12748 19.3338 6.96091 21.1408L7.91823 19.7048C8.78849 18.3994 10.2536 17.6154 11.8225 17.6154H16.178C17.7469 17.6154 19.212 18.3994 20.0823 19.7048L21.0394 21.1405ZM19.4738 22.3977L18.4182 20.8142C17.9188 20.0652 17.0782 19.6154 16.178 19.6154H11.8225C10.9223 19.6154 10.0817 20.0652 9.58233 20.8142L8.52652 22.3979C10.0934 23.4132 11.9707 24 14 24C16.0295 24 17.9069 23.4131 19.4738 22.3977Z"/>
</svg>
