<svg
  version="1.1"
  id="Layer_1"
  xmlns="http://www.w3.org/2000/svg"
  xmlns:xlink="http://www.w3.org/1999/xlink"
  x="0px"
  y="0px"
  viewBox="0 0 51 48"
  style="enable-background:new 0 0 51 48;"
  xml:space="preserve"
>
  <path
    d="M45,47.5H6.1c-3.1,0-5.6-2.5-5.6-5.6V6.1C0.5,3,3,0.5,6.1,0.5H45c3.1,0,5.6,2.5,5.6,5.6v35.8
	C50.6,45,48.1,47.5,45,47.5z M6.1,3.5c-1.4,0-2.6,1.2-2.6,2.6v35.8c0,1.4,1.2,2.6,2.6,2.6H45c1.4,0,2.6-1.2,2.6-2.6V6.1
	c0-1.4-1.2-2.6-2.6-2.6H6.1z M30.7,43.4c-2.1,0-3.5-1.5-3.5-3.5v-0.5h-19c-0.8,0-1.5-0.7-1.5-1.5s0.7-1.5,1.5-1.5h19v-0.5
	c0-2.1,1.5-3.5,3.5-3.5s3.5,1.5,3.5,3.5v0.5H43c0.8,0,1.5,0.7,1.5,1.5s-0.7,1.5-1.5,1.5h-8.7v0.5C34.2,41.9,32.8,43.4,30.7,43.4z
	 M30.1,37.8v2c0,0.4,0.1,0.5,0.5,0.5s0.5-0.1,0.5-0.5v-4.1c0-0.4-0.1-0.5-0.5-0.5s-0.5,0.1-0.5,0.5V37.8z M20.2,30.3
	c-0.5,0-0.9-0.1-1.3-0.4c-0.8-0.5-1.3-1.3-1.3-2.3V13.7c0-1,0.6-1.9,1.4-2.4c0.9-0.5,1.9-0.4,2.6,0.1l12,6.9
	c0.8,0.4,1.4,1.3,1.4,2.3c0,1-0.6,1.9-1.4,2.4l-12,6.9c0,0-0.1,0-0.1,0C21.1,30.2,20.6,30.3,20.2,30.3z M20.8,28.7L20.8,28.7
	L20.8,28.7z M20.9,27.6C20.9,27.6,20.9,27.6,20.9,27.6C20.9,27.6,20.9,27.6,20.9,27.6z M20.7,14.3V27l11-6.3L20.7,14.3z M32.2,21
	C32.2,21,32.2,21,32.2,21L32.2,21z M32.2,20.4C32.2,20.4,32.2,20.4,32.2,20.4L32.2,20.4z M19.8,13.8C19.8,13.8,19.8,13.8,19.8,13.8
	C19.8,13.8,19.8,13.8,19.8,13.8z"
  />
</svg>
