<svg width="28" height="28" viewBox="0 0 28 28" fill="none" xmlns="http://www.w3.org/2000/svg">
<path d="M15 11.5C15 10.9477 14.5523 10.5 14 10.5C13.4477 10.5 13 10.9477 13 11.5V15.5C13 16.0523 13.4477 16.5 14 16.5C14.5523 16.5 15 16.0523 15 15.5V11.5Z"/>
<path d="M15 18.5C15 17.9477 14.5523 17.5 14 17.5C13.4477 17.5 13 17.9477 13 18.5V19C13 19.5523 13.4477 20 14 20C14.5523 20 15 19.5523 15 19V18.5Z"/>
<path fill-rule="evenodd" clip-rule="evenodd" d="M16.1438 4.62923C15.1728 3.01088 12.8274 3.01088 11.8563 4.62923L2.50564 20.2138C1.50585 21.8801 2.70613 24 4.64937 24H23.3508C25.294 24 26.4943 21.8801 25.4945 20.2137L16.1438 4.62923ZM13.5713 5.65822C13.7655 5.33455 14.2346 5.33455 14.4288 5.65822L23.7795 21.2427C23.9795 21.576 23.7394 22 23.3508 22H4.64937C4.26072 22 4.02067 21.576 4.22062 21.2427L13.5713 5.65822Z"/>
</svg>
