<svg width="28" height="28" viewBox="0 0 28 28" fill="none" xmlns="http://www.w3.org/2000/svg">
<path fill-rule="evenodd" clip-rule="evenodd" d="M14 3C7.92487 3 3 7.92487 3 14C3 20.0751 7.92487 25 14 25C20.0751 25 25 20.0751 25 14C25 7.92487 20.0751 3 14 3ZM14 9C14.5523 9 15 9.44772 15 10V15C15 15.5523 14.5523 16 14 16C13.4477 16 13 15.5523 13 15V10C13 9.44772 13.4477 9 14 9ZM14 17C14.5523 17 15 17.4477 15 18V18.5C15 19.0523 14.5523 19.5 14 19.5C13.4477 19.5 13 19.0523 13 18.5V18C13 17.4477 13.4477 17 14 17Z"/>
</svg>
