<svg width="894" height="766" viewBox="0 0 894 766" fill="none" xmlns="http://www.w3.org/2000/svg">
<path d="M446.815 765.665L893.63 678.903V0H0V678.903L446.815 765.665Z" fill="#FF0000"/>
<path d="M748.722 389.377C769.01 389.377 781.569 372.971 781.569 358.495V349.809C776.739 352.704 769.976 354.634 761.281 355.599C736.163 358.495 728.435 362.355 728.435 374.901C728.435 384.552 734.231 389.377 748.722 389.377ZM736.163 417.365C705.248 417.365 688.825 401.923 688.825 378.761C688.825 351.739 703.316 342.088 756.451 335.333C770.942 333.402 781.569 329.542 781.569 318.926C781.569 307.345 770.942 302.52 756.451 302.52C740.028 302.52 731.333 308.31 729.401 319.891H692.689C695.588 290.939 719.74 276.462 758.383 276.462C796.061 276.462 820.213 290.939 820.213 325.682V372.006C820.213 386.482 824.076 390.342 838.568 388.412L838.568 413.504C805.721 419.295 789.298 411.574 783.501 393.238C774.807 405.784 758.383 417.365 736.163 417.365ZM600.911 413.504V278.392H628.928L632.792 296.729C641.487 284.183 654.046 276.462 672.402 276.462C677.232 276.462 683.995 277.427 686.893 278.392V313.136C681.096 310.24 674.334 309.275 665.639 309.275C652.114 309.275 637.622 316.996 637.622 338.228V413.504H600.911ZM807.654 616.172C777.705 616.172 762.248 601.696 762.248 566.953V508.083H740.028V479.13L763.214 479.13L770.942 444.387H799.925V479.13H838.568V508.083H799.925V561.163C799.925 577.569 803.789 585.29 818.281 585.29C826.009 585.29 832.772 583.359 838.568 579.499V608.452C832.772 612.312 824.077 616.172 807.654 616.172ZM551.641 417.365C525.556 417.365 506.235 400.958 506.235 368.145V309.275H484.015V278.392H510.099L514.93 243.649H544.878V278.392H582.556V309.275H544.878V362.355C544.878 378.761 550.675 385.517 562.268 385.517C569.996 385.517 578.691 382.622 582.556 380.692V409.644C576.759 413.504 568.064 417.365 551.641 417.365ZM632.792 530.28H698.486C694.622 513.873 683.995 504.222 665.639 504.222C647.283 504.222 636.656 513.873 632.792 530.28ZM667.571 616.173C622.165 616.173 593.182 590.115 593.182 546.686C593.182 504.222 622.165 475.269 665.639 475.269C727.468 475.269 743.892 525.454 739.061 555.372H630.86C634.724 577.569 645.351 588.185 667.571 588.185C682.062 588.185 693.655 582.394 698.486 569.848H737.129C726.502 597.836 702.35 616.173 667.571 616.173ZM414.457 417.366C372.915 417.366 348.763 401.923 344.898 371.041H385.474C387.406 384.552 398.999 389.377 416.389 389.377C430.88 389.377 443.439 385.517 443.439 376.831C443.439 349.809 346.831 376.831 346.831 321.821C346.831 292.869 374.847 276.461 410.592 276.461C445.371 276.461 471.456 289.008 476.286 319.891H438.609C434.744 309.275 423.151 303.485 407.694 303.485C391.27 303.485 381.61 307.345 381.61 316.996C381.61 338.228 478.218 315.066 478.218 369.111C478.218 400.958 451.168 417.366 414.457 417.366ZM499.472 616.172C460.829 616.172 427.982 590.115 427.982 546.686C427.982 502.292 460.829 475.27 501.404 475.27C517.828 475.27 532.319 481.06 541.98 489.746V444.387H578.691V614.242H553.573L546.81 595.906C536.183 608.452 519.76 616.172 499.472 616.172ZM505.269 586.255C525.556 586.255 541.98 572.744 541.98 545.721C541.98 517.734 525.556 504.222 505.269 504.222C483.049 504.222 466.625 518.699 466.625 546.686C466.625 573.709 483.049 586.255 505.269 586.255ZM215.443 413.504V243.649H252.154V328.577L300.458 278.392L346.831 278.392L293.696 329.542L345.864 413.504H301.424L267.611 351.739L252.154 367.18V413.504H215.443ZM328.475 616.172C299.492 616.172 281.137 602.661 281.137 579.499C281.137 552.477 295.628 539.931 348.763 533.175C363.254 531.245 372.915 529.315 372.915 517.734C372.915 507.118 365.186 501.327 348.763 501.327C332.339 501.327 325.577 507.118 323.644 520.629H285.001C289.831 489.746 312.051 475.27 350.695 475.27C389.338 475.27 410.592 489.746 410.592 524.489V570.813C410.592 586.255 414.457 589.15 426.05 587.22V614.242C396.101 618.103 381.61 612.312 375.813 593.975C367.118 606.521 350.695 616.172 328.475 616.172ZM55.0733 413.505V243.649L199.02 243.65V276.462H94.6828V310.24H190.325V343.053H94.6828V380.692H199.02V413.504L55.0733 413.505ZM341.034 589.15C360.356 589.15 372.915 573.709 372.915 557.302V550.547C369.05 552.477 363.254 554.407 354.559 555.372C330.407 558.267 321.712 562.128 321.712 574.674C321.712 584.325 329.441 589.15 341.034 589.15ZM228.968 614.242V444.387H266.645V614.242H228.968ZM94.682 509.048H137.19C156.512 509.048 164.24 502.292 164.24 491.676C164.24 479.13 154.579 475.27 137.19 475.27H94.682V509.048ZM94.682 581.429H142.02C162.308 581.429 172.935 575.639 172.935 561.163C172.935 546.686 164.24 539.931 142.02 539.931H94.682V581.429ZM55.0723 614.243V444.388L147.817 444.387C184.528 444.387 206.748 456.933 206.748 485.886C206.748 501.327 197.087 513.873 182.596 520.629C202.883 526.419 213.51 540.896 213.51 561.163C213.51 593.975 190.324 614.242 153.613 614.242L55.0723 614.243Z" fill="white"/>
</svg>
