<svg width="512" height="512" viewBox="0 0 512 512" fill="none" xmlns="http://www.w3.org/2000/svg">
  <style>
    .filter {
      filter: var(--icon-filter);
    }
    .fill {
      fill: var(--icon-fill, currentColor);
    }
  </style>
<path class="filter fill" fill-rule="evenodd" clip-rule="evenodd" d="M231.81 64C225.9 64 219.89 66.18 215.03 71.05L126.06 160H24C10.74 160 0 170.74 0 184V328C0 341.25 10.74 352 24 352H126.06L215.03 440.95C219.9 445.82 225.91 448 231.81 448C244.14 448 256 438.48 256 423.98V88.02C256 73.51 244.13 64 231.81 64ZM160 318.06L208 366.05V145.95L160 193.94L145.94 208H48V304H145.94L160 318.06Z" />
<path class="filter" fill-rule="evenodd" clip-rule="evenodd" d="M507.31 214.63L465.94 256L507.31 297.37C513.56 303.62 513.56 313.75 507.31 320L496 331.31C489.75 337.56 479.62 337.56 473.37 331.31L432 289.94L390.63 331.32C384.38 337.57 374.25 337.57 368 331.32L356.69 320C350.44 313.75 350.44 303.62 356.69 297.37L398.06 256L356.69 214.63C350.44 208.38 350.44 198.25 356.69 192L368 180.69C374.25 174.44 384.38 174.44 390.63 180.69L432 222.06L473.37 180.69C479.62 174.44 489.75 174.44 496 180.69L507.31 192C513.56 198.25 513.56 208.38 507.31 214.63Z" fill="#FF0000"/>
</svg>
