<svg viewBox="0 0 230 60" fill="none" xmlns="http://www.w3.org/2000/svg"><path d="M0 9.23C0 4.134 4.119 0 9.2 0h211.6c5.082 0 9.2 4.133 9.2 9.23v41.54c0 5.097-4.118 9.23-9.2 9.23H9.2C4.119 60 0 55.867 0 50.77z" fill="#000"/><path d="M81.935 18.989h4.669v12.525c0 1.988.058 3.276.174 3.865.199.947.673 1.71 1.419 2.288.758.568 1.788.852 3.092.852 1.325 0 2.325-.268 2.998-.805.673-.547 1.078-1.215 1.214-2.003.137-.79.205-2.098.205-3.928V18.989h4.67v12.147c0 2.776-.126 4.738-.379 5.884-.252 1.146-.72 2.114-1.404 2.903-.673.788-1.577 1.42-2.713 1.893-1.136.462-2.619.694-4.449.694-2.208 0-3.886-.253-5.032-.757-1.136-.516-2.035-1.178-2.698-1.988-.662-.82-1.099-1.678-1.309-2.571-.305-1.326-.457-3.282-.457-5.869zM105.314 42.115V18.99h7.493c2.839 0 4.69.116 5.553.347 1.325.347 2.434 1.104 3.328 2.272.894 1.156 1.341 2.655 1.341 4.496 0 1.42-.258 2.613-.773 3.58-.515.968-1.173 1.73-1.972 2.288-.789.547-1.593.91-2.413 1.088-1.115.221-2.73.332-4.843.332h-3.045v8.723zm4.669-19.214v6.563h2.556c1.84 0 3.07-.121 3.691-.363.62-.242 1.104-.62 1.451-1.136.358-.515.537-1.115.537-1.798 0-.842-.247-1.536-.742-2.083-.494-.547-1.12-.888-1.877-1.025-.557-.105-1.677-.158-3.36-.158zM126.847 18.989h8.534c1.925 0 3.392.147 4.401.442a7.736 7.736 0 013.487 2.13c.967 1.02 1.703 2.27 2.208 3.754.505 1.472.758 3.292.758 5.458 0 1.904-.237 3.544-.71 4.922-.579 1.683-1.404 3.045-2.477 4.086-.81.788-1.904 1.404-3.281 1.845-1.031.326-2.409.49-4.133.49h-8.787zm4.669 3.912V38.22h3.487c1.304 0 2.245-.074 2.823-.221.758-.19 1.383-.51 1.878-.962.504-.453.915-1.194 1.23-2.225.316-1.04.473-2.455.473-4.243 0-1.788-.157-3.16-.473-4.117-.315-.958-.757-1.704-1.325-2.24-.568-.537-1.288-.9-2.161-1.089-.652-.147-1.93-.22-3.834-.22zM171.065 42.115h-5.08l-2.019-5.253h-9.244l-1.909 5.253h-4.954l9.008-23.126h4.938zm-8.598-9.15l-3.186-8.581-3.124 8.582zM176.365 42.115V22.901h-6.862V18.99h18.378V22.9h-6.846v19.214zM190.91 42.115V18.99h17.148V22.9H195.58v5.127h11.61v3.897h-11.61v6.294h12.919v3.896z" fill="#fff"/><g filter="url(#filter0_d)"><path d="M0 9.23A9.23 9.23 0 019.23 0h41.54A9.23 9.23 0 0160 9.23v41.54A9.23 9.23 0 0150.77 60H9.23A9.23 9.23 0 010 50.77z" fill="url(#paint0_linear)"/></g><path d="M26.166 33.441l-6.58-2.531c-1.15-.443-1.495-1.85-.672-2.741L33.74 12.125c1.249-1.352 3.542-.173 3.068 1.577L33.32 26.558l6.58 2.532c1.15.443 1.495 1.85.672 2.741L25.747 47.875c-1.249 1.352-3.542.173-3.068-1.577z" fill="#fff"/><defs id="defs127"><linearGradient id="paint0_linear" x1="75.455" y1="20" x2="74.436" y2="80.029" gradientUnits="userSpaceOnUse" gradientTransform="translate(-40 -20)"><stop stop-color="#1058C2" id="stop122"/><stop offset="1" stop-color="#00A3FF" id="stop124"/></linearGradient><filter id="filter0_d" x="0" y="0" width="140" height="140" filterUnits="userSpaceOnUse" color-interpolation-filters="sRGB"><feFlood flood-opacity="0" result="BackgroundImageFix" id="feFlood107"/><feColorMatrix in="SourceAlpha" type="matrix" values="0 0 0 0 0 0 0 0 0 0 0 0 0 0 0 0 0 0 127 0" result="hardAlpha" id="feColorMatrix109"/><feOffset dy="20" id="feOffset111"/><feGaussianBlur stdDeviation="20" id="feGaussianBlur113"/><feColorMatrix type="matrix" values="0 0 0 0 0 0 0 0 0 0 0 0 0 0 0 0 0 0 0.08 0" id="feColorMatrix115"/><feBlend mode="normal" in2="BackgroundImageFix" result="effect1_dropShadow" id="feBlend117"/><feBlend mode="normal" in="SourceGraphic" in2="effect1_dropShadow" result="shape" id="feBlend119"/></filter></defs></svg>