<?xml version="1.0" encoding="utf-8"?><svg xmlns="http://www.w3.org/2000/svg" xmlns:xlink="http://www.w3.org/1999/xlink"><symbol viewBox="0 0 256 149" id="angle_down_pro" xmlns="http://www.w3.org/2000/svg"><path d="M119.5 145.4L3.5 27.6c-4.7-4.7-4.7-12.3 0-17l7.1-7.1c4.7-4.7 12.3-4.7 17 0L128 105.8 228.4 3.6c4.7-4.7 12.3-4.7 17 0l7.1 7.1c4.7 4.7 4.7 12.3 0 17l-116 117.8c-4.7 4.6-12.3 4.6-17-.1z"/></symbol><symbol viewBox="0 0 149 256.1" id="angle_left_pro" xmlns="http://www.w3.org/2000/svg"><path d="M3.5 119.5l117.8-116c4.7-4.7 12.3-4.7 17 0l7.1 7.1c4.7 4.7 4.7 12.3 0 17L43.1 128l102.2 100.4c4.7 4.7 4.7 12.3 0 17l-7.1 7.1c-4.7 4.7-12.3 4.7-17 0L3.4 136.5c-4.6-4.7-4.6-12.3.1-17z"/></symbol><symbol viewBox="0 0 256 149" id="angle_up_pro" xmlns="http://www.w3.org/2000/svg"><path d="M136.5 3.5l116 117.8c4.7 4.7 4.7 12.3 0 17l-7.1 7.1c-4.7 4.7-12.3 4.7-17 0L128 43.1 27.6 145.3c-4.7 4.7-12.3 4.7-17 0l-7.1-7.1c-4.7-4.7-4.7-12.3 0-17l116-117.8c4.7-4.6 12.3-4.6 17 .1z"/></symbol><symbol viewBox="0 0 51 47" id="article" xmlns="http://www.w3.org/2000/svg"><path d="M27 46.5h-4.5c-.8 0-1.5-.7-1.5-1.5s.7-1.5 1.5-1.5H27c.8 0 1.5.7 1.5 1.5s-.7 1.5-1.5 1.5zm-12 0H2c-.8 0-1.5-.7-1.5-1.5s.7-1.5 1.5-1.5h13c.8 0 1.5.7 1.5 1.5s-.7 1.5-1.5 1.5zm34-11.1H2c-.8 0-1.5-.7-1.5-1.5s.7-1.5 1.5-1.5h47c.8 0 1.5.7 1.5 1.5s-.7 1.5-1.5 1.5zm0-11.1H33.5c-.8 0-1.5-.7-1.5-1.5s.7-1.5 1.5-1.5H49c.8 0 1.5.7 1.5 1.5s-.7 1.5-1.5 1.5zm-26.3 0H3.3c-1.6 0-2.8-1.2-2.8-2.8V3C.5 1.4 1.7.2 3.3.2h19.4c1.6 0 2.8 1.2 2.8 2.8v18.5c-.1 1.6-1.2 2.8-2.8 2.8zm-19.2-3h18.9v-18H3.5v18zM49 13.2H33.5c-.8 0-1.5-.7-1.5-1.5s.7-1.5 1.5-1.5H49c.8 0 1.5.7 1.5 1.5s-.7 1.5-1.5 1.5zm0-9.9H33.5c-.8 0-1.5-.7-1.5-1.5S32.7.3 33.5.3H49c.8 0 1.5.7 1.5 1.5s-.7 1.5-1.5 1.5z"/></symbol><symbol viewBox="0 0 442.6 335.1" id="check_pro" xmlns="http://www.w3.org/2000/svg"><path d="M410.8 3.5l-280 280-99-99c-4.7-4.7-12.3-4.7-17 0L3.5 195.8c-4.7 4.7-4.7 12.3 0 17l118.8 118.8c4.7 4.7 12.3 4.7 17 0L439.1 31.8c4.7-4.7 4.7-12.3 0-17L427.8 3.5c-4.7-4.7-12.3-4.7-17 0z"/></symbol><symbol viewBox="0 0 576 448" id="credit_card" xmlns="http://www.w3.org/2000/svg"><path d="M528 0H48C21.5 0 0 21.5 0 48v352c0 26.5 21.5 48 48 48h480c26.5 0 48-21.5 48-48V48c0-26.5-21.5-48-48-48zM48 32h480c8.8 0 16 7.2 16 16v48H32V48c0-8.8 7.2-16 16-16zm480 384H48c-8.8 0-16-7.2-16-16V192h512v208c0 8.8-7.2 16-16 16zm-336-84v8c0 6.6-5.4 12-12 12h-72c-6.6 0-12-5.4-12-12v-8c0-6.6 5.4-12 12-12h72c6.6 0 12 5.4 12 12zm192 0v8c0 6.6-5.4 12-12 12H236c-6.6 0-12-5.4-12-12v-8c0-6.6 5.4-12 12-12h136c6.6 0 12 5.4 12 12z"/></symbol><symbol viewBox="0 0 72.8 72.8" id="ebplus_icon" xmlns="http://www.w3.org/2000/svg"><path d="M36.4 0C16.3 0 0 16.3 0 36.4s16.3 36.4 36.4 36.4 36.4-16.3 36.4-36.4S56.5 0 36.4 0zm20.1 41.9H42.2v14.2H30.6V41.9H16.3V31.4h14.2V17.2h11.7v14.1h14.2v10.6z"/></symbol><symbol viewBox="-5.3 193 595.2 355.9" id="ebplus_logo_hvid" xmlns="http://www.w3.org/2000/svg"><path fill="#BD131D" d="M-5.3 193h402.7v317.6l-199.2 38.3L-5.3 509V193z"/><g fill="#FFF"><path d="M103.1 396.8h16.5v78.5h-16.5zM154.5 381.9l-24.2-35.3 20.2-21.9h-19.3l-20.7 22.8V303H94.4v78.9h16.1v-15.5l9.1-9.2 15.1 24.7zM185.4 457.9l-.5-27.6c-.5-9.2-10.1-14.6-26.6-14.6-20.3 0-27.6 5-28.5 19.3h15.6c.9-5.9 3.3-7.8 11.6-7.8 9.7 0 12.5 1.9 12.5 8.7 0 2.8-1.4 4-5 4.5-.9 0-7.8.5-16.5 1.9-15.6 1.9-21.7 7.3-21.7 18.4 0 10.6 7.8 17 21.2 17 10.6 0 16.5-2.8 22.9-11.6 2.8 8.3 7.3 11.6 15.6 11.6 3.8 0 6.8-.9 11.6-3.3v-8.3c-1.9.5-3.3.5-5 .5-5.1 0-7.2-2.4-7.2-8.7zm-31.8 8.2c-6.8 0-10.1-2.4-10.1-6.8 0-5.4 3.8-8.3 12.5-9.7 7.8-.9 7.3-.9 13-2.4-.1 12.5-5.3 18.9-15.4 18.9zM87.1 366.9H37.4v-18.4H77v-13.7H37.4v-18.4h46.4v-13.2H19.5v78.7h68.1zM222.2 367.8c0 10.6 6.8 17 18.9 17 4.2 0 8.3-.9 14.6-3.8v-7.8c-2.8.5-6.8.5-8.3.5-6.4 0-8.7-2.4-8.7-7.3V336h15.6v-10.6h-15.6v-21.9h-11.6l-.5 5c-2.4 15.6-2.8 17-7.3 17h-10.1v10.6h13.5l-.5 31.7z"/><path d="M181.2 373.2c-9.7 0-12.5-1.9-14.1-8.3H152c0 12.5 10.1 19.8 27.1 19.8 18.9 0 29.9-7.3 29.9-19.3 0-8.3-6.4-15.1-14.6-16.5l-22.2-3.3c-2.4-.5-5-2.8-5-5.9 0-3.3 3.3-5.9 9.2-5.9 12 0 14.1 1.4 14.6 8.3h15.8v-1.9c0-9.7-11.1-17.9-26.2-17.9-17 0-27.6 7.3-27.6 19.8 0 7.3 5.4 14.6 12 15.6l23.3 3.8c3.3.5 5.4 1.9 5.4 5 0 4.1-3.8 6.7-12.5 6.7zM243.2 427c-5.4-7.8-11.1-11.1-19.8-11.1-15.6 0-27.1 13-27.1 30.4 0 19.3 10.1 31.6 26.6 31.6 9.2 0 13.7-2.4 20.7-11.1v9.2h15.6v-79.2h-16V427zm-16.5 39.6c-9.7 0-14.1-6.8-14.1-19.8 0-12 5-18.9 14.1-18.9 8.7 0 14.6 7.8 14.6 18.9 0 12-5.9 19.8-14.6 19.8zM75.6 433.1c11.1-2.4 17-8.7 17-17.9 0-10.6-9.7-18.9-22.4-18.9H19.5v78.5H70c15.1 0 25.7-8.7 25.7-21.2-.3-10.6-6.5-17-20.1-20.5zm-38.2-24h23.8c9.2 0 12.5 2.4 12.5 9.2 0 7.3-3.3 9.7-12.5 9.7H37.4v-18.9zm23.5 51.8h-24v-21.2h24.3c9.7 0 14.1 3.3 14.1 10.6-.2 8-3.5 10.6-14.4 10.6zM358.5 460.9v-30.4h16v-11.6h-16v-21.2h-11.6l-.5 4.2c-2.8 17-2.4 17-6.8 17h-9.2v11.6h12l-.5 27.6v1.9c0 13 5.9 18.9 18.4 18.9 6.4 0 9.7-.5 15.1-3.3v-8.8c-3.3.5-6.8.5-8.3.5-6.3-.2-8.6-2.1-8.6-6.4zM361.3 363.6v-23.9c0-6.8-.9-9.2-3.8-11.1-5.4-4.5-13.7-6.4-23.3-6.4-17.4 0-25.2 5.9-26.6 19.3h15.1c.9-6.4 3.8-8.3 12-8.3 8.7 0 11.6 2.4 11.6 9.2 0 2.8-.9 3.8-4.2 4.5l-16.5 1.9c-16.5 1.9-22.9 7.3-22.9 18.4 0 10.6 8.3 17 21.7 17 10.1 0 16.5-3.3 22.2-11.6 3.3 8.7 7.3 11.6 15.1 11.6 3.8 0 7.3-.9 13.7-4.2v-7.3c-3.3.5-5.9.5-6.8.5-5.4 0-7.3-3-7.3-9.6zm-32.3 9.6c-5.9 0-9.2-2.8-9.2-7.3 0-6.4 2.8-7.8 21.2-11.1l4.7-.9c0 13-5.1 19.3-16.7 19.3zM298.8 416.4c-17.9 0-31.6 13.7-31.6 31.1 0 18.4 13 31.6 31.6 31.6 17.9 0 29-7.3 30.9-20.3h-15.6c-1.9 6.4-5.4 8.3-13.7 8.3-11.1 0-16.5-5.4-16.5-16h45.5c.5-21.3-11.7-34.7-30.6-34.7zm-13.9 25c.9-9.2 5.4-14.1 13.7-14.1 8.7 0 13 4.2 13.7 14.1h-27.4zM280 357.2c0-12.5 6.8-19.3 18.9-19.3h6.8v-14.6h-5c-9.2 0-16.5 4.2-21.2 13v-11.1h-15.6v57.1h16l.1-25.1z"/></g><g><path fill="#FFF" d="M496.1 322.3h31.6v62.5h62.2v31.6h-62.2v62.4h-31.6v-62.5h-62.2v-31.5h62.2v-62.5z"/></g></symbol><symbol viewBox="0 0.9 595.2 356" id="ebplus_logo_sort" xmlns="http://www.w3.org/2000/svg"><path fill="#BD131D" d="M0 .9h402.7v317.6l-199.2 38.4L0 317V.9z"/><g fill="#FFF"><path d="M108.4 204.8h16.5v78.5h-16.5zM159.8 189.9l-24.2-35.3 20.2-21.9h-19.3l-20.7 22.8V111H99.7v78.9h16.1v-15.5l9.1-9.2 15.1 24.7zM190.7 265.9l-.5-27.6c-.5-9.2-10.1-14.6-26.6-14.6-20.3 0-27.6 5-28.5 19.3h15.6c.9-5.9 3.3-7.8 11.6-7.8 9.7 0 12.5 1.9 12.5 8.7 0 2.8-1.4 4-5 4.5-.9 0-7.8.5-16.5 1.9-15.6 1.9-21.7 7.3-21.7 18.4 0 10.6 7.8 17 21.2 17 10.6 0 16.5-2.8 22.9-11.6 2.8 8.3 7.3 11.6 15.6 11.6 3.8 0 6.8-.9 11.6-3.3v-8.3c-1.9.5-3.3.5-5 .5-5.1 0-7.2-2.4-7.2-8.7zm-31.8 8.2c-6.8 0-10.1-2.4-10.1-6.8 0-5.4 3.8-8.3 12.5-9.7 7.8-.9 7.3-.9 13-2.4-.1 12.5-5.3 18.9-15.4 18.9zM92.4 174.9H42.7v-18.4h39.6v-13.7H42.7v-18.4h46.4v-13.2H24.8v78.7h68.1zM227.5 175.8c0 10.6 6.8 17 18.9 17 4.2 0 8.3-.9 14.6-3.8v-7.8c-2.8.5-6.8.5-8.3.5-6.4 0-8.7-2.4-8.7-7.3V144h15.6v-10.6H244v-21.9h-11.6l-.5 5c-2.4 15.6-2.8 17-7.3 17h-10.1v10.6H228l-.5 31.7z"/><path d="M186.5 181.2c-9.7 0-12.5-1.9-14.1-8.3h-15.1c0 12.5 10.1 19.8 27.1 19.8 18.9 0 29.9-7.3 29.9-19.3 0-8.3-6.4-15.1-14.6-16.5l-22.2-3.3c-2.4-.5-5-2.8-5-5.9 0-3.3 3.3-5.9 9.2-5.9 12 0 14.1 1.4 14.6 8.3h15.8v-1.9c0-9.7-11.1-17.9-26.2-17.9-17 0-27.6 7.3-27.6 19.8 0 7.3 5.4 14.6 12 15.6l23.3 3.8c3.3.5 5.4 1.9 5.4 5 0 4.1-3.8 6.7-12.5 6.7zM248.5 235c-5.4-7.8-11.1-11.1-19.8-11.1-15.6 0-27.1 13-27.1 30.4 0 19.3 10.1 31.6 26.6 31.6 9.2 0 13.7-2.4 20.7-11.1v9.2h15.6v-79.2h-16V235zM232 274.6c-9.7 0-14.1-6.8-14.1-19.8 0-12 5-18.9 14.1-18.9 8.7 0 14.6 7.8 14.6 18.9 0 12-5.9 19.8-14.6 19.8zM80.9 241.1c11.1-2.4 17-8.7 17-17.9 0-10.6-9.7-18.9-22.4-18.9H24.8v78.5h50.5c15.1 0 25.7-8.7 25.7-21.2-.3-10.6-6.5-17-20.1-20.5zm-38.2-24h23.8c9.2 0 12.5 2.4 12.5 9.2 0 7.3-3.3 9.7-12.5 9.7H42.7v-18.9zm23.5 51.8h-24v-21.2h24.3c9.7 0 14.1 3.3 14.1 10.6-.2 8-3.5 10.6-14.4 10.6zM363.8 268.9v-30.4h16v-11.6h-16v-21.2h-11.6l-.5 4.2c-2.8 17-2.4 17-6.8 17h-9.2v11.6h12l-.5 27.6v1.9c0 13 5.9 18.9 18.4 18.9 6.4 0 9.7-.5 15.1-3.3v-8.8c-3.3.5-6.8.5-8.3.5-6.3-.2-8.6-2.1-8.6-6.4zM366.6 171.6v-23.9c0-6.8-.9-9.2-3.8-11.1-5.4-4.5-13.7-6.4-23.3-6.4-17.4 0-25.2 5.9-26.6 19.3H328c.9-6.4 3.8-8.3 12-8.3 8.7 0 11.6 2.4 11.6 9.2 0 2.8-.9 3.8-4.2 4.5l-16.5 1.9c-16.5 1.9-22.9 7.3-22.9 18.4 0 10.6 8.3 17 21.7 17 10.1 0 16.5-3.3 22.2-11.6 3.3 8.7 7.3 11.6 15.1 11.6 3.8 0 7.3-.9 13.7-4.2v-7.3c-3.3.5-5.9.5-6.8.5-5.4 0-7.3-3-7.3-9.6zm-32.3 9.6c-5.9 0-9.2-2.8-9.2-7.3 0-6.4 2.8-7.8 21.2-11.1l4.7-.9c0 13-5.1 19.3-16.7 19.3zM304.1 224.4c-17.9 0-31.6 13.7-31.6 31.1 0 18.4 13 31.6 31.6 31.6 17.9 0 29-7.3 30.9-20.3h-15.6c-1.9 6.4-5.4 8.3-13.7 8.3-11.1 0-16.5-5.4-16.5-16h45.5c.5-21.3-11.7-34.7-30.6-34.7zm-13.9 25c.9-9.2 5.4-14.1 13.7-14.1 8.7 0 13 4.2 13.7 14.1h-27.4zM285.3 165.2c0-12.5 6.8-19.3 18.9-19.3h6.8v-14.6h-5c-9.2 0-16.5 4.2-21.2 13v-11.1h-15.6v57.1h16l.1-25.1z"/></g><g><path d="M501.4 130.3H533v62.5h62.2v31.6H533v62.4h-31.6v-62.5h-62.2v-31.5h62.2v-62.5z"/></g></symbol><symbol viewBox="0 122.1 595.3 597.4" id="ebplus_sort" xmlns="http://www.w3.org/2000/svg"><path d="M237.4 122.1h120.5v238.5h237.4V481H357.9v238.5H237.4V481H0V360.5h237.4V122.1z"/></symbol><symbol viewBox="0 0 100 88" id="ekstrabladet" xmlns="http://www.w3.org/2000/svg"><path fill="#B30000" d="M0-.9h100V78l-49.5 9.5L0 77.6V-.9z"/><path fill="#FFF" d="M23 42.3H10.6v-4.5h9.8v-3.4h-9.8v-4.6h11.5v-3.3h-16v19.6h17zM39.7 46.1l-6-8.8 5-5.4h-4.8l-5.2 5.6v-11h-3.9v19.6h3.9v-3.9l2.3-2.3 3.8 6.2z"/><path fill="#FFF" d="M46.3 43.9c-2.4 0-3.1-.5-3.5-2h-3.7c0 3.1 2.5 4.9 6.7 4.9 4.7 0 7.5-1.8 7.5-4.8 0-2-1.6-3.7-3.6-4.1l-5.6-.9c-.6-.1-1.2-.7-1.2-1.4 0-.8.8-1.4 2.3-1.4 3 0 3.5.4 3.6 2h3.8v-.5c0-2.4-2.8-4.5-6.5-4.5-4.2 0-6.9 1.8-6.9 4.9 0 1.8 1.3 3.6 3 3.8l5.8 1c.8.1 1.3.5 1.3 1.2.1 1.2-.8 1.8-3 1.8zM56.5 42.6c0 2.6 1.7 4.2 4.7 4.2 1.1 0 2-.2 3.6-1v-1.9c-.7.1-1.7.1-2 .1-1.6 0-2.2-.6-2.2-1.8v-7.6h3.8V32h-3.8v-5.4h-2.9l-.1 1.2c-.6 3.8-.7 4.2-1.8 4.2h-2.5v2.6h3.4l-.2 8zM70.8 39.9c0-3.1 1.7-4.8 4.7-4.8h1.7v-3.6H76c-2.3 0-4.1 1.1-5.3 3.2V32h-3.8v14.2h4v-6.3zM91 41.5v-5.9c0-1.7-.2-2.3-1-2.8-1.3-1.1-3.4-1.6-5.8-1.6-4.3 0-6.3 1.4-6.6 4.8h3.7c.2-1.6 1-2 3-2 2.2 0 2.9.6 2.9 2.3 0 .7-.2 1-1.1 1.1l-4.1.5c-4.1.5-5.6 1.8-5.6 4.6 0 2.6 2 4.2 5.4 4.2 2.5 0 4.1-.8 5.5-2.9.8 2.2 1.8 2.9 3.7 2.9 1 0 1.8-.2 3.4-1.1v-1.8c-.8.1-1.4.1-1.7.1-1.2 0-1.7-.7-1.7-2.4zm-8 2.4c-1.4 0-2.3-.7-2.3-1.8 0-1.6.7-1.9 5.3-2.8l1.2-.2c0 3.2-1.3 4.8-4.2 4.8zM20.1 58.8c2.8-.6 4.2-2.2 4.2-4.4 0-2.6-2.4-4.7-5.5-4.7H6.1v19.5h12.5c3.7 0 6.4-2.2 6.4-5.3 0-2.7-1.6-4.2-4.9-5.1zm-9.5-6h5.9c2.3 0 3.1.6 3.1 2.3 0 1.8-.8 2.4-3.1 2.4h-5.9v-4.7zm5.9 12.9h-6v-5.3h6c2.4 0 3.5.8 3.5 2.6 0 2.1-.9 2.7-3.5 2.7zM26.9 49.8H31v19.5h-4.1zM47.4 64.9l-.1-6.9c-.1-2.3-2.5-3.6-6.6-3.6-5.1 0-6.9 1.2-7.1 4.8h3.8c.2-1.4.8-1.9 2.9-1.9 2.4 0 3.1.5 3.1 2.2 0 .7-.4 1-1.2 1.1-.2 0-1.9.1-4.1.5-3.8.5-5.4 1.8-5.4 4.6 0 2.6 1.9 4.2 5.3 4.2 2.6 0 4.1-.7 5.6-2.9.7 2 1.8 2.9 3.9 2.9 1 0 1.7-.2 2.9-.8v-2c-.5.1-.8.1-1.2.1-1.3-.1-1.8-.7-1.8-2.3zm-8 2.1c-1.7 0-2.5-.6-2.5-1.7 0-1.3 1-2 3.1-2.4 1.9-.2 1.8-.2 3.2-.6.1 3.1-1.2 4.7-3.8 4.7zM61.7 57.3c-1.3-1.9-2.8-2.8-4.9-2.8-3.8 0-6.7 3.2-6.7 7.6 0 4.8 2.5 7.8 6.6 7.8 2.3 0 3.4-.6 5.2-2.8v2.3h3.9V49.8h-4v7.5zm-4.1 9.8c-2.4 0-3.5-1.7-3.5-4.9 0-3 1.2-4.7 3.5-4.7 2.2 0 3.6 1.9 3.6 4.7 0 3-1.4 4.9-3.6 4.9zM75.5 54.6c-4.5 0-7.8 3.4-7.8 7.7 0 4.6 3.2 7.8 7.8 7.8 4.4 0 7.2-1.8 7.7-5.1h-3.8c-.5 1.6-1.3 2-3.4 2-2.8 0-4.1-1.3-4.1-4h11.3c0-5-3-8.4-7.7-8.4zM72 60.9c.2-2.3 1.3-3.5 3.4-3.5 2.2 0 3.2 1.1 3.4 3.5H72zM90.3 65.7v-7.6h4v-2.9h-4v-5.3h-2.9l-.1 1.1c-.7 4.2-.6 4.2-1.7 4.2h-2.3v2.9h3l-.1 6.9v.5c0 3.2 1.4 4.7 4.6 4.7 1.6 0 2.4-.1 3.7-.8v-2.2c-.8.1-1.7.1-2 .1-1.6-.1-2.2-.5-2.2-1.6z"/></symbol><symbol viewBox="0 0 512 384" id="envelope" xmlns="http://www.w3.org/2000/svg"><path d="M464 0H48C21.5 0 0 21.5 0 48v288c0 26.5 21.5 48 48 48h416c26.5 0 48-21.5 48-48V48c0-26.5-21.5-48-48-48zM48 32h416c8.8 0 16 7.2 16 16v41.4c-21.9 18.5-53.2 44-150.6 121.3-16.9 13.4-50.2 45.7-73.4 45.3-23.2.4-56.6-31.9-73.4-45.3C85.2 133.4 53.9 107.9 32 89.4V48c0-8.8 7.2-16 16-16zm416 320H48c-8.8 0-16-7.2-16-16V131c22.8 18.7 58.8 47.6 130.7 104.7 20.5 16.4 56.7 52.5 93.3 52.3 36.4.3 72.3-35.5 93.3-52.3 71.9-57.1 107.9-86 130.7-104.7v205c0 8.8-7.2 16-16 16z"/></symbol><symbol viewBox="0 0 55 55" id="gallery" xmlns="http://www.w3.org/2000/svg"><path d="M43.7 54.5c-.3 0-.6 0-.9-.1l-32.7-6.6c-.8-.2-1.3-1-1.2-1.8.2-.8 1-1.3 1.8-1.2l32.8 6.6h.2c.1 0 .1 0 .6-.1h.1s0-.1.1-.1V51l7.1-35c0-.2 0-.4-.1-.6-.1-.1-.2-.2-.4-.3l-5.1-.8c-.8-.1-1.4-.9-1.2-1.7.1-.8.9-1.4 1.7-1.2l4.9.9c1 .2 1.8.7 2.4 1.5.6.9.8 1.9.6 2.9l-7.1 34.9c-.1 1-.8 2-1.7 2.5-.1 0-.1.1-.2.1l-.2.1c-.4 0-.9.2-1.5.2zm-4.1-11.2H4.2C2 43.3.5 41.7.5 39.6V4.2C.5 2 2.1.5 4.2.5h35.4c2.2 0 3.7 1.6 3.7 3.7v35.4c0 2.2-1.5 3.7-3.7 3.7zM3.5 36.7v2.9c0 .5.2.7.7.7h35.4c.5 0 .7-.2.7-.7v-2.9H3.5zm34.2-3h2.6V4.2c0-.5-.2-.7-.7-.7H4.2c-.5 0-.7.2-.7.7v29.5h2.6c.2-1.7.6-3.4 1.4-5.1 1.2-2.4 4.8-3.7 9.8-5.4.2-.5.2-1.7 0-2.1-2.1-2.4-3-5.2-2.8-8.1 0-2.2.6-4 1.9-5.5C17.8 5.9 19.7 5 22 5c2 0 3.9.9 5.5 2.4l.1.1c1.3 1.6 1.9 3.5 1.7 5.6.2 3-.8 5.9-2.7 7.9-.2.5-.2 1.8 0 2.3.6.2 1.3.5 1.9.7 4 1.5 6.9 2.6 7.9 4.6.7 1.7 1.2 3.4 1.3 5.1zm-28.6 0h25.6c-.2-1.3-.5-2.6-1.1-3.9-.4-.9-3.4-2-6.2-3-.7-.3-1.4-.5-2.2-.8-.5-.2-1.2-.7-1.5-1.8-.5-1.5-.3-3.9.4-4.9.1-.1.1-.2.2-.2 1.4-1.4 2.2-3.6 2-5.9v-.3c.2-1.3-.1-2.5-.9-3.4-.6-.6-1.8-1.5-3.3-1.5-1.4 0-2.5.5-3.3 1.5-.8 1-1.2 2.2-1.2 3.7v.1c-.2 2.2.5 4.2 2.1 6 .9.9 1.1 3.3.8 4.6-.4 1.6-1.3 2.1-1.8 2.3-2.8.9-7.5 2.5-8.2 3.9-.8 1-1.2 2.3-1.4 3.6zm8.2-12.6c0 .1 0 .1 0 0 0 .1 0 .1 0 0z"/></symbol><symbol viewBox="0 0 53 53" id="headphones" xmlns="http://www.w3.org/2000/svg"><path d="M14.9 52.7c-.5 0-1.1-.1-1.6-.3-.9-.4-1.6-1.2-2-2.3L6.7 38.3c-.4-1-.4-2.1.1-3 .4-.9 1.2-1.6 2.2-1.9l2-.9c1-.4 2.1-.4 3.1 0 .9.4 1.6 1.2 2 2.3l4.6 11.8c.4 1 .4 2.1-.1 3-.4.9-1.2 1.6-2.2 1.9l-2 .9c-.5.2-1 .3-1.5.3zm-2.4-17.6c-.1 0-.2 0-.3.1l-2 .9s-.1 0-.1.1c-.2.1-.4.2-.5.4-.1.2-.1.4 0 .7l4.7 11.9c.1.3.2.5.4.6.2.1.4.1.7 0l2-.9s.1 0 .1-.1c.2-.1.4-.2.5-.4.1-.2.1-.4 0-.7l-4.7-11.9c-.1-.3-.2-.5-.4-.6-.2-.1-.3-.1-.4-.1zM38 52.6c-.5 0-.9-.1-1.3-.3l-2.2-1c-1.9-.8-2.9-3.1-2.2-5L37 34.6c.8-2 3.1-3 5-2.2l2.2 1c.9.3 1.6 1.1 2.1 2 .5 1 .5 2 .1 3l-4.7 11.9c-.4.9-1.1 1.7-2 2.1-.6.1-1.1.2-1.7.2zm2.7-17.5c-.3 0-.7.3-.9.6l-4.7 11.9c-.2.4.1.9.6 1.1l2.2 1c.3.1.9-.2 1-.6l4.7-11.9c.1-.2.1-.4 0-.6-.1-.2-.3-.4-.5-.5l-2.2-1h-.2zm-.4 14.5zm3.7 2.9c-.2 0-.5-.1-.7-.2-.7-.4-1-1.3-.6-2 .1-.1 6.8-12.6 6.8-23.8 0-12.7-10.3-23-23-23s-23 10.3-23 23c0 11.1 6.7 23.7 6.8 23.8.4.7.1 1.6-.6 2-.7.4-1.6.1-2-.6C7.4 51.2.5 38.4.5 26.5c0-14.3 11.7-26 26-26s26 11.7 26 26c0 11.9-6.9 24.7-7.2 25.2-.3.5-.8.8-1.3.8z"/></symbol><symbol viewBox="0 0 512 512" id="headset" xmlns="http://www.w3.org/2000/svg"><path d="M192 208c0-17.67-14.33-32-32-32h-16c-35.35 0-64 28.65-64 64v48c0 35.35 28.65 64 64 64h16c17.67 0 32-14.33 32-32V208zm176 144c35.35 0 64-28.65 64-64v-48c0-35.35-28.65-64-64-64h-16c-17.67 0-32 14.33-32 32v112c0 17.67 14.33 32 32 32h16zM256 0C113.18 0 4.58 118.83 0 256v16c0 8.84 7.16 16 16 16h16c8.84 0 16-7.16 16-16v-16c0-114.69 93.31-208 208-208s208 93.31 208 208h-.12c.08 2.43.12 165.72.12 165.72 0 23.35-18.93 42.28-42.28 42.28H320c0-26.51-21.49-48-48-48h-32c-26.51 0-48 21.49-48 48s21.49 48 48 48h181.72c49.86 0 90.28-40.42 90.28-90.28V256C507.42 118.83 398.82 0 256 0z"/></symbol><symbol viewBox="0 0 448 512" id="lock" xmlns="http://www.w3.org/2000/svg"><path d="M400 192h-32v-46.6C368 65.8 304 .2 224.4 0 144.8-.2 80 64.5 80 144v48H48c-26.5 0-48 21.5-48 48v224c0 26.5 21.5 48 48 48h352c26.5 0 48-21.5 48-48V240c0-26.5-21.5-48-48-48zm-272-48c0-52.9 43.1-96 96-96s96 43.1 96 96v48H128v-48zm272 320H48V240h352v224z"/></symbol><symbol viewBox="0 0 63.6 81.5" id="medielogin" xmlns="http://www.w3.org/2000/svg"><path d="M0 70.7h63.3v10.9H0z"/><path d="M0 81.5l21.2-19.7v-14L0 67.5z"/><path d="M31.8 0C14.2 0 0 14.2 0 31.8c0 13.8 8.9 25.6 21.2 30v-14c-5.2-3.4-8.6-9.3-8.6-16 0-10.6 8.6-19.2 19.2-19.2S51 21.2 51 31.8c0 6.7-3.4 12.5-8.6 16v14c12.3-4.4 21.2-16.1 21.2-30C63.6 14.2 49.3 0 31.8 0z"/><path d="M63.6 81.5L42.4 61.7V47.8l21.2 19.7z"/></symbol><symbol viewBox="0 0 30 30" id="menu-bars" xmlns="http://www.w3.org/2000/svg"><path d="M0 4.3h30v4H0zM0 12.3h30v4H0zM0 20.3h30v4H0z"/></symbol><symbol viewBox="0 0 512 512" id="miteb-regular" xmlns="http://www.w3.org/2000/svg"><path d="M210.3 26.5H22.5C10 26.5-.1 36.5-.1 48.8v115.4c0 12.3 10.1 22.3 22.6 22.3h187.8c12.5 0 22.6-10 22.6-22.3V48.8c.1-12.3-10.1-22.3-22.6-22.3zm-23.3 115H45.8V71.7H187v69.8zm302.4-115H301.6c-12.5 0-22.6 10-22.6 22.3v231.1c0 12.3 10.1 22.3 22.6 22.3h187.8c12.5 0 22.6-10 22.6-22.3V48.8c0-12.3-10.1-22.3-22.6-22.3zm-23.3 230.7H324.9V71.7h141.2v185.5zm-255.8-21.9H22.5c-12.5 0-22.6 10-22.6 22.3v205.6c0 12.3 10.1 22.3 22.6 22.3h187.8c12.5 0 22.6-10 22.6-22.3V257.6c.1-12.3-10.1-22.3-22.6-22.3zM187 440.5H45.8v-160H187v160zm302.4-90.4H301.6c-12.5 0-22.6 10-22.6 22.3v90.8c0 12.3 10.1 22.3 22.6 22.3h187.8c12.5 0 22.6-10 22.6-22.3v-90.8c0-12.3-10.1-22.3-22.6-22.3zm-23.3 90.4H324.9v-45.2h141.2v45.2z"/></symbol><symbol viewBox="0 0 512 512" id="miteb-solid" xmlns="http://www.w3.org/2000/svg"><path d="M210.3 26.5H22.5C10 26.5-.1 36.5-.1 48.8v115.4c0 12.3 10.1 22.3 22.6 22.3h187.8c12.5 0 22.6-10 22.6-22.3V48.8c.1-12.3-10.1-22.3-22.6-22.3zm279.1 0H301.6c-12.5 0-22.6 10-22.6 22.3v231.1c0 12.3 10.1 22.3 22.6 22.3h187.8c12.5 0 22.6-10 22.6-22.3V48.8c0-12.3-10.1-22.3-22.6-22.3zM210.3 235.3H22.5c-12.5 0-22.6 10-22.6 22.3v205.6c0 12.3 10.1 22.3 22.6 22.3h187.8c12.5 0 22.6-10 22.6-22.3V257.6c.1-12.3-10.1-22.3-22.6-22.3zm279.1 114.8H301.6c-12.5 0-22.6 10-22.6 22.3v90.8c0 12.3 10.1 22.3 22.6 22.3h187.8c12.5 0 22.6-10 22.6-22.3v-90.8c0-12.3-10.1-22.3-22.6-22.3z"/></symbol><symbol viewBox="0 0 320 512" id="mobil_fone" xmlns="http://www.w3.org/2000/svg"><path d="M272 0H48C21.5 0 0 21.5 0 48v416c0 26.5 21.5 48 48 48h224c26.5 0 48-21.5 48-48V48c0-26.5-21.5-48-48-48zM160 480c-17.7 0-32-14.3-32-32s14.3-32 32-32 32 14.3 32 32-14.3 32-32 32zm112-108c0 6.6-5.4 12-12 12H60c-6.6 0-12-5.4-12-12V60c0-6.6 5.4-12 12-12h200c6.6 0 12 5.4 12 12v312z"/></symbol><symbol viewBox="0 0 20 21" id="mobilepay_icon" xmlns="http://www.w3.org/2000/svg"><defs><linearGradient x1="48.743%" y1="50.59%" x2="52.403%" y2="48.852%" id="ava"><stop stop-color="#504678" offset="0%"/><stop stop-color="#504678" stop-opacity=".616" offset="30.2%"/><stop stop-color="#504678" stop-opacity=".283" offset="60.8%"/><stop stop-color="#504678" stop-opacity=".076" offset="85.2%"/><stop stop-color="#504678" stop-opacity="0" offset="100%"/></linearGradient><linearGradient x1="48.743%" y1="50.461%" x2="52.403%" y2="49.104%" id="avb"><stop stop-color="#504678" offset="0%"/><stop stop-color="#504678" stop-opacity=".616" offset="30.2%"/><stop stop-color="#504678" stop-opacity=".283" offset="60.8%"/><stop stop-color="#504678" stop-opacity=".076" offset="85.2%"/><stop stop-color="#504678" stop-opacity="0" offset="100%"/></linearGradient><linearGradient x1="24.239%" y1="66.341%" x2="55.239%" y2="41.255%" id="avc"><stop stop-color="#504678" offset="0%"/><stop stop-color="#504678" stop-opacity=".872" offset="17.9%"/><stop stop-color="#504678" stop-opacity=".536" offset="52.6%"/><stop stop-color="#504678" stop-opacity="0" offset="100%"/></linearGradient><linearGradient x1="48.385%" y1="34.971%" x2="46.637%" y2="18.375%" id="avd"><stop stop-color="#504678" offset="0%"/><stop stop-color="#504678" stop-opacity=".332" offset="64.3%"/><stop stop-color="#504678" stop-opacity="0" offset="100%"/></linearGradient></defs><g fill-rule="nonzero" fill="none"><path d="M7.99 20.994c-.727 0-1.381-.433-1.66-1.096L.138 5.11a1.767 1.767 0 01.97-2.317L7.594.136c.44-.18.933-.18 1.372 0 .44.18.788.525.97.96l6.193 14.788a1.767 1.767 0 01-.97 2.316l-6.486 2.658a1.802 1.802 0 01-.684.136zM8.28.955a.833.833 0 00-.316.063L1.477 3.675a.823.823 0 00-.448.443.81.81 0 000 .627l6.193 14.788a.832.832 0 001.081.443l6.487-2.659a.823.823 0 00.448-.443.81.81 0 000-.626L9.045 1.46A.83.83 0 008.28.955z" fill="#5A78FF"/><path fill="url(#ava)" opacity=".7" style="mix-blend-mode:multiply" transform="rotate(-22.5 11.141 5.175)" d="M10.641 2.006h1v6.338h-1z"/><path fill="url(#avb)" opacity=".7" style="mix-blend-mode:multiply" transform="rotate(157.5 13.867 11.776)" d="M13.367 8.188h1v7.174h-1z"/><path d="M13.7 10.873c-1.856.76-3.405 1.81-4.419 3.073L6.666 7.7a11.042 11.042 0 014.419-3.074c1.855-.76 3.729-1.129 5.321-.914l2.616 6.246a11.144 11.144 0 00-5.323.915z" fill="#5A78FF"/><g opacity=".4" style="mix-blend-mode:multiply"><path d="M7.238 7.525c-1.855.76-3.404 1.81-4.418 3.074L.205 4.352a11.042 11.042 0 014.418-3.074C6.478.518 8.353.15 9.945.364L12.56 6.61a11.144 11.144 0 00-5.322.915z" fill="url(#avc)" opacity=".9" transform="translate(6.462 3.348)"/><path d="M7.238 7.525c-1.855.76-3.404 1.81-4.418 3.074L.205 4.352a11.042 11.042 0 014.418-3.074C6.478.518 8.353.15 9.945.364L12.56 6.61a11.144 11.144 0 00-5.322.915z" fill="url(#avd)" opacity=".7" transform="translate(6.462 3.348)"/></g><path d="M14.551 12.777c-2.008 0-3.846.384-5.27 1.167V7.628a11.142 11.142 0 015.27-1.167c2.008 0 3.883.368 5.27 1.169v6.316a11.137 11.137 0 00-5.27-1.17z" fill="#5A78FF"/></g></symbol><symbol viewBox="0 0 215 69" id="mobilepay_logo" xmlns="http://www.w3.org/2000/svg"><defs><linearGradient id="awa" x1="48.743%" x2="52.403%" y1="76.002%" y2="-.583%"><stop stop-color="#504678" offset="0%"/><stop stop-color="#504678" stop-opacity=".616" offset="30.2%"/><stop stop-color="#504678" stop-opacity=".283" offset="60.8%"/><stop stop-color="#504678" stop-opacity=".076" offset="85.2%"/><stop stop-color="#504678" stop-opacity="0" offset="100%"/></linearGradient><linearGradient id="awb" x1="13.702%" x2="57.382%" y1="66.341%" y2="41.255%"><stop stop-color="#504678" offset="0%"/><stop stop-color="#504678" stop-opacity=".872" offset="17.9%"/><stop stop-color="#504678" stop-opacity=".536" offset="52.6%"/><stop stop-color="#504678" stop-opacity="0" offset="100%"/></linearGradient><linearGradient id="awc" x1="47.724%" x2="45.261%" y1="34.971%" y2="18.375%"><stop stop-color="#504678" offset="0%"/><stop stop-color="#504678" stop-opacity=".332" offset="64.3%"/><stop stop-color="#504678" stop-opacity="0" offset="100%"/></linearGradient></defs><g fill="none"><path fill="#5A78FF" d="M25.965 68.979a5.836 5.836 0 01-5.391-3.6L.447 16.791A5.827 5.827 0 013.6 9.178L24.681.447A5.825 5.825 0 0132.293 3.6L52.42 52.19a5.827 5.827 0 01-3.153 7.61l-21.081 8.735a5.8 5.8 0 01-2.221.444zm.946-65.841c-.353 0-.703.07-1.029.207L4.8 12.076a2.689 2.689 0 00-1.455 3.514l20.127 48.591a2.693 2.693 0 003.514 1.456L48.067 56.9a2.689 2.689 0 001.455-3.514L29.395 4.8a2.694 2.694 0 00-2.484-1.662z"/><path fill="url(#awa)" opacity=".7" style="mix-blend-mode:multiply" transform="rotate(-22.5 36.157 17.024)" d="M34.589 6.612h3.137v20.824h-3.137z"/><path fill="url(#awa)" opacity=".7" style="mix-blend-mode:multiply" transform="rotate(157.5 45.122 38.67)" d="M43.554 26.884h3.137v23.572h-3.137z"/><path fill="#5A78FF" d="M44.523 35.724c-6.029 2.5-11.063 5.946-14.359 10.1L21.666 25.3a35.885 35.885 0 0114.359-10.1c6.029-2.5 12.12-3.71 17.295-3.005l8.5 20.523a35.869 35.869 0 00-17.297 3.006z"/><g opacity=".4" style="mix-blend-mode:multiply"><path fill="url(#awb)" d="M23.523 24.724c-6.029 2.5-11.063 5.946-14.359 10.1L.666 14.3A35.885 35.885 0 0115.025 4.2C21.054 1.7 27.145.49 32.32 1.195l8.5 20.523a35.869 35.869 0 00-17.297 3.006z" opacity=".9" transform="translate(21 11)"/><path fill="url(#awc)" d="M23.523 24.724c-6.029 2.5-11.063 5.946-14.359 10.1L.666 14.3A35.885 35.885 0 0115.025 4.2C21.054 1.7 27.145.49 32.32 1.195l8.5 20.523a35.869 35.869 0 00-17.297 3.006z" opacity=".7" transform="translate(21 11)"/></g><path fill="#5A78FF" d="M47.292 41.981c-6.526 0-12.5 1.261-17.13 3.835V25.064a35.885 35.885 0 0117.13-3.835c6.526 0 12.617 1.21 17.129 3.84v20.752a35.869 35.869 0 00-17.129-3.84zM80.63 42l5.28-16.69a.55.55 0 01.49-.42h2.65a.65.65 0 01.52.42l4.11 10.53c.08.21.29.23.36 0l4.08-10.53a.65.65 0 01.52-.42h2.65a.55.55 0 01.49.42L107 42a.4.4 0 01-.39.57h-3.15a.46.46 0 01-.47-.36l-3.35-10.84c-.05-.21-.29-.21-.36 0l-4 10.76a.59.59 0 01-.57.44h-1.85c-.29 0-.44-.16-.55-.44l-4.08-10.76c-.08-.21-.29-.21-.34 0l-3.43 10.84a.47.47 0 01-.49.36h-3a.39.39 0 01-.34-.57zM108 36a7 7 0 117 6.86 6.77 6.77 0 01-7-6.86zm10.4 0a3.44 3.44 0 10-3.4 3.67 3.53 3.53 0 003.38-3.67h.02zm9.76 5.49c-.26-.21-.49-.13-.49.23v.34a.49.49 0 01-.47.49h-2.44a.51.51 0 01-.49-.49V25.37a.51.51 0 01.49-.49h2.57a.49.49 0 01.47.49v4.76c0 .34.23.44.6.18a5.71 5.71 0 013.41-1.14c3.56 0 6.29 3 6.29 6.86a6.56 6.56 0 01-6.4 6.86 5.32 5.32 0 01-3.54-1.4zm6.4-5.46a3.44 3.44 0 10-6.86 0 3.48 3.48 0 003.41 3.61 3.53 3.53 0 003.45-3.64v.03zm5.69-9.93a2 2 0 114 0 2 2 0 01-4 0zm.18 16V30a.49.49 0 01.47-.49h2.57a.51.51 0 01.53.49v12.06a.51.51 0 01-.49.49h-2.61a.49.49 0 01-.47-.49v.04zm6.43-3.96V25.37a.49.49 0 01.47-.49h2.57a.51.51 0 01.49.49v12.85c0 .83.36 1.38 1.27 1.38a.49.49 0 01.49.49v2.13a.49.49 0 01-.49.47c-3.42 0-4.8-1.12-4.8-4.55zm6.25-2.06a6.76 6.76 0 1113.52.05c0 .47-.13.86-.6.86h-8.94c-.23 0-.31.13-.29.34a3 3 0 003.2 2.57 3.18 3.18 0 002.47-1.12 1 1 0 01.83-.42h2.39c.42 0 .6.29.44.7a6.85 6.85 0 01-13-3l-.02.02zm9.49-1.2c.18 0 .26-.08.23-.29a3 3 0 00-3-2.44 3.08 3.08 0 00-3 2.37c-.05.18 0 .36.21.36h5.56zm6.19 7.18V25.37a.49.49 0 01.47-.49h8.19c3.74 0 6.29 2.18 6.29 5.85 0 3.67-2.89 5.93-6.47 5.93h-4.34a.43.43 0 00-.47.49v4.91a.51.51 0 01-.49.49h-2.7a.49.49 0 01-.48-.49zm8.48-8.42a2.82 2.82 0 002.73-2.89 2.67 2.67 0 00-2.74-2.75h-4.37c-.31 0-.44.16-.44.47v4.73c0 .31.13.47.44.47l4.38-.03zM185 36a6.61 6.61 0 016.45-6.86 5.24 5.24 0 013.46 1.33c.23.21.49.18.49-.13V30c0-.26.21-.47.47-.47h2.44a.51.51 0 01.49.49v8.58c0 .65.23.94.68 1a.45.45 0 01.44.42v2.26a.44.44 0 01-.44.44c-1.72 0-2.73-.49-3.3-1.48-.16-.26-.34-.31-.6-.05a5.74 5.74 0 01-4.19 1.74A6.59 6.59 0 01185 36zm10.4 0a3.43 3.43 0 10-6.84 0 3.43 3.43 0 106.84 0zm5.73 11.13V45a.49.49 0 01.49-.47 3.65 3.65 0 003.74-2.5 1.44 1.44 0 00-.1-1l-4.78-10.82a.47.47 0 01.42-.7h2.57c.26 0 .42.21.52.47l3 6.92c.21.55.55.52.78 0l2.86-6.94c.1-.26.23-.42.49-.42h2.47a.45.45 0 01.44.62l-4.92 11.64c-1.79 4.24-3.69 5.82-7.49 5.82a.51.51 0 01-.49-.49z"/></g></symbol><symbol viewBox="0 0 42 39" id="newspaper" xmlns="http://www.w3.org/2000/svg"><path d="M35.8 38.5H6.2c-3.5 0-6.2-2.7-6.2-6.2V2.7C0 1.2 1.2 0 2.7 0h26.1c1.6 0 2.7 1.2 2.7 2.7v29.6c0 2.4 1.8 4.2 4.2 4.2s4.2-1.8 4.2-4.2V6.2c0-.6.4-1 1-1s1 .4 1 1v26.1c.1 3.5-2.6 6.2-6.1 6.2zM2.7 2c-.5 0-.7.2-.7.7v29.6c0 2.4 1.8 4.2 4.2 4.2h25c-1-1.1-1.6-2.6-1.6-4.2V2.7c0-.5-.2-.7-.7-.7H2.7zm33.1 31.8c-.6 0-1-.4-1-1V6.2c0-.6.4-1 1-1s1 .4 1 1v26.5c0 .6-.5 1.1-1 1.1zm-10.5-4H6.2c-.6 0-1-.4-1-1s.4-1 1-1h19.1c.6 0 1 .4 1 1s-.4 1-1 1zm0-5.2H6.2c-.6 0-1-.4-1-1s.4-1 1-1h19.1c.6 0 1 .4 1 1s-.4 1-1 1zm0-5.2h-4.9c-.6 0-1-.4-1-1s.4-1 1-1h4.9c.6 0 1 .4 1 1s-.4 1-1 1zm-9.5 0H7.1c-1.1 0-1.9-.8-1.9-1.9V8.8C5.2 7.8 6 7 7.1 7h8.7c1.1 0 1.9.8 1.9 1.9v8.7c0 1-.9 1.8-1.9 1.8zm-8.6-2h8.4V9H7.2v8.4zm18.1-3.2h-4.9c-.6 0-1-.4-1-1s.4-1 1-1h4.9c.6 0 1 .4 1 1s-.4 1-1 1zm0-5.2h-4.9c-.6 0-1-.4-1-1s.4-1 1-1h4.9c.6 0 1 .4 1 1s-.4 1-1 1z"/></symbol><symbol class="aysvg-inline--fa ayfa-play-circle ayfa-w-16" viewBox="0 0 512 512" id="play-circle-light" xmlns="http://www.w3.org/2000/svg"><path d="M256 504c137 0 248-111 248-248S393 8 256 8 8 119 8 256s111 248 248 248zM40 256c0-118.7 96.1-216 216-216 118.7 0 216 96.1 216 216 0 118.7-96.1 216-216 216-118.7 0-216-96.1-216-216zm331.7-18l-176-107c-15.8-8.8-35.7 2.5-35.7 21v208c0 18.4 19.8 29.8 35.7 21l176-101c16.4-9.1 16.4-32.8 0-42zM192 335.8V176.9c0-4.7 5.1-7.6 9.1-5.1l134.5 81.7c3.9 2.4 3.8 8.1-.1 10.3L201 341c-4 2.3-9-.6-9-5.2z"/></symbol><symbol viewBox="0 0 260.79 260.79" id="play-icon" xmlns="http://www.w3.org/2000/svg"><circle cx="130.39" cy="130.39" r="130.39" fill="#991b1e"/><path d="M75.49 130.4V70.92A13.69 13.69 0 0196 59.06l51.53 29.74L199 118.54a13.69 13.69 0 010 23.71L147.53 172 96 201.73a13.69 13.69 0 01-20.53-11.85z" fill="#fff"/></symbol><symbol class="basvg-inline--fa bafa-tag bafa-w-16" viewBox="0 0 512 512" id="tag-regular" xmlns="http://www.w3.org/2000/svg"><path d="M497.941 225.941L286.059 14.059A48 48 0 00252.118 0H48C21.49 0 0 21.49 0 48v204.118a47.998 47.998 0 0014.059 33.941l211.882 211.882c18.745 18.745 49.137 18.746 67.882 0l204.118-204.118c18.745-18.745 18.745-49.137 0-67.882zM259.886 463.996L48 252.118V48h204.118L464 259.882 259.886 463.996zM192 144c0 26.51-21.49 48-48 48s-48-21.49-48-48 21.49-48 48-48 48 21.49 48 48z"/></symbol><symbol class="bbsvg-inline--fa bbfa-tag bbfa-w-16" viewBox="0 0 512 512" id="tag-solid" xmlns="http://www.w3.org/2000/svg"><path d="M0 252.118V48C0 21.49 21.49 0 48 0h204.118a48 48 0 0133.941 14.059l211.882 211.882c18.745 18.745 18.745 49.137 0 67.882L293.823 497.941c-18.745 18.745-49.137 18.745-67.882 0L14.059 286.059A48 48 0 010 252.118zM112 64c-26.51 0-48 21.49-48 48s21.49 48 48 48 48-21.49 48-48-21.49-48-48-48z"/></symbol><symbol class="bcsvg-inline--fa bcfa-tags bcfa-w-20" viewBox="0 0 640 512" id="tags-regular" xmlns="http://www.w3.org/2000/svg"><path d="M625.941 293.823L421.823 497.941c-18.746 18.746-49.138 18.745-67.882 0l-.36-.36L592 259.882 331.397 0h48.721a48 48 0 0133.941 14.059l211.882 211.882c18.745 18.745 18.745 49.137 0 67.882zm-128 0L293.823 497.941C284.451 507.314 272.166 512 259.882 512c-12.284 0-24.569-4.686-33.941-14.059L14.059 286.059A48 48 0 010 252.118V48C0 21.49 21.49 0 48 0h204.118a47.998 47.998 0 0133.941 14.059l211.882 211.882c18.745 18.745 18.745 49.137 0 67.882zM464 259.882L252.118 48H48v204.118l211.886 211.878L464 259.882zM144 96c-26.51 0-48 21.49-48 48s21.49 48 48 48 48-21.49 48-48-21.49-48-48-48z"/></symbol><symbol class="bdsvg-inline--fa bdfa-tags bdfa-w-20" viewBox="0 0 640 512" id="tags-solid" xmlns="http://www.w3.org/2000/svg"><path d="M497.941 225.941L286.059 14.059A48 48 0 00252.118 0H48C21.49 0 0 21.49 0 48v204.118a48 48 0 0014.059 33.941l211.882 211.882c18.744 18.745 49.136 18.746 67.882 0l204.118-204.118c18.745-18.745 18.745-49.137 0-67.882zM112 160c-26.51 0-48-21.49-48-48s21.49-48 48-48 48 21.49 48 48-21.49 48-48 48zm513.941 133.823L421.823 497.941c-18.745 18.745-49.137 18.745-67.882 0l-.36-.36L527.64 323.522c16.999-16.999 26.36-39.6 26.36-63.64s-9.362-46.641-26.36-63.64L331.397 0h48.721a48 48 0 0133.941 14.059l211.882 211.882c18.745 18.745 18.745 49.137 0 67.882z"/></symbol><symbol viewBox="0 0 51 48" id="video" xmlns="http://www.w3.org/2000/svg"><path d="M45 47.5H6.1C3 47.5.5 45 .5 41.9V6.1C.5 3 3 .5 6.1.5H45c3.1 0 5.6 2.5 5.6 5.6v35.8c0 3.1-2.5 5.6-5.6 5.6zM6.1 3.5c-1.4 0-2.6 1.2-2.6 2.6v35.8c0 1.4 1.2 2.6 2.6 2.6H45c1.4 0 2.6-1.2 2.6-2.6V6.1c0-1.4-1.2-2.6-2.6-2.6H6.1zm24.6 39.9c-2.1 0-3.5-1.5-3.5-3.5v-.5h-19c-.8 0-1.5-.7-1.5-1.5s.7-1.5 1.5-1.5h19v-.5c0-2.1 1.5-3.5 3.5-3.5s3.5 1.5 3.5 3.5v.5H43c.8 0 1.5.7 1.5 1.5s-.7 1.5-1.5 1.5h-8.7v.5c-.1 2-1.5 3.5-3.6 3.5zm-.6-5.6v2c0 .4.1.5.5.5s.5-.1.5-.5v-4.1c0-.4-.1-.5-.5-.5s-.5.1-.5.5v2.1zm-9.9-7.5c-.5 0-.9-.1-1.3-.4-.8-.5-1.3-1.3-1.3-2.3V13.7c0-1 .6-1.9 1.4-2.4.9-.5 1.9-.4 2.6.1l12 6.9c.8.4 1.4 1.3 1.4 2.3 0 1-.6 1.9-1.4 2.4l-12 6.9h-.1c-.4.3-.9.4-1.3.4zm.6-1.6zm.1-1.1zm-.2-13.3V27l11-6.3-11-6.4zM32.2 21zm0-.6zm-12.4-6.6z"/></symbol></svg>
