<svg
  version="1.1"
  id="Layer_1"
  xmlns="http://www.w3.org/2000/svg"
  x="0px"
  y="0px"
  viewBox="0 0 576 448"
  style="enable-background:new 0 0 576 448;"
  xml:space="preserve"
>
  <path
    d="M528,0H48C21.5,0,0,21.5,0,48v352c0,26.5,21.5,48,48,48h480c26.5,0,48-21.5,48-48V48C576,21.5,554.5,0,528,0z M48,32h480
	c8.8,0,16,7.2,16,16v48H32V48C32,39.2,39.2,32,48,32z M528,416H48c-8.8,0-16-7.2-16-16V192h512v208C544,408.8,536.8,416,528,416z
	 M192,332v8c0,6.6-5.4,12-12,12h-72c-6.6,0-12-5.4-12-12v-8c0-6.6,5.4-12,12-12h72C186.6,320,192,325.4,192,332z M384,332v8
	c0,6.6-5.4,12-12,12H236c-6.6,0-12-5.4-12-12v-8c0-6.6,5.4-12,12-12h136C378.6,320,384,325.4,384,332z"
  />
</svg>
