<svg
  version="1.1"
  id="Layer_1"
  xmlns="http://www.w3.org/2000/svg"
  xmlns:xlink="http://www.w3.org/1999/xlink"
  x="0px"
  y="0px"
  viewBox="0 0 63.6 81.5"
  style="enable-background:new 0 0 63.6 81.5;"
  xml:space="preserve"
>
  <g>
    <rect y="70.7" width="63.3" height="10.9" />
    <polygon points="0,81.5 21.2,61.8 21.2,47.8 0,67.5 	" />
    <path
      d="M31.8,0C14.2,0,0,14.2,0,31.8c0,13.8,8.9,25.6,21.2,30v-14c-5.2-3.4-8.6-9.3-8.6-16c0-10.6,8.6-19.2,19.2-19.2
		S51,21.2,51,31.8c0,6.7-3.4,12.5-8.6,16v14c12.3-4.4,21.2-16.1,21.2-30C63.6,14.2,49.3,0,31.8,0z"
    />
    <polygon points="63.6,81.5 42.4,61.7 42.4,47.8 63.6,67.5 	" />
  </g>
</svg>
