<?xml version="1.0" encoding="utf-8"?><svg xmlns="http://www.w3.org/2000/svg" xmlns:xlink="http://www.w3.org/1999/xlink"><symbol viewBox="0 0 230 60" fill="none" id="ebupdate" xmlns="http://www.w3.org/2000/svg"><path d="M0 9.23C0 4.134 4.119 0 9.2 0h211.6c5.082 0 9.2 4.133 9.2 9.23v41.54c0 5.097-4.118 9.23-9.2 9.23H9.2C4.119 60 0 55.867 0 50.77z" fill="#000"/><path d="M81.935 18.989h4.669v12.525c0 1.988.058 3.276.174 3.865.199.947.673 1.71 1.419 2.288.758.568 1.788.852 3.092.852 1.325 0 2.325-.268 2.998-.805.673-.547 1.078-1.215 1.214-2.003.137-.79.205-2.098.205-3.928V18.989h4.67v12.147c0 2.776-.126 4.738-.379 5.884-.252 1.146-.72 2.114-1.404 2.903-.673.788-1.577 1.42-2.713 1.893-1.136.462-2.619.694-4.449.694-2.208 0-3.886-.253-5.032-.757-1.136-.516-2.035-1.178-2.698-1.988-.662-.82-1.099-1.678-1.309-2.571-.305-1.326-.457-3.282-.457-5.869zm23.379 23.126V18.99h7.493c2.839 0 4.69.116 5.553.347 1.325.347 2.434 1.104 3.328 2.272.894 1.156 1.341 2.655 1.341 4.496 0 1.42-.258 2.613-.773 3.58-.515.968-1.173 1.73-1.972 2.288-.789.547-1.593.91-2.413 1.088-1.115.221-2.73.332-4.843.332h-3.045v8.723zm4.669-19.214v6.563h2.556c1.84 0 3.07-.121 3.691-.363.62-.242 1.104-.62 1.451-1.136.358-.515.537-1.115.537-1.798 0-.842-.247-1.536-.742-2.083-.494-.547-1.12-.888-1.877-1.025-.557-.105-1.677-.158-3.36-.158zm16.864-3.912h8.534c1.925 0 3.392.147 4.401.442a7.736 7.736 0 013.487 2.13c.967 1.02 1.703 2.27 2.208 3.754.505 1.472.758 3.292.758 5.458 0 1.904-.237 3.544-.71 4.922-.579 1.683-1.404 3.045-2.477 4.086-.81.788-1.904 1.404-3.281 1.845-1.031.326-2.409.49-4.133.49h-8.787zm4.669 3.912V38.22h3.487c1.304 0 2.245-.074 2.823-.221.758-.19 1.383-.51 1.878-.962.504-.453.915-1.194 1.23-2.225.316-1.04.473-2.455.473-4.243 0-1.788-.157-3.16-.473-4.117-.315-.958-.757-1.704-1.325-2.24-.568-.537-1.288-.9-2.161-1.089-.652-.147-1.93-.22-3.834-.22zm39.549 19.214h-5.08l-2.019-5.253h-9.244l-1.909 5.253h-4.954l9.008-23.126h4.938zm-8.598-9.15l-3.186-8.581-3.124 8.582zm13.898 9.15V22.901h-6.862V18.99h18.378v3.91h-6.846v19.214zm14.545 0V18.99h17.148v3.91H195.58v5.127h11.61v3.897h-11.61v6.294h12.919v3.896z" fill="#fff"/><g filter="url(#afilter0_d)"><path d="M0 9.23A9.23 9.23 0 019.23 0h41.54A9.23 9.23 0 0160 9.23v41.54A9.23 9.23 0 0150.77 60H9.23A9.23 9.23 0 010 50.77z" fill="url(#apaint0_linear)"/></g><path d="M26.166 33.441l-6.58-2.531c-1.15-.443-1.495-1.85-.672-2.741L33.74 12.125c1.249-1.352 3.542-.173 3.068 1.577L33.32 26.558l6.58 2.532c1.15.443 1.495 1.85.672 2.741L25.747 47.875c-1.249 1.352-3.542.173-3.068-1.577z" fill="#fff"/><defs id="adefs127"><linearGradient id="apaint0_linear" x1="75.455" y1="20" x2="74.436" y2="80.029" gradientUnits="userSpaceOnUse" gradientTransform="translate(-40 -20)"><stop stop-color="#1058C2" id="astop122"/><stop offset="1" stop-color="#00A3FF" id="astop124"/></linearGradient><filter id="afilter0_d" x="0" y="0" width="140" height="140" filterUnits="userSpaceOnUse" color-interpolation-filters="sRGB"><feFlood flood-opacity="0" result="BackgroundImageFix" id="afeFlood107"/><feColorMatrix in="SourceAlpha" type="matrix" values="0 0 0 0 0 0 0 0 0 0 0 0 0 0 0 0 0 0 127 0" result="hardAlpha" id="afeColorMatrix109"/><feOffset dy="20" id="afeOffset111"/><feGaussianBlur stdDeviation="20" id="afeGaussianBlur113"/><feColorMatrix type="matrix" values="0 0 0 0 0 0 0 0 0 0 0 0 0 0 0 0 0 0 0.08 0" id="afeColorMatrix115"/><feBlend mode="normal" in2="BackgroundImageFix" result="effect1_dropShadow" id="afeBlend117"/><feBlend mode="normal" in="SourceGraphic" in2="effect1_dropShadow" result="shape" id="afeBlend119"/></filter></defs></symbol><symbol viewBox="0 0 100 88" id="ekstrabladet" xmlns="http://www.w3.org/2000/svg"><path fill="#B30000" d="M0-.9h100V78l-49.5 9.5L0 77.6V-.9z"/><path fill="#FFF" d="M23 42.3H10.6v-4.5h9.8v-3.4h-9.8v-4.6h11.5v-3.3h-16v19.6h17zM39.7 46.1l-6-8.8 5-5.4h-4.8l-5.2 5.6v-11h-3.9v19.6h3.9v-3.9l2.3-2.3 3.8 6.2z"/><path fill="#FFF" d="M46.3 43.9c-2.4 0-3.1-.5-3.5-2h-3.7c0 3.1 2.5 4.9 6.7 4.9 4.7 0 7.5-1.8 7.5-4.8 0-2-1.6-3.7-3.6-4.1l-5.6-.9c-.6-.1-1.2-.7-1.2-1.4 0-.8.8-1.4 2.3-1.4 3 0 3.5.4 3.6 2h3.8v-.5c0-2.4-2.8-4.5-6.5-4.5-4.2 0-6.9 1.8-6.9 4.9 0 1.8 1.3 3.6 3 3.8l5.8 1c.8.1 1.3.5 1.3 1.2.1 1.2-.8 1.8-3 1.8zM56.5 42.6c0 2.6 1.7 4.2 4.7 4.2 1.1 0 2-.2 3.6-1v-1.9c-.7.1-1.7.1-2 .1-1.6 0-2.2-.6-2.2-1.8v-7.6h3.8V32h-3.8v-5.4h-2.9l-.1 1.2c-.6 3.8-.7 4.2-1.8 4.2h-2.5v2.6h3.4l-.2 8zM70.8 39.9c0-3.1 1.7-4.8 4.7-4.8h1.7v-3.6H76c-2.3 0-4.1 1.1-5.3 3.2V32h-3.8v14.2h4v-6.3zM91 41.5v-5.9c0-1.7-.2-2.3-1-2.8-1.3-1.1-3.4-1.6-5.8-1.6-4.3 0-6.3 1.4-6.6 4.8h3.7c.2-1.6 1-2 3-2 2.2 0 2.9.6 2.9 2.3 0 .7-.2 1-1.1 1.1l-4.1.5c-4.1.5-5.6 1.8-5.6 4.6 0 2.6 2 4.2 5.4 4.2 2.5 0 4.1-.8 5.5-2.9.8 2.2 1.8 2.9 3.7 2.9 1 0 1.8-.2 3.4-1.1v-1.8c-.8.1-1.4.1-1.7.1-1.2 0-1.7-.7-1.7-2.4zm-8 2.4c-1.4 0-2.3-.7-2.3-1.8 0-1.6.7-1.9 5.3-2.8l1.2-.2c0 3.2-1.3 4.8-4.2 4.8zM20.1 58.8c2.8-.6 4.2-2.2 4.2-4.4 0-2.6-2.4-4.7-5.5-4.7H6.1v19.5h12.5c3.7 0 6.4-2.2 6.4-5.3 0-2.7-1.6-4.2-4.9-5.1zm-9.5-6h5.9c2.3 0 3.1.6 3.1 2.3 0 1.8-.8 2.4-3.1 2.4h-5.9v-4.7zm5.9 12.9h-6v-5.3h6c2.4 0 3.5.8 3.5 2.6 0 2.1-.9 2.7-3.5 2.7zM26.9 49.8H31v19.5h-4.1zM47.4 64.9l-.1-6.9c-.1-2.3-2.5-3.6-6.6-3.6-5.1 0-6.9 1.2-7.1 4.8h3.8c.2-1.4.8-1.9 2.9-1.9 2.4 0 3.1.5 3.1 2.2 0 .7-.4 1-1.2 1.1-.2 0-1.9.1-4.1.5-3.8.5-5.4 1.8-5.4 4.6 0 2.6 1.9 4.2 5.3 4.2 2.6 0 4.1-.7 5.6-2.9.7 2 1.8 2.9 3.9 2.9 1 0 1.7-.2 2.9-.8v-2c-.5.1-.8.1-1.2.1-1.3-.1-1.8-.7-1.8-2.3zm-8 2.1c-1.7 0-2.5-.6-2.5-1.7 0-1.3 1-2 3.1-2.4 1.9-.2 1.8-.2 3.2-.6.1 3.1-1.2 4.7-3.8 4.7zM61.7 57.3c-1.3-1.9-2.8-2.8-4.9-2.8-3.8 0-6.7 3.2-6.7 7.6 0 4.8 2.5 7.8 6.6 7.8 2.3 0 3.4-.6 5.2-2.8v2.3h3.9V49.8h-4v7.5zm-4.1 9.8c-2.4 0-3.5-1.7-3.5-4.9 0-3 1.2-4.7 3.5-4.7 2.2 0 3.6 1.9 3.6 4.7 0 3-1.4 4.9-3.6 4.9zM75.5 54.6c-4.5 0-7.8 3.4-7.8 7.7 0 4.6 3.2 7.8 7.8 7.8 4.4 0 7.2-1.8 7.7-5.1h-3.8c-.5 1.6-1.3 2-3.4 2-2.8 0-4.1-1.3-4.1-4h11.3c0-5-3-8.4-7.7-8.4zM72 60.9c.2-2.3 1.3-3.5 3.4-3.5 2.2 0 3.2 1.1 3.4 3.5H72zM90.3 65.7v-7.6h4v-2.9h-4v-5.3h-2.9l-.1 1.1c-.7 4.2-.6 4.2-1.7 4.2h-2.3v2.9h3l-.1 6.9v.5c0 3.2 1.4 4.7 4.6 4.7 1.6 0 2.4-.1 3.7-.8v-2.2c-.8.1-1.7.1-2 .1-1.6-.1-2.2-.5-2.2-1.6z"/></symbol></svg>
