<?xml version="1.0" encoding="utf-8"?><svg xmlns="http://www.w3.org/2000/svg"
  xmlns:xlink="http://www.w3.org/1999/xlink">
  <symbol viewBox="0 0 256 149" id="angle_down_pro" xmlns="http://www.w3.org/2000/svg">
    <path
      d="M119.5 145.4L3.5 27.6c-4.7-4.7-4.7-12.3 0-17l7.1-7.1c4.7-4.7 12.3-4.7 17 0L128 105.8 228.4 3.6c4.7-4.7 12.3-4.7 17 0l7.1 7.1c4.7 4.7 4.7 12.3 0 17l-116 117.8c-4.7 4.6-12.3 4.6-17-.1z" />
  </symbol>
  <symbol viewBox="0 0 149 256.1" id="angle_left_pro" xmlns="http://www.w3.org/2000/svg">
    <path
      d="M3.5 119.5l117.8-116c4.7-4.7 12.3-4.7 17 0l7.1 7.1c4.7 4.7 4.7 12.3 0 17L43.1 128l102.2 100.4c4.7 4.7 4.7 12.3 0 17l-7.1 7.1c-4.7 4.7-12.3 4.7-17 0L3.4 136.5c-4.6-4.7-4.6-12.3.1-17z" />
  </symbol>
  <symbol viewBox="0 0 256 149" id="angle_up_pro" xmlns="http://www.w3.org/2000/svg">
    <path
      d="M136.5 3.5l116 117.8c4.7 4.7 4.7 12.3 0 17l-7.1 7.1c-4.7 4.7-12.3 4.7-17 0L128 43.1 27.6 145.3c-4.7 4.7-12.3 4.7-17 0l-7.1-7.1c-4.7-4.7-4.7-12.3 0-17l116-117.8c4.7-4.6 12.3-4.6 17 .1z" />
  </symbol>
  <symbol viewBox="0 0 51 47" id="article" xmlns="http://www.w3.org/2000/svg">
    <path
      d="M27 46.5h-4.5c-.8 0-1.5-.7-1.5-1.5s.7-1.5 1.5-1.5H27c.8 0 1.5.7 1.5 1.5s-.7 1.5-1.5 1.5zm-12 0H2c-.8 0-1.5-.7-1.5-1.5s.7-1.5 1.5-1.5h13c.8 0 1.5.7 1.5 1.5s-.7 1.5-1.5 1.5zm34-11.1H2c-.8 0-1.5-.7-1.5-1.5s.7-1.5 1.5-1.5h47c.8 0 1.5.7 1.5 1.5s-.7 1.5-1.5 1.5zm0-11.1H33.5c-.8 0-1.5-.7-1.5-1.5s.7-1.5 1.5-1.5H49c.8 0 1.5.7 1.5 1.5s-.7 1.5-1.5 1.5zm-26.3 0H3.3c-1.6 0-2.8-1.2-2.8-2.8V3C.5 1.4 1.7.2 3.3.2h19.4c1.6 0 2.8 1.2 2.8 2.8v18.5c-.1 1.6-1.2 2.8-2.8 2.8zm-19.2-3h18.9v-18H3.5v18zM49 13.2H33.5c-.8 0-1.5-.7-1.5-1.5s.7-1.5 1.5-1.5H49c.8 0 1.5.7 1.5 1.5s-.7 1.5-1.5 1.5zm0-9.9H33.5c-.8 0-1.5-.7-1.5-1.5S32.7.3 33.5.3H49c.8 0 1.5.7 1.5 1.5s-.7 1.5-1.5 1.5z" />
  </symbol>
  <symbol viewBox="0 0 442.6 335.1" id="check_pro" xmlns="http://www.w3.org/2000/svg">
    <path
      d="M410.8 3.5l-280 280-99-99c-4.7-4.7-12.3-4.7-17 0L3.5 195.8c-4.7 4.7-4.7 12.3 0 17l118.8 118.8c4.7 4.7 12.3 4.7 17 0L439.1 31.8c4.7-4.7 4.7-12.3 0-17L427.8 3.5c-4.7-4.7-12.3-4.7-17 0z" />
  </symbol>
  <symbol viewBox="0 0 576 448" id="credit_card" xmlns="http://www.w3.org/2000/svg">
    <path
      d="M528 0H48C21.5 0 0 21.5 0 48v352c0 26.5 21.5 48 48 48h480c26.5 0 48-21.5 48-48V48c0-26.5-21.5-48-48-48zM48 32h480c8.8 0 16 7.2 16 16v48H32V48c0-8.8 7.2-16 16-16zm480 384H48c-8.8 0-16-7.2-16-16V192h512v208c0 8.8-7.2 16-16 16zm-336-84v8c0 6.6-5.4 12-12 12h-72c-6.6 0-12-5.4-12-12v-8c0-6.6 5.4-12 12-12h72c6.6 0 12 5.4 12 12zm192 0v8c0 6.6-5.4 12-12 12H236c-6.6 0-12-5.4-12-12v-8c0-6.6 5.4-12 12-12h136c6.6 0 12 5.4 12 12z" />
  </symbol>
  <symbol viewBox="0 0 72.8 72.8" id="ebplus_icon" xmlns="http://www.w3.org/2000/svg">
    <path
      d="M36.4 0C16.3 0 0 16.3 0 36.4s16.3 36.4 36.4 36.4 36.4-16.3 36.4-36.4S56.5 0 36.4 0zm20.1 41.9H42.2v14.2H30.6V41.9H16.3V31.4h14.2V17.2h11.7v14.1h14.2v10.6z" />
  </symbol>
  <symbol viewBox="0 122.1 595.3 597.4" id="ebplus_sort" xmlns="http://www.w3.org/2000/svg">
    <path d="M237.4 122.1h120.5v238.5h237.4V481H357.9v238.5H237.4V481H0V360.5h237.4V122.1z" />
  </symbol>
  <symbol viewBox="0 0 512 384" id="envelope" xmlns="http://www.w3.org/2000/svg">
    <path
      d="M464 0H48C21.5 0 0 21.5 0 48v288c0 26.5 21.5 48 48 48h416c26.5 0 48-21.5 48-48V48c0-26.5-21.5-48-48-48zM48 32h416c8.8 0 16 7.2 16 16v41.4c-21.9 18.5-53.2 44-150.6 121.3-16.9 13.4-50.2 45.7-73.4 45.3-23.2.4-56.6-31.9-73.4-45.3C85.2 133.4 53.9 107.9 32 89.4V48c0-8.8 7.2-16 16-16zm416 320H48c-8.8 0-16-7.2-16-16V131c22.8 18.7 58.8 47.6 130.7 104.7 20.5 16.4 56.7 52.5 93.3 52.3 36.4.3 72.3-35.5 93.3-52.3 71.9-57.1 107.9-86 130.7-104.7v205c0 8.8-7.2 16-16 16z" />
  </symbol>
  <symbol viewBox="0 0 55 55" id="gallery" xmlns="http://www.w3.org/2000/svg">
    <path
      d="M43.7 54.5c-.3 0-.6 0-.9-.1l-32.7-6.6c-.8-.2-1.3-1-1.2-1.8.2-.8 1-1.3 1.8-1.2l32.8 6.6h.2c.1 0 .1 0 .6-.1h.1s0-.1.1-.1V51l7.1-35c0-.2 0-.4-.1-.6-.1-.1-.2-.2-.4-.3l-5.1-.8c-.8-.1-1.4-.9-1.2-1.7.1-.8.9-1.4 1.7-1.2l4.9.9c1 .2 1.8.7 2.4 1.5.6.9.8 1.9.6 2.9l-7.1 34.9c-.1 1-.8 2-1.7 2.5-.1 0-.1.1-.2.1l-.2.1c-.4 0-.9.2-1.5.2zm-4.1-11.2H4.2C2 43.3.5 41.7.5 39.6V4.2C.5 2 2.1.5 4.2.5h35.4c2.2 0 3.7 1.6 3.7 3.7v35.4c0 2.2-1.5 3.7-3.7 3.7zM3.5 36.7v2.9c0 .5.2.7.7.7h35.4c.5 0 .7-.2.7-.7v-2.9H3.5zm34.2-3h2.6V4.2c0-.5-.2-.7-.7-.7H4.2c-.5 0-.7.2-.7.7v29.5h2.6c.2-1.7.6-3.4 1.4-5.1 1.2-2.4 4.8-3.7 9.8-5.4.2-.5.2-1.7 0-2.1-2.1-2.4-3-5.2-2.8-8.1 0-2.2.6-4 1.9-5.5C17.8 5.9 19.7 5 22 5c2 0 3.9.9 5.5 2.4l.1.1c1.3 1.6 1.9 3.5 1.7 5.6.2 3-.8 5.9-2.7 7.9-.2.5-.2 1.8 0 2.3.6.2 1.3.5 1.9.7 4 1.5 6.9 2.6 7.9 4.6.7 1.7 1.2 3.4 1.3 5.1zm-28.6 0h25.6c-.2-1.3-.5-2.6-1.1-3.9-.4-.9-3.4-2-6.2-3-.7-.3-1.4-.5-2.2-.8-.5-.2-1.2-.7-1.5-1.8-.5-1.5-.3-3.9.4-4.9.1-.1.1-.2.2-.2 1.4-1.4 2.2-3.6 2-5.9v-.3c.2-1.3-.1-2.5-.9-3.4-.6-.6-1.8-1.5-3.3-1.5-1.4 0-2.5.5-3.3 1.5-.8 1-1.2 2.2-1.2 3.7v.1c-.2 2.2.5 4.2 2.1 6 .9.9 1.1 3.3.8 4.6-.4 1.6-1.3 2.1-1.8 2.3-2.8.9-7.5 2.5-8.2 3.9-.8 1-1.2 2.3-1.4 3.6zm8.2-12.6c0 .1 0 .1 0 0 0 .1 0 .1 0 0z" />
  </symbol>
  <symbol viewBox="0 0 53 53" id="headphones" xmlns="http://www.w3.org/2000/svg">
    <path
      d="M14.9 52.7c-.5 0-1.1-.1-1.6-.3-.9-.4-1.6-1.2-2-2.3L6.7 38.3c-.4-1-.4-2.1.1-3 .4-.9 1.2-1.6 2.2-1.9l2-.9c1-.4 2.1-.4 3.1 0 .9.4 1.6 1.2 2 2.3l4.6 11.8c.4 1 .4 2.1-.1 3-.4.9-1.2 1.6-2.2 1.9l-2 .9c-.5.2-1 .3-1.5.3zm-2.4-17.6c-.1 0-.2 0-.3.1l-2 .9s-.1 0-.1.1c-.2.1-.4.2-.5.4-.1.2-.1.4 0 .7l4.7 11.9c.1.3.2.5.4.6.2.1.4.1.7 0l2-.9s.1 0 .1-.1c.2-.1.4-.2.5-.4.1-.2.1-.4 0-.7l-4.7-11.9c-.1-.3-.2-.5-.4-.6-.2-.1-.3-.1-.4-.1zM38 52.6c-.5 0-.9-.1-1.3-.3l-2.2-1c-1.9-.8-2.9-3.1-2.2-5L37 34.6c.8-2 3.1-3 5-2.2l2.2 1c.9.3 1.6 1.1 2.1 2 .5 1 .5 2 .1 3l-4.7 11.9c-.4.9-1.1 1.7-2 2.1-.6.1-1.1.2-1.7.2zm2.7-17.5c-.3 0-.7.3-.9.6l-4.7 11.9c-.2.4.1.9.6 1.1l2.2 1c.3.1.9-.2 1-.6l4.7-11.9c.1-.2.1-.4 0-.6-.1-.2-.3-.4-.5-.5l-2.2-1h-.2zm-.4 14.5zm3.7 2.9c-.2 0-.5-.1-.7-.2-.7-.4-1-1.3-.6-2 .1-.1 6.8-12.6 6.8-23.8 0-12.7-10.3-23-23-23s-23 10.3-23 23c0 11.1 6.7 23.7 6.8 23.8.4.7.1 1.6-.6 2-.7.4-1.6.1-2-.6C7.4 51.2.5 38.4.5 26.5c0-14.3 11.7-26 26-26s26 11.7 26 26c0 11.9-6.9 24.7-7.2 25.2-.3.5-.8.8-1.3.8z" />
  </symbol>
  <symbol viewBox="0 0 512 512" id="headset" xmlns="http://www.w3.org/2000/svg">
    <path
      d="M192 208c0-17.67-14.33-32-32-32h-16c-35.35 0-64 28.65-64 64v48c0 35.35 28.65 64 64 64h16c17.67 0 32-14.33 32-32V208zm176 144c35.35 0 64-28.65 64-64v-48c0-35.35-28.65-64-64-64h-16c-17.67 0-32 14.33-32 32v112c0 17.67 14.33 32 32 32h16zM256 0C113.18 0 4.58 118.83 0 256v16c0 8.84 7.16 16 16 16h16c8.84 0 16-7.16 16-16v-16c0-114.69 93.31-208 208-208s208 93.31 208 208h-.12c.08 2.43.12 165.72.12 165.72 0 23.35-18.93 42.28-42.28 42.28H320c0-26.51-21.49-48-48-48h-32c-26.51 0-48 21.49-48 48s21.49 48 48 48h181.72c49.86 0 90.28-40.42 90.28-90.28V256C507.42 118.83 398.82 0 256 0z" />
  </symbol>
  <symbol viewBox="0 0 448 512" id="lock" xmlns="http://www.w3.org/2000/svg">
    <path
      d="M400 192h-32v-46.6C368 65.8 304 .2 224.4 0 144.8-.2 80 64.5 80 144v48H48c-26.5 0-48 21.5-48 48v224c0 26.5 21.5 48 48 48h352c26.5 0 48-21.5 48-48V240c0-26.5-21.5-48-48-48zm-272-48c0-52.9 43.1-96 96-96s96 43.1 96 96v48H128v-48zm272 320H48V240h352v224z" />
  </symbol>
  <symbol viewBox="0 0 63.6 81.5" id="medielogin" xmlns="http://www.w3.org/2000/svg">
    <path d="M0 70.7h63.3v10.9H0z" />
    <path d="M0 81.5l21.2-19.7v-14L0 67.5z" />
    <path
      d="M31.8 0C14.2 0 0 14.2 0 31.8c0 13.8 8.9 25.6 21.2 30v-14c-5.2-3.4-8.6-9.3-8.6-16 0-10.6 8.6-19.2 19.2-19.2S51 21.2 51 31.8c0 6.7-3.4 12.5-8.6 16v14c12.3-4.4 21.2-16.1 21.2-30C63.6 14.2 49.3 0 31.8 0z" />
    <path d="M63.6 81.5L42.4 61.7V47.8l21.2 19.7z" />
  </symbol>
  <symbol viewBox="0 0 30 30" id="menu-bars" xmlns="http://www.w3.org/2000/svg">
    <path d="M0 4.3h30v4H0zM0 12.3h30v4H0zM0 20.3h30v4H0z" />
  </symbol>
  <symbol viewBox="0 0 512 512" id="miteb-regular" xmlns="http://www.w3.org/2000/svg">
    <path
      d="M210.3 26.5H22.5C10 26.5-.1 36.5-.1 48.8v115.4c0 12.3 10.1 22.3 22.6 22.3h187.8c12.5 0 22.6-10 22.6-22.3V48.8c.1-12.3-10.1-22.3-22.6-22.3zm-23.3 115H45.8V71.7H187v69.8zm302.4-115H301.6c-12.5 0-22.6 10-22.6 22.3v231.1c0 12.3 10.1 22.3 22.6 22.3h187.8c12.5 0 22.6-10 22.6-22.3V48.8c0-12.3-10.1-22.3-22.6-22.3zm-23.3 230.7H324.9V71.7h141.2v185.5zm-255.8-21.9H22.5c-12.5 0-22.6 10-22.6 22.3v205.6c0 12.3 10.1 22.3 22.6 22.3h187.8c12.5 0 22.6-10 22.6-22.3V257.6c.1-12.3-10.1-22.3-22.6-22.3zM187 440.5H45.8v-160H187v160zm302.4-90.4H301.6c-12.5 0-22.6 10-22.6 22.3v90.8c0 12.3 10.1 22.3 22.6 22.3h187.8c12.5 0 22.6-10 22.6-22.3v-90.8c0-12.3-10.1-22.3-22.6-22.3zm-23.3 90.4H324.9v-45.2h141.2v45.2z" />
  </symbol>
  <symbol viewBox="0 0 512 512" id="miteb-solid" xmlns="http://www.w3.org/2000/svg">
    <path
      d="M210.3 26.5H22.5C10 26.5-.1 36.5-.1 48.8v115.4c0 12.3 10.1 22.3 22.6 22.3h187.8c12.5 0 22.6-10 22.6-22.3V48.8c.1-12.3-10.1-22.3-22.6-22.3zm279.1 0H301.6c-12.5 0-22.6 10-22.6 22.3v231.1c0 12.3 10.1 22.3 22.6 22.3h187.8c12.5 0 22.6-10 22.6-22.3V48.8c0-12.3-10.1-22.3-22.6-22.3zM210.3 235.3H22.5c-12.5 0-22.6 10-22.6 22.3v205.6c0 12.3 10.1 22.3 22.6 22.3h187.8c12.5 0 22.6-10 22.6-22.3V257.6c.1-12.3-10.1-22.3-22.6-22.3zm279.1 114.8H301.6c-12.5 0-22.6 10-22.6 22.3v90.8c0 12.3 10.1 22.3 22.6 22.3h187.8c12.5 0 22.6-10 22.6-22.3v-90.8c0-12.3-10.1-22.3-22.6-22.3z" />
  </symbol>
  <symbol viewBox="0 0 320 512" id="mobil_fone" xmlns="http://www.w3.org/2000/svg">
    <path
      d="M272 0H48C21.5 0 0 21.5 0 48v416c0 26.5 21.5 48 48 48h224c26.5 0 48-21.5 48-48V48c0-26.5-21.5-48-48-48zM160 480c-17.7 0-32-14.3-32-32s14.3-32 32-32 32 14.3 32 32-14.3 32-32 32zm112-108c0 6.6-5.4 12-12 12H60c-6.6 0-12-5.4-12-12V60c0-6.6 5.4-12 12-12h200c6.6 0 12 5.4 12 12v312z" />
  </symbol>
  <symbol viewBox="0 0 42 39" id="newspaper" xmlns="http://www.w3.org/2000/svg">
    <path
      d="M35.8 38.5H6.2c-3.5 0-6.2-2.7-6.2-6.2V2.7C0 1.2 1.2 0 2.7 0h26.1c1.6 0 2.7 1.2 2.7 2.7v29.6c0 2.4 1.8 4.2 4.2 4.2s4.2-1.8 4.2-4.2V6.2c0-.6.4-1 1-1s1 .4 1 1v26.1c.1 3.5-2.6 6.2-6.1 6.2zM2.7 2c-.5 0-.7.2-.7.7v29.6c0 2.4 1.8 4.2 4.2 4.2h25c-1-1.1-1.6-2.6-1.6-4.2V2.7c0-.5-.2-.7-.7-.7H2.7zm33.1 31.8c-.6 0-1-.4-1-1V6.2c0-.6.4-1 1-1s1 .4 1 1v26.5c0 .6-.5 1.1-1 1.1zm-10.5-4H6.2c-.6 0-1-.4-1-1s.4-1 1-1h19.1c.6 0 1 .4 1 1s-.4 1-1 1zm0-5.2H6.2c-.6 0-1-.4-1-1s.4-1 1-1h19.1c.6 0 1 .4 1 1s-.4 1-1 1zm0-5.2h-4.9c-.6 0-1-.4-1-1s.4-1 1-1h4.9c.6 0 1 .4 1 1s-.4 1-1 1zm-9.5 0H7.1c-1.1 0-1.9-.8-1.9-1.9V8.8C5.2 7.8 6 7 7.1 7h8.7c1.1 0 1.9.8 1.9 1.9v8.7c0 1-.9 1.8-1.9 1.8zm-8.6-2h8.4V9H7.2v8.4zm18.1-3.2h-4.9c-.6 0-1-.4-1-1s.4-1 1-1h4.9c.6 0 1 .4 1 1s-.4 1-1 1zm0-5.2h-4.9c-.6 0-1-.4-1-1s.4-1 1-1h4.9c.6 0 1 .4 1 1s-.4 1-1 1z" />
  </symbol>
  <symbol class="tsvg-inline--fa tfa-play-circle tfa-w-16" viewBox="0 0 512 512" id="play-circle-light"
    xmlns="http://www.w3.org/2000/svg">
    <path
      d="M256 504c137 0 248-111 248-248S393 8 256 8 8 119 8 256s111 248 248 248zM40 256c0-118.7 96.1-216 216-216 118.7 0 216 96.1 216 216 0 118.7-96.1 216-216 216-118.7 0-216-96.1-216-216zm331.7-18l-176-107c-15.8-8.8-35.7 2.5-35.7 21v208c0 18.4 19.8 29.8 35.7 21l176-101c16.4-9.1 16.4-32.8 0-42zM192 335.8V176.9c0-4.7 5.1-7.6 9.1-5.1l134.5 81.7c3.9 2.4 3.8 8.1-.1 10.3L201 341c-4 2.3-9-.6-9-5.2z" />
  </symbol>
  <symbol class="usvg-inline--fa ufa-tag ufa-w-16" viewBox="0 0 512 512" id="tag-regular"
    xmlns="http://www.w3.org/2000/svg">
    <path
      d="M497.941 225.941L286.059 14.059A48 48 0 00252.118 0H48C21.49 0 0 21.49 0 48v204.118a47.998 47.998 0 0014.059 33.941l211.882 211.882c18.745 18.745 49.137 18.746 67.882 0l204.118-204.118c18.745-18.745 18.745-49.137 0-67.882zM259.886 463.996L48 252.118V48h204.118L464 259.882 259.886 463.996zM192 144c0 26.51-21.49 48-48 48s-48-21.49-48-48 21.49-48 48-48 48 21.49 48 48z" />
  </symbol>
  <symbol class="vsvg-inline--fa vfa-tag vfa-w-16" viewBox="0 0 512 512" id="tag-solid"
    xmlns="http://www.w3.org/2000/svg">
    <path
      d="M0 252.118V48C0 21.49 21.49 0 48 0h204.118a48 48 0 0133.941 14.059l211.882 211.882c18.745 18.745 18.745 49.137 0 67.882L293.823 497.941c-18.745 18.745-49.137 18.745-67.882 0L14.059 286.059A48 48 0 010 252.118zM112 64c-26.51 0-48 21.49-48 48s21.49 48 48 48 48-21.49 48-48-21.49-48-48-48z" />
  </symbol>
  <symbol class="wsvg-inline--fa wfa-tags wfa-w-20" viewBox="0 0 640 512" id="tags-regular"
    xmlns="http://www.w3.org/2000/svg">
    <path
      d="M625.941 293.823L421.823 497.941c-18.746 18.746-49.138 18.745-67.882 0l-.36-.36L592 259.882 331.397 0h48.721a48 48 0 0133.941 14.059l211.882 211.882c18.745 18.745 18.745 49.137 0 67.882zm-128 0L293.823 497.941C284.451 507.314 272.166 512 259.882 512c-12.284 0-24.569-4.686-33.941-14.059L14.059 286.059A48 48 0 010 252.118V48C0 21.49 21.49 0 48 0h204.118a47.998 47.998 0 0133.941 14.059l211.882 211.882c18.745 18.745 18.745 49.137 0 67.882zM464 259.882L252.118 48H48v204.118l211.886 211.878L464 259.882zM144 96c-26.51 0-48 21.49-48 48s21.49 48 48 48 48-21.49 48-48-21.49-48-48-48z" />
  </symbol>
  <symbol class="xsvg-inline--fa xfa-tags xfa-w-20" viewBox="0 0 640 512" id="tags-solid"
    xmlns="http://www.w3.org/2000/svg">
    <path
      d="M497.941 225.941L286.059 14.059A48 48 0 00252.118 0H48C21.49 0 0 21.49 0 48v204.118a48 48 0 0014.059 33.941l211.882 211.882c18.744 18.745 49.136 18.746 67.882 0l204.118-204.118c18.745-18.745 18.745-49.137 0-67.882zM112 160c-26.51 0-48-21.49-48-48s21.49-48 48-48 48 21.49 48 48-21.49 48-48 48zm513.941 133.823L421.823 497.941c-18.745 18.745-49.137 18.745-67.882 0l-.36-.36L527.64 323.522c16.999-16.999 26.36-39.6 26.36-63.64s-9.362-46.641-26.36-63.64L331.397 0h48.721a48 48 0 0133.941 14.059l211.882 211.882c18.745 18.745 18.745 49.137 0 67.882z" />
  </symbol>
  <symbol viewBox="0 0 51 48" id="video" xmlns="http://www.w3.org/2000/svg">
    <path
      d="M45 47.5H6.1C3 47.5.5 45 .5 41.9V6.1C.5 3 3 .5 6.1.5H45c3.1 0 5.6 2.5 5.6 5.6v35.8c0 3.1-2.5 5.6-5.6 5.6zM6.1 3.5c-1.4 0-2.6 1.2-2.6 2.6v35.8c0 1.4 1.2 2.6 2.6 2.6H45c1.4 0 2.6-1.2 2.6-2.6V6.1c0-1.4-1.2-2.6-2.6-2.6H6.1zm24.6 39.9c-2.1 0-3.5-1.5-3.5-3.5v-.5h-19c-.8 0-1.5-.7-1.5-1.5s.7-1.5 1.5-1.5h19v-.5c0-2.1 1.5-3.5 3.5-3.5s3.5 1.5 3.5 3.5v.5H43c.8 0 1.5.7 1.5 1.5s-.7 1.5-1.5 1.5h-8.7v.5c-.1 2-1.5 3.5-3.6 3.5zm-.6-5.6v2c0 .4.1.5.5.5s.5-.1.5-.5v-4.1c0-.4-.1-.5-.5-.5s-.5.1-.5.5v2.1zm-9.9-7.5c-.5 0-.9-.1-1.3-.4-.8-.5-1.3-1.3-1.3-2.3V13.7c0-1 .6-1.9 1.4-2.4.9-.5 1.9-.4 2.6.1l12 6.9c.8.4 1.4 1.3 1.4 2.3 0 1-.6 1.9-1.4 2.4l-12 6.9h-.1c-.4.3-.9.4-1.3.4zm.6-1.6zm.1-1.1zm-.2-13.3V27l11-6.3-11-6.4zM32.2 21zm0-.6zm-12.4-6.6z" />
  </symbol>
</svg>
