<?xml version="1.0" encoding="utf-8"?>
<!-- Generator: Adobe Illustrator 18.1.1, SVG Export Plug-In . SVG Version: 6.00 Build 0)  -->
<svg version="1.1" id="logo" xmlns="http://www.w3.org/2000/svg"
	xmlns:xlink="http://www.w3.org/1999/xlink" x="0px" y="0px"
	viewBox="0 0 100 88" enable-background="new 0 0 100 88" xml:space="preserve">
<g>

	<path fill="#FF0000" d="M0-0.9h100V78l-49.5,9.5L0,77.6V-0.9L0-0.9z"/>

	<polygon fill="#FFFFFF" points="23,42.3 10.6,42.3 10.6,37.8 20.4,37.8 20.4,34.4 10.6,34.4 10.6,29.8 22.1,29.8 22.1,26.5
		6.1,26.5 6.1,46.1 23.1,46.1 		"/><!--
		E -->
	<polygon fill="#FFFFFF" points="39.7,46.1 33.7,37.3 38.7,31.9 33.9,31.9 28.7,37.5 28.7,26.5 24.8,26.5 24.8,46.1 28.7,46.1
		28.7,42.2 31,39.9 34.8,46.1 		"/><!--
		k -->
	<path fill="#FFFFFF" d="M46.3,43.9c-2.4,0-3.1-0.5-3.5-2h-3.7c0,3.1,2.5,4.9,6.7,4.9c4.7,0,7.5-1.8,7.5-4.8c0-2-1.6-3.7-3.6-4.1
		L44.1,37c-0.6-0.1-1.2-0.7-1.2-1.4c0-0.8,0.8-1.4,2.3-1.4c3,0,3.5,0.4,3.6,2h3.8v-0.5c0-2.4-2.8-4.5-6.5-4.5
		c-4.2,0-6.9,1.8-6.9,4.9c0,1.8,1.3,3.6,3,3.8l5.8,1c0.8,0.1,1.3,0.5,1.3,1.2C49.4,43.3,48.5,43.9,46.3,43.9z"/><!--
		s -->
	<path fill="#FFFFFF" d="M56.5,42.6c0,2.6,1.7,4.2,4.7,4.2c1.1,0,2-0.2,3.6-1v-1.9c-0.7,0.1-1.7,0.1-2,0.1c-1.6,0-2.2-0.6-2.2-1.8
		v-7.6h3.8V32h-3.8v-5.4h-2.9l-0.1,1.2C57,31.6,56.9,32,55.8,32h-2.5v2.6h3.4L56.5,42.6z"/><!--
		t -->


	<path fill="#FFFFFF" d="M70.8,39.9c0-3.1,1.7-4.8,4.7-4.8h1.7v-3.6H76c-2.3,0-4.1,1.1-5.3,3.2V32h-3.8v14.2h4V39.9z"/><!--
		r -->

	<path fill="#FFFFFF" d="M91,41.5v-3.1v-2.8c0-1.7-0.2-2.3-1-2.8c-1.3-1.1-3.4-1.6-5.8-1.6c-4.3,0-6.3,1.4-6.6,4.8h3.7
		c0.2-1.6,1-2,3-2c2.2,0,2.9,0.6,2.9,2.3c0,0.7-0.2,1-1.1,1.1l-4.1,0.5c-4.1,0.5-5.6,1.8-5.6,4.6c0,2.6,2,4.2,5.4,4.2
		c2.5,0,4.1-0.8,5.5-2.9c0.8,2.2,1.8,2.9,3.7,2.9c1,0,1.8-0.2,3.4-1.1v-1.8c-0.8,0.1-1.4,0.1-1.7,0.1C91.5,43.9,91,43.2,91,41.5z
		 M83,43.9c-1.4,0-2.3-0.7-2.3-1.8c0-1.6,0.7-1.9,5.3-2.8l1.2-0.2C87.2,42.3,85.9,43.9,83,43.9z"/><!--
		a -->


		<path fill="#FFFFFF" d="M20.1,58.8c2.8-0.6,4.2-2.2,4.2-4.4c0-2.6-2.4-4.7-5.5-4.7H6.1v19.5h12.5c3.7,0,6.4-2.2,6.4-5.3
		C25,61.2,23.4,59.7,20.1,58.8z M10.6,52.8h5.9c2.3,0,3.1,0.6,3.1,2.3c0,1.8-0.8,2.4-3.1,2.4h-5.9V52.8z M16.5,65.7h-6v-5.3h6
		c2.4,0,3.5,0.8,3.5,2.6C20,65.1,19.1,65.7,16.5,65.7z"/><!--
		B -->

	<rect x="26.9" y="49.8" fill="#FFFFFF" width="4.1" height="19.5"/><!--
		l -->

	<path fill="#FFFFFF" d="M47.4,64.9l-0.1-6.9c-0.1-2.3-2.5-3.6-6.6-3.6c-5.1,0-6.9,1.2-7.1,4.8h3.8c0.2-1.4,0.8-1.9,2.9-1.9
		c2.4,0,3.1,0.5,3.1,2.2c0,0.7-0.4,1-1.2,1.1c-0.2,0-1.9,0.1-4.1,0.5c-3.8,0.5-5.4,1.8-5.4,4.6c0,2.6,1.9,4.2,5.3,4.2
		c2.6,0,4.1-0.7,5.6-2.9c0.7,2,1.8,2.9,3.9,2.9c1,0,1.7-0.2,2.9-0.8v-2c-0.5,0.1-0.8,0.1-1.2,0.1C47.9,67.1,47.4,66.5,47.4,64.9z
		 M39.4,67c-1.7,0-2.5-0.6-2.5-1.7c0-1.3,1-2,3.1-2.4c1.9-0.2,1.8-0.2,3.2-0.6C43.3,65.4,42,67,39.4,67z"/><!--
		a -->
	<path fill="#FFFFFF" d="M61.7,57.3c-1.3-1.9-2.8-2.8-4.9-2.8c-3.8,0-6.7,3.2-6.7,7.6c0,4.8,2.5,7.8,6.6,7.8c2.3,0,3.4-0.6,5.2-2.8
		v2.3h3.9V49.8h-4V57.3z M57.6,67.1c-2.4,0-3.5-1.7-3.5-4.9c0-3,1.2-4.7,3.5-4.7c2.2,0,3.6,1.9,3.6,4.7
		C61.2,65.2,59.8,67.1,57.6,67.1z"/><!--
		d -->

	<path fill="#FFFFFF" d="M75.5,54.6c-4.5,0-7.8,3.4-7.8,7.7c0,4.6,3.2,7.8,7.8,7.8c4.4,0,7.2-1.8,7.7-5.1h-3.8
		c-0.5,1.6-1.3,2-3.4,2c-2.8,0-4.1-1.3-4.1-4h11.3C83.2,58,80.2,54.6,75.5,54.6z M72,60.9c0.2-2.3,1.3-3.5,3.4-3.5
		c2.2,0,3.2,1.1,3.4,3.5H72z"/><!--
		e -->

	<path fill="#FFFFFF" d="M90.3,65.7v-7.6h4v-2.9h-4v-5.3h-2.9L87.3,51c-0.7,4.2-0.6,4.2-1.7,4.2h-2.3v2.9h3l-0.1,6.9v0.5
		c0,3.2,1.4,4.7,4.6,4.7c1.6,0,2.4-0.1,3.7-0.8v-2.2c-0.8,0.1-1.7,0.1-2,0.1C90.9,67.2,90.3,66.8,90.3,65.7z"/><!--
		t -->

</g>
</svg>
