<svg class="ama-static" width="26" height="26" viewBox="0 0 26 26" fill="none" xmlns="http://www.w3.org/2000/svg"
     style="box-shadow: 0px 6px 15px rgba(0, 0, 0, 0.12); border-radius: 4px;">
    <rect fill="white" width="26" height="26" rx="4"/>
    <path fill="black"
          d="M6.75 7C6.75 5.34315 8.09315 4 9.75 4H18.75C20.4069 4 21.75 5.34315 21.75 7V10.5C21.75 11.8807 20.6307 13 19.25 13C18.4958 13 18.3104 14.4219 18.6938 15.7644C18.8215 16.2117 18.3988 16.7186 17.9796 16.5168C16.356 15.7353 15.3043 14.5557 14.7444 13.7816C14.4114 13.3213 13.8911 13 13.3229 13H9.75C8.09315 13 6.75 11.6569 6.75 10V7Z"/>
    <path fill="black"
          d="M13.75 16.4286C13.75 15.6396 13.1104 15 12.3214 15H5.67857C4.88959 15 4.25 15.6396 4.25 16.4286V19.2857C4.25 20.0747 4.8896 20.7143 5.67858 20.7143C5.80274 20.7143 5.92362 20.7143 6.03571 20.7143C6.57439 20.7143 6.70683 21.7299 6.43301 22.6888C6.34177 23.0084 6.64374 23.3704 6.94316 23.2263C8.10289 22.6681 8.85404 21.8255 9.25402 21.2726C9.49189 20.9438 9.86349 20.7143 10.2693 20.7143H12.3214C13.1104 20.7143 13.75 20.0747 13.75 19.2857V16.4286Z"/>
</svg>
