<svg class="audio-icon" width="26" height="26" viewBox="0 0 26 26" fill="none" xmlns="http://www.w3.org/2000/svg"
     style="box-shadow: 0px 6px 15px rgba(0, 0, 0, 0.12); border-radius: 4px;">
    <rect fill="white" width="26" height="26" rx="4"/>
    <path fill="black"
          d="M13 4.25C7.84534 4.25 3.5 8.11385 3.5 13.0807C3.5 15.4136 4.35757 17.7998 5.04416 19.3524C5.16119 19.6171 5.36545 19.816 5.60819 19.9303C6.125 20.1736 6.77993 20.274 7.22277 20.6349C8.26231 21.4819 9.66257 21.8672 11.076 21.5656C11.4446 21.4869 11.6481 21.1098 11.5695 20.7413L9.95013 13.1539C9.87147 12.7854 9.53174 12.5242 9.16318 12.6029C7.88103 12.8765 6.83956 13.6618 6.20694 14.6992C6.14371 14.8029 5.9804 14.7791 5.9593 14.6595C5.86583 14.1297 5.81081 13.5979 5.81081 13.0807C5.81081 9.56817 8.93587 6.56081 13 6.56081C17.0641 6.56081 20.1892 9.56817 20.1892 13.0807C20.1892 13.5979 20.1342 14.1297 20.0407 14.6595C20.0196 14.7791 19.8563 14.8029 19.7931 14.6992C19.1604 13.6618 18.119 12.8765 16.8368 12.6029C16.4683 12.5242 16.1285 12.7854 16.0499 13.1539L14.4305 20.7413C14.3519 21.1098 14.5554 21.4869 14.924 21.5656C16.3374 21.8672 17.7377 21.4819 18.7772 20.6349C19.2201 20.274 19.875 20.1736 20.3918 19.9303C20.6345 19.816 20.8388 19.6171 20.9558 19.3524C21.6424 17.7998 22.5 15.4136 22.5 13.0807C22.5 8.11385 18.1547 4.25 13 4.25Z"/>
</svg>
