<?xml version="1.0" encoding="utf-8"?><svg xmlns="http://www.w3.org/2000/svg" xmlns:xlink="http://www.w3.org/1999/xlink"><symbol class="aasvg-inline--fa aafa-chevron-down aafa-w-14" viewBox="0 0 448 512" id="angle-down" xmlns="http://www.w3.org/2000/svg"><path fill="currentColor" d="M443.5 162.6l-7.1-7.1c-4.7-4.7-12.3-4.7-17 0L224 351 28.5 155.5c-4.7-4.7-12.3-4.7-17 0l-7.1 7.1c-4.7 4.7-4.7 12.3 0 17l211 211.1c4.7 4.7 12.3 4.7 17 0l211-211.1c4.8-4.7 4.8-12.3.1-17z"/></symbol><symbol class="absvg-inline--fa abfa-chevron-left abfa-w-8" viewBox="0 0 256 512" id="angle-left" xmlns="http://www.w3.org/2000/svg"><path fill="currentColor" d="M238.475 475.535l7.071-7.07c4.686-4.686 4.686-12.284 0-16.971L50.053 256 245.546 60.506c4.686-4.686 4.686-12.284 0-16.971l-7.071-7.07c-4.686-4.686-12.284-4.686-16.97 0L10.454 247.515c-4.686 4.686-4.686 12.284 0 16.971l211.051 211.05c4.686 4.686 12.284 4.686 16.97-.001z"/></symbol><symbol class="acsvg-inline--fa acfa-chevron-right acfa-w-8" viewBox="0 0 256 512" id="angle-right" xmlns="http://www.w3.org/2000/svg"><path fill="currentColor" d="M17.525 36.465l-7.071 7.07c-4.686 4.686-4.686 12.284 0 16.971L205.947 256 10.454 451.494c-4.686 4.686-4.686 12.284 0 16.971l7.071 7.07c4.686 4.686 12.284 4.686 16.97 0l211.051-211.05c4.686-4.686 4.686-12.284 0-16.971L34.495 36.465c-4.686-4.687-12.284-4.687-16.97 0z"/></symbol><symbol class="adsvg-inline--fa adfa-chevron-up adfa-w-14" viewBox="0 0 448 512" id="angle-up" xmlns="http://www.w3.org/2000/svg"><path fill="currentColor" d="M4.465 366.475l7.07 7.071c4.686 4.686 12.284 4.686 16.971 0L224 178.053l195.494 195.493c4.686 4.686 12.284 4.686 16.971 0l7.07-7.071c4.686-4.686 4.686-12.284 0-16.97l-211.05-211.051c-4.686-4.686-12.284-4.686-16.971 0L4.465 349.505c-4.687 4.686-4.687 12.284 0 16.97z"/></symbol><symbol class="aesvg-inline--fa aefa-arrow-down aefa-w-14" viewBox="0 0 448 512" id="arrow-down" xmlns="http://www.w3.org/2000/svg"><path fill="currentColor" d="M443.5 248.5l-7.1-7.1c-4.7-4.7-12.3-4.7-17 0L241 419.9V44c0-6.6-5.4-12-12-12h-10c-6.6 0-12 5.4-12 12v375.9L28.5 241.4c-4.7-4.7-12.3-4.7-17 0l-7.1 7.1c-4.7 4.7-4.7 12.3 0 17l211 211.1c4.7 4.7 12.3 4.7 17 0l211-211.1c4.8-4.8 4.8-12.3.1-17z"/></symbol><symbol class="afsvg-inline--fa affa-arrow-left affa-w-14" viewBox="0 0 448 512" id="arrow-left" xmlns="http://www.w3.org/2000/svg"><path fill="currentColor" d="M231.536 475.535l7.071-7.07c4.686-4.686 4.686-12.284 0-16.971L60.113 273H436c6.627 0 12-5.373 12-12v-10c0-6.627-5.373-12-12-12H60.113L238.607 60.506c4.686-4.686 4.686-12.284 0-16.971l-7.071-7.07c-4.686-4.686-12.284-4.686-16.97 0L3.515 247.515c-4.686 4.686-4.686 12.284 0 16.971l211.051 211.05c4.686 4.686 12.284 4.686 16.97-.001z"/></symbol><symbol class="agsvg-inline--fa agfa-arrow-right agfa-w-14" viewBox="0 0 448 512" id="arrow-right" xmlns="http://www.w3.org/2000/svg"><path fill="currentColor" d="M216.464 36.465l-7.071 7.07c-4.686 4.686-4.686 12.284 0 16.971L387.887 239H12c-6.627 0-12 5.373-12 12v10c0 6.627 5.373 12 12 12h375.887L209.393 451.494c-4.686 4.686-4.686 12.284 0 16.971l7.071 7.07c4.686 4.686 12.284 4.686 16.97 0l211.051-211.05c4.686-4.686 4.686-12.284 0-16.971L233.434 36.465c-4.686-4.687-12.284-4.687-16.97 0z"/></symbol><symbol class="ahsvg-inline--fa ahfa-arrow-up ahfa-w-14" viewBox="0 0 448 512" id="arrow-up" xmlns="http://www.w3.org/2000/svg"><path fill="currentColor" d="M4.465 263.536l7.07 7.071c4.686 4.686 12.284 4.686 16.971 0L207 92.113V468c0 6.627 5.373 12 12 12h10c6.627 0 12-5.373 12-12V92.113l178.494 178.493c4.686 4.686 12.284 4.686 16.971 0l7.07-7.071c4.686-4.686 4.686-12.284 0-16.97l-211.05-211.05c-4.686-4.686-12.284-4.686-16.971 0L4.465 246.566c-4.687 4.686-4.687 12.284 0 16.97z"/></symbol><symbol viewBox="0 0 51 47" id="article" xmlns="http://www.w3.org/2000/svg"><path d="M27 46.5h-4.5c-.8 0-1.5-.7-1.5-1.5s.7-1.5 1.5-1.5H27c.8 0 1.5.7 1.5 1.5s-.7 1.5-1.5 1.5zm-12 0H2c-.8 0-1.5-.7-1.5-1.5s.7-1.5 1.5-1.5h13c.8 0 1.5.7 1.5 1.5s-.7 1.5-1.5 1.5zm34-11.1H2c-.8 0-1.5-.7-1.5-1.5s.7-1.5 1.5-1.5h47c.8 0 1.5.7 1.5 1.5s-.7 1.5-1.5 1.5zm0-11.1H33.5c-.8 0-1.5-.7-1.5-1.5s.7-1.5 1.5-1.5H49c.8 0 1.5.7 1.5 1.5s-.7 1.5-1.5 1.5zm-26.3 0H3.3c-1.6 0-2.8-1.2-2.8-2.8V3C.5 1.4 1.7.2 3.3.2h19.4c1.6 0 2.8 1.2 2.8 2.8v18.5c-.1 1.6-1.2 2.8-2.8 2.8zm-19.2-3h18.9v-18H3.5v18zM49 13.2H33.5c-.8 0-1.5-.7-1.5-1.5s.7-1.5 1.5-1.5H49c.8 0 1.5.7 1.5 1.5s-.7 1.5-1.5 1.5zm0-9.9H33.5c-.8 0-1.5-.7-1.5-1.5S32.7.3 33.5.3H49c.8 0 1.5.7 1.5 1.5s-.7 1.5-1.5 1.5z"/></symbol><symbol viewBox="0 0 16 16" id="at" xmlns="http://www.w3.org/2000/svg"><path class="ajst0" d="M8 15.6C3.8 15.6.4 12.2.4 8S3.8.4 8 .4s7.6 3.4 7.6 7.6v1.3c0 1.3-1.1 2.4-2.4 2.4-1 0-1.8-.6-2.2-1.4-.7.9-1.7 1.4-2.9 1.4C6 11.7 4.3 10 4.3 8S6 4.3 8 4.3c1.1 0 2 .5 2.7 1.2v-.7h1v4.5c0 .8.6 1.4 1.4 1.4s1.4-.6 1.4-1.4V8c0-3.6-2.9-6.6-6.6-6.6-3.5 0-6.5 3-6.5 6.6 0 3.6 2.9 6.6 6.6 6.6v1zM8 5.3C6.5 5.3 5.3 6.5 5.3 8c0 1.5 1.2 2.7 2.7 2.7 1.5 0 2.7-1.2 2.7-2.7 0-1.5-1.2-2.7-2.7-2.7z"/></symbol><symbol class="aksvg-inline--fa akfa-calendar akfa-w-14" viewBox="0 0 448 512" id="calendar" xmlns="http://www.w3.org/2000/svg"><path fill="currentColor" d="M400 64h-48V12c0-6.627-5.373-12-12-12h-8c-6.627 0-12 5.373-12 12v52H128V12c0-6.627-5.373-12-12-12h-8c-6.627 0-12 5.373-12 12v52H48C21.49 64 0 85.49 0 112v352c0 26.51 21.49 48 48 48h352c26.51 0 48-21.49 48-48V112c0-26.51-21.49-48-48-48zM48 96h352c8.822 0 16 7.178 16 16v48H32v-48c0-8.822 7.178-16 16-16zm352 384H48c-8.822 0-16-7.178-16-16V192h384v272c0 8.822-7.178 16-16 16z"/></symbol><symbol class="alsvg-inline--fa alfa-camera alfa-w-16" viewBox="0 0 512 512" id="camera" xmlns="http://www.w3.org/2000/svg"><path fill="currentColor" d="M324.3 64c3.3 0 6.3 2.1 7.5 5.2l22.1 58.8H464c8.8 0 16 7.2 16 16v288c0 8.8-7.2 16-16 16H48c-8.8 0-16-7.2-16-16V144c0-8.8 7.2-16 16-16h110.2l20.1-53.6c2.3-6.2 8.3-10.4 15-10.4h131m0-32h-131c-20 0-37.9 12.4-44.9 31.1L136 96H48c-26.5 0-48 21.5-48 48v288c0 26.5 21.5 48 48 48h416c26.5 0 48-21.5 48-48V144c0-26.5-21.5-48-48-48h-88l-14.3-38c-5.8-15.7-20.7-26-37.4-26zM256 408c-66.2 0-120-53.8-120-120s53.8-120 120-120 120 53.8 120 120-53.8 120-120 120zm0-208c-48.5 0-88 39.5-88 88s39.5 88 88 88 88-39.5 88-88-39.5-88-88-88z"/></symbol><symbol class="amsvg-inline--fa amfa-camera amfa-w-16" viewBox="0 0 512 512" id="camera-solid" xmlns="http://www.w3.org/2000/svg"><path fill="currentColor" d="M512 144v288c0 26.5-21.5 48-48 48H48c-26.5 0-48-21.5-48-48V144c0-26.5 21.5-48 48-48h88l12.3-32.9c7-18.7 24.9-31.1 44.9-31.1h125.5c20 0 37.9 12.4 44.9 31.1L376 96h88c26.5 0 48 21.5 48 48zM376 288c0-66.2-53.8-120-120-120s-120 53.8-120 120 53.8 120 120 120 120-53.8 120-120zm-32 0c0 48.5-39.5 88-88 88s-88-39.5-88-88 39.5-88 88-88 88 39.5 88 88z"/></symbol><symbol class="ansvg-inline--fa anfa-check anfa-w-14" viewBox="0 0 448 512" id="check" xmlns="http://www.w3.org/2000/svg"><path fill="currentColor" d="M413.505 91.951L133.49 371.966l-98.995-98.995c-4.686-4.686-12.284-4.686-16.971 0L6.211 284.284c-4.686 4.686-4.686 12.284 0 16.971l118.794 118.794c4.686 4.686 12.284 4.686 16.971 0l299.813-299.813c4.686-4.686 4.686-12.284 0-16.971l-11.314-11.314c-4.686-4.686-12.284-4.686-16.97 0z"/></symbol><symbol class="aosvg-inline--fa aofa-check-circle aofa-w-16" viewBox="0 0 512 512" id="check-circle" xmlns="http://www.w3.org/2000/svg"><path fill="currentColor" d="M256 8C119.033 8 8 119.033 8 256s111.033 248 248 248 248-111.033 248-248S392.967 8 256 8zm0 464c-118.664 0-216-96.055-216-216 0-118.663 96.055-216 216-216 118.664 0 216 96.055 216 216 0 118.663-96.055 216-216 216zm141.63-274.961L217.15 376.071c-4.705 4.667-12.303 4.637-16.97-.068l-85.878-86.572c-4.667-4.705-4.637-12.303.068-16.97l8.52-8.451c4.705-4.667 12.303-4.637 16.97.068l68.976 69.533 163.441-162.13c4.705-4.667 12.303-4.637 16.97.068l8.451 8.52c4.668 4.705 4.637 12.303-.068 16.97z"/></symbol><symbol class="apsvg-inline--fa apfa-check-circle apfa-w-16" viewBox="0 0 512 512" id="check-circle-solid" xmlns="http://www.w3.org/2000/svg"><path fill="currentColor" d="M504 256c0 136.967-111.033 248-248 248S8 392.967 8 256 119.033 8 256 8s248 111.033 248 248zM227.314 387.314l184-184c6.248-6.248 6.248-16.379 0-22.627l-22.627-22.627c-6.248-6.249-16.379-6.249-22.628 0L216 308.118l-70.059-70.059c-6.248-6.248-16.379-6.248-22.628 0l-22.627 22.627c-6.248 6.248-6.248 16.379 0 22.627l104 104c6.249 6.249 16.379 6.249 22.628.001z"/></symbol><symbol class="aqsvg-inline--fa aqfa-check-square aqfa-w-14" viewBox="0 0 448 512" id="check-square" xmlns="http://www.w3.org/2000/svg"><path fill="currentColor" d="M400 32H48C21.49 32 0 53.49 0 80v352c0 26.51 21.49 48 48 48h352c26.51 0 48-21.49 48-48V80c0-26.51-21.49-48-48-48zm0 32c8.823 0 16 7.178 16 16v352c0 8.822-7.177 16-16 16H48c-8.822 0-16-7.178-16-16V80c0-8.822 7.178-16 16-16h352m-34.301 98.293l-8.451-8.52c-4.667-4.705-12.265-4.736-16.97-.068l-163.441 162.13-68.976-69.533c-4.667-4.705-12.265-4.736-16.97-.068l-8.52 8.451c-4.705 4.667-4.736 12.265-.068 16.97l85.878 86.572c4.667 4.705 12.265 4.736 16.97.068l180.48-179.032c4.704-4.667 4.735-12.265.068-16.97z"/></symbol><symbol class="arsvg-inline--fa arfa-check-square arfa-w-14" viewBox="0 0 448 512" id="check-square-solid" xmlns="http://www.w3.org/2000/svg"><path fill="currentColor" d="M400 480H48c-26.51 0-48-21.49-48-48V80c0-26.51 21.49-48 48-48h352c26.51 0 48 21.49 48 48v352c0 26.51-21.49 48-48 48zm-204.686-98.059l184-184c6.248-6.248 6.248-16.379 0-22.627l-22.627-22.627c-6.248-6.248-16.379-6.249-22.628 0L184 302.745l-70.059-70.059c-6.248-6.248-16.379-6.248-22.628 0l-22.627 22.627c-6.248 6.248-6.248 16.379 0 22.627l104 104c6.249 6.25 16.379 6.25 22.628.001z"/></symbol><symbol class="assvg-inline--fa asfa-circle asfa-w-16" viewBox="0 0 512 512" id="circle" xmlns="http://www.w3.org/2000/svg"><path fill="currentColor" d="M256 8C119 8 8 119 8 256s111 248 248 248 248-111 248-248S393 8 256 8zm216 248c0 118.7-96.1 216-216 216-118.7 0-216-96.1-216-216 0-118.7 96.1-216 216-216 118.7 0 216 96.1 216 216z"/></symbol><symbol class="atsvg-inline--fa atfa-circle-notch atfa-w-16" viewBox="0 0 512 512" id="circle-notch" xmlns="http://www.w3.org/2000/svg"><path fill="currentColor" d="M288 24.103v8.169a11.995 11.995 0 009.698 11.768C396.638 63.425 472 150.461 472 256c0 118.663-96.055 216-216 216-118.663 0-216-96.055-216-216 0-104.534 74.546-192.509 174.297-211.978A11.993 11.993 0 00224 32.253v-8.147c0-7.523-6.845-13.193-14.237-11.798C94.472 34.048 7.364 135.575 8.004 257.332c.72 137.052 111.477 246.956 248.531 246.667C393.255 503.711 504 392.789 504 256c0-121.187-86.924-222.067-201.824-243.704C294.807 10.908 288 16.604 288 24.103z"/></symbol><symbol class="ausvg-inline--fa aufa-circle aufa-w-16" viewBox="0 0 512 512" id="circle-solid" xmlns="http://www.w3.org/2000/svg"><path fill="currentColor" d="M256 8C119 8 8 119 8 256s111 248 248 248 248-111 248-248S393 8 256 8z"/></symbol><symbol class="avsvg-inline--fa avfa-clock avfa-w-16" viewBox="0 0 512 512" id="clock" xmlns="http://www.w3.org/2000/svg"><path fill="currentColor" d="M256 8C119 8 8 119 8 256s111 248 248 248 248-111 248-248S393 8 256 8zm216 248c0 118.7-96.1 216-216 216-118.7 0-216-96.1-216-216 0-118.7 96.1-216 216-216 118.7 0 216 96.1 216 216zm-148.9 88.3l-81.2-59c-3.1-2.3-4.9-5.9-4.9-9.7V116c0-6.6 5.4-12 12-12h14c6.6 0 12 5.4 12 12v146.3l70.5 51.3c5.4 3.9 6.5 11.4 2.6 16.8l-8.2 11.3c-3.9 5.3-11.4 6.5-16.8 2.6z"/></symbol><symbol class="awsvg-inline--fa awfa-cog awfa-w-16" viewBox="0 0 512 512" id="cog" xmlns="http://www.w3.org/2000/svg"><path fill="currentColor" d="M482.696 299.276l-32.61-18.827a195.168 195.168 0 000-48.899l32.61-18.827c9.576-5.528 14.195-16.902 11.046-27.501-11.214-37.749-31.175-71.728-57.535-99.595-7.634-8.07-19.817-9.836-29.437-4.282l-32.562 18.798a194.125 194.125 0 00-42.339-24.48V38.049c0-11.13-7.652-20.804-18.484-23.367-37.644-8.909-77.118-8.91-114.77 0-10.831 2.563-18.484 12.236-18.484 23.367v37.614a194.101 194.101 0 00-42.339 24.48L105.23 81.345c-9.621-5.554-21.804-3.788-29.437 4.282-26.36 27.867-46.321 61.847-57.535 99.595-3.149 10.599 1.47 21.972 11.046 27.501l32.61 18.827a195.168 195.168 0 000 48.899l-32.61 18.827c-9.576 5.528-14.195 16.902-11.046 27.501 11.214 37.748 31.175 71.728 57.535 99.595 7.634 8.07 19.817 9.836 29.437 4.283l32.562-18.798a194.08 194.08 0 0042.339 24.479v37.614c0 11.13 7.652 20.804 18.484 23.367 37.645 8.909 77.118 8.91 114.77 0 10.831-2.563 18.484-12.236 18.484-23.367v-37.614a194.138 194.138 0 0042.339-24.479l32.562 18.798c9.62 5.554 21.803 3.788 29.437-4.283 26.36-27.867 46.321-61.847 57.535-99.595 3.149-10.599-1.47-21.972-11.046-27.501zm-65.479 100.461l-46.309-26.74c-26.988 23.071-36.559 28.876-71.039 41.059v53.479a217.145 217.145 0 01-87.738 0v-53.479c-33.621-11.879-43.355-17.395-71.039-41.059l-46.309 26.74c-19.71-22.09-34.689-47.989-43.929-75.958l46.329-26.74c-6.535-35.417-6.538-46.644 0-82.079l-46.329-26.74c9.24-27.969 24.22-53.869 43.929-75.969l46.309 26.76c27.377-23.434 37.063-29.065 71.039-41.069V44.464a216.79 216.79 0 0187.738 0v53.479c33.978 12.005 43.665 17.637 71.039 41.069l46.309-26.76c19.709 22.099 34.689 47.999 43.929 75.969l-46.329 26.74c6.536 35.426 6.538 46.644 0 82.079l46.329 26.74c-9.24 27.968-24.219 53.868-43.929 75.957zM256 160c-52.935 0-96 43.065-96 96s43.065 96 96 96 96-43.065 96-96-43.065-96-96-96zm0 160c-35.29 0-64-28.71-64-64s28.71-64 64-64 64 28.71 64 64-28.71 64-64 64z"/></symbol><symbol class="axsvg-inline--fa axfa-cog axfa-w-16" viewBox="0 0 512 512" id="cog-solid" xmlns="http://www.w3.org/2000/svg"><path fill="currentColor" d="M487.4 315.7l-42.6-24.6c4.3-23.2 4.3-47 0-70.2l42.6-24.6c4.9-2.8 7.1-8.6 5.5-14-11.1-35.6-30-67.8-54.7-94.6-3.8-4.1-10-5.1-14.8-2.3L380.8 110c-17.9-15.4-38.5-27.3-60.8-35.1V25.8c0-5.6-3.9-10.5-9.4-11.7-36.7-8.2-74.3-7.8-109.2 0-5.5 1.2-9.4 6.1-9.4 11.7V75c-22.2 7.9-42.8 19.8-60.8 35.1L88.7 85.5c-4.9-2.8-11-1.9-14.8 2.3-24.7 26.7-43.6 58.9-54.7 94.6-1.7 5.4.6 11.2 5.5 14L67.3 221c-4.3 23.2-4.3 47 0 70.2l-42.6 24.6c-4.9 2.8-7.1 8.6-5.5 14 11.1 35.6 30 67.8 54.7 94.6 3.8 4.1 10 5.1 14.8 2.3l42.6-24.6c17.9 15.4 38.5 27.3 60.8 35.1v49.2c0 5.6 3.9 10.5 9.4 11.7 36.7 8.2 74.3 7.8 109.2 0 5.5-1.2 9.4-6.1 9.4-11.7v-49.2c22.2-7.9 42.8-19.8 60.8-35.1l42.6 24.6c4.9 2.8 11 1.9 14.8-2.3 24.7-26.7 43.6-58.9 54.7-94.6 1.5-5.5-.7-11.3-5.6-14.1zM256 336c-44.1 0-80-35.9-80-80s35.9-80 80-80 80 35.9 80 80-35.9 80-80 80z"/></symbol><symbol class="aysvg-inline--fa ayfa-comment ayfa-w-16" viewBox="0 0 512 512" id="comment" xmlns="http://www.w3.org/2000/svg"><path fill="currentColor" d="M256 64c123.5 0 224 79 224 176S379.5 416 256 416c-28.3 0-56.3-4.3-83.2-12.8l-15.2-4.8-13 9.2c-23 16.3-58.5 35.3-102.6 39.6 12-15.1 29.8-40.4 40.8-69.6l7.1-18.7-13.7-14.6C47.3 313.7 32 277.6 32 240c0-97 100.5-176 224-176m0-32C114.6 32 0 125.1 0 240c0 47.6 19.9 91.2 52.9 126.3C38 405.7 7 439.1 6.5 439.5c-6.6 7-8.4 17.2-4.6 26 3.8 8.8 12.4 14.5 22 14.5 61.5 0 110-25.7 139.1-46.3 29 9.1 60.2 14.3 93 14.3 141.4 0 256-93.1 256-208S397.4 32 256 32z"/></symbol><symbol class="azsvg-inline--fa azfa-comment azfa-w-16" viewBox="0 0 512 512" id="comment-solid" xmlns="http://www.w3.org/2000/svg"><path fill="currentColor" d="M256 32C114.6 32 0 125.1 0 240c0 49.6 21.4 95 57 130.7C44.5 421.1 2.7 466 2.2 466.5c-2.2 2.3-2.8 5.7-1.5 8.7S4.8 480 8 480c66.3 0 116-31.8 140.6-51.4 32.7 12.3 69 19.4 107.4 19.4 141.4 0 256-93.1 256-208S397.4 32 256 32z"/></symbol><symbol class="basvg-inline--fa bafa-credit-card bafa-w-18" viewBox="0 0 576 512" id="creditcard" xmlns="http://www.w3.org/2000/svg"><path fill="currentColor" d="M528 32H48C21.5 32 0 53.5 0 80v352c0 26.5 21.5 48 48 48h480c26.5 0 48-21.5 48-48V80c0-26.5-21.5-48-48-48zM48 64h480c8.8 0 16 7.2 16 16v48H32V80c0-8.8 7.2-16 16-16zm480 384H48c-8.8 0-16-7.2-16-16V224h512v208c0 8.8-7.2 16-16 16zm-336-84v8c0 6.6-5.4 12-12 12h-72c-6.6 0-12-5.4-12-12v-8c0-6.6 5.4-12 12-12h72c6.6 0 12 5.4 12 12zm192 0v8c0 6.6-5.4 12-12 12H236c-6.6 0-12-5.4-12-12v-8c0-6.6 5.4-12 12-12h136c6.6 0 12 5.4 12 12z"/></symbol><symbol class="bbsvg-inline--fa bbfa-credit-card bbfa-w-18" viewBox="0 0 576 512" id="creditcard-solid" xmlns="http://www.w3.org/2000/svg"><path fill="currentColor" d="M0 432c0 26.5 21.5 48 48 48h480c26.5 0 48-21.5 48-48V256H0v176zm192-68c0-6.6 5.4-12 12-12h136c6.6 0 12 5.4 12 12v40c0 6.6-5.4 12-12 12H204c-6.6 0-12-5.4-12-12v-40zm-128 0c0-6.6 5.4-12 12-12h72c6.6 0 12 5.4 12 12v40c0 6.6-5.4 12-12 12H76c-6.6 0-12-5.4-12-12v-40zM576 80v48H0V80c0-26.5 21.5-48 48-48h480c26.5 0 48 21.5 48 48z"/></symbol><symbol class="bcsvg-inline--fa bcfa-desktop bcfa-w-18" viewBox="0 0 576 512" id="desktop" xmlns="http://www.w3.org/2000/svg"><path fill="currentColor" d="M528 0H48C21.5 0 0 21.5 0 48v288c0 26.5 21.5 48 48 48h192l-24 96h-72c-8.8 0-16 7.2-16 16s7.2 16 16 16h288c8.8 0 16-7.2 16-16s-7.2-16-16-16h-72l-24-96h192c26.5 0 48-21.5 48-48V48c0-26.5-21.5-48-48-48zM249 480l16-64h46l16 64h-78zm295-144c0 8.8-7.2 16-16 16H48c-8.8 0-16-7.2-16-16V48c0-8.8 7.2-16 16-16h480c8.8 0 16 7.2 16 16v288z"/></symbol><symbol class="bdsvg-inline--fa bdfa-dot-circle bdfa-w-16" viewBox="0 0 512 512" id="dot-circle" xmlns="http://www.w3.org/2000/svg"><path fill="currentColor" d="M256 8C119.033 8 8 119.033 8 256s111.033 248 248 248 248-111.033 248-248S392.967 8 256 8zm0 464c-118.663 0-216-96.055-216-216 0-118.663 96.055-216 216-216 118.663 0 216 96.055 216 216 0 118.663-96.055 216-216 216zm0-296c-44.183 0-80 35.817-80 80s35.817 80 80 80 80-35.817 80-80-35.817-80-80-80zm0 128c-26.467 0-48-21.533-48-48s21.533-48 48-48 48 21.533 48 48-21.533 48-48 48z"/></symbol><symbol viewBox="0 122.1 595.3 597.4" id="ebplus" xmlns="http://www.w3.org/2000/svg"><path d="M237.4 122.1h120.5v238.5h237.4V481H357.9v238.5H237.4V481H0V360.5h237.4V122.1z"/></symbol><symbol viewBox="0 0 72.8 72.8" id="ebplus-circle-solid" xmlns="http://www.w3.org/2000/svg"><path d="M36.4 0C16.3 0 0 16.3 0 36.4s16.3 36.4 36.4 36.4 36.4-16.3 36.4-36.4S56.5 0 36.4 0zm20.1 41.9H42.2v14.2H30.6V41.9H16.3V31.4h14.2V17.2h11.7v14.1h14.2v10.6z"/></symbol><symbol class="bgsvg-inline--fa bgfa-edit bgfa-w-18" viewBox="0 0 576 512" id="edit" xmlns="http://www.w3.org/2000/svg"><path fill="currentColor" d="M417.8 315.5l20-20c3.8-3.8 10.2-1.1 10.2 4.2V464c0 26.5-21.5 48-48 48H48c-26.5 0-48-21.5-48-48V112c0-26.5 21.5-48 48-48h292.3c5.3 0 8 6.5 4.2 10.2l-20 20c-1.1 1.1-2.7 1.8-4.2 1.8H48c-8.8 0-16 7.2-16 16v352c0 8.8 7.2 16 16 16h352c8.8 0 16-7.2 16-16V319.7c0-1.6.6-3.1 1.8-4.2zm145.9-191.2L251.2 436.8l-99.9 11.1c-13.4 1.5-24.7-9.8-23.2-23.2l11.1-99.9L451.7 12.3c16.4-16.4 43-16.4 59.4 0l52.6 52.6c16.4 16.4 16.4 43 0 59.4zm-93.6 48.4L403.4 106 169.8 339.5l-8.3 75.1 75.1-8.3 233.5-233.6zm71-85.2l-52.6-52.6c-3.8-3.8-10.2-4-14.1 0L426 83.3l66.7 66.7 48.4-48.4c3.9-3.8 3.9-10.2 0-14.1z"/></symbol><symbol viewBox="0 0 100 88" id="ekstrabladet" xmlns="http://www.w3.org/2000/svg"><path fill="#B30000" d="M0-.9h100V78l-49.5 9.5L0 77.6V-.9z"/><path fill="#FFF" d="M23 42.3H10.6v-4.5h9.8v-3.4h-9.8v-4.6h11.5v-3.3h-16v19.6h17zM39.7 46.1l-6-8.8 5-5.4h-4.8l-5.2 5.6v-11h-3.9v19.6h3.9v-3.9l2.3-2.3 3.8 6.2z"/><path fill="#FFF" d="M46.3 43.9c-2.4 0-3.1-.5-3.5-2h-3.7c0 3.1 2.5 4.9 6.7 4.9 4.7 0 7.5-1.8 7.5-4.8 0-2-1.6-3.7-3.6-4.1l-5.6-.9c-.6-.1-1.2-.7-1.2-1.4 0-.8.8-1.4 2.3-1.4 3 0 3.5.4 3.6 2h3.8v-.5c0-2.4-2.8-4.5-6.5-4.5-4.2 0-6.9 1.8-6.9 4.9 0 1.8 1.3 3.6 3 3.8l5.8 1c.8.1 1.3.5 1.3 1.2.1 1.2-.8 1.8-3 1.8zM56.5 42.6c0 2.6 1.7 4.2 4.7 4.2 1.1 0 2-.2 3.6-1v-1.9c-.7.1-1.7.1-2 .1-1.6 0-2.2-.6-2.2-1.8v-7.6h3.8V32h-3.8v-5.4h-2.9l-.1 1.2c-.6 3.8-.7 4.2-1.8 4.2h-2.5v2.6h3.4l-.2 8zM70.8 39.9c0-3.1 1.7-4.8 4.7-4.8h1.7v-3.6H76c-2.3 0-4.1 1.1-5.3 3.2V32h-3.8v14.2h4v-6.3zM91 41.5v-5.9c0-1.7-.2-2.3-1-2.8-1.3-1.1-3.4-1.6-5.8-1.6-4.3 0-6.3 1.4-6.6 4.8h3.7c.2-1.6 1-2 3-2 2.2 0 2.9.6 2.9 2.3 0 .7-.2 1-1.1 1.1l-4.1.5c-4.1.5-5.6 1.8-5.6 4.6 0 2.6 2 4.2 5.4 4.2 2.5 0 4.1-.8 5.5-2.9.8 2.2 1.8 2.9 3.7 2.9 1 0 1.8-.2 3.4-1.1v-1.8c-.8.1-1.4.1-1.7.1-1.2 0-1.7-.7-1.7-2.4zm-8 2.4c-1.4 0-2.3-.7-2.3-1.8 0-1.6.7-1.9 5.3-2.8l1.2-.2c0 3.2-1.3 4.8-4.2 4.8zM20.1 58.8c2.8-.6 4.2-2.2 4.2-4.4 0-2.6-2.4-4.7-5.5-4.7H6.1v19.5h12.5c3.7 0 6.4-2.2 6.4-5.3 0-2.7-1.6-4.2-4.9-5.1zm-9.5-6h5.9c2.3 0 3.1.6 3.1 2.3 0 1.8-.8 2.4-3.1 2.4h-5.9v-4.7zm5.9 12.9h-6v-5.3h6c2.4 0 3.5.8 3.5 2.6 0 2.1-.9 2.7-3.5 2.7zM26.9 49.8H31v19.5h-4.1zM47.4 64.9l-.1-6.9c-.1-2.3-2.5-3.6-6.6-3.6-5.1 0-6.9 1.2-7.1 4.8h3.8c.2-1.4.8-1.9 2.9-1.9 2.4 0 3.1.5 3.1 2.2 0 .7-.4 1-1.2 1.1-.2 0-1.9.1-4.1.5-3.8.5-5.4 1.8-5.4 4.6 0 2.6 1.9 4.2 5.3 4.2 2.6 0 4.1-.7 5.6-2.9.7 2 1.8 2.9 3.9 2.9 1 0 1.7-.2 2.9-.8v-2c-.5.1-.8.1-1.2.1-1.3-.1-1.8-.7-1.8-2.3zm-8 2.1c-1.7 0-2.5-.6-2.5-1.7 0-1.3 1-2 3.1-2.4 1.9-.2 1.8-.2 3.2-.6.1 3.1-1.2 4.7-3.8 4.7zM61.7 57.3c-1.3-1.9-2.8-2.8-4.9-2.8-3.8 0-6.7 3.2-6.7 7.6 0 4.8 2.5 7.8 6.6 7.8 2.3 0 3.4-.6 5.2-2.8v2.3h3.9V49.8h-4v7.5zm-4.1 9.8c-2.4 0-3.5-1.7-3.5-4.9 0-3 1.2-4.7 3.5-4.7 2.2 0 3.6 1.9 3.6 4.7 0 3-1.4 4.9-3.6 4.9zM75.5 54.6c-4.5 0-7.8 3.4-7.8 7.7 0 4.6 3.2 7.8 7.8 7.8 4.4 0 7.2-1.8 7.7-5.1h-3.8c-.5 1.6-1.3 2-3.4 2-2.8 0-4.1-1.3-4.1-4h11.3c0-5-3-8.4-7.7-8.4zM72 60.9c.2-2.3 1.3-3.5 3.4-3.5 2.2 0 3.2 1.1 3.4 3.5H72zM90.3 65.7v-7.6h4v-2.9h-4v-5.3h-2.9l-.1 1.1c-.7 4.2-.6 4.2-1.7 4.2h-2.3v2.9h3l-.1 6.9v.5c0 3.2 1.4 4.7 4.6 4.7 1.6 0 2.4-.1 3.7-.8v-2.2c-.8.1-1.7.1-2 .1-1.6-.1-2.2-.5-2.2-1.6z"/></symbol><symbol class="bisvg-inline--fa bifa-envelope bifa-w-16" viewBox="0 0 512 512" id="envelope" xmlns="http://www.w3.org/2000/svg"><path fill="currentColor" d="M464 64H48C21.5 64 0 85.5 0 112v288c0 26.5 21.5 48 48 48h416c26.5 0 48-21.5 48-48V112c0-26.5-21.5-48-48-48zM48 96h416c8.8 0 16 7.2 16 16v41.4c-21.9 18.5-53.2 44-150.6 121.3-16.9 13.4-50.2 45.7-73.4 45.3-23.2.4-56.6-31.9-73.4-45.3C85.2 197.4 53.9 171.9 32 153.4V112c0-8.8 7.2-16 16-16zm416 320H48c-8.8 0-16-7.2-16-16V195c22.8 18.7 58.8 47.6 130.7 104.7 20.5 16.4 56.7 52.5 93.3 52.3 36.4.3 72.3-35.5 93.3-52.3 71.9-57.1 107.9-86 130.7-104.7v205c0 8.8-7.2 16-16 16z"/></symbol><symbol class="bjsvg-inline--fa bjfa-exclamation-circle bjfa-w-16" viewBox="0 0 512 512" id="exclamation-circle" xmlns="http://www.w3.org/2000/svg"><path fill="currentColor" d="M256 40c118.621 0 216 96.075 216 216 0 119.291-96.61 216-216 216-119.244 0-216-96.562-216-216 0-119.203 96.602-216 216-216m0-32C119.043 8 8 119.083 8 256c0 136.997 111.043 248 248 248s248-111.003 248-248C504 119.083 392.957 8 256 8zm-11.49 120h22.979c6.823 0 12.274 5.682 11.99 12.5l-7 168c-.268 6.428-5.556 11.5-11.99 11.5h-8.979c-6.433 0-11.722-5.073-11.99-11.5l-7-168c-.283-6.818 5.167-12.5 11.99-12.5zM256 340c-15.464 0-28 12.536-28 28s12.536 28 28 28 28-12.536 28-28-12.536-28-28-28z"/></symbol><symbol class="bksvg-inline--fa bkfa-exclamation-circle bkfa-w-16" viewBox="0 0 512 512" id="exclamation-circle-solid" xmlns="http://www.w3.org/2000/svg"><path fill="currentColor" d="M504 256c0 136.997-111.043 248-248 248S8 392.997 8 256C8 119.083 119.043 8 256 8s248 111.083 248 248zm-248 50c-25.405 0-46 20.595-46 46s20.595 46 46 46 46-20.595 46-46-20.595-46-46-46zm-43.673-165.346l7.418 136c.347 6.364 5.609 11.346 11.982 11.346h48.546c6.373 0 11.635-4.982 11.982-11.346l7.418-136c.375-6.874-5.098-12.654-11.982-12.654h-63.383c-6.884 0-12.356 5.78-11.981 12.654z"/></symbol><symbol class="blsvg-inline--fa blfa-exclamation-triangle blfa-w-18" viewBox="0 0 576 512" id="exclamation-triangle" xmlns="http://www.w3.org/2000/svg"><path fill="currentColor" d="M270.2 160h35.5c3.4 0 6.1 2.8 6 6.2l-7.5 196c-.1 3.2-2.8 5.8-6 5.8h-20.5c-3.2 0-5.9-2.5-6-5.8l-7.5-196c-.1-3.4 2.6-6.2 6-6.2zM288 388c-15.5 0-28 12.5-28 28s12.5 28 28 28 28-12.5 28-28-12.5-28-28-28zm281.5 52L329.6 24c-18.4-32-64.7-32-83.2 0L6.5 440c-18.4 31.9 4.6 72 41.6 72H528c36.8 0 60-40 41.5-72zM528 480H48c-12.3 0-20-13.3-13.9-24l240-416c6.1-10.6 21.6-10.7 27.7 0l240 416c6.2 10.6-1.5 24-13.8 24z"/></symbol><symbol class="bmsvg-inline--fa bmfa-exclamation-triangle bmfa-w-18" viewBox="0 0 576 512" id="exclamation-triangle-solid" xmlns="http://www.w3.org/2000/svg"><path fill="currentColor" d="M569.517 440.013C587.975 472.007 564.806 512 527.94 512H48.054c-36.937 0-59.999-40.055-41.577-71.987L246.423 23.985c18.467-32.009 64.72-31.951 83.154 0l239.94 416.028zM288 354c-25.405 0-46 20.595-46 46s20.595 46 46 46 46-20.595 46-46-20.595-46-46-46zm-43.673-165.346l7.418 136c.347 6.364 5.609 11.346 11.982 11.346h48.546c6.373 0 11.635-4.982 11.982-11.346l7.418-136c.375-6.874-5.098-12.654-11.982-12.654h-63.383c-6.884 0-12.356 5.78-11.981 12.654z"/></symbol><symbol class="bnsvg-inline--fa bnfa-expand bnfa-w-14" viewBox="0 0 448 512" id="expand" xmlns="http://www.w3.org/2000/svg"><path fill="currentColor" d="M0 180V56c0-13.3 10.7-24 24-24h124c6.6 0 12 5.4 12 12v8c0 6.6-5.4 12-12 12H32v116c0 6.6-5.4 12-12 12h-8c-6.6 0-12-5.4-12-12zM300 32h124c13.3 0 24 10.7 24 24v124c0 6.6-5.4 12-12 12h-8c-6.6 0-12-5.4-12-12V64H300c-6.6 0-12-5.4-12-12v-8c0-6.6 5.4-12 12-12zm148 300v124c0 13.3-10.7 24-24 24H300c-6.6 0-12-5.4-12-12v-8c0-6.6 5.4-12 12-12h116V332c0-6.6 5.4-12 12-12h8c6.6 0 12 5.4 12 12zM148 480H24c-13.3 0-24-10.7-24-24V332c0-6.6 5.4-12 12-12h8c6.6 0 12 5.4 12 12v116h116c6.6 0 12 5.4 12 12v8c0 6.6-5.4 12-12 12z"/></symbol><symbol class="bosvg-inline--fa bofa-external-link-alt bofa-w-16" viewBox="0 0 512 512" id="external-link" xmlns="http://www.w3.org/2000/svg"><path fill="currentColor" d="M440 256h-16a8 8 0 00-8 8v200a16 16 0 01-16 16H48a16 16 0 01-16-16V112a16 16 0 0116-16h200a8 8 0 008-8V72a8 8 0 00-8-8H48a48 48 0 00-48 48v352a48 48 0 0048 48h352a48 48 0 0048-48V264a8 8 0 00-8-8zM480 0h-.06l-96.16.17c-28.45 0-42.66 34.54-22.58 54.62l35.28 35.28-265 265a12 12 0 000 17l8.49 8.49a12 12 0 0017 0l265-265 35.28 35.27c20 20 54.57 6 54.62-22.57l.13-96.21A32 32 0 00480 0zm-.17 128.17l-96-96L480 32z"/></symbol><symbol class="bpsvg-inline--fa bpfa-facebook-f bpfa-w-10" viewBox="0 0 320 512" id="facebook" xmlns="http://www.w3.org/2000/svg"><path fill="currentColor" d="M279.14 288l14.22-92.66h-88.91v-60.13c0-25.35 12.42-50.06 52.24-50.06h40.42V6.26S260.43 0 225.36 0c-73.22 0-121.08 44.38-121.08 124.72v70.62H22.89V288h81.39v224h100.17V288z"/></symbol><symbol viewBox="0 0 34 16.4" id="figcaption-pin" xmlns="http://www.w3.org/2000/svg"><path d="M15.6.8c.8-.8 2-.8 2.8 0l6.7 6.7c1.9 1.9 4.4 2.9 7.1 2.9H34v6H0v-6h1.9c2.7 0 5.2-1.1 7.1-2.9L15.6.8z" fill="#fff"/><path d="M9.7 12.9l6.6-6.6c.4-.4 1-.4 1.4 0l6.6 6.6c.6.6.2 1.7-.7 1.7H10.4c-.9 0-1.3-1-.7-1.7z"/></symbol><symbol class="brsvg-inline--fa brfa-filter brfa-w-16" viewBox="0 0 512 512" id="filter-solid" xmlns="http://www.w3.org/2000/svg"><path fill="currentColor" d="M487.976 0H24.028C2.71 0-8.047 25.866 7.058 40.971L192 225.941V432c0 7.831 3.821 15.17 10.237 19.662l80 55.98C298.02 518.69 320 507.493 320 487.98V225.941l184.947-184.97C520.021 25.896 509.338 0 487.976 0z"/></symbol><symbol viewBox="0 0 55 55" id="gallery" xmlns="http://www.w3.org/2000/svg"><path d="M43.7 54.5c-.3 0-.6 0-.9-.1l-32.7-6.6c-.8-.2-1.3-1-1.2-1.8.2-.8 1-1.3 1.8-1.2l32.8 6.6h.2c.1 0 .1 0 .6-.1h.1s0-.1.1-.1V51l7.1-35c0-.2 0-.4-.1-.6-.1-.1-.2-.2-.4-.3l-5.1-.8c-.8-.1-1.4-.9-1.2-1.7.1-.8.9-1.4 1.7-1.2l4.9.9c1 .2 1.8.7 2.4 1.5.6.9.8 1.9.6 2.9l-7.1 34.9c-.1 1-.8 2-1.7 2.5-.1 0-.1.1-.2.1l-.2.1c-.4 0-.9.2-1.5.2zm-4.1-11.2H4.2C2 43.3.5 41.7.5 39.6V4.2C.5 2 2.1.5 4.2.5h35.4c2.2 0 3.7 1.6 3.7 3.7v35.4c0 2.2-1.5 3.7-3.7 3.7zM3.5 36.7v2.9c0 .5.2.7.7.7h35.4c.5 0 .7-.2.7-.7v-2.9H3.5zm34.2-3h2.6V4.2c0-.5-.2-.7-.7-.7H4.2c-.5 0-.7.2-.7.7v29.5h2.6c.2-1.7.6-3.4 1.4-5.1 1.2-2.4 4.8-3.7 9.8-5.4.2-.5.2-1.7 0-2.1-2.1-2.4-3-5.2-2.8-8.1 0-2.2.6-4 1.9-5.5C17.8 5.9 19.7 5 22 5c2 0 3.9.9 5.5 2.4l.1.1c1.3 1.6 1.9 3.5 1.7 5.6.2 3-.8 5.9-2.7 7.9-.2.5-.2 1.8 0 2.3.6.2 1.3.5 1.9.7 4 1.5 6.9 2.6 7.9 4.6.7 1.7 1.2 3.4 1.3 5.1zm-28.6 0h25.6c-.2-1.3-.5-2.6-1.1-3.9-.4-.9-3.4-2-6.2-3-.7-.3-1.4-.5-2.2-.8-.5-.2-1.2-.7-1.5-1.8-.5-1.5-.3-3.9.4-4.9.1-.1.1-.2.2-.2 1.4-1.4 2.2-3.6 2-5.9v-.3c.2-1.3-.1-2.5-.9-3.4-.6-.6-1.8-1.5-3.3-1.5-1.4 0-2.5.5-3.3 1.5-.8 1-1.2 2.2-1.2 3.7v.1c-.2 2.2.5 4.2 2.1 6 .9.9 1.1 3.3.8 4.6-.4 1.6-1.3 2.1-1.8 2.3-2.8.9-7.5 2.5-8.2 3.9-.8 1-1.2 2.3-1.4 3.6zm8.2-12.6c0 .1 0 .1 0 0 0 .1 0 .1 0 0z"/></symbol><symbol viewBox="0 0 53 53" id="headphones" xmlns="http://www.w3.org/2000/svg"><path d="M14.9 52.7c-.5 0-1.1-.1-1.6-.3-.9-.4-1.6-1.2-2-2.3L6.7 38.3c-.4-1-.4-2.1.1-3 .4-.9 1.2-1.6 2.2-1.9l2-.9c1-.4 2.1-.4 3.1 0 .9.4 1.6 1.2 2 2.3l4.6 11.8c.4 1 .4 2.1-.1 3-.4.9-1.2 1.6-2.2 1.9l-2 .9c-.5.2-1 .3-1.5.3zm-2.4-17.6c-.1 0-.2 0-.3.1l-2 .9s-.1 0-.1.1c-.2.1-.4.2-.5.4-.1.2-.1.4 0 .7l4.7 11.9c.1.3.2.5.4.6.2.1.4.1.7 0l2-.9s.1 0 .1-.1c.2-.1.4-.2.5-.4.1-.2.1-.4 0-.7l-4.7-11.9c-.1-.3-.2-.5-.4-.6-.2-.1-.3-.1-.4-.1zM38 52.6c-.5 0-.9-.1-1.3-.3l-2.2-1c-1.9-.8-2.9-3.1-2.2-5L37 34.6c.8-2 3.1-3 5-2.2l2.2 1c.9.3 1.6 1.1 2.1 2 .5 1 .5 2 .1 3l-4.7 11.9c-.4.9-1.1 1.7-2 2.1-.6.1-1.1.2-1.7.2zm2.7-17.5c-.3 0-.7.3-.9.6l-4.7 11.9c-.2.4.1.9.6 1.1l2.2 1c.3.1.9-.2 1-.6l4.7-11.9c.1-.2.1-.4 0-.6-.1-.2-.3-.4-.5-.5l-2.2-1h-.2zm-.4 14.5zm3.7 2.9c-.2 0-.5-.1-.7-.2-.7-.4-1-1.3-.6-2 .1-.1 6.8-12.6 6.8-23.8 0-12.7-10.3-23-23-23s-23 10.3-23 23c0 11.1 6.7 23.7 6.8 23.8.4.7.1 1.6-.6 2-.7.4-1.6.1-2-.6C7.4 51.2.5 38.4.5 26.5c0-14.3 11.7-26 26-26s26 11.7 26 26c0 11.9-6.9 24.7-7.2 25.2-.3.5-.8.8-1.3.8z"/></symbol><symbol viewBox="0 0 512 512" id="headset" xmlns="http://www.w3.org/2000/svg"><path d="M192 208c0-17.67-14.33-32-32-32h-16c-35.35 0-64 28.65-64 64v48c0 35.35 28.65 64 64 64h16c17.67 0 32-14.33 32-32V208zm176 144c35.35 0 64-28.65 64-64v-48c0-35.35-28.65-64-64-64h-16c-17.67 0-32 14.33-32 32v112c0 17.67 14.33 32 32 32h16zM256 0C113.18 0 4.58 118.83 0 256v16c0 8.84 7.16 16 16 16h16c8.84 0 16-7.16 16-16v-16c0-114.69 93.31-208 208-208s208 93.31 208 208h-.12c.08 2.43.12 165.72.12 165.72 0 23.35-18.93 42.28-42.28 42.28H320c0-26.51-21.49-48-48-48h-32c-26.51 0-48 21.49-48 48s21.49 48 48 48h181.72c49.86 0 90.28-40.42 90.28-90.28V256C507.42 118.83 398.82 0 256 0z"/></symbol><symbol class="bvsvg-inline--fa bvfa-heart bvfa-w-16" viewBox="0 0 512 512" id="heart" xmlns="http://www.w3.org/2000/svg"><path fill="currentColor" d="M462.3 62.7c-54.5-46.4-136-38.7-186.6 13.5L256 96.6l-19.7-20.3C195.5 34.1 113.2 8.7 49.7 62.7c-62.8 53.6-66.1 149.8-9.9 207.8l193.5 199.8c6.2 6.4 14.4 9.7 22.6 9.7 8.2 0 16.4-3.2 22.6-9.7L472 270.5c56.4-58 53.1-154.2-9.7-207.8zm-13.1 185.6L256.4 448.1 62.8 248.3c-38.4-39.6-46.4-115.1 7.7-161.2 54.8-46.8 119.2-12.9 142.8 11.5l42.7 44.1 42.7-44.1c23.2-24 88.2-58 142.8-11.5 54 46 46.1 121.5 7.7 161.2z"/></symbol><symbol viewBox="0 0 512 512" id="heart-half-solid" xmlns="http://www.w3.org/2000/svg"><path d="M256 96.5l-19.7-20.3C186.1 24.3 104.5 15.9 49.7 62.6c-62.8 53.6-66.1 149.8-9.9 207.9l193.5 199.8c6.3 6.5 14.5 9.7 22.7 9.7V96.5z"/></symbol><symbol class="bxsvg-inline--fa bxfa-heart bxfa-w-16" viewBox="0 0 512 512" id="heart-solid" xmlns="http://www.w3.org/2000/svg"><path fill="currentColor" d="M462.3 62.6C407.5 15.9 326 24.3 275.7 76.2L256 96.5l-19.7-20.3C186.1 24.3 104.5 15.9 49.7 62.6c-62.8 53.6-66.1 149.8-9.9 207.9l193.5 199.8c12.5 12.9 32.8 12.9 45.3 0l193.5-199.8c56.3-58.1 53-154.3-9.8-207.9z"/></symbol><symbol class="bysvg-inline--fa byfa-history byfa-w-16" viewBox="0 0 512 512" id="history" xmlns="http://www.w3.org/2000/svg"><path fill="currentColor" d="M20 24h10c6.627 0 12 5.373 12 12v94.625C85.196 57.047 165.239 7.715 256.793 8.001 393.18 8.428 504.213 120.009 504 256.396 503.786 393.181 392.834 504 256 504c-63.926 0-122.202-24.187-166.178-63.908-5.113-4.618-5.354-12.561-.482-17.433l7.069-7.069c4.503-4.503 11.749-4.714 16.482-.454C150.782 449.238 200.935 470 256 470c117.744 0 214-95.331 214-214 0-117.744-95.331-214-214-214-82.862 0-154.737 47.077-190.289 116H164c6.627 0 12 5.373 12 12v10c0 6.627-5.373 12-12 12H20c-6.627 0-12-5.373-12-12V36c0-6.627 5.373-12 12-12zm321.647 315.235l4.706-6.47c3.898-5.36 2.713-12.865-2.647-16.763L272 263.853V116c0-6.627-5.373-12-12-12h-8c-6.627 0-12 5.373-12 12v164.147l84.884 61.734c5.36 3.899 12.865 2.714 16.763-2.646z"/></symbol><symbol class="bzsvg-inline--fa bzfa-info-circle bzfa-w-16" viewBox="0 0 512 512" id="info-circle" xmlns="http://www.w3.org/2000/svg"><path fill="currentColor" d="M256 40c118.621 0 216 96.075 216 216 0 119.291-96.61 216-216 216-119.244 0-216-96.562-216-216 0-119.203 96.602-216 216-216m0-32C119.043 8 8 119.083 8 256c0 136.997 111.043 248 248 248s248-111.003 248-248C504 119.083 392.957 8 256 8zm-36 344h12V232h-12c-6.627 0-12-5.373-12-12v-8c0-6.627 5.373-12 12-12h48c6.627 0 12 5.373 12 12v140h12c6.627 0 12 5.373 12 12v8c0 6.627-5.373 12-12 12h-72c-6.627 0-12-5.373-12-12v-8c0-6.627 5.373-12 12-12zm36-240c-17.673 0-32 14.327-32 32s14.327 32 32 32 32-14.327 32-32-14.327-32-32-32z"/></symbol><symbol class="casvg-inline--fa cafa-info-circle cafa-w-16" viewBox="0 0 512 512" id="info-circle-solid" xmlns="http://www.w3.org/2000/svg"><path fill="currentColor" d="M256 8C119.043 8 8 119.083 8 256c0 136.997 111.043 248 248 248s248-111.003 248-248C504 119.083 392.957 8 256 8zm0 110c23.196 0 42 18.804 42 42s-18.804 42-42 42-42-18.804-42-42 18.804-42 42-42zm56 254c0 6.627-5.373 12-12 12h-88c-6.627 0-12-5.373-12-12v-24c0-6.627 5.373-12 12-12h12v-64h-12c-6.627 0-12-5.373-12-12v-24c0-6.627 5.373-12 12-12h64c6.627 0 12 5.373 12 12v100h12c6.627 0 12 5.373 12 12v24z"/></symbol><symbol viewBox="0 0 10 16" id="lightning" xmlns="http://www.w3.org/2000/svg"><path d="M3.339 9.491L.488 8.394a.733.733 0 01-.292-1.187L6.621.254C7.16-.332 8.156.179 7.95.938l-1.51 5.57 2.85 1.098a.733.733 0 01.292 1.187l-6.425 6.953c-.541.586-1.535.075-1.33-.684l1.512-5.57z"/></symbol><symbol class="ccsvg-inline--fa ccfa-linkedin-in ccfa-w-14" viewBox="0 0 448 512" id="linkedin" xmlns="http://www.w3.org/2000/svg"><path fill="currentColor" d="M100.28 448H7.4V148.9h92.88zM53.79 108.1C24.09 108.1 0 83.5 0 53.8a53.79 53.79 0 01107.58 0c0 29.7-24.1 54.3-53.79 54.3zM447.9 448h-92.68V302.4c0-34.7-.7-79.2-48.29-79.2-48.29 0-55.69 37.7-55.69 76.7V448h-92.78V148.9h89.08v40.8h1.3c12.4-23.5 42.69-48.3 87.88-48.3 94 0 111.28 61.9 111.28 142.3V448z"/></symbol><symbol class="cdsvg-inline--fa cdfa-lock cdfa-w-14" viewBox="0 0 448 512" id="lock" xmlns="http://www.w3.org/2000/svg"><path fill="currentColor" d="M400 224h-16v-62.5C384 73.1 312.9.3 224.5 0 136-.3 64 71.6 64 160v64H48c-26.5 0-48 21.5-48 48v192c0 26.5 21.5 48 48 48h352c26.5 0 48-21.5 48-48V272c0-26.5-21.5-48-48-48zM96 160c0-70.6 57.4-128 128-128s128 57.4 128 128v64H96v-64zm304 320H48c-8.8 0-16-7.2-16-16V272c0-8.8 7.2-16 16-16h352c8.8 0 16 7.2 16 16v192c0 8.8-7.2 16-16 16z"/></symbol><symbol class="cesvg-inline--fa cefa-map-marker-alt cefa-w-12" viewBox="0 0 384 512" id="mappin-solid" xmlns="http://www.w3.org/2000/svg"><path fill="currentColor" d="M172.268 501.67C26.97 291.031 0 269.413 0 192 0 85.961 85.961 0 192 0s192 85.961 192 192c0 77.413-26.97 99.031-172.268 309.67-9.535 13.774-29.93 13.773-39.464 0zM192 272c44.183 0 80-35.817 80-80s-35.817-80-80-80-80 35.817-80 80 35.817 80 80 80z"/></symbol><symbol viewBox="0 0 63.6 81.5" id="medielogin" xmlns="http://www.w3.org/2000/svg"><path d="M0 70.7h63.3v10.9H0z"/><path d="M0 81.5l21.2-19.7v-14L0 67.5z"/><path d="M31.8 0C14.2 0 0 14.2 0 31.8c0 13.8 8.9 25.6 21.2 30v-14c-5.2-3.4-8.6-9.3-8.6-16 0-10.6 8.6-19.2 19.2-19.2S51 21.2 51 31.8c0 6.7-3.4 12.5-8.6 16v14c12.3-4.4 21.2-16.1 21.2-30C63.6 14.2 49.3 0 31.8 0z"/><path d="M63.6 81.5L42.4 61.7V47.8l21.2 19.7z"/></symbol><symbol class="cgsvg-inline--fa cgfa-bars cgfa-w-14" viewBox="0 0 448 512" id="menubars" xmlns="http://www.w3.org/2000/svg"><path fill="currentColor" d="M442 114H6a6 6 0 01-6-6V84a6 6 0 016-6h436a6 6 0 016 6v24a6 6 0 01-6 6zm0 160H6a6 6 0 01-6-6v-24a6 6 0 016-6h436a6 6 0 016 6v24a6 6 0 01-6 6zm0 160H6a6 6 0 01-6-6v-24a6 6 0 016-6h436a6 6 0 016 6v24a6 6 0 01-6 6z"/></symbol><symbol viewBox="0 0 30 30" id="menubars-solid" xmlns="http://www.w3.org/2000/svg"><path d="M0 4.3h30v4H0zM0 12.3h30v4H0zM0 20.3h30v4H0z"/></symbol><symbol viewBox="0 0 512 512" id="miteb" xmlns="http://www.w3.org/2000/svg"><path d="M475 63.5v201.7H316V63.5h159m-279.1 0v86h-159v-86h159m0 208.8v176.2h-159V272.3h159M475 387.1v61.4H316v-61.4h159m14.4-360.6H301.6c-12.5 0-22.6 10-22.6 22.3v231.1c0 12.3 10.1 22.3 22.6 22.3h187.8c12.5 0 22.6-10 22.6-22.3V48.8c0-12.3-10.1-22.3-22.6-22.3zm-279.1 0H22.5C10 26.5-.1 36.5-.1 48.8v115.4c0 12.3 10.1 22.3 22.6 22.3h187.8c12.5 0 22.6-10 22.6-22.3V48.8c.1-12.3-10.1-22.3-22.6-22.3zm0 208.8H22.5c-12.5 0-22.6 10-22.6 22.3v205.6c0 12.3 10.1 22.3 22.6 22.3h187.8c12.5 0 22.6-10 22.6-22.3V257.6c.1-12.3-10.1-22.3-22.6-22.3zm279.1 114.8H301.6c-12.5 0-22.6 10-22.6 22.3v90.8c0 12.3 10.1 22.3 22.6 22.3h187.8c12.5 0 22.6-10 22.6-22.3v-90.8c0-12.3-10.1-22.3-22.6-22.3z"/></symbol><symbol viewBox="0 0 512 512" id="miteb-solid" xmlns="http://www.w3.org/2000/svg"><path d="M210.3 26.5H22.5C10 26.5-.1 36.5-.1 48.8v115.4c0 12.3 10.1 22.3 22.6 22.3h187.8c12.5 0 22.6-10 22.6-22.3V48.8c.1-12.3-10.1-22.3-22.6-22.3zm279.1 0H301.6c-12.5 0-22.6 10-22.6 22.3v231.1c0 12.3 10.1 22.3 22.6 22.3h187.8c12.5 0 22.6-10 22.6-22.3V48.8c0-12.3-10.1-22.3-22.6-22.3zM210.3 235.3H22.5c-12.5 0-22.6 10-22.6 22.3v205.6c0 12.3 10.1 22.3 22.6 22.3h187.8c12.5 0 22.6-10 22.6-22.3V257.6c.1-12.3-10.1-22.3-22.6-22.3zm279.1 114.8H301.6c-12.5 0-22.6 10-22.6 22.3v90.8c0 12.3 10.1 22.3 22.6 22.3h187.8c12.5 0 22.6-10 22.6-22.3v-90.8c0-12.3-10.1-22.3-22.6-22.3z"/></symbol><symbol viewBox="0 0 42 39" id="newspaper" xmlns="http://www.w3.org/2000/svg"><path d="M35.8 38.5H6.2c-3.5 0-6.2-2.7-6.2-6.2V2.7C0 1.2 1.2 0 2.7 0h26.1c1.6 0 2.7 1.2 2.7 2.7v29.6c0 2.4 1.8 4.2 4.2 4.2s4.2-1.8 4.2-4.2V6.2c0-.6.4-1 1-1s1 .4 1 1v26.1c.1 3.5-2.6 6.2-6.1 6.2zM2.7 2c-.5 0-.7.2-.7.7v29.6c0 2.4 1.8 4.2 4.2 4.2h25c-1-1.1-1.6-2.6-1.6-4.2V2.7c0-.5-.2-.7-.7-.7H2.7zm33.1 31.8c-.6 0-1-.4-1-1V6.2c0-.6.4-1 1-1s1 .4 1 1v26.5c0 .6-.5 1.1-1 1.1zm-10.5-4H6.2c-.6 0-1-.4-1-1s.4-1 1-1h19.1c.6 0 1 .4 1 1s-.4 1-1 1zm0-5.2H6.2c-.6 0-1-.4-1-1s.4-1 1-1h19.1c.6 0 1 .4 1 1s-.4 1-1 1zm0-5.2h-4.9c-.6 0-1-.4-1-1s.4-1 1-1h4.9c.6 0 1 .4 1 1s-.4 1-1 1zm-9.5 0H7.1c-1.1 0-1.9-.8-1.9-1.9V8.8C5.2 7.8 6 7 7.1 7h8.7c1.1 0 1.9.8 1.9 1.9v8.7c0 1-.9 1.8-1.9 1.8zm-8.6-2h8.4V9H7.2v8.4zm18.1-3.2h-4.9c-.6 0-1-.4-1-1s.4-1 1-1h4.9c.6 0 1 .4 1 1s-.4 1-1 1zm0-5.2h-4.9c-.6 0-1-.4-1-1s.4-1 1-1h4.9c.6 0 1 .4 1 1s-.4 1-1 1z"/></symbol><symbol viewBox="0 0 15 15" id="phone" xmlns="http://www.w3.org/2000/svg"><path d="M12.9 14.2h-.2c-6.3-.6-11.3-5.7-12-12 0-.5.1-.9.4-1.3.4-.3.9-.5 1.4-.5h2.3c.8 0 1.5.5 1.7 1.2l.7 2.2c.2.6 0 1.3-.4 1.8l-.4.4s-.1.1 0 .2c.7 1 1.3 1.6 2.4 2.4H9l.4-.4c.5-.5 1.2-.6 1.8-.4l2.2.7c.7.2 1.2.9 1.2 1.7v2.3c0 .5-.2 1-.6 1.3-.3.2-.7.4-1.1.4zM2.5 1.4c-.2 0-.4.1-.6.2-.1.2-.2.3-.1.5.5 5.9 5.2 10.5 11 11.1.2 0 .4 0 .5-.2.2-.1.2-.3.2-.6v-2.3c0-.3-.2-.6-.5-.7l-2.2-.7c-.3-.1-.6 0-.8.2l-.4.3c-.4.4-1 .4-1.4.1C7 8.5 6.3 7.9 5.6 6.7c-.3-.4-.2-1 .1-1.4l.4-.3c.2-.2.3-.5.2-.8l-.8-2.3c-.1-.3-.4-.5-.7-.5H2.5zM14 5.2c-.3 0-.5-.2-.5-.5 0-1.9-1.5-3.4-3.4-3.4-.3 0-.5-.2-.5-.5s.2-.5.5-.5c2.4 0 4.4 2 4.4 4.4 0 .3-.2.5-.5.5zm-2.5 0c-.3 0-.5-.2-.5-.4 0-.5-.4-.8-.8-.8-.3 0-.5-.3-.5-.5s.2-.5.5-.5c1 0 1.8.8 1.8 1.8 0 .2-.2.4-.5.4z"/></symbol><symbol class="cmsvg-inline--fa cmfa-map-marker cmfa-w-12" viewBox="0 0 384 512" id="pin-solid" xmlns="http://www.w3.org/2000/svg"><path fill="currentColor" d="M172.268 501.67C26.97 291.031 0 269.413 0 192 0 85.961 85.961 0 192 0s192 85.961 192 192c0 77.413-26.97 99.031-172.268 309.67-9.535 13.774-29.93 13.773-39.464 0z"/></symbol><symbol class="cnsvg-inline--fa cnfa-play-circle cnfa-w-16" viewBox="0 0 512 512" id="play-circle" xmlns="http://www.w3.org/2000/svg"><path fill="currentColor" d="M256 504c137 0 248-111 248-248S393 8 256 8 8 119 8 256s111 248 248 248zM40 256c0-118.7 96.1-216 216-216 118.7 0 216 96.1 216 216 0 118.7-96.1 216-216 216-118.7 0-216-96.1-216-216zm331.7-18l-176-107c-15.8-8.8-35.7 2.5-35.7 21v208c0 18.4 19.8 29.8 35.7 21l176-101c16.4-9.1 16.4-32.8 0-42zM192 335.8V176.9c0-4.7 5.1-7.6 9.1-5.1l134.5 81.7c3.9 2.4 3.8 8.1-.1 10.3L201 341c-4 2.3-9-.6-9-5.2z"/></symbol><symbol class="cosvg-inline--fa cofa-question-circle cofa-w-16" viewBox="0 0 512 512" id="question-circle" xmlns="http://www.w3.org/2000/svg"><path fill="currentColor" d="M256 340c-15.464 0-28 12.536-28 28s12.536 28 28 28 28-12.536 28-28-12.536-28-28-28zm7.67-24h-16c-6.627 0-12-5.373-12-12v-.381c0-70.343 77.44-63.619 77.44-107.408 0-20.016-17.761-40.211-57.44-40.211-29.144 0-44.265 9.649-59.211 28.692-3.908 4.98-11.054 5.995-16.248 2.376l-13.134-9.15c-5.625-3.919-6.86-11.771-2.645-17.177C185.658 133.514 210.842 116 255.67 116c52.32 0 97.44 29.751 97.44 80.211 0 67.414-77.44 63.849-77.44 107.408V304c0 6.627-5.373 12-12 12zM256 40c118.621 0 216 96.075 216 216 0 119.291-96.61 216-216 216-119.244 0-216-96.562-216-216 0-119.203 96.602-216 216-216m0-32C119.043 8 8 119.083 8 256c0 136.997 111.043 248 248 248s248-111.003 248-248C504 119.083 392.957 8 256 8z"/></symbol><symbol viewBox="0 0 24 10" id="rss" xmlns="http://www.w3.org/2000/svg"><path d="M0 9V.4h3.7c.9 0 1.6.1 2 .2.4.2.8.4 1 .8.2.5.3.9.3 1.4 0 .7-.2 1.2-.5 1.6-.4.4-1 .7-1.7.8.4.2.7.5.9.7.2.3.6.7 1 1.4l1 1.7H5.6L4.4 7.1c-.5-.6-.8-1.1-.9-1.2-.2-.2-.4-.3-.5-.4-.2-.1-.5-.1-.9-.1h-.4V9H0zm1.7-5H3c.8 0 1.4 0 1.6-.1s.4-.2.5-.4c.1-.2.2-.4.2-.6 0-.3-.1-.5-.2-.7-.2-.1-.5-.3-.7-.3H1.7V4zM8.2 6.2L9.9 6c.1.6.3 1 .6 1.2.3.3.7.4 1.3.4.6 0 1-.1 1.3-.4.3-.2.4-.5.4-.8 0-.2-.1-.4-.2-.5-.1-.1-.3-.3-.6-.4-.2-.1-.7-.2-1.4-.4-.9-.2-1.6-.5-2-.8-.5-.5-.8-1-.8-1.7 0-.4.1-.8.4-1.2.3-.3.6-.6 1.1-.8.5-.2 1-.3 1.7-.3 1.1 0 1.9.2 2.4.7.5.5.8 1.1.9 1.9l-1.7.1c-.1-.5-.3-.8-.5-1-.2-.2-.6-.3-1.1-.3-.5 0-.9.1-1.2.3-.2.1-.3.3-.3.5s.1.4.3.5c.2.2.8.4 1.6.6.8.2 1.5.4 1.9.6.4.2.7.5.9.9.2.4.3.8.3 1.4 0 .5-.1 1-.4 1.4-.3.4-.7.8-1.2 1-.5.2-1.1.3-1.9.3-1.1 0-1.9-.2-2.5-.8-.5-.5-.9-1.2-1-2.2zM16.2 6.2l1.7-.2c.1.6.3 1 .6 1.2.3.3.7.4 1.3.4.6 0 1-.1 1.3-.4.3-.2.4-.5.4-.8 0-.2-.1-.4-.2-.5-.1-.1-.3-.3-.6-.4-.2-.1-.7-.2-1.4-.4-.9-.2-1.6-.5-2-.8-.5-.5-.8-1-.8-1.7 0-.4.1-.8.4-1.2.2-.4.6-.7 1.1-.9.5-.2 1-.3 1.7-.3 1.1 0 1.9.2 2.4.7.5.5.8 1.1.9 1.9l-1.7.1c-.1-.4-.3-.7-.5-.9-.2-.2-.6-.3-1.1-.3-.5 0-.9.1-1.2.3-.2.1-.3.3-.3.5s.1.4.3.5c.2.2.8.4 1.6.6.8.2 1.5.4 1.9.6.4.2.7.5.9.9.2.4.3.8.3 1.4 0 .5-.1 1-.4 1.4-.3.4-.7.8-1.2 1-.5.2-1.1.3-1.9.3-1.1 0-1.9-.2-2.5-.8-.5-.5-.9-1.2-1-2.2z"/></symbol><symbol class="cqsvg-inline--fa cqfa-rss cqfa-w-14" viewBox="0 0 448 512" id="rss-symbol" xmlns="http://www.w3.org/2000/svg"><path fill="currentColor" d="M80 352c26.467 0 48 21.533 48 48s-21.533 48-48 48-48-21.533-48-48 21.533-48 48-48m0-32c-44.183 0-80 35.817-80 80s35.817 80 80 80 80-35.817 80-80-35.817-80-80-80zm367.996 147.615c-6.448-237.848-198.06-429.164-435.61-435.61C5.609 31.821 0 37.229 0 44.007v8.006c0 6.482 5.146 11.816 11.626 11.994 220.81 6.05 398.319 183.913 404.367 404.367.178 6.48 5.512 11.626 11.994 11.626h8.007c6.778 0 12.185-5.609 12.002-12.385zm-144.245-.05c-6.347-158.132-133.207-284.97-291.316-291.316C5.643 175.976 0 181.45 0 188.247v8.005c0 6.459 5.114 11.72 11.567 11.989 141.134 5.891 254.301 119.079 260.192 260.192.269 6.453 5.531 11.567 11.989 11.567h8.005c6.798 0 12.271-5.643 11.998-12.435z"/></symbol><symbol class="crsvg-inline--fa crfa-search crfa-w-16" viewBox="0 0 512 512" id="search" xmlns="http://www.w3.org/2000/svg"><path fill="currentColor" d="M508.5 481.6l-129-129c-2.3-2.3-5.3-3.5-8.5-3.5h-10.3C395 312 416 262.5 416 208 416 93.1 322.9 0 208 0S0 93.1 0 208s93.1 208 208 208c54.5 0 104-21 141.1-55.2V371c0 3.2 1.3 6.2 3.5 8.5l129 129c4.7 4.7 12.3 4.7 17 0l9.9-9.9c4.7-4.7 4.7-12.3 0-17zM208 384c-97.3 0-176-78.7-176-176S110.7 32 208 32s176 78.7 176 176-78.7 176-176 176z"/></symbol><symbol viewBox="0 0 320 512" id="smartphone" xmlns="http://www.w3.org/2000/svg"><path d="M272 0H48C21.5 0 0 21.5 0 48v416c0 26.5 21.5 48 48 48h224c26.5 0 48-21.5 48-48V48c0-26.5-21.5-48-48-48zM160 480c-17.7 0-32-14.3-32-32s14.3-32 32-32 32 14.3 32 32-14.3 32-32 32zm112-108c0 6.6-5.4 12-12 12H60c-6.6 0-12-5.4-12-12V60c0-6.6 5.4-12 12-12h200c6.6 0 12 5.4 12 12v312z"/></symbol><symbol class="ctsvg-inline--fa ctfa-square ctfa-w-14" viewBox="0 0 448 512" id="square" xmlns="http://www.w3.org/2000/svg"><path fill="currentColor" d="M400 32H48C21.5 32 0 53.5 0 80v352c0 26.5 21.5 48 48 48h352c26.5 0 48-21.5 48-48V80c0-26.5-21.5-48-48-48zm16 400c0 8.8-7.2 16-16 16H48c-8.8 0-16-7.2-16-16V80c0-8.8 7.2-16 16-16h352c8.8 0 16 7.2 16 16v352z"/></symbol><symbol class="cusvg-inline--fa cufa-star cufa-w-18" viewBox="0 0 576 512" id="star" xmlns="http://www.w3.org/2000/svg"><path fill="currentColor" d="M528.1 171.5L382 150.2 316.7 17.8c-11.7-23.6-45.6-23.9-57.4 0L194 150.2 47.9 171.5c-26.2 3.8-36.7 36.1-17.7 54.6l105.7 103-25 145.5c-4.5 26.3 23.2 46 46.4 33.7L288 439.6l130.7 68.7c23.2 12.2 50.9-7.4 46.4-33.7l-25-145.5 105.7-103c19-18.5 8.5-50.8-17.7-54.6zM405.8 317.9l27.8 162L288 403.5 142.5 480l27.8-162L52.5 203.1l162.7-23.6L288 32l72.8 147.5 162.7 23.6-117.7 114.8z"/></symbol><symbol class="cvsvg-inline--fa cvfa-star-half cvfa-w-18" viewBox="0 0 576 512" id="star-half-solid" xmlns="http://www.w3.org/2000/svg"><path fill="currentColor" d="M288 0c-11.4 0-22.8 5.9-28.7 17.8L194 150.2 47.9 171.4c-26.2 3.8-36.7 36.1-17.7 54.6l105.7 103-25 145.5c-4.5 26.1 23 46 46.4 33.7L288 439.6V0z"/></symbol><symbol class="cwsvg-inline--fa cwfa-star cwfa-w-18" viewBox="0 0 576 512" id="star-solid" xmlns="http://www.w3.org/2000/svg"><path fill="currentColor" d="M259.3 17.8L194 150.2 47.9 171.5c-26.2 3.8-36.7 36.1-17.7 54.6l105.7 103-25 145.5c-4.5 26.3 23.2 46 46.4 33.7L288 439.6l130.7 68.7c23.2 12.2 50.9-7.4 46.4-33.7l-25-145.5 105.7-103c19-18.5 8.5-50.8-17.7-54.6L382 150.2 316.7 17.8c-11.7-23.6-45.6-23.9-57.4 0z"/></symbol><symbol class="cxsvg-inline--fa cxfa-sync-alt cxfa-w-16" viewBox="0 0 512 512" id="sync" xmlns="http://www.w3.org/2000/svg"><path fill="currentColor" d="M457.373 9.387l-50.095 50.102C365.411 27.211 312.953 8 256 8 123.228 8 14.824 112.338 8.31 243.493 7.971 250.311 13.475 256 20.301 256h10.015c6.352 0 11.647-4.949 11.977-11.293C48.159 131.913 141.389 42 256 42c47.554 0 91.487 15.512 127.02 41.75l-53.615 53.622c-20.1 20.1-5.855 54.628 22.627 54.628H480c17.673 0 32-14.327 32-32V32.015c0-28.475-34.564-42.691-54.627-22.628zM480 160H352L480 32v128zm11.699 96h-10.014c-6.353 0-11.647 4.949-11.977 11.293C463.84 380.203 370.504 470 256 470c-47.525 0-91.468-15.509-127.016-41.757l53.612-53.616c20.099-20.1 5.855-54.627-22.627-54.627H32c-17.673 0-32 14.327-32 32v127.978c0 28.614 34.615 42.641 54.627 22.627l50.092-50.096C146.587 484.788 199.046 504 256 504c132.773 0 241.176-104.338 247.69-235.493.339-6.818-5.165-12.507-11.991-12.507zM32 480V352h128L32 480z"/></symbol><symbol class="cysvg-inline--fa cyfa-tablet-alt cyfa-w-14" viewBox="0 0 448 512" id="tablet" xmlns="http://www.w3.org/2000/svg"><path fill="currentColor" d="M400 0H48C21.5 0 0 21.5 0 48v416c0 26.5 21.5 48 48 48h352c26.5 0 48-21.5 48-48V48c0-26.5-21.5-48-48-48zM224 480c-17.7 0-32-14.3-32-32s14.3-32 32-32 32 14.3 32 32-14.3 32-32 32zm176-108c0 6.6-5.4 12-12 12H60c-6.6 0-12-5.4-12-12V60c0-6.6 5.4-12 12-12h328c6.6 0 12 5.4 12 12v312z"/></symbol><symbol class="czsvg-inline--fa czfa-tag czfa-w-16" viewBox="0 0 512 512" id="tag" xmlns="http://www.w3.org/2000/svg"><path fill="currentColor" d="M497.941 225.941L286.059 14.059A48 48 0 00252.118 0H48C21.49 0 0 21.49 0 48v204.118a48 48 0 0014.059 33.941l211.882 211.882c18.745 18.745 49.137 18.746 67.882 0l204.118-204.118c18.745-18.745 18.745-49.137 0-67.882zm-22.627 45.255L271.196 475.314c-6.243 6.243-16.375 6.253-22.627 0L36.686 263.431A15.895 15.895 0 0132 252.117V48c0-8.822 7.178-16 16-16h204.118c4.274 0 8.292 1.664 11.314 4.686l211.882 211.882c6.238 6.239 6.238 16.39 0 22.628zM144 124c11.028 0 20 8.972 20 20s-8.972 20-20 20-20-8.972-20-20 8.972-20 20-20m0-28c-26.51 0-48 21.49-48 48s21.49 48 48 48 48-21.49 48-48-21.49-48-48-48z"/></symbol><symbol class="dasvg-inline--fa dafa-tag dafa-w-16" viewBox="0 0 512 512" id="tag-solid" xmlns="http://www.w3.org/2000/svg"><path d="M0 252.118V48C0 21.49 21.49 0 48 0h204.118a48 48 0 0133.941 14.059l211.882 211.882c18.745 18.745 18.745 49.137 0 67.882L293.823 497.941c-18.745 18.745-49.137 18.745-67.882 0L14.059 286.059A48 48 0 010 252.118zM112 64c-26.51 0-48 21.49-48 48s21.49 48 48 48 48-21.49 48-48-21.49-48-48-48z"/></symbol><symbol class="dbsvg-inline--fa dbfa-tags dbfa-w-20" viewBox="0 0 640 512" id="tags" xmlns="http://www.w3.org/2000/svg"><path fill="currentColor" d="M625.941 293.823L421.823 497.941c-18.746 18.746-49.138 18.745-67.882 0l-1.775-1.775 22.627-22.627 1.775 1.775c6.253 6.253 16.384 6.243 22.627 0l204.118-204.118c6.238-6.239 6.238-16.389 0-22.627L391.431 36.686A15.895 15.895 0 00380.117 32h-19.549l-32-32h51.549a48 48 0 0133.941 14.059L625.94 225.941c18.746 18.745 18.746 49.137.001 67.882zM252.118 32H48c-8.822 0-16 7.178-16 16v204.118c0 4.274 1.664 8.292 4.686 11.314l211.882 211.882c6.253 6.253 16.384 6.243 22.627 0l204.118-204.118c6.238-6.239 6.238-16.389 0-22.627L263.431 36.686A15.895 15.895 0 00252.118 32m0-32a48 48 0 0133.941 14.059l211.882 211.882c18.745 18.745 18.745 49.137 0 67.882L293.823 497.941c-18.746 18.746-49.138 18.745-67.882 0L14.059 286.059A48 48 0 010 252.118V48C0 21.49 21.49 0 48 0h204.118zM144 124c-11.028 0-20 8.972-20 20s8.972 20 20 20 20-8.972 20-20-8.972-20-20-20m0-28c26.51 0 48 21.49 48 48s-21.49 48-48 48-48-21.49-48-48 21.49-48 48-48z"/></symbol><symbol class="dcsvg-inline--fa dcfa-tags dcfa-w-20" viewBox="0 0 640 512" id="tags-solid" xmlns="http://www.w3.org/2000/svg"><path d="M497.941 225.941L286.059 14.059A48 48 0 00252.118 0H48C21.49 0 0 21.49 0 48v204.118a48 48 0 0014.059 33.941l211.882 211.882c18.744 18.745 49.136 18.746 67.882 0l204.118-204.118c18.745-18.745 18.745-49.137 0-67.882zM112 160c-26.51 0-48-21.49-48-48s21.49-48 48-48 48 21.49 48 48-21.49 48-48 48zm513.941 133.823L421.823 497.941c-18.745 18.745-49.137 18.745-67.882 0l-.36-.36L527.64 323.522c16.999-16.999 26.36-39.6 26.36-63.64s-9.362-46.641-26.36-63.64L331.397 0h48.721a48 48 0 0133.941 14.059l211.882 211.882c18.745 18.745 18.745 49.137 0 67.882z"/></symbol><symbol class="ddsvg-inline--fa ddfa-times ddfa-w-10" viewBox="0 0 320 512" id="times" xmlns="http://www.w3.org/2000/svg"><path fill="currentColor" d="M193.94 256L296.5 153.44l21.15-21.15c3.12-3.12 3.12-8.19 0-11.31l-22.63-22.63c-3.12-3.12-8.19-3.12-11.31 0L160 222.06 36.29 98.34c-3.12-3.12-8.19-3.12-11.31 0L2.34 120.97c-3.12 3.12-3.12 8.19 0 11.31L126.06 256 2.34 379.71c-3.12 3.12-3.12 8.19 0 11.31l22.63 22.63c3.12 3.12 8.19 3.12 11.31 0L160 289.94 262.56 392.5l21.15 21.15c3.12 3.12 8.19 3.12 11.31 0l22.63-22.63c3.12-3.12 3.12-8.19 0-11.31L193.94 256z"/></symbol><symbol class="desvg-inline--fa defa-times-circle defa-w-16" viewBox="0 0 512 512" id="times-circle" xmlns="http://www.w3.org/2000/svg"><path fill="currentColor" d="M256 8C119 8 8 119 8 256s111 248 248 248 248-111 248-248S393 8 256 8zm0 464c-118.7 0-216-96.1-216-216 0-118.7 96.1-216 216-216 118.7 0 216 96.1 216 216 0 118.7-96.1 216-216 216zm94.8-285.3L281.5 256l69.3 69.3c4.7 4.7 4.7 12.3 0 17l-8.5 8.5c-4.7 4.7-12.3 4.7-17 0L256 281.5l-69.3 69.3c-4.7 4.7-12.3 4.7-17 0l-8.5-8.5c-4.7-4.7-4.7-12.3 0-17l69.3-69.3-69.3-69.3c-4.7-4.7-4.7-12.3 0-17l8.5-8.5c4.7-4.7 12.3-4.7 17 0l69.3 69.3 69.3-69.3c4.7-4.7 12.3-4.7 17 0l8.5 8.5c4.6 4.7 4.6 12.3 0 17z"/></symbol><symbol class="dfsvg-inline--fa dffa-times-circle dffa-w-16" viewBox="0 0 512 512" id="times-circle-solid" xmlns="http://www.w3.org/2000/svg"><path fill="currentColor" d="M256 8C119 8 8 119 8 256s111 248 248 248 248-111 248-248S393 8 256 8zm121.6 313.1c4.7 4.7 4.7 12.3 0 17L338 377.6c-4.7 4.7-12.3 4.7-17 0L256 312l-65.1 65.6c-4.7 4.7-12.3 4.7-17 0L134.4 338c-4.7-4.7-4.7-12.3 0-17l65.6-65-65.6-65.1c-4.7-4.7-4.7-12.3 0-17l39.6-39.6c4.7-4.7 12.3-4.7 17 0l65 65.7 65.1-65.6c4.7-4.7 12.3-4.7 17 0l39.6 39.6c4.7 4.7 4.7 12.3 0 17L312 256l65.6 65.1z"/></symbol><symbol class="dgsvg-inline--fa dgfa-toggle-off dgfa-w-18" viewBox="0 0 576 512" id="toggle-off" xmlns="http://www.w3.org/2000/svg"><path fill="currentColor" d="M384 96c42.738 0 82.917 16.643 113.137 46.863S544 213.262 544 256s-16.643 82.917-46.863 113.137S426.738 416 384 416H192c-42.738 0-82.917-16.643-113.137-46.863S32 298.738 32 256s16.643-82.917 46.863-113.137S149.262 96 192 96h192m0-32H192C85.961 64 0 149.961 0 256s85.961 192 192 192h192c106.039 0 192-85.961 192-192S490.039 64 384 64zm-192 96c52.935 0 96 43.065 96 96s-43.065 96-96 96-96-43.065-96-96 43.065-96 96-96m0-32c-70.692 0-128 57.307-128 128s57.308 128 128 128 128-57.307 128-128-57.308-128-128-128z"/></symbol><symbol class="dhsvg-inline--fa dhfa-toggle-on dhfa-w-18" viewBox="0 0 576 512" id="toggle-on" xmlns="http://www.w3.org/2000/svg"><path fill="currentColor" d="M384 64H192C86 64 0 150 0 256s86 192 192 192h192c106 0 192-86 192-192S490 64 384 64zm0 320c-70.8 0-128-57.3-128-128 0-70.8 57.3-128 128-128 70.8 0 128 57.3 128 128 0 70.8-57.3 128-128 128z"/></symbol><symbol class="disvg-inline--fa difa-twitter difa-w-16" viewBox="0 0 512 512" id="twitter" xmlns="http://www.w3.org/2000/svg"><path fill="currentColor" d="M459.37 151.716c.325 4.548.325 9.097.325 13.645 0 138.72-105.583 298.558-298.558 298.558-59.452 0-114.68-17.219-161.137-47.106 8.447.974 16.568 1.299 25.34 1.299 49.055 0 94.213-16.568 130.274-44.832-46.132-.975-84.792-31.188-98.112-72.772 6.498.974 12.995 1.624 19.818 1.624 9.421 0 18.843-1.3 27.614-3.573-48.081-9.747-84.143-51.98-84.143-102.985v-1.299c13.969 7.797 30.214 12.67 47.431 13.319-28.264-18.843-46.781-51.005-46.781-87.391 0-19.492 5.197-37.36 14.294-52.954 51.655 63.675 129.3 105.258 216.365 109.807-1.624-7.797-2.599-15.918-2.599-24.04 0-57.828 46.782-104.934 104.934-104.934 30.213 0 57.502 12.67 76.67 33.137 23.715-4.548 46.456-13.32 66.599-25.34-7.798 24.366-24.366 44.833-46.132 57.827 21.117-2.273 41.584-8.122 60.426-16.243-14.292 20.791-32.161 39.308-52.628 54.253z"/></symbol><symbol class="djsvg-inline--fa djfa-user-circle djfa-w-16" viewBox="0 0 496 512" id="user-circle" xmlns="http://www.w3.org/2000/svg"><path fill="currentColor" d="M248 8C111 8 0 119 0 256s111 248 248 248 248-111 248-248S385 8 248 8zm128 421.6c-35.9 26.5-80.1 42.4-128 42.4s-92.1-15.9-128-42.4V416c0-35.3 28.7-64 64-64 11.1 0 27.5 11.4 64 11.4 36.6 0 52.8-11.4 64-11.4 35.3 0 64 28.7 64 64v13.6zm30.6-27.5c-6.8-46.4-46.3-82.1-94.6-82.1-20.5 0-30.4 11.4-64 11.4S204.6 320 184 320c-48.3 0-87.8 35.7-94.6 82.1C53.9 363.6 32 312.4 32 256c0-119.1 96.9-216 216-216s216 96.9 216 216c0 56.4-21.9 107.6-57.4 146.1zM248 120c-48.6 0-88 39.4-88 88s39.4 88 88 88 88-39.4 88-88-39.4-88-88-88zm0 144c-30.9 0-56-25.1-56-56s25.1-56 56-56 56 25.1 56 56-25.1 56-56 56z"/></symbol><symbol class="dksvg-inline--fa dkfa-user-circle dkfa-w-16" viewBox="0 0 496 512" id="user-circle-solid" xmlns="http://www.w3.org/2000/svg"><path fill="currentColor" d="M248 8C111 8 0 119 0 256s111 248 248 248 248-111 248-248S385 8 248 8zm0 96c48.6 0 88 39.4 88 88s-39.4 88-88 88-88-39.4-88-88 39.4-88 88-88zm0 344c-58.7 0-111.3-26.6-146.5-68.2 18.8-35.4 55.6-59.8 98.5-59.8 2.4 0 4.8.4 7.1 1.1 13 4.2 26.6 6.9 40.9 6.9 14.3 0 28-2.7 40.9-6.9 2.3-.7 4.7-1.1 7.1-1.1 42.9 0 79.7 24.4 98.5 59.8C359.3 421.4 306.7 448 248 448z"/></symbol><symbol class="dlsvg-inline--fa dlfa-user dlfa-w-14" viewBox="0 0 448 512" id="user-solid" xmlns="http://www.w3.org/2000/svg"><path fill="currentColor" d="M224 256c70.7 0 128-57.3 128-128S294.7 0 224 0 96 57.3 96 128s57.3 128 128 128zm89.6 32h-16.7c-22.2 10.2-46.9 16-72.9 16s-50.6-5.8-72.9-16h-16.7C60.2 288 0 348.2 0 422.4V464c0 26.5 21.5 48 48 48h352c26.5 0 48-21.5 48-48v-41.6c0-74.2-60.2-134.4-134.4-134.4z"/></symbol><symbol viewBox="0 0 51 48" id="video" xmlns="http://www.w3.org/2000/svg"><path d="M45 47.5H6.1C3 47.5.5 45 .5 41.9V6.1C.5 3 3 .5 6.1.5H45c3.1 0 5.6 2.5 5.6 5.6v35.8c0 3.1-2.5 5.6-5.6 5.6zM6.1 3.5c-1.4 0-2.6 1.2-2.6 2.6v35.8c0 1.4 1.2 2.6 2.6 2.6H45c1.4 0 2.6-1.2 2.6-2.6V6.1c0-1.4-1.2-2.6-2.6-2.6H6.1zm24.6 39.9c-2.1 0-3.5-1.5-3.5-3.5v-.5h-19c-.8 0-1.5-.7-1.5-1.5s.7-1.5 1.5-1.5h19v-.5c0-2.1 1.5-3.5 3.5-3.5s3.5 1.5 3.5 3.5v.5H43c.8 0 1.5.7 1.5 1.5s-.7 1.5-1.5 1.5h-8.7v.5c-.1 2-1.5 3.5-3.6 3.5zm-.6-5.6v2c0 .4.1.5.5.5s.5-.1.5-.5v-4.1c0-.4-.1-.5-.5-.5s-.5.1-.5.5v2.1zm-9.9-7.5c-.5 0-.9-.1-1.3-.4-.8-.5-1.3-1.3-1.3-2.3V13.7c0-1 .6-1.9 1.4-2.4.9-.5 1.9-.4 2.6.1l12 6.9c.8.4 1.4 1.3 1.4 2.3 0 1-.6 1.9-1.4 2.4l-12 6.9h-.1c-.4.3-.9.4-1.3.4zm.6-1.6zm.1-1.1zm-.2-13.3V27l11-6.3-11-6.4zM32.2 21zm0-.6zm-12.4-6.6z"/></symbol><symbol class="dnsvg-inline--fa dnfa-volume-slash dnfa-w-20" viewBox="0 0 640 512" id="volume-muted-solid" xmlns="http://www.w3.org/2000/svg"><path fill="currentColor" d="M633.82 458.1l-69-53.33C592.42 360.8 608 309.68 608 256c0-95.33-47.73-183.58-127.65-236.03-11.17-7.33-26.18-4.24-33.51 6.95-7.34 11.17-4.22 26.18 6.95 33.51 66.27 43.49 105.82 116.6 105.82 195.58 0 42.78-11.96 83.59-33.22 119.06l-38.12-29.46C503.49 318.68 512 288.06 512 256c0-63.09-32.06-122.09-85.77-156.16-11.19-7.09-26.03-3.8-33.12 7.41-7.09 11.2-3.78 26.03 7.41 33.13C440.27 165.59 464 209.44 464 256c0 21.21-5.03 41.57-14.2 59.88l-39.56-30.58c3.38-9.35 5.76-19.07 5.76-29.3 0-31.88-17.53-61.33-45.77-76.88-11.58-6.33-26.19-2.16-32.61 9.45-6.39 11.61-2.16 26.2 9.45 32.61 11.76 6.46 19.12 18.18 20.4 31.06L288 190.82V88.02c0-21.46-25.96-31.98-40.97-16.97l-49.71 49.7L45.47 3.37C38.49-2.05 28.43-.8 23.01 6.18L3.37 31.45C-2.05 38.42-.8 48.47 6.18 53.9l588.36 454.73c6.98 5.43 17.03 4.17 22.46-2.81l19.64-25.27c5.41-6.97 4.16-17.02-2.82-22.45zM32 184v144c0 13.25 10.74 24 24 24h102.06l88.97 88.95c15.03 15.03 40.97 4.47 40.97-16.97V352.6L43.76 163.84C36.86 168.05 32 175.32 32 184z"/></symbol><symbol class="dosvg-inline--fa dofa-volume-up dofa-w-18" viewBox="0 0 576 512" id="volume-up-solid" xmlns="http://www.w3.org/2000/svg"><path fill="currentColor" d="M215.03 71.05L126.06 160H24c-13.26 0-24 10.74-24 24v144c0 13.25 10.74 24 24 24h102.06l88.97 88.95c15.03 15.03 40.97 4.47 40.97-16.97V88.02c0-21.46-25.96-31.98-40.97-16.97zm233.32-51.08c-11.17-7.33-26.18-4.24-33.51 6.95-7.34 11.17-4.22 26.18 6.95 33.51 66.27 43.49 105.82 116.6 105.82 195.58 0 78.98-39.55 152.09-105.82 195.58-11.17 7.32-14.29 22.34-6.95 33.5 7.04 10.71 21.93 14.56 33.51 6.95C528.27 439.58 576 351.33 576 256S528.27 72.43 448.35 19.97zM480 256c0-63.53-32.06-121.94-85.77-156.24-11.19-7.14-26.03-3.82-33.12 7.46s-3.78 26.21 7.41 33.36C408.27 165.97 432 209.11 432 256s-23.73 90.03-63.48 115.42c-11.19 7.14-14.5 22.07-7.41 33.36 6.51 10.36 21.12 15.14 33.12 7.46C447.94 377.94 480 319.54 480 256zm-141.77-76.87c-11.58-6.33-26.19-2.16-32.61 9.45-6.39 11.61-2.16 26.2 9.45 32.61C327.98 228.28 336 241.63 336 256c0 14.38-8.02 27.72-20.92 34.81-11.61 6.41-15.84 21-9.45 32.61 6.43 11.66 21.05 15.8 32.61 9.45 28.23-15.55 45.77-45 45.77-76.88s-17.54-61.32-45.78-76.86z"/></symbol></svg>