<?xml version="1.0" encoding="utf-8"?><svg xmlns="http://www.w3.org/2000/svg" xmlns:xlink="http://www.w3.org/1999/xlink"><symbol viewBox="0 0 448 512" id="angle-down" xmlns="http://www.w3.org/2000/svg"><path d="m224 397.3 22.6-22.6 160-160 22.7-22.7-45.3-45.3-22.6 22.6L224 306.7 86.6 169.4 64 146.7 18.7 192l22.6 22.6 160 160 22.7 22.7z" style="filter:var(--icon-filter)"/></symbol><symbol viewBox="0 0 256 512" id="angle-left" xmlns="http://www.w3.org/2000/svg"><path d="m18.7 256 22.6 22.6 160 160 22.7 22.7 45.3-45.3-22.6-22.6L109.3 256l137.3-137.4L269.3 96 224 50.7l-22.6 22.7-160 160L18.7 256z" style="filter:var(--icon-filter)"/></symbol><symbol viewBox="0 0 256 512" id="angle-right" xmlns="http://www.w3.org/2000/svg"><path d="m301.3 256-22.6 22.6-160 160L96 461.3 50.7 416l22.6-22.6L210.7 256 73.4 118.6 50.7 96 96 50.7l22.6 22.6 160 160 22.7 22.7z" style="filter:var(--icon-filter)"/></symbol><symbol viewBox="0 0 448 512" id="angle-up" xmlns="http://www.w3.org/2000/svg"><path d="m224 114.7 22.6 22.6 160 160 22.7 22.7-45.3 45.3-22.6-22.6L224 205.3 86.6 342.6 64 365.3 18.7 320l22.6-22.6 160-160 22.7-22.7z" style="filter:var(--icon-filter)"/></symbol><symbol viewBox="0 0 90 89" id="applepodcasts" xmlns="http://www.w3.org/2000/svg"><path fill-rule="evenodd" clip-rule="evenodd" d="M45 34.344a6.784 6.784 0 1 0 0 13.568 6.784 6.784 0 0 0 0-13.568Zm-13.568 6.784c0-7.493 6.074-13.567 13.567-13.567s13.568 6.074 13.568 13.567-6.075 13.568-13.568 13.568c-7.493 0-13.567-6.075-13.567-13.568Z"/><path fill-rule="evenodd" clip-rule="evenodd" d="M38.288 54.696a3.418 3.418 0 0 0-3.356 4.218l5.161 20.324a3.476 3.476 0 0 0 3.38 2.593h3.053a3.477 3.477 0 0 0 3.38-2.593l5.162-20.324a3.418 3.418 0 0 0-3.356-4.218H38.288Zm.05-6.784a10.2 10.2 0 0 0-9.992 12.628l.007.028 5.168 20.35.005.02a10.26 10.26 0 0 0 9.972 7.677h3.004a10.261 10.261 0 0 0 9.972-7.677l.005-.02 5.168-20.35.007-.028a10.2 10.2 0 0 0-9.992-12.628H38.337Z"/><path fill-rule="evenodd" clip-rule="evenodd" d="M45 20.806a23.743 23.743 0 0 0-22.879 30.091 3.392 3.392 0 1 1-6.536 1.814 30.527 30.527 0 1 1 58.83 0 3.392 3.392 0 1 1-6.536-1.813A23.743 23.743 0 0 0 45 20.806Z"/><path fill-rule="evenodd" clip-rule="evenodd" d="M45 7.215A37.31 37.31 0 0 0 24.256 75.54a3.392 3.392 0 1 1-3.771 5.64 44.095 44.095 0 1 1 49.027 0 3.392 3.392 0 0 1-3.771-5.64A37.31 37.31 0 0 0 44.999 7.215Z"/></symbol><symbol viewBox="0 0 448 512" id="arrow-down" xmlns="http://www.w3.org/2000/svg"><path d="M214.6 454.6 192 477.3l-22.6-22.6-144-144L2.7 288 48 242.8l22.6 22.6 89.4 89.4V32h64v322.7l89.4-89.4 22.6-22.5 45.3 45.2-22.6 22.6-144 144z" style="filter:var(--icon-filter)"/></symbol><symbol viewBox="0 0 448 512" id="arrow-left" xmlns="http://www.w3.org/2000/svg"><path d="M25.4 278.6 2.7 256l22.6-22.6 144-144L192 66.7l45.2 45.3-22.6 22.6-89.4 89.4H448v64H125.3l89.4 89.4 22.5 22.6-45.2 45.3-22.6-22.6-144-144z" style="filter:var(--icon-filter)"/></symbol><symbol viewBox="0 0 448 512" id="arrow-right" xmlns="http://www.w3.org/2000/svg"><path d="m422.6 278.6 22.7-22.6-22.6-22.6-144-144L256 66.7 210.8 112l22.6 22.6 89.4 89.4H0v64h322.7l-89.4 89.4-22.5 22.6 45.2 45.3 22.6-22.6 144-144z" style="filter:var(--icon-filter)"/></symbol><symbol viewBox="0 0 448 512" id="arrow-up" xmlns="http://www.w3.org/2000/svg"><path d="M214.6 57.4 192 34.7l-22.6 22.7-144 144L2.7 224 48 269.2l22.6-22.6 89.4-89.4V480h64V157.3l89.4 89.4 22.6 22.5 45.3-45.2-22.6-22.6-144-144z" style="filter:var(--icon-filter)"/></symbol><symbol viewBox="0 0 51 47" style="enable-background:new 0 0 51 47" xml:space="preserve" id="article" xmlns="http://www.w3.org/2000/svg"><path d="M27 46.5h-4.5c-.8 0-1.5-.7-1.5-1.5s.7-1.5 1.5-1.5H27c.8 0 1.5.7 1.5 1.5s-.7 1.5-1.5 1.5zm-12 0H2c-.8 0-1.5-.7-1.5-1.5s.7-1.5 1.5-1.5h13c.8 0 1.5.7 1.5 1.5s-.7 1.5-1.5 1.5zm34-11.1H2c-.8 0-1.5-.7-1.5-1.5s.7-1.5 1.5-1.5h47c.8 0 1.5.7 1.5 1.5s-.7 1.5-1.5 1.5zm0-11.1H33.5c-.8 0-1.5-.7-1.5-1.5s.7-1.5 1.5-1.5H49c.8 0 1.5.7 1.5 1.5s-.7 1.5-1.5 1.5zm-26.3 0H3.3c-1.6 0-2.8-1.2-2.8-2.8V3C.5 1.4 1.7.2 3.3.2h19.4c1.6 0 2.8 1.2 2.8 2.8v18.5c-.1 1.6-1.2 2.8-2.8 2.8zm-19.2-3h18.9v-18H3.5v18zM49 13.2H33.5c-.8 0-1.5-.7-1.5-1.5s.7-1.5 1.5-1.5H49c.8 0 1.5.7 1.5 1.5s-.7 1.5-1.5 1.5zm0-9.9H33.5c-.8 0-1.5-.7-1.5-1.5S32.7.3 33.5.3H49c.8 0 1.5.7 1.5 1.5s-.7 1.5-1.5 1.5z"/></symbol><symbol viewBox="0 0 512 512" id="at" xmlns="http://www.w3.org/2000/svg"><!--! Font Awesome Pro 6.7.2 by @fontawesome - https://fontawesome.com License - https://fontawesome.com/license (Commercial License) Copyright 2024 Fonticons, Inc.--><path d="M256 64C150 64 64 150 64 256s86 192 192 192h32v64h-32C114.6 512 0 397.4 0 256S114.6 0 256 0s256 114.6 256 256v128h-72c-36 0-68.2-15.8-90.2-40.9C326.4 368.3 293 384 256 384c-70.7 0-128-57.3-128-128s57.3-128 128-128c32.5 0 62.1 12.1 84.7 32H384v104c0 30.9 25.1 56 56 56h8v-64c0-106-86-192-192-192zm64 192a64 64 0 1 0-128 0 64 64 0 1 0 128 0z"/></symbol><symbol viewBox="0 0 448 512" id="bell" xmlns="http://www.w3.org/2000/svg"><!--! Font Awesome Pro 6.7.2 by @fontawesome - https://fontawesome.com License - https://fontawesome.com/license (Commercial License) Copyright 2024 Fonticons, Inc.--><path d="M256 0h-64v51.2C119 66 64 130.6 64 208v88L0 368v48h448v-48l-64-72v-88c0-77.4-55-142-128-156.8V0zm32 448H160c0 17 6.7 33.3 18.7 45.3S207 512 224 512s33.3-6.7 45.3-18.7S288 465 288 448z"/></symbol><symbol viewBox="0 0 448 512" id="bolt" xmlns="http://www.w3.org/2000/svg"><!--! Font Awesome Pro 6.7.2 by @fontawesome - https://fontawesome.com License - https://fontawesome.com/license (Commercial License) Copyright 2024 Fonticons, Inc.--><path d="M16 288 320 0l-59.3 197.6L432 224 128 512l59.3-197.6L16 288z"/></symbol><symbol viewBox="0 0 384 512" id="bookmark" xmlns="http://www.w3.org/2000/svg"><!--! Font Awesome Pro 6.7.2 by @fontawesome - https://fontawesome.com License - https://fontawesome.com/license (Commercial License) Copyright 2024 Fonticons, Inc.--><path d="m0 512 192-112 192 112V0H0v512z"/></symbol><symbol viewBox="0 0 384 512" id="bookmark-solid" xmlns="http://www.w3.org/2000/svg"><path d="M0 512V48C0 21.49 21.49 0 48 0h288c26.51 0 48 21.49 48 48v464L192 400 0 512z"/></symbol><symbol viewBox="0 0 448 512" id="calendar" xmlns="http://www.w3.org/2000/svg"><!--! Font Awesome Pro 6.7.2 by @fontawesome - https://fontawesome.com License - https://fontawesome.com/license (Commercial License) Copyright 2024 Fonticons, Inc.--><path d="M96 0v64H0v96h448V64h-96V0h-64v64H160V0H96zm352 192H0v320h448V192z"/></symbol><symbol viewBox="0 0 448 512" id="calendar-lines" xmlns="http://www.w3.org/2000/svg"><!--! Font Awesome Pro 6.7.2 by @fontawesome - https://fontawesome.com License - https://fontawesome.com/license (Commercial License) Copyright 2024 Fonticons, Inc.--><path d="M96 0v64H0v96h448V64h-96V0h-64v64H160V0H96zm352 192H0v320h448V192zM96 272h256v48H96v-48zm160 96v48H96v-48h160z"/></symbol><symbol viewBox="0 0 512 512" id="camera" xmlns="http://www.w3.org/2000/svg"><!--! Font Awesome Pro 6.7.2 by @fontawesome - https://fontawesome.com License - https://fontawesome.com/license (Commercial License) Copyright 2024 Fonticons, Inc.--><path d="m160 32-21.3 64H0v384h512V96H373.3L352 32H160zm96 160a96 96 0 1 1 0 192 96 96 0 1 1 0-192z"/></symbol><symbol viewBox="0 0 640 640" id="camera-solid" xmlns="http://www.w3.org/2000/svg"><!--!Font Awesome Pro v7.0.0 by @fontawesome - https://fontawesome.com License - https://fontawesome.com/license (Commercial License) Copyright 2025 Fonticons, Inc.--><path d="m224 96-32 64H64v384h512V160H448l-32-64H224zm96 160c53 0 96 43 96 96s-43 96-96 96-96-43-96-96 43-96 96-96z"/></symbol><symbol viewBox="0 0 512 512" id="chart-bar" xmlns="http://www.w3.org/2000/svg"><!--! Font Awesome Pro 6.7.2 by @fontawesome - https://fontawesome.com License - https://fontawesome.com/license (Commercial License) Copyright 2024 Fonticons, Inc.--><path d="M64 32v384h448v64H0V32h64zm64 64h256v64H128V96zm32 96h160v64H128v-64h32zm0 96h288v64H128v-64h32z"/></symbol><symbol viewBox="0 0 448 512" id="check" xmlns="http://www.w3.org/2000/svg"><!--! Font Awesome Pro 6.7.2 by @fontawesome - https://fontawesome.com License - https://fontawesome.com/license (Commercial License) Copyright 2024 Fonticons, Inc.--><path d="m447.9 142.5-23.2 22L181 395.3l-22 20.8-22-20.8L23.2 287.6 0 265.6l44-46.5 23.2 22L159 328l221.7-210 23.2-22 44 46.5z"/></symbol><symbol class="avsvg-inline--fa avfa-check-circle avfa-w-16" viewBox="0 0 512 512" id="check-circle" xmlns="http://www.w3.org/2000/svg"><path d="M256 8C119.033 8 8 119.033 8 256s111.033 248 248 248 248-111.033 248-248S392.967 8 256 8zm0 464c-118.664 0-216-96.055-216-216 0-118.663 96.055-216 216-216 118.664 0 216 96.055 216 216 0 118.663-96.055 216-216 216zm141.63-274.961L217.15 376.071c-4.705 4.667-12.303 4.637-16.97-.068l-85.878-86.572c-4.667-4.705-4.637-12.303.068-16.97l8.52-8.451c4.705-4.667 12.303-4.637 16.97.068l68.976 69.533 163.441-162.13c4.705-4.667 12.303-4.637 16.97.068l8.451 8.52c4.668 4.705 4.637 12.303-.068 16.97z"/></symbol><symbol class="ausvg-inline--fa aufa-check-circle aufa-w-16" viewBox="0 0 512 512" id="check-circle-solid" xmlns="http://www.w3.org/2000/svg"><path d="M504 256c0 136.967-111.033 248-248 248S8 392.967 8 256 119.033 8 256 8s248 111.033 248 248zM227.314 387.314l184-184c6.248-6.248 6.248-16.379 0-22.627l-22.627-22.627c-6.248-6.249-16.379-6.249-22.628 0L216 308.118l-70.059-70.059c-6.248-6.248-16.379-6.248-22.628 0l-22.627 22.627c-6.248 6.248-6.248 16.379 0 22.627l104 104c6.249 6.249 16.379 6.249 22.628.001z"/></symbol><symbol viewBox="0 0 512 512" id="check-solid" xmlns="http://www.w3.org/2000/svg"><path d="m173.898 439.404-166.4-166.4c-9.997-9.997-9.997-26.206 0-36.204l36.203-36.204c9.997-9.998 26.207-9.998 36.204 0L192 312.69 432.095 72.596c9.997-9.997 26.207-9.997 36.204 0l36.203 36.204c9.997 9.997 9.997 26.206 0 36.204l-294.4 294.401c-9.998 9.997-26.207 9.997-36.204-.001z"/></symbol><symbol class="aysvg-inline--fa ayfa-check-square ayfa-w-14" viewBox="0 0 448 512" id="check-square" xmlns="http://www.w3.org/2000/svg"><path d="M400 32H48C21.49 32 0 53.49 0 80v352c0 26.51 21.49 48 48 48h352c26.51 0 48-21.49 48-48V80c0-26.51-21.49-48-48-48zm0 32c8.823 0 16 7.178 16 16v352c0 8.822-7.177 16-16 16H48c-8.822 0-16-7.178-16-16V80c0-8.822 7.178-16 16-16h352m-34.301 98.293-8.451-8.52c-4.667-4.705-12.265-4.736-16.97-.068l-163.441 162.13-68.976-69.533c-4.667-4.705-12.265-4.736-16.97-.068l-8.52 8.451c-4.705 4.667-4.736 12.265-.068 16.97l85.878 86.572c4.667 4.705 12.265 4.736 16.97.068l180.48-179.032c4.704-4.667 4.735-12.265.068-16.97z"/></symbol><symbol class="axsvg-inline--fa axfa-check-square axfa-w-14" viewBox="0 0 448 512" id="check-square-solid" xmlns="http://www.w3.org/2000/svg"><path d="M400 480H48c-26.51 0-48-21.49-48-48V80c0-26.51 21.49-48 48-48h352c26.51 0 48 21.49 48 48v352c0 26.51-21.49 48-48 48zm-204.686-98.059 184-184c6.248-6.248 6.248-16.379 0-22.627l-22.627-22.627c-6.248-6.248-16.379-6.249-22.628 0L184 302.745l-70.059-70.059c-6.248-6.248-16.379-6.248-22.628 0l-22.627 22.627c-6.248 6.248-6.248 16.379 0 22.627l104 104c6.249 6.25 16.379 6.25 22.628.001z"/></symbol><symbol viewBox="0 0 640 512" id="cherries" xmlns="http://www.w3.org/2000/svg"><!--! Font Awesome Pro 6.7.2 by @fontawesome - https://fontawesome.com License - https://fontawesome.com/license (Commercial License) Copyright 2024 Fonticons, Inc.--><path d="m288 40 12.5-20.5L269.1.3l-4.9 36.5v.1l-.1.8c-.1.7-.3 1.9-.6 3.5-.6 3.1-1.5 7.9-2.9 13.9-2.8 12.2-7.5 29.7-15.2 50.7-13.9 38.3-37.3 87.6-76 136.4-17.1-8.7-42.8-18.2-73.4-18.2 0 0-96 0-96 112 0 144 144 176 192 176s192-16 192-176c0-112-96-112-96-112-20.2 0-38.2 4.1-53.1 9.5 26.5-40.4 44.1-79.4 55.7-111.2 5.7-15.6 9.9-29.6 13.1-41.3 11.9 9.5 26.3 22.2 41 37.6 29.1 30.7 58.2 71.2 72.2 119.6-12-5.3-27-10.3-44.1-12.7C397.3 247.7 416 282.9 416 336c0 71.9-26.1 120.9-62.1 152.9 36.5 17.4 73.8 23.1 94.1 23.1 48 0 192-16 192-176 0-112-96-112-96-112-32.3 0-59.3 10.6-76.3 19.6-14.3-67.2-52.9-120.9-88.3-158.2-20.1-21-39.6-37.4-54.1-48.5-7.3-5.6-13.3-9.8-17.6-12.7-2.2-1.5-3.9-2.6-5.1-3.4-.6-.4-1.1-.7-1.4-.9l-.4-.3-.1-.1L288 40z"/></symbol><symbol viewBox="0 0 512 512" id="circle" xmlns="http://www.w3.org/2000/svg"><!--! Font Awesome Pro 6.7.2 by @fontawesome - https://fontawesome.com License - https://fontawesome.com/license (Commercial License) Copyright 2024 Fonticons, Inc.--><path d="M256 512a256 256 0 1 0 0-512 256 256 0 1 0 0 512z"/></symbol><symbol viewBox="0 0 512 512" id="circle-bookmark" xmlns="http://www.w3.org/2000/svg"><!--! Font Awesome Pro 6.7.2 by @fontawesome - https://fontawesome.com License - https://fontawesome.com/license (Commercial License) Copyright 2024 Fonticons, Inc.--><path d="M256 512a256 256 0 1 0 0-512 256 256 0 1 0 0 512zm-96-128V128h192v256l-96-64-96 64z"/></symbol><symbol viewBox="0 0 512 512" id="circle-camera" xmlns="http://www.w3.org/2000/svg"><!--! Font Awesome Pro 6.7.2 by @fontawesome - https://fontawesome.com License - https://fontawesome.com/license (Commercial License) Copyright 2024 Fonticons, Inc.--><path d="M256 512a256 256 0 1 0 0-512 256 256 0 1 0 0 512zm-60-352 12-32h96l12 32h68v192H128V160h68zm108 96a48 48 0 1 0-96 0 48 48 0 1 0 96 0z"/></symbol><symbol viewBox="0 0 512 512" id="circle-check" xmlns="http://www.w3.org/2000/svg"><!--! Font Awesome Pro 6.7.2 by @fontawesome - https://fontawesome.com License - https://fontawesome.com/license (Commercial License) Copyright 2024 Fonticons, Inc.--><path d="M256 512a256 256 0 1 0 0-512 256 256 0 1 0 0 512zm113-303L241 337l-17 17-17-17-64-64-17-17 34-33.9 17 17 47 47L335 175l17-17 33.9 34-17 17z"/></symbol><symbol viewBox="0 0 512 512" id="circle-dot" xmlns="http://www.w3.org/2000/svg"><!--! Font Awesome Pro 6.7.2 by @fontawesome - https://fontawesome.com License - https://fontawesome.com/license (Commercial License) Copyright 2024 Fonticons, Inc.--><path d="M256 512a256 256 0 1 0 0-512 256 256 0 1 0 0 512zm0-352a96 96 0 1 1 0 192 96 96 0 1 1 0-192z"/></symbol><symbol viewBox="0 0 512 512" id="circle-exclamation" xmlns="http://www.w3.org/2000/svg"><!--! Font Awesome Pro 6.7.2 by @fontawesome - https://fontawesome.com License - https://fontawesome.com/license (Commercial License) Copyright 2024 Fonticons, Inc.--><path d="M256 512a256 256 0 1 0 0-512 256 256 0 1 0 0 512zm24-384v160h-48V128h48zm-48 240v-48h48v48h-48z"/></symbol><symbol viewBox="0 0 512 512" id="circle-nodes" xmlns="http://www.w3.org/2000/svg"><!--! Font Awesome Pro 6.7.2 by @fontawesome - https://fontawesome.com License - https://fontawesome.com/license (Commercial License) Copyright 2024 Fonticons, Inc.--><path d="M418.4 157.9c35.3-8.3 61.6-40 61.6-77.9 0-44.2-35.8-80-80-80-43.4 0-78.7 34.5-80 77.5l-183.8 73.6C121.7 136.8 101.9 128 80 128c-44.2 0-80 35.8-80 80s35.8 80 80 80c12.2 0 23.8-2.7 34.1-7.6l145.6 127.4c-2.4 7.6-3.7 15.8-3.7 24.2 0 44.2 35.8 80 80 80s80-35.8 80-80c0-27.7-14-52.1-35.4-66.4l37.8-207.7zm-262.1 74.3c2.2-6.9 3.5-14.2 3.7-21.7L343.8 137c3.6 3.5 7.4 6.7 11.6 9.5l-37.8 207.6c-5.5 1.3-10.8 3.1-15.8 5.5L156.3 232.2z"/></symbol><symbol viewBox="0 0 512 512" id="circle-notch" xmlns="http://www.w3.org/2000/svg"><!--! Font Awesome Pro 6.7.2 by @fontawesome - https://fontawesome.com License - https://fontawesome.com/license (Commercial License) Copyright 2024 Fonticons, Inc.--><path d="M201.1 71.9C121.8 95.6 64 169.1 64 256c0 106 86 192 192 192s192-86 192-192c0-86.9-57.8-160.4-137.1-184.1l18.3-61.3C434.9 42.1 512 140 512 256c0 141.4-114.6 256-256 256S0 397.4 0 256C0 140 77.1 42.1 182.9 10.6l18.3 61.3z"/></symbol><symbol class="bisvg-inline--fa bifa-circle bifa-w-16" viewBox="0 0 512 512" id="circle-solid" xmlns="http://www.w3.org/2000/svg"><path d="M256 8C119 8 8 119 8 256s111 248 248 248 248-111 248-248S393 8 256 8z"/></symbol><symbol viewBox="0 0 512 512" id="circle-xmark" xmlns="http://www.w3.org/2000/svg"><!--! Font Awesome Pro 6.7.2 by @fontawesome - https://fontawesome.com License - https://fontawesome.com/license (Commercial License) Copyright 2024 Fonticons, Inc.--><path d="M256 512a256 256 0 1 0 0-512 256 256 0 1 0 0 512zm97.9-320-17 17-47 47 47 47 17 17-33.9 33.9-17-17-47-47-47 47-17 17-33.9-33.9 17-17 47-47-47-47-17-17 33.9-33.9 17 17 47 47 47-47 17-17 33.9 33.9z"/></symbol><symbol class="bnsvg-inline--fa bnfa-clock bnfa-w-16" viewBox="0 0 512 512" id="clock" xmlns="http://www.w3.org/2000/svg"><path d="M256 8C119 8 8 119 8 256s111 248 248 248 248-111 248-248S393 8 256 8zm216 248c0 118.7-96.1 216-216 216-118.7 0-216-96.1-216-216 0-118.7 96.1-216 216-216 118.7 0 216 96.1 216 216zm-148.9 88.3-81.2-59c-3.1-2.3-4.9-5.9-4.9-9.7V116c0-6.6 5.4-12 12-12h14c6.6 0 12 5.4 12 12v146.3l70.5 51.3c5.4 3.9 6.5 11.4 2.6 16.8l-8.2 11.3c-3.9 5.3-11.4 6.5-16.8 2.6z"/></symbol><symbol viewBox="0 0 512 512" id="clock-eight" xmlns="http://www.w3.org/2000/svg"><!--! Font Awesome Pro 6.7.2 by @fontawesome - https://fontawesome.com License - https://fontawesome.com/license (Commercial License) Copyright 2024 Fonticons, Inc.--><path d="M256 512a256 256 0 1 0 0-512 256 256 0 1 0 0 512zm24-392v148.8l-10.7 7.2-96 64-20 13.3-26.6-39.9 20-13.3 85.3-56.9V96h48v24z"/></symbol><symbol viewBox="0 0 512 512" id="clock-nine" xmlns="http://www.w3.org/2000/svg"><!--! Font Awesome Pro 6.7.2 by @fontawesome - https://fontawesome.com License - https://fontawesome.com/license (Commercial License) Copyright 2024 Fonticons, Inc.--><path d="M256 512a256 256 0 1 0 0-512 256 256 0 1 0 0 512zm24-392v160H128v-48h104V96h48v24z"/></symbol><symbol class="bpsvg-inline--fa bpfa-cog bpfa-w-16" viewBox="0 0 512 512" id="cog" xmlns="http://www.w3.org/2000/svg"><path d="m482.696 299.276-32.61-18.827a195.168 195.168 0 0 0 0-48.899l32.61-18.827c9.576-5.528 14.195-16.902 11.046-27.501-11.214-37.749-31.175-71.728-57.535-99.595-7.634-8.07-19.817-9.836-29.437-4.282l-32.562 18.798a194.125 194.125 0 0 0-42.339-24.48V38.049c0-11.13-7.652-20.804-18.484-23.367-37.644-8.909-77.118-8.91-114.77 0-10.831 2.563-18.484 12.236-18.484 23.367v37.614a194.101 194.101 0 0 0-42.339 24.48L105.23 81.345c-9.621-5.554-21.804-3.788-29.437 4.282-26.36 27.867-46.321 61.847-57.535 99.595-3.149 10.599 1.47 21.972 11.046 27.501l32.61 18.827a195.168 195.168 0 0 0 0 48.899l-32.61 18.827c-9.576 5.528-14.195 16.902-11.046 27.501 11.214 37.748 31.175 71.728 57.535 99.595 7.634 8.07 19.817 9.836 29.437 4.283l32.562-18.798a194.08 194.08 0 0 0 42.339 24.479v37.614c0 11.13 7.652 20.804 18.484 23.367 37.645 8.909 77.118 8.91 114.77 0 10.831-2.563 18.484-12.236 18.484-23.367v-37.614a194.138 194.138 0 0 0 42.339-24.479l32.562 18.798c9.62 5.554 21.803 3.788 29.437-4.283 26.36-27.867 46.321-61.847 57.535-99.595 3.149-10.599-1.47-21.972-11.046-27.501zm-65.479 100.461-46.309-26.74c-26.988 23.071-36.559 28.876-71.039 41.059v53.479a217.145 217.145 0 0 1-87.738 0v-53.479c-33.621-11.879-43.355-17.395-71.039-41.059l-46.309 26.74c-19.71-22.09-34.689-47.989-43.929-75.958l46.329-26.74c-6.535-35.417-6.538-46.644 0-82.079l-46.329-26.74c9.24-27.969 24.22-53.869 43.929-75.969l46.309 26.76c27.377-23.434 37.063-29.065 71.039-41.069V44.464a216.79 216.79 0 0 1 87.738 0v53.479c33.978 12.005 43.665 17.637 71.039 41.069l46.309-26.76c19.709 22.099 34.689 47.999 43.929 75.969l-46.329 26.74c6.536 35.426 6.538 46.644 0 82.079l46.329 26.74c-9.24 27.968-24.219 53.868-43.929 75.957zM256 160c-52.935 0-96 43.065-96 96s43.065 96 96 96 96-43.065 96-96-43.065-96-96-96zm0 160c-35.29 0-64-28.71-64-64s28.71-64 64-64 64 28.71 64 64-28.71 64-64 64z"/></symbol><symbol class="bosvg-inline--fa bofa-cog bofa-w-16" viewBox="0 0 512 512" id="cog-solid" xmlns="http://www.w3.org/2000/svg"><path d="m487.4 315.7-42.6-24.6c4.3-23.2 4.3-47 0-70.2l42.6-24.6c4.9-2.8 7.1-8.6 5.5-14-11.1-35.6-30-67.8-54.7-94.6-3.8-4.1-10-5.1-14.8-2.3L380.8 110c-17.9-15.4-38.5-27.3-60.8-35.1V25.8c0-5.6-3.9-10.5-9.4-11.7-36.7-8.2-74.3-7.8-109.2 0-5.5 1.2-9.4 6.1-9.4 11.7V75c-22.2 7.9-42.8 19.8-60.8 35.1L88.7 85.5c-4.9-2.8-11-1.9-14.8 2.3-24.7 26.7-43.6 58.9-54.7 94.6-1.7 5.4.6 11.2 5.5 14L67.3 221c-4.3 23.2-4.3 47 0 70.2l-42.6 24.6c-4.9 2.8-7.1 8.6-5.5 14 11.1 35.6 30 67.8 54.7 94.6 3.8 4.1 10 5.1 14.8 2.3l42.6-24.6c17.9 15.4 38.5 27.3 60.8 35.1v49.2c0 5.6 3.9 10.5 9.4 11.7 36.7 8.2 74.3 7.8 109.2 0 5.5-1.2 9.4-6.1 9.4-11.7v-49.2c22.2-7.9 42.8-19.8 60.8-35.1l42.6 24.6c4.9 2.8 11 1.9 14.8-2.3 24.7-26.7 43.6-58.9 54.7-94.6 1.5-5.5-.7-11.3-5.6-14.1zM256 336c-44.1 0-80-35.9-80-80s35.9-80 80-80 80 35.9 80 80-35.9 80-80 80z"/></symbol><symbol viewBox="0 0 512 512" id="comment" xmlns="http://www.w3.org/2000/svg"><!--! Font Awesome Pro 6.7.2 by @fontawesome - https://fontawesome.com License - https://fontawesome.com/license (Commercial License) Copyright 2024 Fonticons, Inc.--><path d="M256 448c141.4 0 256-93.1 256-208S397.4 32 256 32 0 125.1 0 240c0 49.6 21.3 95.1 56.9 130.8L16 480l150.4-45.1c27.9 8.5 58.1 13.1 89.6 13.1z"/></symbol><symbol viewBox="0 0 512 512" id="comment-dots" xmlns="http://www.w3.org/2000/svg"><!--! Font Awesome Pro 6.7.2 by @fontawesome - https://fontawesome.com License - https://fontawesome.com/license (Commercial License) Copyright 2024 Fonticons, Inc.--><path d="M512 240c0 114.9-114.6 208-256 208-31.5 0-61.7-4.6-89.6-13.1L16 480l40.9-109.2C21.3 335.1 0 289.6 0 240 0 125.1 114.6 32 256 32s256 93.1 256 208zm-384 32a32 32 0 1 0 0-64 32 32 0 1 0 0 64zm128 0a32 32 0 1 0 0-64 32 32 0 1 0 0 64zm160-32a32 32 0 1 0-64 0 32 32 0 1 0 64 0z"/></symbol><symbol class="brsvg-inline--fa brfa-comment brfa-w-16" viewBox="0 0 512 512" id="comment-solid" xmlns="http://www.w3.org/2000/svg"><path d="M256 32C114.6 32 0 125.1 0 240c0 49.6 21.4 95 57 130.7C44.5 421.1 2.7 466 2.2 466.5c-2.2 2.3-2.8 5.7-1.5 8.7S4.8 480 8 480c66.3 0 116-31.8 140.6-51.4 32.7 12.3 69 19.4 107.4 19.4 141.4 0 256-93.1 256-208S397.4 32 256 32z"/></symbol><symbol viewBox="0 0 640 512" id="comments" xmlns="http://www.w3.org/2000/svg"><!--! Font Awesome Pro 6.7.2 by @fontawesome - https://fontawesome.com License - https://fontawesome.com/license (Commercial License) Copyright 2024 Fonticons, Inc.--><path d="M416 176c0 97.2-93.1 176-208 176-36.2 0-70.3-7.8-99.9-21.6L0 352l37.6-75.1C13.9 248.3 0 213.5 0 176 0 78.8 93.1 0 208 0s208 78.8 208 176zm32 0c0-5.2-.2-10.4-.6-15.5C555.1 167.1 640 243.2 640 336c0 37.5-13.9 72.3-37.6 100.9L640 512l-108.1-21.6C502.3 504.2 468.2 512 432 512c-95.6 0-176.2-54.6-200.5-129C348.9 372.9 448 288.3 448 176z"/></symbol><symbol class="btsvg-inline--fa btfa-comments btfa-w-18" viewBox="0 0 576 512" id="comments-solid" xmlns="http://www.w3.org/2000/svg"><path d="M416 192c0-88.4-93.1-160-208-160S0 103.6 0 192c0 34.3 14.1 65.9 38 92-13.4 30.2-35.5 54.2-35.8 54.5-2.2 2.3-2.8 5.7-1.5 8.7S4.8 352 8 352c36.6 0 66.9-12.3 88.7-25 32.2 15.7 70.3 25 111.3 25 114.9 0 208-71.6 208-160zm122 220c23.9-26 38-57.7 38-92 0-66.9-53.5-124.2-129.3-148.1.9 6.6 1.3 13.3 1.3 20.1 0 105.9-107.7 192-240 192-10.8 0-21.3-.8-31.7-1.9C207.8 439.6 281.8 480 368 480c41 0 79.1-9.2 111.3-25 21.8 12.7 52.1 25 88.7 25 3.2 0 6.1-1.9 7.3-4.8 1.3-2.9.7-6.3-1.5-8.7-.3-.3-22.4-24.2-35.8-54.5z"/></symbol><symbol viewBox="0 0 512 512" id="cookie-bite" xmlns="http://www.w3.org/2000/svg"><!--! Font Awesome Pro 6.7.2 by @fontawesome - https://fontawesome.com License - https://fontawesome.com/license (Commercial License) Copyright 2024 Fonticons, Inc.--><path d="M256.8 22.1 213.9 16 81.7 86.7 16 222.1l26 148.3L149.8 475l148.3 21 132.3-70.7L496 289.9l-6.1-34.7c-61.5-6.7-109.9-57.1-113.7-119.5-62.4-3.7-112.7-52.1-119.4-113.6zM176 368l-32-32 32-32 32 32-32 32zm0-192 32-32 32 32-32 32-32-32zm192 160-32-32 32-32 32 32-32 32z"/></symbol><symbol viewBox="0 0 512 512" id="cookie-bite-solid" xmlns="http://www.w3.org/2000/svg"><!--!Font Awesome Free 6.5.2 by @fontawesome - https://fontawesome.com License - https://fontawesome.com/license/free Copyright 2024 Fonticons, Inc.--><path d="M510.5 255.8c-70-.9-126.5-57.7-126.5-127.9-70.2 0-127-56.5-127.9-126.5-27.3-4.1-55.1.3-79.7 12.8l-69.1 35.2a132.2 132.2 0 0 0-57.8 57.8l-35.1 68.9a132.6 132.6 0 0 0-12.8 81l12.1 76.3a132.5 132.5 0 0 0 37.2 73l54.8 54.8a132 132 0 0 0 72.7 37.1l76.7 12.2c27.5 4.4 55.7-.1 80.5-12.8l69.1-35.2a132.3 132.3 0 0 0 57.8-57.8l35.1-68.9c12.6-24.6 17-52.6 12.9-79.9zM176 368c-17.7 0-32-14.3-32-32s14.3-32 32-32 32 14.3 32 32-14.3 32-32 32zm32-160c-17.7 0-32-14.3-32-32s14.3-32 32-32 32 14.3 32 32-14.3 32-32 32zm160 128c-17.7 0-32-14.3-32-32s14.3-32 32-32 32 14.3 32 32-14.3 32-32 32z"/></symbol><symbol viewBox="0 0 448 512" id="copy" xmlns="http://www.w3.org/2000/svg"><!--! Font Awesome Pro 6.7.2 by @fontawesome - https://fontawesome.com License - https://fontawesome.com/license (Commercial License) Copyright 2024 Fonticons, Inc.--><path d="m352 0 96 96v288H160V0h192zM64 128h64v64H64v256h192v-32h64v96H0V128h64z"/></symbol><symbol viewBox="0 0 576 512" id="creditcard" xmlns="http://www.w3.org/2000/svg"><!--! Font Awesome Pro 6.7.2 by @fontawesome - https://fontawesome.com License - https://fontawesome.com/license (Commercial License) Copyright 2024 Fonticons, Inc.--><path d="M576 32H0v96h576V32zm0 192H0v256h576V224zM192 352v32H96v-32h96zm32 0h160v32H224v-32z"/></symbol><symbol class="bysvg-inline--fa byfa-credit-card byfa-w-18" viewBox="0 0 576 512" id="creditcard-solid" xmlns="http://www.w3.org/2000/svg"><path d="M0 432c0 26.5 21.5 48 48 48h480c26.5 0 48-21.5 48-48V256H0v176zm192-68c0-6.6 5.4-12 12-12h136c6.6 0 12 5.4 12 12v40c0 6.6-5.4 12-12 12H204c-6.6 0-12-5.4-12-12v-40zm-128 0c0-6.6 5.4-12 12-12h72c6.6 0 12 5.4 12 12v40c0 6.6-5.4 12-12 12H76c-6.6 0-12-5.4-12-12v-40zM576 80v48H0V80c0-26.5 21.5-48 48-48h480c26.5 0 48 21.5 48 48z"/></symbol><symbol viewBox="0 0 576 512" id="desktop" xmlns="http://www.w3.org/2000/svg"><!--! Font Awesome Pro 6.7.2 by @fontawesome - https://fontawesome.com License - https://fontawesome.com/license (Commercial License) Copyright 2024 Fonticons, Inc.--><path d="M576 0H0v416h240l-10.7 32H128v64h320v-64H346.7L336 416h240V0zm-64 64v224H64V64h448z"/></symbol><symbol viewBox="0 0 512 512" style="enable-background:new 0 0 512 512" xml:space="preserve" id="dot-circle" xmlns="http://www.w3.org/2000/svg"><path d="M256 8C119 8 8 119 8 256s111 248 248 248 248-111 248-248S393 8 256 8zm0 464c-118.7 0-216-96.1-216-216 0-118.7 96.1-216 216-216 118.7 0 216 96.1 216 216 0 118.7-96.1 216-216 216zm0-296c-44.2 0-80 35.8-80 80s35.8 80 80 80 80-35.8 80-80-35.8-80-80-80z"/></symbol><symbol viewBox="0 122.1 595.3 597.4" xml:space="preserve" id="ebplus" xmlns="http://www.w3.org/2000/svg"><path d="M237.4 122.1h120.5v238.5h237.4V481H357.9v238.5H237.4V481H0V360.5h237.4V122.1z"/></symbol><symbol viewBox="0 0 365 365" id="ebplus-black" xmlns="http://www.w3.org/2000/svg"><path style="fill:#000" d="M135 0h95v365h-95z"/><path style="fill:#ddd" d="M135 230v33.493L230 230h-95z"/><path transform="rotate(90 182.5 182.5)" style="fill:#000" d="M135 0h95v365h-95z"/></symbol><symbol viewBox="0 0 72.8 72.8" style="enable-background:new 0 0 72.8 72.8" xml:space="preserve" id="ebplus-circle-solid" xmlns="http://www.w3.org/2000/svg"><path d="M36.4 0C16.3 0 0 16.3 0 36.4s16.3 36.4 36.4 36.4 36.4-16.3 36.4-36.4S56.5 0 36.4 0zm20.1 41.9H42.2v14.2H30.6V41.9H16.3V31.4h14.2V17.2h11.7v14.1h14.2v10.6z"/></symbol><symbol viewBox="0 0 365 365" id="ebplus-white" xmlns="http://www.w3.org/2000/svg"><path style="fill:#fff" d="M135 0h95v365h-95z"/><path style="fill:#690000" d="M135 230v33.493L230 230h-95z"/><path transform="rotate(90 182.5 182.5)" style="fill:#fff" d="M135 0h95v365h-95z"/></symbol><symbol viewBox="0 0 365 365" id="ebplus-white-blackshadow" xmlns="http://www.w3.org/2000/svg"><path style="fill:#fff" d="M135 0h95v365h-95z"/><path style="fill:#333" d="M135 230v33.493L230 230h-95z"/><path transform="rotate(90 182.5 182.5)" style="fill:#fff" d="M135 0h95v365h-95z"/></symbol><symbol class="cesvg-inline--fa cefa-edit cefa-w-18" viewBox="0 0 576 512" id="edit" xmlns="http://www.w3.org/2000/svg"><path d="m417.8 315.5 20-20c3.8-3.8 10.2-1.1 10.2 4.2V464c0 26.5-21.5 48-48 48H48c-26.5 0-48-21.5-48-48V112c0-26.5 21.5-48 48-48h292.3c5.3 0 8 6.5 4.2 10.2l-20 20c-1.1 1.1-2.7 1.8-4.2 1.8H48c-8.8 0-16 7.2-16 16v352c0 8.8 7.2 16 16 16h352c8.8 0 16-7.2 16-16V319.7c0-1.6.6-3.1 1.8-4.2zm145.9-191.2L251.2 436.8l-99.9 11.1c-13.4 1.5-24.7-9.8-23.2-23.2l11.1-99.9L451.7 12.3c16.4-16.4 43-16.4 59.4 0l52.6 52.6c16.4 16.4 16.4 43 0 59.4zm-93.6 48.4L403.4 106 169.8 339.5l-8.3 75.1 75.1-8.3 233.5-233.6zm71-85.2-52.6-52.6c-3.8-3.8-10.2-4-14.1 0L426 83.3l66.7 66.7 48.4-48.4c3.9-3.8 3.9-10.2 0-14.1z"/></symbol><symbol viewBox="0 0 100 88" xml:space="preserve" id="ekstrabladet" xmlns="http://www.w3.org/2000/svg"><path fill="red" d="M0-.9h100V78l-49.5 9.5L0 77.6V-.9z"/><path fill="#FFF" d="M23 42.3H10.6v-4.5h9.8v-3.4h-9.8v-4.6h11.5v-3.3h-16v19.6h17zM39.7 46.1l-6-8.8 5-5.4h-4.8l-5.2 5.6v-11h-3.9v19.6h3.9v-3.9l2.3-2.3 3.8 6.2z"/><path fill="#FFF" d="M46.3 43.9c-2.4 0-3.1-.5-3.5-2h-3.7c0 3.1 2.5 4.9 6.7 4.9 4.7 0 7.5-1.8 7.5-4.8 0-2-1.6-3.7-3.6-4.1l-5.6-.9c-.6-.1-1.2-.7-1.2-1.4 0-.8.8-1.4 2.3-1.4 3 0 3.5.4 3.6 2h3.8v-.5c0-2.4-2.8-4.5-6.5-4.5-4.2 0-6.9 1.8-6.9 4.9 0 1.8 1.3 3.6 3 3.8l5.8 1c.8.1 1.3.5 1.3 1.2.1 1.2-.8 1.8-3 1.8zM56.5 42.6c0 2.6 1.7 4.2 4.7 4.2 1.1 0 2-.2 3.6-1v-1.9c-.7.1-1.7.1-2 .1-1.6 0-2.2-.6-2.2-1.8v-7.6h3.8V32h-3.8v-5.4h-2.9l-.1 1.2c-.6 3.8-.7 4.2-1.8 4.2h-2.5v2.6h3.4l-.2 8zM70.8 39.9c0-3.1 1.7-4.8 4.7-4.8h1.7v-3.6H76c-2.3 0-4.1 1.1-5.3 3.2V32h-3.8v14.2h4v-6.3zM91 41.5v-5.9c0-1.7-.2-2.3-1-2.8-1.3-1.1-3.4-1.6-5.8-1.6-4.3 0-6.3 1.4-6.6 4.8h3.7c.2-1.6 1-2 3-2 2.2 0 2.9.6 2.9 2.3 0 .7-.2 1-1.1 1.1l-4.1.5c-4.1.5-5.6 1.8-5.6 4.6 0 2.6 2 4.2 5.4 4.2 2.5 0 4.1-.8 5.5-2.9.8 2.2 1.8 2.9 3.7 2.9 1 0 1.8-.2 3.4-1.1v-1.8c-.8.1-1.4.1-1.7.1-1.2 0-1.7-.7-1.7-2.4zm-8 2.4c-1.4 0-2.3-.7-2.3-1.8 0-1.6.7-1.9 5.3-2.8l1.2-.2c0 3.2-1.3 4.8-4.2 4.8zM20.1 58.8c2.8-.6 4.2-2.2 4.2-4.4 0-2.6-2.4-4.7-5.5-4.7H6.1v19.5h12.5c3.7 0 6.4-2.2 6.4-5.3 0-2.7-1.6-4.2-4.9-5.1zm-9.5-6h5.9c2.3 0 3.1.6 3.1 2.3 0 1.8-.8 2.4-3.1 2.4h-5.9v-4.7zm5.9 12.9h-6v-5.3h6c2.4 0 3.5.8 3.5 2.6 0 2.1-.9 2.7-3.5 2.7zM26.9 49.8H31v19.5h-4.1zM47.4 64.9l-.1-6.9c-.1-2.3-2.5-3.6-6.6-3.6-5.1 0-6.9 1.2-7.1 4.8h3.8c.2-1.4.8-1.9 2.9-1.9 2.4 0 3.1.5 3.1 2.2 0 .7-.4 1-1.2 1.1-.2 0-1.9.1-4.1.5-3.8.5-5.4 1.8-5.4 4.6 0 2.6 1.9 4.2 5.3 4.2 2.6 0 4.1-.7 5.6-2.9.7 2 1.8 2.9 3.9 2.9 1 0 1.7-.2 2.9-.8v-2c-.5.1-.8.1-1.2.1-1.3-.1-1.8-.7-1.8-2.3zm-8 2.1c-1.7 0-2.5-.6-2.5-1.7 0-1.3 1-2 3.1-2.4 1.9-.2 1.8-.2 3.2-.6.1 3.1-1.2 4.7-3.8 4.7zM61.7 57.3c-1.3-1.9-2.8-2.8-4.9-2.8-3.8 0-6.7 3.2-6.7 7.6 0 4.8 2.5 7.8 6.6 7.8 2.3 0 3.4-.6 5.2-2.8v2.3h3.9V49.8h-4v7.5zm-4.1 9.8c-2.4 0-3.5-1.7-3.5-4.9 0-3 1.2-4.7 3.5-4.7 2.2 0 3.6 1.9 3.6 4.7 0 3-1.4 4.9-3.6 4.9zM75.5 54.6c-4.5 0-7.8 3.4-7.8 7.7 0 4.6 3.2 7.8 7.8 7.8 4.4 0 7.2-1.8 7.7-5.1h-3.8c-.5 1.6-1.3 2-3.4 2-2.8 0-4.1-1.3-4.1-4h11.3c0-5-3-8.4-7.7-8.4zM72 60.9c.2-2.3 1.3-3.5 3.4-3.5 2.2 0 3.2 1.1 3.4 3.5H72zM90.3 65.7v-7.6h4v-2.9h-4v-5.3h-2.9l-.1 1.1c-.7 4.2-.6 4.2-1.7 4.2h-2.3v2.9h3l-.1 6.9v.5c0 3.2 1.4 4.7 4.6 4.7 1.6 0 2.4-.1 3.7-.8v-2.2c-.8.1-1.7.1-2 .1-1.6-.1-2.2-.5-2.2-1.6z"/></symbol><symbol viewBox="0 0 640 640" id="envelope" xmlns="http://www.w3.org/2000/svg"><!--!Font Awesome Pro v7.0.0 by @fontawesome - https://fontawesome.com License - https://fontawesome.com/license (Commercial License) Copyright 2025 Fonticons, Inc.--><path d="M64 128h512v72l-12.8 9.6-224 168L320 392l-19.2-14.4-224-168L64 200v-72zm0 132 256 192 256-192v252H64V260z"/></symbol><symbol class="chsvg-inline--fa chfa-exclamation-circle chfa-w-16" viewBox="0 0 512 512" id="exclamation-circle" xmlns="http://www.w3.org/2000/svg"><path d="M256 40c118.621 0 216 96.075 216 216 0 119.291-96.61 216-216 216-119.244 0-216-96.562-216-216 0-119.203 96.602-216 216-216m0-32C119.043 8 8 119.083 8 256c0 136.997 111.043 248 248 248s248-111.003 248-248C504 119.083 392.957 8 256 8zm-11.49 120h22.979c6.823 0 12.274 5.682 11.99 12.5l-7 168c-.268 6.428-5.556 11.5-11.99 11.5h-8.979c-6.433 0-11.722-5.073-11.99-11.5l-7-168c-.283-6.818 5.167-12.5 11.99-12.5zM256 340c-15.464 0-28 12.536-28 28s12.536 28 28 28 28-12.536 28-28-12.536-28-28-28z"/></symbol><symbol class="cgsvg-inline--fa cgfa-exclamation-circle cgfa-w-16" viewBox="0 0 512 512" id="exclamation-circle-solid" xmlns="http://www.w3.org/2000/svg"><path d="M504 256c0 136.997-111.043 248-248 248S8 392.997 8 256C8 119.083 119.043 8 256 8s248 111.083 248 248zm-248 50c-25.405 0-46 20.595-46 46s20.595 46 46 46 46-20.595 46-46-20.595-46-46-46zm-43.673-165.346 7.418 136c.347 6.364 5.609 11.346 11.982 11.346h48.546c6.373 0 11.635-4.982 11.982-11.346l7.418-136c.375-6.874-5.098-12.654-11.982-12.654h-63.383c-6.884 0-12.356 5.78-11.981 12.654z"/></symbol><symbol class="cjsvg-inline--fa cjfa-exclamation-triangle cjfa-w-18" viewBox="0 0 576 512" id="exclamation-triangle" xmlns="http://www.w3.org/2000/svg"><path d="M270.2 160h35.5c3.4 0 6.1 2.8 6 6.2l-7.5 196c-.1 3.2-2.8 5.8-6 5.8h-20.5c-3.2 0-5.9-2.5-6-5.8l-7.5-196c-.1-3.4 2.6-6.2 6-6.2zM288 388c-15.5 0-28 12.5-28 28s12.5 28 28 28 28-12.5 28-28-12.5-28-28-28zm281.5 52L329.6 24c-18.4-32-64.7-32-83.2 0L6.5 440c-18.4 31.9 4.6 72 41.6 72H528c36.8 0 60-40 41.5-72zM528 480H48c-12.3 0-20-13.3-13.9-24l240-416c6.1-10.6 21.6-10.7 27.7 0l240 416c6.2 10.6-1.5 24-13.8 24z"/></symbol><symbol class="cisvg-inline--fa cifa-exclamation-triangle cifa-w-18" viewBox="0 0 576 512" id="exclamation-triangle-solid" xmlns="http://www.w3.org/2000/svg"><path d="M569.517 440.013C587.975 472.007 564.806 512 527.94 512H48.054c-36.937 0-59.999-40.055-41.577-71.987L246.423 23.985c18.467-32.009 64.72-31.951 83.154 0l239.94 416.028zM288 354c-25.405 0-46 20.595-46 46s20.595 46 46 46 46-20.595 46-46-20.595-46-46-46zm-43.673-165.346 7.418 136c.347 6.364 5.609 11.346 11.982 11.346h48.546c6.373 0 11.635-4.982 11.982-11.346l7.418-136c.375-6.874-5.098-12.654-11.982-12.654h-63.383c-6.884 0-12.356 5.78-11.981 12.654z"/></symbol><symbol viewBox="0 0 448 512" id="expand" xmlns="http://www.w3.org/2000/svg"><!--! Font Awesome Pro 6.7.2 by @fontawesome - https://fontawesome.com License - https://fontawesome.com/license (Commercial License) Copyright 2024 Fonticons, Inc.--><path d="M32 32H0v160h64V96h96V32H32zm32 320v-32H0v160h160v-64H64v-64zM320 32h-32v64h96v96h64V32H320zm128 320v-32h-64v96h-96v64h160V352z"/></symbol><symbol class="clsvg-inline--fa clfa-external-link-alt clfa-w-16" viewBox="0 0 512 512" id="external-link" xmlns="http://www.w3.org/2000/svg"><path d="M440 256h-16a8 8 0 0 0-8 8v200a16 16 0 0 1-16 16H48a16 16 0 0 1-16-16V112a16 16 0 0 1 16-16h200a8 8 0 0 0 8-8V72a8 8 0 0 0-8-8H48a48 48 0 0 0-48 48v352a48 48 0 0 0 48 48h352a48 48 0 0 0 48-48V264a8 8 0 0 0-8-8ZM480 0h-.06l-96.16.17c-28.45 0-42.66 34.54-22.58 54.62l35.28 35.28-265 265a12 12 0 0 0 0 17l8.49 8.49a12 12 0 0 0 17 0l265-265 35.28 35.27c20 20 54.57 6 54.62-22.57l.13-96.21A32 32 0 0 0 480 0Zm-.17 128.17-96-96L480 32Z"/></symbol><symbol class="cmsvg-inline--fa cmfa-facebook-f cmfa-w-10" viewBox="0 0 320 512" id="facebook" xmlns="http://www.w3.org/2000/svg"><path d="m279.14 288 14.22-92.66h-88.91v-60.13c0-25.35 12.42-50.06 52.24-50.06h40.42V6.26S260.43 0 225.36 0c-73.22 0-121.08 44.38-121.08 124.72v70.62H22.89V288h81.39v224h100.17V288z"/></symbol><symbol viewBox="0 0 34 16.4" id="figcaption-pin" xmlns="http://www.w3.org/2000/svg"><path d="M15.6.8c.8-.8 2-.8 2.8 0l6.7 6.7c1.9 1.9 4.4 2.9 7.1 2.9H34v6H0v-6h1.9c2.7 0 5.2-1.1 7.1-2.9L15.6.8z" fill="var(--ebds-figcaption-bg)"/><path d="m9.7 12.9 6.6-6.6c.4-.4 1-.4 1.4 0l6.6 6.6c.6.6.2 1.7-.7 1.7H10.4c-.9 0-1.3-1-.7-1.7z"/></symbol><symbol viewBox="0 0 512 512" id="filter" xmlns="http://www.w3.org/2000/svg"><!--! Font Awesome Pro 6.7.2 by @fontawesome - https://fontawesome.com License - https://fontawesome.com/license (Commercial License) Copyright 2024 Fonticons, Inc.--><path d="M192 416v-96L0 96V32h512v64L320 320v192l-128-96z"/></symbol><symbol class="cnsvg-inline--fa cnfa-filter cnfa-w-16" viewBox="0 0 512 512" id="filter-solid" xmlns="http://www.w3.org/2000/svg"><path d="M487.976 0H24.028C2.71 0-8.047 25.866 7.058 40.971L192 225.941V432c0 7.831 3.821 15.17 10.237 19.662l80 55.98C298.02 518.69 320 507.493 320 487.98V225.941l184.947-184.97C520.021 25.896 509.338 0 487.976 0z"/></symbol><symbol viewBox="0 0 512 512" id="fingerprint" xmlns="http://www.w3.org/2000/svg"><!--! Font Awesome Pro 6.7.2 by @fontawesome - https://fontawesome.com License - https://fontawesome.com/license (Commercial License) Copyright 2024 Fonticons, Inc.--><path d="M48 256c0-114.9 93.1-208 208-208 63.1 0 119.6 28.1 157.8 72.5l15.6 18.2 36.4-31.3-15.6-18.2C403.3 34.6 333.7 0 256 0 114.6 0 0 114.6 0 256v64h48v-64zm458.5-52.9-4.9-23.5-47 9.9 4.9 23.5c2.9 13.9 4.5 28.3 4.5 43.1v64h48v-64c0-18.1-1.9-35.8-5.5-52.9zM256 80c-34.2 0-66 9.7-93 26.6l31.7 37c18.2-9.9 39.1-15.6 61.3-15.6 70.7 0 128 57.3 128 128v24.9c0 34.6-2.8 69.1-8.4 103.1h48.6c5.2-34 7.8-68.5 7.8-103.1V256c0-97.2-78.8-176-176-176zm-129.9 57.3C97.5 168.6 80 210.3 80 256v24.9c0 35-5.5 69.8-16.2 103.1h50.1c9.3-33.5 14.1-68.2 14.1-103.1V256c0-31.1 11.1-59.7 29.6-81.9L126 137.3zM256 160c-53 0-96 43-96 96v24.9c0 46-7.6 91.6-22.5 135.1h46.3c13.4-43.7 20.3-89.2 20.3-135.1V256c0-28.7 23.3-52 52-52s52 23.3 52 52v24.9c0 45.6-5.5 91-16.4 135.1h45.2c10.1-44.2 15.2-89.5 15.2-135.1V256c0-53-43-96-96-96zm24 96h-48v24.9c0 59.9-11 119.3-32.5 175.2l-5.9 15.3-3.3 8.6h51.4l2.6-6.7A536.19 536.19 0 0 0 280 280.9V256z"/></symbol><symbol viewBox="0 0 512 512" id="futbol" xmlns="http://www.w3.org/2000/svg"><!--! Font Awesome Pro 6.7.2 by @fontawesome - https://fontawesome.com License - https://fontawesome.com/license (Commercial License) Copyright 2024 Fonticons, Inc.--><path d="m406.2 136.4-28.5 80.1 70.1 48c-1.6 35.9-13 69.2-31.6 97.4l-85-2.3-24 81.5c-16.3 4.5-33.5 6.9-51.2 6.9s-34.9-2.4-51.2-6.9l-24-81.5-85 2.3c-18.6-28.1-30.1-61.5-31.6-97.4l70.1-48-28.5-80.1c21.5-26.9 50-47.9 82.8-60.2L256 128l67.4-51.8c32.8 12.3 61.3 33.3 82.8 60.2zM256 512a256 256 0 1 0 0-512 256 256 0 1 0 0 512zm0-336-76.1 55.3 29.1 89.4h94l29.1-89.4L256 176z"/></symbol><symbol viewBox="0 0 55 55" style="enable-background:new 0 0 55 55" xml:space="preserve" id="gallery" xmlns="http://www.w3.org/2000/svg"><path d="M43.7 54.5c-.3 0-.6 0-.9-.1l-32.7-6.6c-.8-.2-1.3-1-1.2-1.8.2-.8 1-1.3 1.8-1.2l32.8 6.6h.2c.1 0 .1 0 .6-.1h.1s0-.1.1-.1V51l7.1-35c0-.2 0-.4-.1-.6-.1-.1-.2-.2-.4-.3l-5.1-.8c-.8-.1-1.4-.9-1.2-1.7.1-.8.9-1.4 1.7-1.2l4.9.9c1 .2 1.8.7 2.4 1.5.6.9.8 1.9.6 2.9l-7.1 34.9c-.1 1-.8 2-1.7 2.5-.1 0-.1.1-.2.1l-.2.1c-.4 0-.9.2-1.5.2zm-4.1-11.2H4.2C2 43.3.5 41.7.5 39.6V4.2C.5 2 2.1.5 4.2.5h35.4c2.2 0 3.7 1.6 3.7 3.7v35.4c0 2.2-1.5 3.7-3.7 3.7zM3.5 36.7v2.9c0 .5.2.7.7.7h35.4c.5 0 .7-.2.7-.7v-2.9H3.5zm34.2-3h2.6V4.2c0-.5-.2-.7-.7-.7H4.2c-.5 0-.7.2-.7.7v29.5h2.6c.2-1.7.6-3.4 1.4-5.1 1.2-2.4 4.8-3.7 9.8-5.4.2-.5.2-1.7 0-2.1-2.1-2.4-3-5.2-2.8-8.1 0-2.2.6-4 1.9-5.5C17.8 5.9 19.7 5 22 5c2 0 3.9.9 5.5 2.4l.1.1c1.3 1.6 1.9 3.5 1.7 5.6.2 3-.8 5.9-2.7 7.9-.2.5-.2 1.8 0 2.3.6.2 1.3.5 1.9.7 4 1.5 6.9 2.6 7.9 4.6.7 1.7 1.2 3.4 1.3 5.1zm-28.6 0h25.6c-.2-1.3-.5-2.6-1.1-3.9-.4-.9-3.4-2-6.2-3-.7-.3-1.4-.5-2.2-.8-.5-.2-1.2-.7-1.5-1.8-.5-1.5-.3-3.9.4-4.9.1-.1.1-.2.2-.2 1.4-1.4 2.2-3.6 2-5.9v-.3c.2-1.3-.1-2.5-.9-3.4-.6-.6-1.8-1.5-3.3-1.5-1.4 0-2.5.5-3.3 1.5-.8 1-1.2 2.2-1.2 3.7v.1c-.2 2.2.5 4.2 2.1 6 .9.9 1.1 3.3.8 4.6-.4 1.6-1.3 2.1-1.8 2.3-2.8.9-7.5 2.5-8.2 3.9-.8 1-1.2 2.3-1.4 3.6zm8.2-12.6c0 .1 0 .1 0 0 0 .1 0 .1 0 0z"/></symbol><symbol viewBox="0 0 576 512" id="gallery-thumbnails" xmlns="http://www.w3.org/2000/svg"><!--! Font Awesome Pro 6.7.2 by @fontawesome - https://fontawesome.com License - https://fontawesome.com/license (Commercial License) Copyright 2024 Fonticons, Inc.--><path d="M512 64v224H64V64h448zM64 0H0v352h576V0H64zM0 416v96h96v-96H0zm256 0h-96v96h96v-96zm64 0v96h96v-96h-96zm256 0h-96v96h96v-96z"/></symbol><symbol viewBox="0 0 640 512" id="gamepad" xmlns="http://www.w3.org/2000/svg"><!--! Font Awesome Pro 6.7.2 by @fontawesome - https://fontawesome.com License - https://fontawesome.com/license (Commercial License) Copyright 2024 Fonticons, Inc.--><path d="M640 64H0v384h640V64zM496 168a40 40 0 1 1 0 80 40 40 0 1 1 0-80zM392 304a40 40 0 1 1 80 0 40 40 0 1 1-80 0zM168 176h48v56h56v48h-56v56h-48v-56h-56v-48h56v-56z"/></symbol><symbol viewBox="0 0 640 512" id="gamepad-light" xmlns="http://www.w3.org/2000/svg"><path d="M480.07 96H160a160 160 0 1 0 114.24 272h91.52A160 160 0 1 0 480.07 96zM480 384a127 127 0 0 1-91.37-38.4l-9.43-9.6H260.8l-9.41 9.6A127 127 0 0 1 160 384c-70.57 0-128-57.42-128-128s57.43-128 128-128h320c70.61 0 128 57.42 128 128s-57.43 128-128 128zM222.18 236.36h-42.54v-42.54a9.86 9.86 0 0 0-9.82-9.82h-19.64a9.86 9.86 0 0 0-9.82 9.82v42.54H97.82a9.86 9.86 0 0 0-9.82 9.82v19.64a9.86 9.86 0 0 0 9.82 9.82h42.54v42.54a9.86 9.86 0 0 0 9.82 9.82h19.64a9.86 9.86 0 0 0 9.82-9.82v-42.54h42.54a9.86 9.86 0 0 0 9.82-9.82v-19.64a9.86 9.86 0 0 0-9.82-9.82zM448 256a32 32 0 1 0 32 32 32 32 0 0 0-32-32zm64-64a32 32 0 1 0 32 32 32 32 0 0 0-32-32z"/></symbol><symbol viewBox="0 0 640 512" id="gamepad-modern" xmlns="http://www.w3.org/2000/svg"><!--! Font Awesome Pro 6.7.2 by @fontawesome - https://fontawesome.com License - https://fontawesome.com/license (Commercial License) Copyright 2024 Fonticons, Inc.--><path d="M0 480h200l16-96h208l16 96h200L597.2 96 480 32H160L42.8 96 0 480zm432-248a40 40 0 1 1 0 80 40 40 0 1 1 0-80zm24-56a40 40 0 1 1 80 0 40 40 0 1 1-80 0zm-240-8v32h56v48h-56v56h-48v-56h-56v-48h56v-56h48v24z"/></symbol><symbol viewBox="0 0 512 512" id="gear" xmlns="http://www.w3.org/2000/svg"><!--! Font Awesome Pro 6.7.2 by @fontawesome - https://fontawesome.com License - https://fontawesome.com/license (Commercial License) Copyright 2024 Fonticons, Inc.--><path d="M200 0h112l17.2 78.4c15.8 6.5 30.6 15.1 44 25.4l76.5-24.4 56 97-59.4 54.1c1.1 8.3 1.7 16.8 1.7 25.4s-.6 17.1-1.7 25.4l59.4 54.1-56 97-76.5-24.4c-13.4 10.3-28.2 18.9-44 25.4L312 512H200l-17.2-78.4c-15.8-6.5-30.6-15.1-44-25.4l-76.5 24.3-56-97 59.4-54.1c-1.1-8.3-1.7-16.8-1.7-25.4s.6-17.1 1.7-25.4L6.3 176.5l56-97 76.5 24.4c13.4-10.3 28.2-18.9 44-25.4L200 0zm56 336a80 80 0 1 0 0-160 80 80 0 1 0 0 160z"/></symbol><symbol viewBox="0 0 512 512" id="gear-complex" xmlns="http://www.w3.org/2000/svg"><!--! Font Awesome Pro 6.7.2 by @fontawesome - https://fontawesome.com License - https://fontawesome.com/license (Commercial License) Copyright 2024 Fonticons, Inc.--><path d="M302.7 0h-96l-7 55.7c-16.8 4.7-32.7 11.5-47.5 20L107.6 41l-67.9 67.9 35 45c-8.3 14.7-14.8 30.4-19.4 47L-1.3 208 0 304l55.3 7c4.5 16.6 11.1 32.4 19.4 47.1l-35 45 67.9 67.9 44.6-34.7c14.8 8.5 30.7 15.3 47.5 20l7 55.7h96l6.9-55c17.2-4.6 33.6-11.3 48.7-19.9l43.5 33.9 67.9-67.9-33.5-43.1c8.9-15.3 15.8-31.8 20.6-49.3l54-6.7v-96l-54-6.7c-4.7-17.4-11.7-34-20.6-49.3l33.5-43.1L401.8 41l-43.5 33.9c-15.2-8.6-31.5-15.3-48.7-19.9l-6.9-55zM256 176a80 80 0 1 1 0 160 80 80 0 1 1 0-160z"/></symbol><symbol viewBox="0 0 576 512" id="glasses" xmlns="http://www.w3.org/2000/svg"><path d="M560.51 225.9 528.75 98.64C522.05 71.78 495.01 32 443.33 32c-15.63 0-23.03 2.94-43.02 9.6-8.39 2.79-12.92 11.86-10.12 20.24l5.06 15.18c2.24 6.7 8.48 10.94 15.18 10.94 3.54 0 4.82-.74 18.23-5.21 26.07-8.68 48.2 6.13 53.53 27.54l29.67 118.68C490.97 215.88 466.47 208 440 208c-55.09 0-102.27 32.91-123.65 80h-56.7c-21.38-47.09-68.56-80-123.65-80-26.47 0-50.97 7.88-71.86 20.96l29.67-118.68c5.32-21.41 27.46-36.22 53.53-27.54 13.42 4.47 14.7 5.21 18.23 5.21 6.7 0 12.94-4.24 15.18-10.94l5.06-15.18c2.8-8.38-1.73-17.45-10.12-20.24C155.7 34.94 148.3 32 132.67 32 81 32 53.95 71.78 47.25 98.64L15.49 225.9C2.16 279.34 0 300.12 0 344c0 75.11 60.89 136 136 136 72.37 0 130.97-56.69 135.19-128h33.61c4.22 71.31 62.82 128 135.19 128 75.11 0 136-60.89 136-136 .01-43.88-2.15-64.66-15.48-118.1zM136 432c-48.52 0-88-39.48-88-88s39.48-88 88-88 88 39.48 88 88-39.48 88-88 88zm304 0c-48.52 0-88-39.48-88-88s39.48-88 88-88 88 39.48 88 88-39.48 88-88 88z"/></symbol><symbol viewBox="0 0 576 512" id="glasses-round" xmlns="http://www.w3.org/2000/svg"><!--! Font Awesome Pro 6.7.2 by @fontawesome - https://fontawesome.com License - https://fontawesome.com/license (Commercial License) Copyright 2024 Fonticons, Inc.--><path d="m61 31.9 21.8 3.2 88.7 13.2 23.7 3.5-7 47.5-23.7-3.5-66.9-10c-8.4 34.3-15.4 59.6-22.4 84.6l-.3 1c-5.3 19-10.6 38-16.5 60.9C80.4 217 107.2 208 136 208c55.1 0 102.6 32.8 124 80h56.1c21.3-47.2 68.8-80 124-80 28.8 0 55.6 9 77.6 24.3-5.9-22.9-11.1-41.9-16.5-60.9l-.3-1c-7-25-14-50.3-22.4-84.6l-66.9 9.9-23.7 3.5-7-47.5 23.7-3.5L493.3 35l21.7-3.1 5 21.5c10.5 44.8 18.8 74.3 27.1 104.2l.2.9c8.5 30.3 17.1 61.2 28 108.1l.6 2.7v74.8c0 75.1-60.9 136-136 136-72.4 0-131.6-56.6-135.8-128h-32.5c-4.1 71.4-63.3 128-135.8 128C60.9 480 0 419.1 0 344v-74.8l.6-2.7c10.9-46.9 19.5-77.7 28-108.1l.3-.9C37.2 127.7 45.5 98.1 56 53.4l5-21.5zM136 416a72 72 0 1 0 0-144 72 72 0 1 0 0 144zm376-72a72 72 0 1 0-144 0 72 72 0 1 0 144 0z"/></symbol><symbol viewBox="0 0 512 512" id="headphones" xmlns="http://www.w3.org/2000/svg"><!--! Font Awesome Pro 6.7.2 by @fontawesome - https://fontawesome.com License - https://fontawesome.com/license (Commercial License) Copyright 2024 Fonticons, Inc.--><path d="M256 80C152 80 65.8 156.3 50.4 256H128v224H0V288C0 146.6 114.6 32 256 32s256 114.6 256 256v192H384V256h77.6C446.2 156.3 360 80 256 80z"/></symbol><symbol viewBox="0 0 512 512" id="headphones-klip" xmlns="http://www.w3.org/2000/svg"><path d="M256 32C114.52 32 0 146.497 0 288v49.714a24.001 24.001 0 0 0 12.319 20.966l19.702 10.977C32.908 430.748 82.698 480 144 480h24c13.255 0 24-10.745 24-24V280c0-13.255-10.745-24-24-24h-24c-40.744 0-76.402 21.758-96 54.287V288c0-114.691 93.309-208 208-208s208 93.309 208 208v22.287C444.402 277.758 408.744 256 368 256h-24c-13.255 0-24 10.745-24 24v176c0 13.255 10.745 24 24 24h24c61.302 0 111.092-49.252 111.979-110.344l19.702-10.977A24.001 24.001 0 0 0 512 337.713V288c0-141.48-114.497-256-256-256zM144 304v128c-35.29 0-64-28.71-64-64s28.71-64 64-64zm224 128V304c35.29 0 64 28.71 64 64s-28.71 64-64 64z"/></symbol><symbol viewBox="0 0 512 512" id="headphones-simple" xmlns="http://www.w3.org/2000/svg"><!--! Font Awesome Pro 6.7.2 by @fontawesome - https://fontawesome.com License - https://fontawesome.com/license (Commercial License) Copyright 2024 Fonticons, Inc.--><path d="M256 80C141.1 80 48 173.1 48 288v128H0V288C0 146.6 114.6 32 256 32s256 114.6 256 256v128h-48V288c0-114.9-93.1-208-208-208zM80 288h112v192H80V288zm240 0h112v192H320V288z"/></symbol><symbol viewBox="0 0 512 512" id="headset" xmlns="http://www.w3.org/2000/svg"><!--! Font Awesome Pro 6.7.2 by @fontawesome - https://fontawesome.com License - https://fontawesome.com/license (Commercial License) Copyright 2024 Fonticons, Inc.--><path d="M256 48C141.1 48 48 141.1 48 256v64H0v-64C0 114.6 114.6 0 256 0s256 114.6 256 256v232.1h-24l-168-.1v24h-80c-26.5 0-48-21.5-48-48s21.5-48 48-48h80v24l144 .1V256c0-114.9-93.1-208-208-208zm-64 176v160H80V224h112zm240 0v160H320V224h112z"/></symbol><symbol viewBox="0 0 512 512" id="heart" xmlns="http://www.w3.org/2000/svg"><!--! Font Awesome Pro 6.7.2 by @fontawesome - https://fontawesome.com License - https://fontawesome.com/license (Commercial License) Copyright 2024 Fonticons, Inc.--><path d="M39.8 263.8 64 288l192 192 192-192 24.2-24.2c25.5-25.5 39.8-60 39.8-96C512 92.8 451.2 32 376.2 32c-36 0-70.5 14.3-96 39.8L256 96l-24.2-24.2c-25.5-25.5-60-39.8-96-39.8C60.8 32 0 92.8 0 167.8c0 36 14.3 70.5 39.8 96z"/></symbol><symbol viewBox="0 0 512 512" id="heart-half" xmlns="http://www.w3.org/2000/svg"><!--! Font Awesome Pro 6.7.2 by @fontawesome - https://fontawesome.com License - https://fontawesome.com/license (Commercial License) Copyright 2024 Fonticons, Inc.--><path d="M39.8 263.8 256 480V96l-24.2-24.2c-25.5-25.5-60-39.8-96-39.8C60.8 32 0 92.8 0 167.8c0 36 14.3 70.5 39.8 96z"/></symbol><symbol viewBox="0 0 512 512" style="enable-background:new 0 0 512 512" xml:space="preserve" id="heart-half-solid" xmlns="http://www.w3.org/2000/svg"><path d="m256 96.5-19.7-20.3C186.1 24.3 104.5 15.9 49.7 62.6c-62.8 53.6-66.1 149.8-9.9 207.9l193.5 199.8c6.3 6.5 14.5 9.7 22.7 9.7V96.5z"/></symbol><symbol class="dgsvg-inline--fa dgfa-heart dgfa-w-16" viewBox="0 0 512 512" id="heart-solid" xmlns="http://www.w3.org/2000/svg"><path d="M462.3 62.6C407.5 15.9 326 24.3 275.7 76.2L256 96.5l-19.7-20.3C186.1 24.3 104.5 15.9 49.7 62.6c-62.8 53.6-66.1 149.8-9.9 207.9l193.5 199.8c12.5 12.9 32.8 12.9 45.3 0l193.5-199.8c56.3-58.1 53-154.3-9.8-207.9z"/></symbol><symbol class="disvg-inline--fa difa-history difa-w-16" viewBox="0 0 512 512" id="history" xmlns="http://www.w3.org/2000/svg"><path d="M20 24h10c6.627 0 12 5.373 12 12v94.625C85.196 57.047 165.239 7.715 256.793 8.001 393.18 8.428 504.213 120.009 504 256.396 503.786 393.181 392.834 504 256 504c-63.926 0-122.202-24.187-166.178-63.908-5.113-4.618-5.354-12.561-.482-17.433l7.069-7.069c4.503-4.503 11.749-4.714 16.482-.454C150.782 449.238 200.935 470 256 470c117.744 0 214-95.331 214-214 0-117.744-95.331-214-214-214-82.862 0-154.737 47.077-190.289 116H164c6.627 0 12 5.373 12 12v10c0 6.627-5.373 12-12 12H20c-6.627 0-12-5.373-12-12V36c0-6.627 5.373-12 12-12zm321.647 315.235 4.706-6.47c3.898-5.36 2.713-12.865-2.647-16.763L272 263.853V116c0-6.627-5.373-12-12-12h-8c-6.627 0-12 5.373-12 12v164.147l84.884 61.734c5.36 3.899 12.865 2.714 16.763-2.646z"/></symbol><symbol viewBox="0 0 448 512" id="image-polaroid-user" xmlns="http://www.w3.org/2000/svg"><!--! Font Awesome Pro 6.7.2 by @fontawesome - https://fontawesome.com License - https://fontawesome.com/license (Commercial License) Copyright 2024 Fonticons, Inc.--><path d="M0 32h448v448H0V32zm64 64v256h56l24-64h160l24 64h56V96H64zm96 96a64 64 0 1 1 128 0 64 64 0 1 1-128 0z"/></symbol><symbol viewBox="0 0 512 512" id="image-user" xmlns="http://www.w3.org/2000/svg"><!--! Font Awesome Pro 6.7.2 by @fontawesome - https://fontawesome.com License - https://fontawesome.com/license (Commercial License) Copyright 2024 Fonticons, Inc.--><path d="M512 32H0v448h512V32zM192 192a64 64 0 1 1 128 0 64 64 0 1 1-128 0zm144 96 32 96H144l32-96h160z"/></symbol><symbol class="dmsvg-inline--fa dmfa-info-circle dmfa-w-16" viewBox="0 0 512 512" id="info-circle" xmlns="http://www.w3.org/2000/svg"><path d="M256 40c118.621 0 216 96.075 216 216 0 119.291-96.61 216-216 216-119.244 0-216-96.562-216-216 0-119.203 96.602-216 216-216m0-32C119.043 8 8 119.083 8 256c0 136.997 111.043 248 248 248s248-111.003 248-248C504 119.083 392.957 8 256 8zm-36 344h12V232h-12c-6.627 0-12-5.373-12-12v-8c0-6.627 5.373-12 12-12h48c6.627 0 12 5.373 12 12v140h12c6.627 0 12 5.373 12 12v8c0 6.627-5.373 12-12 12h-72c-6.627 0-12-5.373-12-12v-8c0-6.627 5.373-12 12-12zm36-240c-17.673 0-32 14.327-32 32s14.327 32 32 32 32-14.327 32-32-14.327-32-32-32z"/></symbol><symbol class="dlsvg-inline--fa dlfa-info-circle dlfa-w-16" viewBox="0 0 512 512" id="info-circle-solid" xmlns="http://www.w3.org/2000/svg"><path d="M256 8C119.043 8 8 119.083 8 256c0 136.997 111.043 248 248 248s248-111.003 248-248C504 119.083 392.957 8 256 8zm0 110c23.196 0 42 18.804 42 42s-18.804 42-42 42-42-18.804-42-42 18.804-42 42-42zm56 254c0 6.627-5.373 12-12 12h-88c-6.627 0-12-5.373-12-12v-24c0-6.627 5.373-12 12-12h12v-64h-12c-6.627 0-12-5.373-12-12v-24c0-6.627 5.373-12 12-12h64c6.627 0 12 5.373 12 12v100h12c6.627 0 12 5.373 12 12v24z"/></symbol><symbol class="dnsvg-inline--fa dnfa-instagram dnfa-w-14" viewBox="0 0 448 512" id="instagram" xmlns="http://www.w3.org/2000/svg"><path d="M224.1 141c-63.6 0-114.9 51.3-114.9 114.9s51.3 114.9 114.9 114.9S339 319.5 339 255.9 287.7 141 224.1 141zm0 189.6c-41.1 0-74.7-33.5-74.7-74.7s33.5-74.7 74.7-74.7 74.7 33.5 74.7 74.7-33.6 74.7-74.7 74.7zm146.4-194.3c0 14.9-12 26.8-26.8 26.8-14.9 0-26.8-12-26.8-26.8s12-26.8 26.8-26.8 26.8 12 26.8 26.8zm76.1 27.2c-1.7-35.9-9.9-67.7-36.2-93.9-26.2-26.2-58-34.4-93.9-36.2-37-2.1-147.9-2.1-184.9 0-35.8 1.7-67.6 9.9-93.9 36.1s-34.4 58-36.2 93.9c-2.1 37-2.1 147.9 0 184.9 1.7 35.9 9.9 67.7 36.2 93.9s58 34.4 93.9 36.2c37 2.1 147.9 2.1 184.9 0 35.9-1.7 67.7-9.9 93.9-36.2 26.2-26.2 34.4-58 36.2-93.9 2.1-37 2.1-147.8 0-184.8zM398.8 388c-7.8 19.6-22.9 34.7-42.6 42.6-29.5 11.7-99.5 9-132.1 9s-102.7 2.6-132.1-9c-19.6-7.8-34.7-22.9-42.6-42.6-11.7-29.5-9-99.5-9-132.1s-2.6-102.7 9-132.1c7.8-19.6 22.9-34.7 42.6-42.6 29.5-11.7 99.5-9 132.1-9s102.7-2.6 132.1 9c19.6 7.8 34.7 22.9 42.6 42.6 11.7 29.5 9 99.5 9 132.1s2.7 102.7-9 132.1z"/></symbol><symbol viewBox="0 0 10 16" id="lightning" xmlns="http://www.w3.org/2000/svg"><path d="M3.339 9.491.488 8.394a.733.733 0 0 1-.292-1.187L6.621.254C7.16-.332 8.156.179 7.95.938l-1.51 5.57 2.85 1.098a.733.733 0 0 1 .292 1.187l-6.425 6.953c-.541.586-1.535.075-1.33-.684l1.512-5.57Z"/></symbol><symbol class="dpsvg-inline--fa dpfa-linkedin-in dpfa-w-14" viewBox="0 0 448 512" id="linkedin" xmlns="http://www.w3.org/2000/svg"><path d="M100.28 448H7.4V148.9h92.88zM53.79 108.1C24.09 108.1 0 83.5 0 53.8a53.79 53.79 0 0 1 107.58 0c0 29.7-24.1 54.3-53.79 54.3zM447.9 448h-92.68V302.4c0-34.7-.7-79.2-48.29-79.2-48.29 0-55.69 37.7-55.69 76.7V448h-92.78V148.9h89.08v40.8h1.3c12.4-23.5 42.69-48.3 87.88-48.3 94 0 111.28 61.9 111.28 142.3V448z"/></symbol><symbol viewBox="0 0 512 512" id="list-ol" xmlns="http://www.w3.org/2000/svg"><path d="m61.77 401 17.5-20.15a19.92 19.92 0 0 0 5.07-14.19v-3.31C84.34 356 80.5 352 73 352H16a8 8 0 0 0-8 8v16a8 8 0 0 0 8 8h22.84a154.82 154.82 0 0 0-11 12.31l-5.61 7c-4 5.07-5.25 10.13-2.8 14.88l1.05 1.93c3 5.76 6.3 7.88 12.25 7.88h4.73c10.33 0 15.94 2.44 15.94 9.09 0 4.72-4.2 8.22-14.36 8.22a41.54 41.54 0 0 1-15.47-3.12c-6.49-3.88-11.74-3.5-15.6 3.12l-5.59 9.31c-3.73 6.13-3.2 11.72 2.62 15.94 7.71 4.69 20.39 9.44 37 9.44 34.16 0 48.5-22.75 48.5-44.12-.03-14.38-9.12-29.76-28.73-34.88zM12.1 320H80a8 8 0 0 0 8-8v-16a8 8 0 0 0-8-8H41.33c3.28-10.29 48.33-18.68 48.33-56.44 0-29.06-25-39.56-44.47-39.56-21.36 0-33.8 10-40.45 18.75-4.38 5.59-3 10.84 2.79 15.37l8.58 6.88c5.61 4.56 11 2.47 16.13-2.44a13.4 13.4 0 0 1 9.45-3.84c3.33 0 9.28 1.56 9.28 8.75C51 248.19 0 257.31 0 304.59v4C0 316 5.08 320 12.1 320zM16 160h64a8 8 0 0 0 8-8v-16a8 8 0 0 0-8-8H64V40a8 8 0 0 0-8-8H32a8 8 0 0 0-7.14 4.42l-8 16A8 8 0 0 0 24 64h8v64H16a8 8 0 0 0-8 8v16a8 8 0 0 0 8 8zm488-80H168a8 8 0 0 0-8 8v16a8 8 0 0 0 8 8h336a8 8 0 0 0 8-8V88a8 8 0 0 0-8-8zm0 320H168a8 8 0 0 0-8 8v16a8 8 0 0 0 8 8h336a8 8 0 0 0 8-8v-16a8 8 0 0 0-8-8zm0-160H168a8 8 0 0 0-8 8v16a8 8 0 0 0 8 8h336a8 8 0 0 0 8-8v-16a8 8 0 0 0-8-8z"/></symbol><symbol viewBox="0 0 384 512" id="location-dot" xmlns="http://www.w3.org/2000/svg"><!--! Font Awesome Pro 6.7.2 by @fontawesome - https://fontawesome.com License - https://fontawesome.com/license (Commercial License) Copyright 2024 Fonticons, Inc.--><path d="M192 512s192-208 192-320C384 86 298 0 192 0S0 86 0 192c0 112 192 320 192 320zm0-384a64 64 0 1 1 0 128 64 64 0 1 1 0-128z"/></symbol><symbol viewBox="0 0 384 512" id="location-pin" xmlns="http://www.w3.org/2000/svg"><!--! Font Awesome Pro 6.7.2 by @fontawesome - https://fontawesome.com License - https://fontawesome.com/license (Commercial License) Copyright 2024 Fonticons, Inc.--><path d="M384 192c0 112-192 320-192 320S0 304 0 192C0 86 86 0 192 0s192 86 192 192z"/></symbol><symbol class="dtsvg-inline--fa dtfa-lock dtfa-w-14" viewBox="0 0 448 512" id="lock" xmlns="http://www.w3.org/2000/svg"><path d="M400 224h-16v-62.5C384 73.1 312.9.3 224.5 0 136-.3 64 71.6 64 160v64H48c-26.5 0-48 21.5-48 48v192c0 26.5 21.5 48 48 48h352c26.5 0 48-21.5 48-48V272c0-26.5-21.5-48-48-48zM96 160c0-70.6 57.4-128 128-128s128 57.4 128 128v64H96v-64zm304 320H48c-8.8 0-16-7.2-16-16V272c0-8.8 7.2-16 16-16h352c8.8 0 16 7.2 16 16v192c0 8.8-7.2 16-16 16z"/></symbol><symbol class="dusvg-inline--fa dufa-map-marker-alt dufa-w-12" viewBox="0 0 384 512" id="mappin-solid" xmlns="http://www.w3.org/2000/svg"><path d="M172.268 501.67C26.97 291.031 0 269.413 0 192 0 85.961 85.961 0 192 0s192 85.961 192 192c0 77.413-26.97 99.031-172.268 309.67-9.535 13.774-29.93 13.773-39.464 0zM192 272c44.183 0 80-35.817 80-80s-35.817-80-80-80-80 35.817-80 80 35.817 80 80 80z"/></symbol><symbol class="dwsvg-inline--fa dwfa-bars dwfa-w-14" viewBox="0 0 448 512" id="menubars" xmlns="http://www.w3.org/2000/svg"><path d="M442 114H6a6 6 0 0 1-6-6V84a6 6 0 0 1 6-6h436a6 6 0 0 1 6 6v24a6 6 0 0 1-6 6zm0 160H6a6 6 0 0 1-6-6v-24a6 6 0 0 1 6-6h436a6 6 0 0 1 6 6v24a6 6 0 0 1-6 6zm0 160H6a6 6 0 0 1-6-6v-24a6 6 0 0 1 6-6h436a6 6 0 0 1 6 6v24a6 6 0 0 1-6 6z"/></symbol><symbol viewBox="0 0 30 30" xml:space="preserve" id="menubars-solid" xmlns="http://www.w3.org/2000/svg"><path d="M0 4.3h30v4H0zM0 12.3h30v4H0zM0 20.3h30v4H0z"/></symbol><symbol viewBox="0 0 512 512" id="message-captions" xmlns="http://www.w3.org/2000/svg"><!--! Font Awesome Pro 6.7.2 by @fontawesome - https://fontawesome.com License - https://fontawesome.com/license (Commercial License) Copyright 2024 Fonticons, Inc.--><path d="M0 0h512v416H304l-144 96v-96H0V0zm120 192H96v48h192v-48H120zm224 0h-24v48h96v-48h-72zm-224 80H96v48h96v-48h-72zm128 0h-24v48h192v-48H248z"/></symbol><symbol viewBox="0 0 512 512" id="message-lines" xmlns="http://www.w3.org/2000/svg"><!--! Font Awesome Pro 6.7.2 by @fontawesome - https://fontawesome.com License - https://fontawesome.com/license (Commercial License) Copyright 2024 Fonticons, Inc.--><path d="M0 0h512v416H304l-144 96v-96H0V0zm152 144h-24v48h256v-48H152zm0 96h-24v48h160v-48H152z"/></symbol><symbol viewBox="0 0 512 512" id="message-quote" xmlns="http://www.w3.org/2000/svg"><!--! Font Awesome Pro 6.7.2 by @fontawesome - https://fontawesome.com License - https://fontawesome.com/license (Commercial License) Copyright 2024 Fonticons, Inc.--><path d="M0 0h512v416H304l-144 96v-96H0V0zm240 112H128v112h64v32h-48v48h96V112zm144 0H272v112h64v32h-48v48h96V112z"/></symbol><symbol viewBox="0 0 640 640" id="mobile" xmlns="http://www.w3.org/2000/svg"><!--!Font Awesome Pro v7.0.0 by @fontawesome - https://fontawesome.com License - https://fontawesome.com/license (Commercial License) Copyright 2025 Fonticons, Inc.--><path d="M496 64H144v512h352V64zM280 480h104v48H256v-48h24z"/></symbol><symbol viewBox="0 0 640 640" id="newspaper" xmlns="http://www.w3.org/2000/svg"><!--!Font Awesome Pro v7.0.0 by @fontawesome - https://fontawesome.com License - https://fontawesome.com/license (Commercial License) Copyright 2025 Fonticons, Inc.--><path d="M64 544V160h48v336h16c17.7 0 32-14.3 32-32V96h416v448H64zm160-384v128h128V160H224zm288 272H224v48h288v-48zm-288-96v48h288v-48H224zm288-96H400v48h112v-48z"/></symbol><symbol viewBox="0 0 320 512" id="pause" xmlns="http://www.w3.org/2000/svg"><!--! Font Awesome Pro 6.7.2 by @fontawesome - https://fontawesome.com License - https://fontawesome.com/license (Commercial License) Copyright 2024 Fonticons, Inc.--><path d="M128 64H0v384h128V64zm192 0H192v384h128V64z"/></symbol><symbol viewBox="0 0 512 512" id="pause-circle" xmlns="http://www.w3.org/2000/svg"><path d="M218 160h-20c-3.3 0-6 2.7-6 6v180c0 3.3 2.7 6 6 6h20c3.3 0 6-2.7 6-6V166c0-3.3-2.7-6-6-6zm96 0h-20c-3.3 0-6 2.7-6 6v180c0 3.3 2.7 6 6 6h20c3.3 0 6-2.7 6-6V166c0-3.3-2.7-6-6-6zM256 8C119 8 8 119 8 256s111 248 248 248 248-111 248-248S393 8 256 8zm0 464c-118.7 0-216-96.1-216-216 0-118.7 96.1-216 216-216 118.7 0 216 96.1 216 216 0 118.7-96.1 216-216 216z"/></symbol><symbol viewBox="0 0 448 512" id="pause-solid" xmlns="http://www.w3.org/2000/svg"><path d="M144 479H48c-26.5 0-48-21.5-48-48V79c0-26.5 21.5-48 48-48h96c26.5 0 48 21.5 48 48v352c0 26.5-21.5 48-48 48zm304-48V79c0-26.5-21.5-48-48-48h-96c-26.5 0-48 21.5-48 48v352c0 26.5 21.5 48 48 48h96c26.5 0 48-21.5 48-48z"/></symbol><symbol viewBox="0 0 512 512" id="pen-circle" xmlns="http://www.w3.org/2000/svg"><!--! Font Awesome Pro 6.7.2 by @fontawesome - https://fontawesome.com License - https://fontawesome.com/license (Commercial License) Copyright 2024 Fonticons, Inc.--><path d="M256 512a256 256 0 1 0 0-512 256 256 0 1 0 0 512zM144 288l108.7-108.7 80 80L224 368l-96 16 16-96zm256-96-44.7 44.7-80-80L320 112l80 80z"/></symbol><symbol viewBox="0 0 640 512" id="pen-field" xmlns="http://www.w3.org/2000/svg"><!--! Font Awesome Pro 6.7.2 by @fontawesome - https://fontawesome.com License - https://fontawesome.com/license (Commercial License) Copyright 2024 Fonticons, Inc.--><path d="m304 240-16 112 112-16 164.7-164.7-96-96L304 240zM640 96 544 0l-52.7 52.7 96 96L640 96zM32 128H0v384h576V288h-64v160H64V192h224v-64H32zm64 160v64h64v-64H96zm160 0h-64v64h64v-64z"/></symbol><symbol viewBox="0 0 512 512" id="pen-to-square" xmlns="http://www.w3.org/2000/svg"><!--! Font Awesome Pro 6.7.2 by @fontawesome - https://fontawesome.com License - https://fontawesome.com/license (Commercial License) Copyright 2024 Fonticons, Inc.--><path d="m144 272-16 112 112-16 196.7-196.7-96-96L144 272zM512 96 416 0l-52.7 52.7 96 96L512 96zM32 64H0v448h448V288h-64v160H64V128h160V64H32z"/></symbol><symbol viewBox="0 0 640 640" id="phone" xmlns="http://www.w3.org/2000/svg"><!--!Font Awesome Pro v7.0.0 by @fontawesome - https://fontawesome.com License - https://fontawesome.com/license (Commercial License) Copyright 2025 Fonticons, Inc.--><path d="m64 128 128-64 96.8 128-80.8 80c33 70.4 89.6 127 160 160l80-80.8L576 448l-64 128h-16C257.4 576 64 382.6 64 144v-16z"/></symbol><symbol class="ejsvg-inline--fa ejfa-map-marker ejfa-w-12" viewBox="0 0 384 512" id="pin-solid" xmlns="http://www.w3.org/2000/svg"><path d="M172.268 501.67C26.97 291.031 0 269.413 0 192 0 85.961 85.961 0 192 0s192 85.961 192 192c0 77.413-26.97 99.031-172.268 309.67-9.535 13.774-29.93 13.773-39.464 0z"/></symbol><symbol class="eksvg-inline--fa ekfa-play-circle ekfa-w-16" viewBox="0 0 512 512" id="play-circle" xmlns="http://www.w3.org/2000/svg"><path d="M256 504c137 0 248-111 248-248S393 8 256 8 8 119 8 256s111 248 248 248zM40 256c0-118.7 96.1-216 216-216 118.7 0 216 96.1 216 216 0 118.7-96.1 216-216 216-118.7 0-216-96.1-216-216zm331.7-18-176-107c-15.8-8.8-35.7 2.5-35.7 21v208c0 18.4 19.8 29.8 35.7 21l176-101c16.4-9.1 16.4-32.8 0-42zM192 335.8V176.9c0-4.7 5.1-7.6 9.1-5.1l134.5 81.7c3.9 2.4 3.8 8.1-.1 10.3L201 341c-4 2.3-9-.6-9-5.2z"/></symbol><symbol viewBox="0 0 448 512" id="play-solid" xmlns="http://www.w3.org/2000/svg"><path d="M424.4 214.7 72.4 6.6C43.8-10.3 0 6.1 0 47.9V464c0 37.5 40.7 60.1 72.4 41.3l352-208c31.4-18.5 31.5-64.1 0-82.6z"/></symbol><symbol viewBox="0 0 448 512" id="podcast" xmlns="http://www.w3.org/2000/svg"><!--! Font Awesome Pro 6.7.2 by @fontawesome - https://fontawesome.com License - https://fontawesome.com/license (Commercial License) Copyright 2024 Fonticons, Inc.--><path d="M316 374c50.4-31 84-86.6 84-150 0-97.2-78.8-176-176-176S48 126.8 48 224c0 63.5 33.6 119.1 84 150l8.3 57.8C58 398.6 0 318.1 0 224 0 100.3 100.3 0 224 0s224 100.3 224 224c0 94.1-58 174.6-140.2 207.8L316 374zm3.3-42.1L313 324l-23.7-29.6c18.9-17.5 30.7-42.6 30.7-70.4 0-53-43-96-96-96s-96 43-96 96c0 27.8 11.8 52.9 30.7 70.4L135 324l-6.3 7.9C98.8 305.5 80 267 80 224c0-79.5 64.5-144 144-144s144 64.5 144 144c0 43-18.8 81.5-48.7 107.9zM160 344l32-40h64l32 40-24 168h-80l-24-168zm64-176a56 56 0 1 1 0 112 56 56 0 1 1 0-112z"/></symbol><symbol class="ensvg-inline--fa enfa-question-circle enfa-w-16" viewBox="0 0 512 512" id="question-circle" xmlns="http://www.w3.org/2000/svg"><path d="M256 340c-15.464 0-28 12.536-28 28s12.536 28 28 28 28-12.536 28-28-12.536-28-28-28zm7.67-24h-16c-6.627 0-12-5.373-12-12v-.381c0-70.343 77.44-63.619 77.44-107.408 0-20.016-17.761-40.211-57.44-40.211-29.144 0-44.265 9.649-59.211 28.692-3.908 4.98-11.054 5.995-16.248 2.376l-13.134-9.15c-5.625-3.919-6.86-11.771-2.645-17.177C185.658 133.514 210.842 116 255.67 116c52.32 0 97.44 29.751 97.44 80.211 0 67.414-77.44 63.849-77.44 107.408V304c0 6.627-5.373 12-12 12zM256 40c118.621 0 216 96.075 216 216 0 119.291-96.61 216-216 216-119.244 0-216-96.562-216-216 0-119.203 96.602-216 216-216m0-32C119.043 8 8 119.083 8 256c0 136.997 111.043 248 248 248s248-111.003 248-248C504 119.083 392.957 8 256 8z"/></symbol><symbol viewBox="0 0 576 512" id="rectangle-list" xmlns="http://www.w3.org/2000/svg"><!--! Font Awesome Pro 6.7.2 by @fontawesome - https://fontawesome.com License - https://fontawesome.com/license (Commercial License) Copyright 2024 Fonticons, Inc.--><path d="M0 32h576v448H0V32zm128 256a32 32 0 1 0 0-64 32 32 0 1 0 0 64zm32-128a32 32 0 1 0-64 0 32 32 0 1 0 64 0zm-32 224a32 32 0 1 0 0-64 32 32 0 1 0 0 64zm96-248h-24v48h272v-48H224zm0 96h-24v48h272v-48H224zm0 96h-24v48h272v-48H224z"/></symbol><symbol viewBox="0 0 448 512" id="rss" xmlns="http://www.w3.org/2000/svg"><!--! Font Awesome Pro 6.7.2 by @fontawesome - https://fontawesome.com License - https://fontawesome.com/license (Commercial License) Copyright 2024 Fonticons, Inc.--><path d="M448 480C448 232.6 247.4 32 0 32v64c212.1 0 384 171.9 384 384h64zM0 160v64c141.4 0 256 114.6 256 256h64c0-176.7-143.3-320-320-320zm128 256a64 64 0 1 0-128 0 64 64 0 1 0 128 0z"/></symbol><symbol class="epsvg-inline--fa epfa-rss epfa-w-14" viewBox="0 0 448 512" id="rss-symbol" xmlns="http://www.w3.org/2000/svg"><path d="M80 352c26.467 0 48 21.533 48 48s-21.533 48-48 48-48-21.533-48-48 21.533-48 48-48m0-32c-44.183 0-80 35.817-80 80s35.817 80 80 80 80-35.817 80-80-35.817-80-80-80zm367.996 147.615c-6.448-237.848-198.06-429.164-435.61-435.61C5.609 31.821 0 37.229 0 44.007v8.006c0 6.482 5.146 11.816 11.626 11.994 220.81 6.05 398.319 183.913 404.367 404.367.178 6.48 5.512 11.626 11.994 11.626h8.007c6.778 0 12.185-5.609 12.002-12.385zm-144.245-.05c-6.347-158.132-133.207-284.97-291.316-291.316C5.643 175.976 0 181.45 0 188.247v8.005c0 6.459 5.114 11.72 11.567 11.989 141.134 5.891 254.301 119.079 260.192 260.192.269 6.453 5.531 11.567 11.989 11.567h8.005c6.798 0 12.271-5.643 11.998-12.435z"/></symbol><symbol class="ersvg-inline--fa erfa-search erfa-w-16" viewBox="0 0 512 512" id="search" xmlns="http://www.w3.org/2000/svg"><path d="m508.5 481.6-129-129c-2.3-2.3-5.3-3.5-8.5-3.5h-10.3C395 312 416 262.5 416 208 416 93.1 322.9 0 208 0S0 93.1 0 208s93.1 208 208 208c54.5 0 104-21 141.1-55.2V371c0 3.2 1.3 6.2 3.5 8.5l129 129c4.7 4.7 12.3 4.7 17 0l9.9-9.9c4.7-4.7 4.7-12.3 0-17zM208 384c-97.3 0-176-78.7-176-176S110.7 32 208 32s176 78.7 176 176-78.7 176-176 176z"/></symbol><symbol viewBox="0 0 512 512" id="share" xmlns="http://www.w3.org/2000/svg"><path d="M512 208 320 384h-32v-96h-80c-61.9 0-112 50.1-112 112 0 48 32 80 32 80S0 432 0 304c0-97.2 78.8-176 176-176h112V32h32l192 176z" style="filter:var(--icon-filter)"/></symbol><symbol viewBox="0 0 576 512" id="share-from-square" xmlns="http://www.w3.org/2000/svg"><!--! Font Awesome Pro 6.7.2 by @fontawesome - https://fontawesome.com License - https://fontawesome.com/license (Commercial License) Copyright 2024 Fonticons, Inc.--><path d="M416 320h-32v-96h-33.5c-52.2 0-94.5 42.3-94.5 94.5 0 39.3 32 65.5 32 65.5s-128-39.3-128-144c0-79.5 64.5-144 144-144h80V0h32l160 160-160 160zM0 32h160v64H64v352h352v-64h64v128H0V32z"/></symbol><symbol viewBox="0 0 320 512" id="smartphone" xmlns="http://www.w3.org/2000/svg"><path d="M272 0H48C21.5 0 0 21.5 0 48v416c0 26.5 21.5 48 48 48h224c26.5 0 48-21.5 48-48V48c0-26.5-21.5-48-48-48zM160 480c-17.7 0-32-14.3-32-32s14.3-32 32-32 32 14.3 32 32-14.3 32-32 32zm112-108c0 6.6-5.4 12-12 12H60c-6.6 0-12-5.4-12-12V60c0-6.6 5.4-12 12-12h200c6.6 0 12 5.4 12 12v312z"/></symbol><symbol viewBox="0 0 19 19" id="spotify" xmlns="http://www.w3.org/2000/svg"><path fill-rule="evenodd" clip-rule="evenodd" d="M9.52 1.6a7.92 7.92 0 1 0 0 15.84 7.92 7.92 0 0 0 0-15.84ZM.16 9.52a9.36 9.36 0 1 1 18.72 0 9.36 9.36 0 0 1-18.72 0Z"/><path fill-rule="evenodd" clip-rule="evenodd" d="M9.52 13.12a3.87 3.87 0 0 0-1.821.455.72.72 0 1 1-.678-1.27 5.31 5.31 0 0 1 4.998 0 .72.72 0 1 1-.678 1.27 3.87 3.87 0 0 0-1.821-.455ZM9.52 7.36a9.99 9.99 0 0 0-4.701 1.175.72.72 0 0 1-.678-1.27 11.43 11.43 0 0 1 10.758 0 .72.72 0 1 1-.678 1.27A9.99 9.99 0 0 0 9.52 7.36Z"/><path fill-rule="evenodd" clip-rule="evenodd" d="M9.52 10.24c-1.138 0-2.258.28-3.261.815a.72.72 0 1 1-.678-1.27 8.37 8.37 0 0 1 7.878 0 .72.72 0 0 1-.678 1.27 6.93 6.93 0 0 0-3.261-.815Z"/></symbol><symbol class="fasvg-inline--fa fafa-square fafa-w-14" viewBox="0 0 448 512" id="square" xmlns="http://www.w3.org/2000/svg"><path d="M400 32H48C21.5 32 0 53.5 0 80v352c0 26.5 21.5 48 48 48h352c26.5 0 48-21.5 48-48V80c0-26.5-21.5-48-48-48zm16 400c0 8.8-7.2 16-16 16H48c-8.8 0-16-7.2-16-16V80c0-8.8 7.2-16 16-16h352c8.8 0 16 7.2 16 16v352z"/></symbol><symbol viewBox="0 0 448 512" id="square-arrow-up-right" xmlns="http://www.w3.org/2000/svg"><!--! Font Awesome Pro 6.7.2 by @fontawesome - https://fontawesome.com License - https://fontawesome.com/license (Commercial License) Copyright 2024 Fonticons, Inc.--><path d="M0 32h448v448H0V32zm312 112H136v48h118.1L119 327l-17 17 34 33.9 17-17 135-135V352h48V144h-24z"/></symbol><symbol viewBox="0 0 448 512" id="square-check" xmlns="http://www.w3.org/2000/svg"><!--! Font Awesome Pro 6.7.2 by @fontawesome - https://fontawesome.com License - https://fontawesome.com/license (Commercial License) Copyright 2024 Fonticons, Inc.--><path d="M448 32H0v448h448V32zM337 209 209 337l-17 17-17-17-64-64-17-17 34-33.9 17 17 47 47L303 175l17-17 33.9 34-17 17z"/></symbol><symbol viewBox="0 0 448 512" id="square-info" xmlns="http://www.w3.org/2000/svg"><!--! Font Awesome Pro 6.7.2 by @fontawesome - https://fontawesome.com License - https://fontawesome.com/license (Commercial License) Copyright 2024 Fonticons, Inc.--><path d="M448 32H0v448h448V32zM184 336h24v-64h-48v-48h96v112h32v48H160v-48h24zm72-208v64h-64v-64h64z"/></symbol><symbol viewBox="0 0 448 512" id="square-pen" xmlns="http://www.w3.org/2000/svg"><!--! Font Awesome Pro 6.7.2 by @fontawesome - https://fontawesome.com License - https://fontawesome.com/license (Commercial License) Copyright 2024 Fonticons, Inc.--><path d="M448 32H0v448h448V32zM112 288l108.7-108.7 80 80L192 368l-96 16 16-96zm256-96-44.7 44.7-80-80L288 112l80 80z"/></symbol><symbol viewBox="0 0 576 512" id="star" xmlns="http://www.w3.org/2000/svg"><!--! Font Awesome Pro 6.7.2 by @fontawesome - https://fontawesome.com License - https://fontawesome.com/license (Commercial License) Copyright 2024 Fonticons, Inc.--><path d="m288.1 0 86.5 164 182.7 31.6L428 328.5 454.4 512l-166.3-81.8L121.7 512l26.4-183.5L18.9 195.6 201.5 164 288.1 0z"/></symbol><symbol class="fbsvg-inline--fa fbfa-star-half fbfa-w-18" viewBox="0 0 576 512" id="star-half-solid" xmlns="http://www.w3.org/2000/svg"><path d="M288 0c-11.4 0-22.8 5.9-28.7 17.8L194 150.2 47.9 171.4c-26.2 3.8-36.7 36.1-17.7 54.6l105.7 103-25 145.5c-4.5 26.1 23 46 46.4 33.7L288 439.6V0z"/></symbol><symbol class="fcsvg-inline--fa fcfa-star fcfa-w-18" viewBox="0 0 576 512" id="star-solid" xmlns="http://www.w3.org/2000/svg"><path d="M259.3 17.8 194 150.2 47.9 171.5c-26.2 3.8-36.7 36.1-17.7 54.6l105.7 103-25 145.5c-4.5 26.3 23.2 46 46.4 33.7L288 439.6l130.7 68.7c23.2 12.2 50.9-7.4 46.4-33.7l-25-145.5 105.7-103c19-18.5 8.5-50.8-17.7-54.6L382 150.2 316.7 17.8c-11.7-23.6-45.6-23.9-57.4 0z"/></symbol><symbol class="fesvg-inline--fa fefa-sync-alt fefa-w-16" viewBox="0 0 512 512" id="sync" xmlns="http://www.w3.org/2000/svg"><path d="m457.373 9.387-50.095 50.102C365.411 27.211 312.953 8 256 8 123.228 8 14.824 112.338 8.31 243.493 7.971 250.311 13.475 256 20.301 256h10.015c6.352 0 11.647-4.949 11.977-11.293C48.159 131.913 141.389 42 256 42c47.554 0 91.487 15.512 127.02 41.75l-53.615 53.622c-20.1 20.1-5.855 54.628 22.627 54.628H480c17.673 0 32-14.327 32-32V32.015c0-28.475-34.564-42.691-54.627-22.628zM480 160H352L480 32v128zm11.699 96h-10.014c-6.353 0-11.647 4.949-11.977 11.293C463.84 380.203 370.504 470 256 470c-47.525 0-91.468-15.509-127.016-41.757l53.612-53.616c20.099-20.1 5.855-54.627-22.627-54.627H32c-17.673 0-32 14.327-32 32v127.978c0 28.614 34.615 42.641 54.627 22.627l50.092-50.096C146.587 484.788 199.046 504 256 504c132.773 0 241.176-104.338 247.69-235.493.339-6.818-5.165-12.507-11.991-12.507zM32 480V352h128L32 480z"/></symbol><symbol class="fhsvg-inline--fa fhfa-tablet-alt fhfa-w-14" viewBox="0 0 448 512" id="tablet" xmlns="http://www.w3.org/2000/svg"><path d="M400 0H48C21.5 0 0 21.5 0 48v416c0 26.5 21.5 48 48 48h352c26.5 0 48-21.5 48-48V48c0-26.5-21.5-48-48-48zM224 480c-17.7 0-32-14.3-32-32s14.3-32 32-32 32 14.3 32 32-14.3 32-32 32zm176-108c0 6.6-5.4 12-12 12H60c-6.6 0-12-5.4-12-12V60c0-6.6 5.4-12 12-12h328c6.6 0 12 5.4 12 12v312z"/></symbol><symbol viewBox="0 0 448 512" id="tablet-button" xmlns="http://www.w3.org/2000/svg"><!--! Font Awesome Pro 6.7.2 by @fontawesome - https://fontawesome.com License - https://fontawesome.com/license (Commercial License) Copyright 2024 Fonticons, Inc.--><path d="M448 0H0v512h448V0zM224 400a32 32 0 1 1 0 64 32 32 0 1 1 0-64z"/></symbol><symbol viewBox="0 0 448 512" id="tablet-screen-button" xmlns="http://www.w3.org/2000/svg"><!--! Font Awesome Pro 6.7.2 by @fontawesome - https://fontawesome.com License - https://fontawesome.com/license (Commercial License) Copyright 2024 Fonticons, Inc.--><path d="M0 0h448v512H0V0zm256 448a32 32 0 1 0-64 0 32 32 0 1 0 64 0zM384 64H64v320h320V64z"/></symbol><symbol viewBox="0 0 448 512" id="tag" xmlns="http://www.w3.org/2000/svg"><!--! Font Awesome Pro 6.7.2 by @fontawesome - https://fontawesome.com License - https://fontawesome.com/license (Commercial License) Copyright 2024 Fonticons, Inc.--><path d="M0 32v224l224 224 224-224L224 32H0zm112 80a32 32 0 1 1 0 64 32 32 0 1 1 0-64z"/></symbol><symbol class="fisvg-inline--fa fifa-tag fifa-w-16" viewBox="0 0 512 512" id="tag-solid" xmlns="http://www.w3.org/2000/svg"><path d="M0 252.118V48C0 21.49 21.49 0 48 0h204.118a48 48 0 0 1 33.941 14.059l211.882 211.882c18.745 18.745 18.745 49.137 0 67.882L293.823 497.941c-18.745 18.745-49.137 18.745-67.882 0L14.059 286.059A48 48 0 0 1 0 252.118zM112 64c-26.51 0-48 21.49-48 48s21.49 48 48 48 48-21.49 48-48-21.49-48-48-48z"/></symbol><symbol viewBox="0 0 512 512" id="tags" xmlns="http://www.w3.org/2000/svg"><!--! Font Awesome Pro 6.7.2 by @fontawesome - https://fontawesome.com License - https://fontawesome.com/license (Commercial License) Copyright 2024 Fonticons, Inc.--><path d="m495.2 189.3 7 7V315.6l-7 7L337 481l-34-34 151.2-151.2v-79.6L303 65l34-34 158.2 158.3zM0 256V32h224l192 192v64L224 480 0 256zm144-112a32 32 0 1 0-64 0 32 32 0 1 0 64 0z"/></symbol><symbol class="fksvg-inline--fa fkfa-tags fkfa-w-20" viewBox="0 0 640 512" id="tags-solid" xmlns="http://www.w3.org/2000/svg"><path d="M497.941 225.941 286.059 14.059A48 48 0 0 0 252.118 0H48C21.49 0 0 21.49 0 48v204.118a48 48 0 0 0 14.059 33.941l211.882 211.882c18.744 18.745 49.136 18.746 67.882 0l204.118-204.118c18.745-18.745 18.745-49.137 0-67.882zM112 160c-26.51 0-48-21.49-48-48s21.49-48 48-48 48 21.49 48 48-21.49 48-48 48zm513.941 133.823L421.823 497.941c-18.745 18.745-49.137 18.745-67.882 0l-.36-.36L527.64 323.522c16.999-16.999 26.36-39.6 26.36-63.64s-9.362-46.641-26.36-63.64L331.397 0h48.721a48 48 0 0 1 33.941 14.059l211.882 211.882c18.745 18.745 18.745 49.137 0 67.882z"/></symbol><symbol class="fosvg-inline--fa fofa-times fofa-w-10" viewBox="0 0 320 512" id="times" xmlns="http://www.w3.org/2000/svg"><path d="M193.94 256 296.5 153.44l21.15-21.15c3.12-3.12 3.12-8.19 0-11.31l-22.63-22.63c-3.12-3.12-8.19-3.12-11.31 0L160 222.06 36.29 98.34c-3.12-3.12-8.19-3.12-11.31 0L2.34 120.97c-3.12 3.12-3.12 8.19 0 11.31L126.06 256 2.34 379.71c-3.12 3.12-3.12 8.19 0 11.31l22.63 22.63c3.12 3.12 8.19 3.12 11.31 0L160 289.94 262.56 392.5l21.15 21.15c3.12 3.12 8.19 3.12 11.31 0l22.63-22.63c3.12-3.12 3.12-8.19 0-11.31L193.94 256z"/></symbol><symbol viewBox="0 0 524 524" id="times-circle" xmlns="http://www.w3.org/2000/svg"><path d="M256 8C119 8 8 119 8 256s111 248 248 248 248-111 248-248S393 8 256 8zm0 464c-118.7 0-216-96.1-216-216 0-118.7 96.1-216 216-216 118.7 0 216 96.1 216 216 0 118.7-96.1 216-216 216zm94.8-285.3L281.5 256l69.3 69.3c4.7 4.7 4.7 12.3 0 17l-8.5 8.5c-4.7 4.7-12.3 4.7-17 0L256 281.5l-69.3 69.3c-4.7 4.7-12.3 4.7-17 0l-8.5-8.5c-4.7-4.7-4.7-12.3 0-17l69.3-69.3-69.3-69.3c-4.7-4.7-4.7-12.3 0-17l8.5-8.5c4.7-4.7 12.3-4.7 17 0l69.3 69.3 69.3-69.3c4.7-4.7 12.3-4.7 17 0l8.5 8.5c4.6 4.7 4.6 12.3 0 17z" style="filter:var(--icon-filter);padding:2px"/></symbol><symbol class="fmsvg-inline--fa fmfa-times-circle fmfa-w-16" viewBox="0 0 512 512" id="times-circle-solid" xmlns="http://www.w3.org/2000/svg"><path d="M256 8C119 8 8 119 8 256s111 248 248 248 248-111 248-248S393 8 256 8zm121.6 313.1c4.7 4.7 4.7 12.3 0 17L338 377.6c-4.7 4.7-12.3 4.7-17 0L256 312l-65.1 65.6c-4.7 4.7-12.3 4.7-17 0L134.4 338c-4.7-4.7-4.7-12.3 0-17l65.6-65-65.6-65.1c-4.7-4.7-4.7-12.3 0-17l39.6-39.6c4.7-4.7 12.3-4.7 17 0l65 65.7 65.1-65.6c4.7-4.7 12.3-4.7 17 0l39.6 39.6c4.7 4.7 4.7 12.3 0 17L312 256l65.6 65.1z"/></symbol><symbol class="fpsvg-inline--fa fpfa-toggle-off fpfa-w-18" viewBox="0 0 576 512" id="toggle-off" xmlns="http://www.w3.org/2000/svg"><path d="M384 96c42.738 0 82.917 16.643 113.137 46.863S544 213.262 544 256s-16.643 82.917-46.863 113.137S426.738 416 384 416H192c-42.738 0-82.917-16.643-113.137-46.863S32 298.738 32 256s16.643-82.917 46.863-113.137S149.262 96 192 96h192m0-32H192C85.961 64 0 149.961 0 256s85.961 192 192 192h192c106.039 0 192-85.961 192-192S490.039 64 384 64zm-192 96c52.935 0 96 43.065 96 96s-43.065 96-96 96-96-43.065-96-96 43.065-96 96-96m0-32c-70.692 0-128 57.307-128 128s57.308 128 128 128 128-57.307 128-128-57.308-128-128-128z"/></symbol><symbol class="fqsvg-inline--fa fqfa-toggle-on fqfa-w-18" viewBox="0 0 576 512" id="toggle-on" xmlns="http://www.w3.org/2000/svg"><path d="M384 64H192C86 64 0 150 0 256s86 192 192 192h192c106 0 192-86 192-192S490 64 384 64zm0 320c-70.8 0-128-57.3-128-128 0-70.8 57.3-128 128-128 70.8 0 128 57.3 128 128 0 70.8-57.3 128-128 128z"/></symbol><symbol class="fssvg-inline--fa fsfa-trash-alt fsfa-w-14" viewBox="0 0 448 512" id="trash" xmlns="http://www.w3.org/2000/svg"><path d="M296 432h16a8 8 0 0 0 8-8V152a8 8 0 0 0-8-8h-16a8 8 0 0 0-8 8v272a8 8 0 0 0 8 8zm-160 0h16a8 8 0 0 0 8-8V152a8 8 0 0 0-8-8h-16a8 8 0 0 0-8 8v272a8 8 0 0 0 8 8zM440 64H336l-33.6-44.8A48 48 0 0 0 264 0h-80a48 48 0 0 0-38.4 19.2L112 64H8a8 8 0 0 0-8 8v16a8 8 0 0 0 8 8h24v368a48 48 0 0 0 48 48h288a48 48 0 0 0 48-48V96h24a8 8 0 0 0 8-8V72a8 8 0 0 0-8-8zM171.2 38.4A16.1 16.1 0 0 1 184 32h80a16.1 16.1 0 0 1 12.8 6.4L296 64H152zM384 464a16 16 0 0 1-16 16H80a16 16 0 0 1-16-16V96h320zm-168-32h16a8 8 0 0 0 8-8V152a8 8 0 0 0-8-8h-16a8 8 0 0 0-8 8v272a8 8 0 0 0 8 8z"/></symbol><symbol class="frsvg-inline--fa frfa-trash-alt frfa-w-14" viewBox="0 0 448 512" id="trash-solid" xmlns="http://www.w3.org/2000/svg"><path d="M32 464a48 48 0 0 0 48 48h288a48 48 0 0 0 48-48V128H32zm272-256a16 16 0 0 1 32 0v224a16 16 0 0 1-32 0zm-96 0a16 16 0 0 1 32 0v224a16 16 0 0 1-32 0zm-96 0a16 16 0 0 1 32 0v224a16 16 0 0 1-32 0zM432 32H312l-9.4-18.7A24 24 0 0 0 281.1 0H166.8a23.72 23.72 0 0 0-21.4 13.3L136 32H16A16 16 0 0 0 0 48v32a16 16 0 0 0 16 16h416a16 16 0 0 0 16-16V48a16 16 0 0 0-16-16z"/></symbol><symbol viewBox="0 0 512 512" id="triangle-exclamation" xmlns="http://www.w3.org/2000/svg"><!--! Font Awesome Pro 6.7.2 by @fontawesome - https://fontawesome.com License - https://fontawesome.com/license (Commercial License) Copyright 2024 Fonticons, Inc.--><path d="M256 32 0 480h512L256 32zm24 160v160h-48V192h48zm-48 192h48v48h-48v-48z"/></symbol><symbol viewBox="0 0 512 512" id="up-right-from-square" xmlns="http://www.w3.org/2000/svg"><!--! Font Awesome Pro 6.7.2 by @fontawesome - https://fontawesome.com License - https://fontawesome.com/license (Commercial License) Copyright 2024 Fonticons, Inc.--><path d="m512 176-32 32-65.4-65.4-168 168-22.6 22.7-45.3-45.3 22.6-22.6 168-168L304 32l32-32h176v176zM0 32h192v64H64v352h352V320h64v192H0V32z"/></symbol><symbol class="fwsvg-inline--fa fwfa-user-circle fwfa-w-16" viewBox="0 0 496 512" id="user-circle" xmlns="http://www.w3.org/2000/svg"><path d="M248 8C111 8 0 119 0 256s111 248 248 248 248-111 248-248S385 8 248 8zm128 421.6c-35.9 26.5-80.1 42.4-128 42.4s-92.1-15.9-128-42.4V416c0-35.3 28.7-64 64-64 11.1 0 27.5 11.4 64 11.4 36.6 0 52.8-11.4 64-11.4 35.3 0 64 28.7 64 64v13.6zm30.6-27.5c-6.8-46.4-46.3-82.1-94.6-82.1-20.5 0-30.4 11.4-64 11.4S204.6 320 184 320c-48.3 0-87.8 35.7-94.6 82.1C53.9 363.6 32 312.4 32 256c0-119.1 96.9-216 216-216s216 96.9 216 216c0 56.4-21.9 107.6-57.4 146.1zM248 120c-48.6 0-88 39.4-88 88s39.4 88 88 88 88-39.4 88-88-39.4-88-88-88zm0 144c-30.9 0-56-25.1-56-56s25.1-56 56-56 56 25.1 56 56-25.1 56-56 56z"/></symbol><symbol class="fvsvg-inline--fa fvfa-user-circle fvfa-w-16" viewBox="0 0 496 512" id="user-circle-solid" xmlns="http://www.w3.org/2000/svg"><path d="M248 8C111 8 0 119 0 256s111 248 248 248 248-111 248-248S385 8 248 8zm0 96c48.6 0 88 39.4 88 88s-39.4 88-88 88-88-39.4-88-88 39.4-88 88-88zm0 344c-58.7 0-111.3-26.6-146.5-68.2 18.8-35.4 55.6-59.8 98.5-59.8 2.4 0 4.8.4 7.1 1.1 13 4.2 26.6 6.9 40.9 6.9 14.3 0 28-2.7 40.9-6.9 2.3-.7 4.7-1.1 7.1-1.1 42.9 0 79.7 24.4 98.5 59.8C359.3 421.4 306.7 448 248 448z"/></symbol><symbol class="fxsvg-inline--fa fxfa-user fxfa-w-14" viewBox="0 0 448 512" id="user-solid" xmlns="http://www.w3.org/2000/svg"><path d="M224 256c70.7 0 128-57.3 128-128S294.7 0 224 0 96 57.3 96 128s57.3 128 128 128zm89.6 32h-16.7c-22.2 10.2-46.9 16-72.9 16s-50.6-5.8-72.9-16h-16.7C60.2 288 0 348.2 0 422.4V464c0 26.5 21.5 48 48 48h352c26.5 0 48-21.5 48-48v-41.6c0-74.2-60.2-134.4-134.4-134.4z"/></symbol><symbol viewBox="0 0 640 512" id="users" xmlns="http://www.w3.org/2000/svg"><path d="M544 224c44.2 0 80-35.8 80-80s-35.8-80-80-80-80 35.8-80 80 35.8 80 80 80zm0-128c26.5 0 48 21.5 48 48s-21.5 48-48 48-48-21.5-48-48 21.5-48 48-48zM320 256c61.9 0 112-50.1 112-112S381.9 32 320 32 208 82.1 208 144s50.1 112 112 112zm0-192c44.1 0 80 35.9 80 80s-35.9 80-80 80-80-35.9-80-80 35.9-80 80-80zm244 192h-40c-15.2 0-29.3 4.8-41.1 12.9 9.4 6.4 17.9 13.9 25.4 22.4 4.9-2.1 10.2-3.3 15.7-3.3h40c24.2 0 44 21.5 44 48 0 8.8 7.2 16 16 16s16-7.2 16-16c0-44.1-34.1-80-76-80zM96 224c44.2 0 80-35.8 80-80s-35.8-80-80-80-80 35.8-80 80 35.8 80 80 80zm0-128c26.5 0 48 21.5 48 48s-21.5 48-48 48-48-21.5-48-48 21.5-48 48-48zm304.1 180c-33.4 0-41.7 12-80.1 12-38.4 0-46.7-12-80.1-12-36.3 0-71.6 16.2-92.3 46.9-12.4 18.4-19.6 40.5-19.6 64.3V432c0 26.5 21.5 48 48 48h288c26.5 0 48-21.5 48-48v-44.8c0-23.8-7.2-45.9-19.6-64.3-20.7-30.7-56-46.9-92.3-46.9zM480 432c0 8.8-7.2 16-16 16H176c-8.8 0-16-7.2-16-16v-44.8c0-16.6 4.9-32.7 14.1-46.4 13.8-20.5 38.4-32.8 65.7-32.8 27.4 0 37.2 12 80.2 12s52.8-12 80.1-12c27.3 0 51.9 12.3 65.7 32.8 9.2 13.7 14.1 29.8 14.1 46.4V432zM157.1 268.9c-11.9-8.1-26-12.9-41.1-12.9H76c-41.9 0-76 35.9-76 80 0 8.8 7.2 16 16 16s16-7.2 16-16c0-26.5 19.8-48 44-48h40c5.5 0 10.8 1.2 15.7 3.3 7.5-8.5 16.1-16 25.4-22.4z"/></symbol><symbol viewBox="0 0 51 48" style="enable-background:new 0 0 51 48" xml:space="preserve" id="video" xmlns="http://www.w3.org/2000/svg"><path d="M45 47.5H6.1C3 47.5.5 45 .5 41.9V6.1C.5 3 3 .5 6.1.5H45c3.1 0 5.6 2.5 5.6 5.6v35.8c0 3.1-2.5 5.6-5.6 5.6zM6.1 3.5c-1.4 0-2.6 1.2-2.6 2.6v35.8c0 1.4 1.2 2.6 2.6 2.6H45c1.4 0 2.6-1.2 2.6-2.6V6.1c0-1.4-1.2-2.6-2.6-2.6H6.1zm24.6 39.9c-2.1 0-3.5-1.5-3.5-3.5v-.5h-19c-.8 0-1.5-.7-1.5-1.5s.7-1.5 1.5-1.5h19v-.5c0-2.1 1.5-3.5 3.5-3.5s3.5 1.5 3.5 3.5v.5H43c.8 0 1.5.7 1.5 1.5s-.7 1.5-1.5 1.5h-8.7v.5c-.1 2-1.5 3.5-3.6 3.5zm-.6-5.6v2c0 .4.1.5.5.5s.5-.1.5-.5v-4.1c0-.4-.1-.5-.5-.5s-.5.1-.5.5v2.1zm-9.9-7.5c-.5 0-.9-.1-1.3-.4-.8-.5-1.3-1.3-1.3-2.3V13.7c0-1 .6-1.9 1.4-2.4.9-.5 1.9-.4 2.6.1l12 6.9c.8.4 1.4 1.3 1.4 2.3 0 1-.6 1.9-1.4 2.4l-12 6.9h-.1c-.4.3-.9.4-1.3.4zm.6-1.6zm.1-1.1zm-.2-13.3V27l11-6.3-11-6.4zM32.2 21zm0-.6zm-12.4-6.6z"/></symbol><symbol class="grvideo-icon" fill="none" style="box-shadow:0 6px 15px rgba(0,0,0,.12);border-radius:4px" viewBox="0 0 26 26" id="video-graphic" xmlns="http://www.w3.org/2000/svg"><rect width="26" height="26" rx="4" fill="#fff"/><path fill-rule="evenodd" clip-rule="evenodd" d="M8 8.587c0-1.223 1.349-1.985 2.423-1.369l7.778 4.463a1.572 1.572 0 0 1 0 2.738l-7.778 4.463C9.349 19.498 8 18.736 8 17.513V8.587Z" fill="#000"/></symbol><symbol viewBox="0 0 512 512" id="volleyball" xmlns="http://www.w3.org/2000/svg"><!--! Font Awesome Pro 6.7.2 by @fontawesome - https://fontawesome.com License - https://fontawesome.com/license (Commercial License) Copyright 2024 Fonticons, Inc.--><path d="M0 256c0 49.6 14.1 96 38.6 135.2L55.8 286l.6-4 2.4-3.2 116.3-152.1-88.1-63C33.7 110.6 0 179.4 0 256zm143 229.8 11.2-114.6.4-4.4 2.6-3.5L237.6 254l-43.5-99.4L86.7 295.1 65.2 426.7C87 451 113.4 471.2 143 485.8zm30.9 12.8c25.8 8.7 53.4 13.4 82.1 13.4 97.7 0 182.7-54.8 225.8-135.3l-99.7 37.7-3.7 1.4-4-.5-189.9-24.6-10.6 107.9zm325.4-162.7c8.2-25.1 12.7-52 12.7-79.9 0-5.7-.2-11.4-.6-17l-104.8 47.6-4 1.8-4.4-.5-134.8-15-64.3 87.4L374.5 383l124.8-47.2zm-124.5-82.8-68-163.3L203.5 5.4c-32.7 6.8-63.2 19.9-90 37.9l93.7 67 3.6 2.6 1.8 4L267 241.1l107.8 12zm132.3-47.3C483.7 88.4 380.2 0 256 0c-2.8 0-5.6 0-8.3.1l82.5 67.5 3.1 2.5 1.5 3.7 73.6 176.8 98.7-44.8z"/></symbol><symbol viewBox="0 0 576 512" id="volume" xmlns="http://www.w3.org/2000/svg"><!--! Font Awesome Pro 6.7.2 by @fontawesome - https://fontawesome.com License - https://fontawesome.com/license (Commercial License) Copyright 2024 Fonticons, Inc.--><path d="M32 160v192h128l144 128h48V32h-48L160 160H32zm409.6 172.8c23.3-17.5 38.4-45.4 38.4-76.8s-15.1-59.3-38.4-76.8l-28.8 38.4c11.7 8.8 19.2 22.7 19.2 38.4s-7.5 29.6-19.2 38.4l28.8 38.4zm57.6 76.8c46.6-35 76.8-90.8 76.8-153.6s-30.2-118.6-76.8-153.6l-28.8 38.4c35 26.3 57.6 68.1 57.6 115.2s-22.6 88.9-57.6 115.2l28.8 38.4z"/></symbol><symbol viewBox="0 0 640 512" id="volume-high" xmlns="http://www.w3.org/2000/svg"><!--! Font Awesome Pro 6.7.2 by @fontawesome - https://fontawesome.com License - https://fontawesome.com/license (Commercial License) Copyright 2024 Fonticons, Inc.--><path d="M592 256c0 78.5-37.7 148.2-96 192l28.8 38.4C594.7 433.9 640 350.3 640 256.1v-.2c0-94.2-45.3-177.8-115.2-230.3L496 64c58.3 43.8 96 113.5 96 192zM438.4 371.2l28.8 38.4c46.6-35 76.8-90.8 76.8-153.6s-30.2-118.6-76.8-153.6l-28.8 38.4c35 26.3 57.6 68.1 57.6 115.2s-22.6 88.9-57.6 115.2zM400 256c0 15.7-7.5 29.6-19.2 38.4l28.8 38.4c23.3-17.5 38.4-45.4 38.4-76.8s-15.1-59.3-38.4-76.8l-28.8 38.4c11.7 8.8 19.2 22.7 19.2 38.4zM0 160v192h128l144 128h48V32h-48L128 160H0z"/></symbol><symbol viewBox="0 0 448 512" id="volume-low" xmlns="http://www.w3.org/2000/svg"><!--! Font Awesome Pro 6.7.2 by @fontawesome - https://fontawesome.com License - https://fontawesome.com/license (Commercial License) Copyright 2024 Fonticons, Inc.--><path d="M0 160v192h128l144 128h48V32h-48L128 160H0zm409.6 172.8c23.3-17.5 38.4-45.4 38.4-76.8s-15.1-59.3-38.4-76.8l-28.8 38.4c11.7 8.8 19.2 22.7 19.2 38.4s-7.5 29.6-19.2 38.4l28.8 38.4z"/></symbol><symbol fill="none" viewBox="0 0 512 512" id="volume-mute-color" xmlns="http://www.w3.org/2000/svg"><style>.gsfilter{filter:var(--icon-filter)}</style><path class="gsfilter" fill-rule="evenodd" clip-rule="evenodd" d="M231.81 64c-5.91 0-11.92 2.18-16.78 7.05L126.06 160H24c-13.26 0-24 10.74-24 24v144c0 13.25 10.74 24 24 24h102.06l88.97 88.95c4.87 4.87 10.88 7.05 16.78 7.05 12.33 0 24.19-9.52 24.19-24.02V88.02C256 73.51 244.13 64 231.81 64ZM160 318.06l48 47.99v-220.1l-48 47.99L145.94 208H48v96h97.94L160 318.06Z" style="fill:var(--icon-fill, currentColor)"/><path class="gsfilter" fill-rule="evenodd" clip-rule="evenodd" d="M507.31 214.63 465.94 256l41.37 41.37c6.25 6.25 6.25 16.38 0 22.63L496 331.31c-6.25 6.25-16.38 6.25-22.63 0L432 289.94l-41.37 41.38c-6.25 6.25-16.38 6.25-22.63 0L356.69 320c-6.25-6.25-6.25-16.38 0-22.63L398.06 256l-41.37-41.37c-6.25-6.25-6.25-16.38 0-22.63L368 180.69c6.25-6.25 16.38-6.25 22.63 0L432 222.06l41.37-41.37c6.25-6.25 16.38-6.25 22.63 0L507.31 192c6.25 6.25 6.25 16.38 0 22.63Z" fill="red"/></symbol><symbol class="gdsvg-inline--fa gdfa-volume-slash gdfa-w-20" viewBox="0 0 640 512" id="volume-muted-solid" xmlns="http://www.w3.org/2000/svg"><path d="m633.82 458.1-69-53.33C592.42 360.8 608 309.68 608 256c0-95.33-47.73-183.58-127.65-236.03-11.17-7.33-26.18-4.24-33.51 6.95-7.34 11.17-4.22 26.18 6.95 33.51 66.27 43.49 105.82 116.6 105.82 195.58 0 42.78-11.96 83.59-33.22 119.06l-38.12-29.46C503.49 318.68 512 288.06 512 256c0-63.09-32.06-122.09-85.77-156.16-11.19-7.09-26.03-3.8-33.12 7.41-7.09 11.2-3.78 26.03 7.41 33.13C440.27 165.59 464 209.44 464 256c0 21.21-5.03 41.57-14.2 59.88l-39.56-30.58c3.38-9.35 5.76-19.07 5.76-29.3 0-31.88-17.53-61.33-45.77-76.88-11.58-6.33-26.19-2.16-32.61 9.45-6.39 11.61-2.16 26.2 9.45 32.61 11.76 6.46 19.12 18.18 20.4 31.06L288 190.82V88.02c0-21.46-25.96-31.98-40.97-16.97l-49.71 49.7L45.47 3.37C38.49-2.05 28.43-.8 23.01 6.18L3.37 31.45C-2.05 38.42-.8 48.47 6.18 53.9l588.36 454.73c6.98 5.43 17.03 4.17 22.46-2.81l19.64-25.27c5.41-6.97 4.16-17.02-2.82-22.45zM32 184v144c0 13.25 10.74 24 24 24h102.06l88.97 88.95c15.03 15.03 40.97 4.47 40.97-16.97V352.6L43.76 163.84C36.86 168.05 32 175.32 32 184z"/></symbol><symbol viewBox="0 0 256 512" id="volume-off" xmlns="http://www.w3.org/2000/svg"><path d="M0 352V160h128L272 32h48v448h-48L128 352H0z" style="filter:var(--icon-filter)"/></symbol><symbol viewBox="0 0 640 512" id="volume-slash" xmlns="http://www.w3.org/2000/svg"><!--! Font Awesome Pro 6.7.2 by @fontawesome - https://fontawesome.com License - https://fontawesome.com/license (Commercial License) Copyright 2024 Fonticons, Inc.--><path d="M48.4 14.8 29.4.1 0 38l19 14.7 572.5 444.5 19 14.7 29.4-37.9-19-14.7-95.1-73.8C557 351.3 576 305.9 576 256c0-62.8-30.2-118.6-76.8-153.6l-28.8 38.4c35 26.3 57.6 68.1 57.6 115.2 0 38.8-15.3 74-40.3 99.9l-38.2-29.7c18.8-17.5 30.5-42.5 30.5-70.2 0-31.4-15.1-59.3-38.4-76.8l-28.8 38.4c11.7 8.8 19.2 22.7 19.2 38.4s-7.5 29.6-19.2 38.4l5.9 7.9-66.7-51.8V32h-48l-108.8 96.7L48.4 14.8zM352 373.3 81.2 160H32v192h128l144 128h48V373.3z"/></symbol><symbol class="ggsvg-inline--fa ggfa-volume-up ggfa-w-18" viewBox="0 0 576 512" id="volume-up-solid" xmlns="http://www.w3.org/2000/svg"><path d="M215.03 71.05 126.06 160H24c-13.26 0-24 10.74-24 24v144c0 13.25 10.74 24 24 24h102.06l88.97 88.95c15.03 15.03 40.97 4.47 40.97-16.97V88.02c0-21.46-25.96-31.98-40.97-16.97zm233.32-51.08c-11.17-7.33-26.18-4.24-33.51 6.95-7.34 11.17-4.22 26.18 6.95 33.51 66.27 43.49 105.82 116.6 105.82 195.58 0 78.98-39.55 152.09-105.82 195.58-11.17 7.32-14.29 22.34-6.95 33.5 7.04 10.71 21.93 14.56 33.51 6.95C528.27 439.58 576 351.33 576 256S528.27 72.43 448.35 19.97zM480 256c0-63.53-32.06-121.94-85.77-156.24-11.19-7.14-26.03-3.82-33.12 7.46s-3.78 26.21 7.41 33.36C408.27 165.97 432 209.11 432 256s-23.73 90.03-63.48 115.42c-11.19 7.14-14.5 22.07-7.41 33.36 6.51 10.36 21.12 15.14 33.12 7.46C447.94 377.94 480 319.54 480 256zm-141.77-76.87c-11.58-6.33-26.19-2.16-32.61 9.45-6.39 11.61-2.16 26.2 9.45 32.61C327.98 228.28 336 241.63 336 256c0 14.38-8.02 27.72-20.92 34.81-11.61 6.41-15.84 21-9.45 32.61 6.43 11.66 21.05 15.8 32.61 9.45 28.23-15.55 45.77-45 45.77-76.88s-17.54-61.32-45.78-76.86z"/></symbol><symbol viewBox="0 0 576 512" id="volume-xmark" xmlns="http://www.w3.org/2000/svg"><!--! Font Awesome Pro 6.7.2 by @fontawesome - https://fontawesome.com License - https://fontawesome.com/license (Commercial License) Copyright 2024 Fonticons, Inc.--><path d="M0 160v192h128l144 128h48V32h-48L128 160H0zm441 23-17-17-33.9 34 17 17 39 39-39 39-17 17 33.9 33.9 17-17 39-39 39 39 17 17 33.9-33.9-17-17-39-39 39-39 17-17-33.9-33.9-17 17-39 39-39-39z"/></symbol><symbol viewBox="0 0 640 512" id="waveform-lines" xmlns="http://www.w3.org/2000/svg"><!--! Font Awesome Pro 6.7.2 by @fontawesome - https://fontawesome.com License - https://fontawesome.com/license (Commercial License) Copyright 2024 Fonticons, Inc.--><path d="M352 32V0h-64v512h64V32zm192 64V64h-64v384h64V96zm-288 32V96h-64v320h64V128zm192 32v-32h-64v256h64V160zm-288 64v-32H96v128h64v-96zM0 224v64h64v-64H0zm576 0v64h64v-64h-64z"/></symbol><symbol viewBox="0 0 1200 1227" id="x" xmlns="http://www.w3.org/2000/svg"><path d="M714.163 519.284 1160.89 0h-105.86L667.137 450.887 357.328 0H0l468.492 681.821L0 1226.37h105.866l409.625-476.152 327.181 476.152H1200L714.137 519.284h.026ZM569.165 687.828l-47.468-67.894-377.686-540.24h162.604l304.797 435.991 47.468 67.894 396.2 566.721H892.476L569.165 687.854v-.026Z"/></symbol><symbol class="glsvg-inline--fa glfa-youtube glfa-w-18" viewBox="0 0 576 512" id="youtube" xmlns="http://www.w3.org/2000/svg"><path d="M549.655 124.083c-6.281-23.65-24.787-42.276-48.284-48.597C458.781 64 288 64 288 64S117.22 64 74.629 75.486c-23.497 6.322-42.003 24.947-48.284 48.597-11.412 42.867-11.412 132.305-11.412 132.305s0 89.438 11.412 132.305c6.281 23.65 24.787 41.5 48.284 47.821C117.22 448 288 448 288 448s170.78 0 213.371-11.486c23.497-6.321 42.003-24.171 48.284-47.821 11.412-42.867 11.412-132.305 11.412-132.305s0-89.438-11.412-132.305zm-317.51 213.508V175.185l142.739 81.205-142.739 81.201z"/></symbol></svg>