<?xml version="1.0" encoding="utf-8"?><svg xmlns="http://www.w3.org/2000/svg" xmlns:xlink="http://www.w3.org/1999/xlink"><symbol class="aasvg-inline--fa aafa-angle-down aafa-w-10" viewBox="0 0 320 512" id="angle-down" xmlns="http://www.w3.org/2000/svg"><path fill="currentColor" d="M151.5 347.8L3.5 201c-4.7-4.7-4.7-12.3 0-17l19.8-19.8c4.7-4.7 12.3-4.7 17 0L160 282.7l119.7-118.5c4.7-4.7 12.3-4.7 17 0l19.8 19.8c4.7 4.7 4.7 12.3 0 17l-148 146.8c-4.7 4.7-12.3 4.7-17 0z"/></symbol><symbol class="absvg-inline--fa abfa-angle-left abfa-w-6" viewBox="0 0 192 512" id="angle-left" xmlns="http://www.w3.org/2000/svg"><path fill="currentColor" d="M4.2 247.5L151 99.5c4.7-4.7 12.3-4.7 17 0l19.8 19.8c4.7 4.7 4.7 12.3 0 17L69.3 256l118.5 119.7c4.7 4.7 4.7 12.3 0 17L168 412.5c-4.7 4.7-12.3 4.7-17 0L4.2 264.5c-4.7-4.7-4.7-12.3 0-17z"/></symbol><symbol class="acsvg-inline--fa acfa-angle-right acfa-w-6" viewBox="0 0 192 512" id="angle-right" xmlns="http://www.w3.org/2000/svg"><path fill="currentColor" d="M187.8 264.5L41 412.5c-4.7 4.7-12.3 4.7-17 0L4.2 392.7c-4.7-4.7-4.7-12.3 0-17L122.7 256 4.2 136.3c-4.7-4.7-4.7-12.3 0-17L24 99.5c4.7-4.7 12.3-4.7 17 0l146.8 148c4.7 4.7 4.7 12.3 0 17z"/></symbol><symbol class="adsvg-inline--fa adfa-angle-up adfa-w-10" viewBox="0 0 320 512" id="angle-up" xmlns="http://www.w3.org/2000/svg"><path fill="currentColor" d="M168.5 164.2l148 146.8c4.7 4.7 4.7 12.3 0 17l-19.8 19.8c-4.7 4.7-12.3 4.7-17 0L160 229.3 40.3 347.8c-4.7 4.7-12.3 4.7-17 0L3.5 328c-4.7-4.7-4.7-12.3 0-17l148-146.8c4.7-4.7 12.3-4.7 17 0z"/></symbol><symbol viewBox="0 0 51 47" id="article" xmlns="http://www.w3.org/2000/svg"><path d="M27 46.5h-4.5c-.8 0-1.5-.7-1.5-1.5s.7-1.5 1.5-1.5H27c.8 0 1.5.7 1.5 1.5s-.7 1.5-1.5 1.5zm-12 0H2c-.8 0-1.5-.7-1.5-1.5s.7-1.5 1.5-1.5h13c.8 0 1.5.7 1.5 1.5s-.7 1.5-1.5 1.5zm34-11.1H2c-.8 0-1.5-.7-1.5-1.5s.7-1.5 1.5-1.5h47c.8 0 1.5.7 1.5 1.5s-.7 1.5-1.5 1.5zm0-11.1H33.5c-.8 0-1.5-.7-1.5-1.5s.7-1.5 1.5-1.5H49c.8 0 1.5.7 1.5 1.5s-.7 1.5-1.5 1.5zm-26.3 0H3.3c-1.6 0-2.8-1.2-2.8-2.8V3C.5 1.4 1.7.2 3.3.2h19.4c1.6 0 2.8 1.2 2.8 2.8v18.5c-.1 1.6-1.2 2.8-2.8 2.8zm-19.2-3h18.9v-18H3.5v18zM49 13.2H33.5c-.8 0-1.5-.7-1.5-1.5s.7-1.5 1.5-1.5H49c.8 0 1.5.7 1.5 1.5s-.7 1.5-1.5 1.5zm0-9.9H33.5c-.8 0-1.5-.7-1.5-1.5S32.7.3 33.5.3H49c.8 0 1.5.7 1.5 1.5s-.7 1.5-1.5 1.5z"/></symbol><symbol viewBox="0 0 16 16" id="at" xmlns="http://www.w3.org/2000/svg"><path class="afst0" d="M8 15.6C3.8 15.6.4 12.2.4 8S3.8.4 8 .4s7.6 3.4 7.6 7.6v1.3c0 1.3-1.1 2.4-2.4 2.4-1 0-1.8-.6-2.2-1.4-.7.9-1.7 1.4-2.9 1.4C6 11.7 4.3 10 4.3 8S6 4.3 8 4.3c1.1 0 2 .5 2.7 1.2v-.7h1v4.5c0 .8.6 1.4 1.4 1.4s1.4-.6 1.4-1.4V8c0-3.6-2.9-6.6-6.6-6.6-3.5 0-6.5 3-6.5 6.6 0 3.6 2.9 6.6 6.6 6.6v1zM8 5.3C6.5 5.3 5.3 6.5 5.3 8c0 1.5 1.2 2.7 2.7 2.7 1.5 0 2.7-1.2 2.7-2.7 0-1.5-1.2-2.7-2.7-2.7z"/></symbol><symbol viewBox="0 0 442.6 335.1" id="check" xmlns="http://www.w3.org/2000/svg"><path d="M410.8 3.5l-280 280-99-99c-4.7-4.7-12.3-4.7-17 0L3.5 195.8c-4.7 4.7-4.7 12.3 0 17l118.8 118.8c4.7 4.7 12.3 4.7 17 0L439.1 31.8c4.7-4.7 4.7-12.3 0-17L427.8 3.5c-4.7-4.7-12.3-4.7-17 0z"/></symbol><symbol viewBox="0 0 512 512" id="clock" xmlns="http://www.w3.org/2000/svg"><path d="M256 8C119 8 8 119 8 256s111 248 248 248 248-111 248-248S393 8 256 8zm0 448c-110.5 0-200-89.5-200-200S145.5 56 256 56s200 89.5 200 200-89.5 200-200 200zm61.8-104.4l-84.9-61.7c-3.1-2.3-4.9-5.9-4.9-9.7V116c0-6.6 5.4-12 12-12h32c6.6 0 12 5.4 12 12v141.7l66.8 48.6c5.4 3.9 6.5 11.4 2.6 16.8L334.6 349c-3.9 5.3-11.4 6.5-16.8 2.6z"/></symbol><symbol viewBox="0 0 576 448" id="creditcard" xmlns="http://www.w3.org/2000/svg"><path d="M528 0H48C21.5 0 0 21.5 0 48v352c0 26.5 21.5 48 48 48h480c26.5 0 48-21.5 48-48V48c0-26.5-21.5-48-48-48zM48 32h480c8.8 0 16 7.2 16 16v48H32V48c0-8.8 7.2-16 16-16zm480 384H48c-8.8 0-16-7.2-16-16V192h512v208c0 8.8-7.2 16-16 16zm-336-84v8c0 6.6-5.4 12-12 12h-72c-6.6 0-12-5.4-12-12v-8c0-6.6 5.4-12 12-12h72c6.6 0 12 5.4 12 12zm192 0v8c0 6.6-5.4 12-12 12H236c-6.6 0-12-5.4-12-12v-8c0-6.6 5.4-12 12-12h136c6.6 0 12 5.4 12 12z"/></symbol><symbol viewBox="0 0 72.8 72.8" id="ebplus_icon" xmlns="http://www.w3.org/2000/svg"><path d="M36.4 0C16.3 0 0 16.3 0 36.4s16.3 36.4 36.4 36.4 36.4-16.3 36.4-36.4S56.5 0 36.4 0zm20.1 41.9H42.2v14.2H30.6V41.9H16.3V31.4h14.2V17.2h11.7v14.1h14.2v10.6z"/></symbol><symbol viewBox="0 122.1 595.3 597.4" id="ebplus_sort" xmlns="http://www.w3.org/2000/svg"><path d="M237.4 122.1h120.5v238.5h237.4V481H357.9v238.5H237.4V481H0V360.5h237.4V122.1z"/></symbol><symbol viewBox="0 0 230 60" fill="none" id="ebupdate" xmlns="http://www.w3.org/2000/svg"><path d="M0 9.23C0 4.134 4.119 0 9.2 0h211.6c5.082 0 9.2 4.133 9.2 9.23v41.54c0 5.097-4.118 9.23-9.2 9.23H9.2C4.119 60 0 55.867 0 50.77z" fill="#000"/><path d="M81.935 18.989h4.669v12.525c0 1.988.058 3.276.174 3.865.199.947.673 1.71 1.419 2.288.758.568 1.788.852 3.092.852 1.325 0 2.325-.268 2.998-.805.673-.547 1.078-1.215 1.214-2.003.137-.79.205-2.098.205-3.928V18.989h4.67v12.147c0 2.776-.126 4.738-.379 5.884-.252 1.146-.72 2.114-1.404 2.903-.673.788-1.577 1.42-2.713 1.893-1.136.462-2.619.694-4.449.694-2.208 0-3.886-.253-5.032-.757-1.136-.516-2.035-1.178-2.698-1.988-.662-.82-1.099-1.678-1.309-2.571-.305-1.326-.457-3.282-.457-5.869zm23.379 23.126V18.99h7.493c2.839 0 4.69.116 5.553.347 1.325.347 2.434 1.104 3.328 2.272.894 1.156 1.341 2.655 1.341 4.496 0 1.42-.258 2.613-.773 3.58-.515.968-1.173 1.73-1.972 2.288-.789.547-1.593.91-2.413 1.088-1.115.221-2.73.332-4.843.332h-3.045v8.723zm4.669-19.214v6.563h2.556c1.84 0 3.07-.121 3.691-.363.62-.242 1.104-.62 1.451-1.136.358-.515.537-1.115.537-1.798 0-.842-.247-1.536-.742-2.083-.494-.547-1.12-.888-1.877-1.025-.557-.105-1.677-.158-3.36-.158zm16.864-3.912h8.534c1.925 0 3.392.147 4.401.442a7.736 7.736 0 013.487 2.13c.967 1.02 1.703 2.27 2.208 3.754.505 1.472.758 3.292.758 5.458 0 1.904-.237 3.544-.71 4.922-.579 1.683-1.404 3.045-2.477 4.086-.81.788-1.904 1.404-3.281 1.845-1.031.326-2.409.49-4.133.49h-8.787zm4.669 3.912V38.22h3.487c1.304 0 2.245-.074 2.823-.221.758-.19 1.383-.51 1.878-.962.504-.453.915-1.194 1.23-2.225.316-1.04.473-2.455.473-4.243 0-1.788-.157-3.16-.473-4.117-.315-.958-.757-1.704-1.325-2.24-.568-.537-1.288-.9-2.161-1.089-.652-.147-1.93-.22-3.834-.22zm39.549 19.214h-5.08l-2.019-5.253h-9.244l-1.909 5.253h-4.954l9.008-23.126h4.938zm-8.598-9.15l-3.186-8.581-3.124 8.582zm13.898 9.15V22.901h-6.862V18.99h18.378v3.91h-6.846v19.214zm14.545 0V18.99h17.148v3.91H195.58v5.127h11.61v3.897h-11.61v6.294h12.919v3.896z" fill="#fff"/><g filter="url(#alfilter0_d)"><path d="M0 9.23A9.23 9.23 0 019.23 0h41.54A9.23 9.23 0 0160 9.23v41.54A9.23 9.23 0 0150.77 60H9.23A9.23 9.23 0 010 50.77z" fill="url(#alpaint0_linear)"/></g><path d="M26.166 33.441l-6.58-2.531c-1.15-.443-1.495-1.85-.672-2.741L33.74 12.125c1.249-1.352 3.542-.173 3.068 1.577L33.32 26.558l6.58 2.532c1.15.443 1.495 1.85.672 2.741L25.747 47.875c-1.249 1.352-3.542.173-3.068-1.577z" fill="#fff"/><defs id="aldefs127"><linearGradient id="alpaint0_linear" x1="75.455" y1="20" x2="74.436" y2="80.029" gradientUnits="userSpaceOnUse" gradientTransform="translate(-40 -20)"><stop stop-color="#1058C2" id="alstop122"/><stop offset="1" stop-color="#00A3FF" id="alstop124"/></linearGradient><filter id="alfilter0_d" x="0" y="0" width="140" height="140" filterUnits="userSpaceOnUse" color-interpolation-filters="sRGB"><feFlood flood-opacity="0" result="BackgroundImageFix" id="alfeFlood107"/><feColorMatrix in="SourceAlpha" type="matrix" values="0 0 0 0 0 0 0 0 0 0 0 0 0 0 0 0 0 0 127 0" result="hardAlpha" id="alfeColorMatrix109"/><feOffset dy="20" id="alfeOffset111"/><feGaussianBlur stdDeviation="20" id="alfeGaussianBlur113"/><feColorMatrix type="matrix" values="0 0 0 0 0 0 0 0 0 0 0 0 0 0 0 0 0 0 0.08 0" id="alfeColorMatrix115"/><feBlend mode="normal" in2="BackgroundImageFix" result="effect1_dropShadow" id="alfeBlend117"/><feBlend mode="normal" in="SourceGraphic" in2="effect1_dropShadow" result="shape" id="alfeBlend119"/></filter></defs></symbol><symbol viewBox="0 0 100 88" id="ekstrabladet" xmlns="http://www.w3.org/2000/svg"><path fill="#B30000" d="M0-.9h100V78l-49.5 9.5L0 77.6V-.9z"/><path fill="#FFF" d="M23 42.3H10.6v-4.5h9.8v-3.4h-9.8v-4.6h11.5v-3.3h-16v19.6h17zM39.7 46.1l-6-8.8 5-5.4h-4.8l-5.2 5.6v-11h-3.9v19.6h3.9v-3.9l2.3-2.3 3.8 6.2z"/><path fill="#FFF" d="M46.3 43.9c-2.4 0-3.1-.5-3.5-2h-3.7c0 3.1 2.5 4.9 6.7 4.9 4.7 0 7.5-1.8 7.5-4.8 0-2-1.6-3.7-3.6-4.1l-5.6-.9c-.6-.1-1.2-.7-1.2-1.4 0-.8.8-1.4 2.3-1.4 3 0 3.5.4 3.6 2h3.8v-.5c0-2.4-2.8-4.5-6.5-4.5-4.2 0-6.9 1.8-6.9 4.9 0 1.8 1.3 3.6 3 3.8l5.8 1c.8.1 1.3.5 1.3 1.2.1 1.2-.8 1.8-3 1.8zM56.5 42.6c0 2.6 1.7 4.2 4.7 4.2 1.1 0 2-.2 3.6-1v-1.9c-.7.1-1.7.1-2 .1-1.6 0-2.2-.6-2.2-1.8v-7.6h3.8V32h-3.8v-5.4h-2.9l-.1 1.2c-.6 3.8-.7 4.2-1.8 4.2h-2.5v2.6h3.4l-.2 8zM70.8 39.9c0-3.1 1.7-4.8 4.7-4.8h1.7v-3.6H76c-2.3 0-4.1 1.1-5.3 3.2V32h-3.8v14.2h4v-6.3zM91 41.5v-5.9c0-1.7-.2-2.3-1-2.8-1.3-1.1-3.4-1.6-5.8-1.6-4.3 0-6.3 1.4-6.6 4.8h3.7c.2-1.6 1-2 3-2 2.2 0 2.9.6 2.9 2.3 0 .7-.2 1-1.1 1.1l-4.1.5c-4.1.5-5.6 1.8-5.6 4.6 0 2.6 2 4.2 5.4 4.2 2.5 0 4.1-.8 5.5-2.9.8 2.2 1.8 2.9 3.7 2.9 1 0 1.8-.2 3.4-1.1v-1.8c-.8.1-1.4.1-1.7.1-1.2 0-1.7-.7-1.7-2.4zm-8 2.4c-1.4 0-2.3-.7-2.3-1.8 0-1.6.7-1.9 5.3-2.8l1.2-.2c0 3.2-1.3 4.8-4.2 4.8zM20.1 58.8c2.8-.6 4.2-2.2 4.2-4.4 0-2.6-2.4-4.7-5.5-4.7H6.1v19.5h12.5c3.7 0 6.4-2.2 6.4-5.3 0-2.7-1.6-4.2-4.9-5.1zm-9.5-6h5.9c2.3 0 3.1.6 3.1 2.3 0 1.8-.8 2.4-3.1 2.4h-5.9v-4.7zm5.9 12.9h-6v-5.3h6c2.4 0 3.5.8 3.5 2.6 0 2.1-.9 2.7-3.5 2.7zM26.9 49.8H31v19.5h-4.1zM47.4 64.9l-.1-6.9c-.1-2.3-2.5-3.6-6.6-3.6-5.1 0-6.9 1.2-7.1 4.8h3.8c.2-1.4.8-1.9 2.9-1.9 2.4 0 3.1.5 3.1 2.2 0 .7-.4 1-1.2 1.1-.2 0-1.9.1-4.1.5-3.8.5-5.4 1.8-5.4 4.6 0 2.6 1.9 4.2 5.3 4.2 2.6 0 4.1-.7 5.6-2.9.7 2 1.8 2.9 3.9 2.9 1 0 1.7-.2 2.9-.8v-2c-.5.1-.8.1-1.2.1-1.3-.1-1.8-.7-1.8-2.3zm-8 2.1c-1.7 0-2.5-.6-2.5-1.7 0-1.3 1-2 3.1-2.4 1.9-.2 1.8-.2 3.2-.6.1 3.1-1.2 4.7-3.8 4.7zM61.7 57.3c-1.3-1.9-2.8-2.8-4.9-2.8-3.8 0-6.7 3.2-6.7 7.6 0 4.8 2.5 7.8 6.6 7.8 2.3 0 3.4-.6 5.2-2.8v2.3h3.9V49.8h-4v7.5zm-4.1 9.8c-2.4 0-3.5-1.7-3.5-4.9 0-3 1.2-4.7 3.5-4.7 2.2 0 3.6 1.9 3.6 4.7 0 3-1.4 4.9-3.6 4.9zM75.5 54.6c-4.5 0-7.8 3.4-7.8 7.7 0 4.6 3.2 7.8 7.8 7.8 4.4 0 7.2-1.8 7.7-5.1h-3.8c-.5 1.6-1.3 2-3.4 2-2.8 0-4.1-1.3-4.1-4h11.3c0-5-3-8.4-7.7-8.4zM72 60.9c.2-2.3 1.3-3.5 3.4-3.5 2.2 0 3.2 1.1 3.4 3.5H72zM90.3 65.7v-7.6h4v-2.9h-4v-5.3h-2.9l-.1 1.1c-.7 4.2-.6 4.2-1.7 4.2h-2.3v2.9h3l-.1 6.9v.5c0 3.2 1.4 4.7 4.6 4.7 1.6 0 2.4-.1 3.7-.8v-2.2c-.8.1-1.7.1-2 .1-1.6-.1-2.2-.5-2.2-1.6z"/></symbol><symbol viewBox="0 0 512 384" id="envelope" xmlns="http://www.w3.org/2000/svg"><path d="M464 0H48C21.5 0 0 21.5 0 48v288c0 26.5 21.5 48 48 48h416c26.5 0 48-21.5 48-48V48c0-26.5-21.5-48-48-48zM48 32h416c8.8 0 16 7.2 16 16v41.4c-21.9 18.5-53.2 44-150.6 121.3-16.9 13.4-50.2 45.7-73.4 45.3-23.2.4-56.6-31.9-73.4-45.3C85.2 133.4 53.9 107.9 32 89.4V48c0-8.8 7.2-16 16-16zm416 320H48c-8.8 0-16-7.2-16-16V131c22.8 18.7 58.8 47.6 130.7 104.7 20.5 16.4 56.7 52.5 93.3 52.3 36.4.3 72.3-35.5 93.3-52.3 71.9-57.1 107.9-86 130.7-104.7v205c0 8.8-7.2 16-16 16z"/></symbol><symbol viewBox="0 0 34 16.4" id="figcaption-pin" xmlns="http://www.w3.org/2000/svg"><path d="M15.6.8c.8-.8 2-.8 2.8 0l6.7 6.7c1.9 1.9 4.4 2.9 7.1 2.9H34v6H0v-6h1.9c2.7 0 5.2-1.1 7.1-2.9L15.6.8z" fill="#fff"/><path d="M9.7 12.9l6.6-6.6c.4-.4 1-.4 1.4 0l6.6 6.6c.6.6.2 1.7-.7 1.7H10.4c-.9 0-1.3-1-.7-1.7z"/></symbol><symbol viewBox="0 0 55 55" id="gallery" xmlns="http://www.w3.org/2000/svg"><path d="M43.7 54.5c-.3 0-.6 0-.9-.1l-32.7-6.6c-.8-.2-1.3-1-1.2-1.8.2-.8 1-1.3 1.8-1.2l32.8 6.6h.2c.1 0 .1 0 .6-.1h.1s0-.1.1-.1V51l7.1-35c0-.2 0-.4-.1-.6-.1-.1-.2-.2-.4-.3l-5.1-.8c-.8-.1-1.4-.9-1.2-1.7.1-.8.9-1.4 1.7-1.2l4.9.9c1 .2 1.8.7 2.4 1.5.6.9.8 1.9.6 2.9l-7.1 34.9c-.1 1-.8 2-1.7 2.5-.1 0-.1.1-.2.1l-.2.1c-.4 0-.9.2-1.5.2zm-4.1-11.2H4.2C2 43.3.5 41.7.5 39.6V4.2C.5 2 2.1.5 4.2.5h35.4c2.2 0 3.7 1.6 3.7 3.7v35.4c0 2.2-1.5 3.7-3.7 3.7zM3.5 36.7v2.9c0 .5.2.7.7.7h35.4c.5 0 .7-.2.7-.7v-2.9H3.5zm34.2-3h2.6V4.2c0-.5-.2-.7-.7-.7H4.2c-.5 0-.7.2-.7.7v29.5h2.6c.2-1.7.6-3.4 1.4-5.1 1.2-2.4 4.8-3.7 9.8-5.4.2-.5.2-1.7 0-2.1-2.1-2.4-3-5.2-2.8-8.1 0-2.2.6-4 1.9-5.5C17.8 5.9 19.7 5 22 5c2 0 3.9.9 5.5 2.4l.1.1c1.3 1.6 1.9 3.5 1.7 5.6.2 3-.8 5.9-2.7 7.9-.2.5-.2 1.8 0 2.3.6.2 1.3.5 1.9.7 4 1.5 6.9 2.6 7.9 4.6.7 1.7 1.2 3.4 1.3 5.1zm-28.6 0h25.6c-.2-1.3-.5-2.6-1.1-3.9-.4-.9-3.4-2-6.2-3-.7-.3-1.4-.5-2.2-.8-.5-.2-1.2-.7-1.5-1.8-.5-1.5-.3-3.9.4-4.9.1-.1.1-.2.2-.2 1.4-1.4 2.2-3.6 2-5.9v-.3c.2-1.3-.1-2.5-.9-3.4-.6-.6-1.8-1.5-3.3-1.5-1.4 0-2.5.5-3.3 1.5-.8 1-1.2 2.2-1.2 3.7v.1c-.2 2.2.5 4.2 2.1 6 .9.9 1.1 3.3.8 4.6-.4 1.6-1.3 2.1-1.8 2.3-2.8.9-7.5 2.5-8.2 3.9-.8 1-1.2 2.3-1.4 3.6zm8.2-12.6c0 .1 0 .1 0 0 0 .1 0 .1 0 0z"/></symbol><symbol viewBox="0 0 53 53" id="headphones" xmlns="http://www.w3.org/2000/svg"><path d="M14.9 52.7c-.5 0-1.1-.1-1.6-.3-.9-.4-1.6-1.2-2-2.3L6.7 38.3c-.4-1-.4-2.1.1-3 .4-.9 1.2-1.6 2.2-1.9l2-.9c1-.4 2.1-.4 3.1 0 .9.4 1.6 1.2 2 2.3l4.6 11.8c.4 1 .4 2.1-.1 3-.4.9-1.2 1.6-2.2 1.9l-2 .9c-.5.2-1 .3-1.5.3zm-2.4-17.6c-.1 0-.2 0-.3.1l-2 .9s-.1 0-.1.1c-.2.1-.4.2-.5.4-.1.2-.1.4 0 .7l4.7 11.9c.1.3.2.5.4.6.2.1.4.1.7 0l2-.9s.1 0 .1-.1c.2-.1.4-.2.5-.4.1-.2.1-.4 0-.7l-4.7-11.9c-.1-.3-.2-.5-.4-.6-.2-.1-.3-.1-.4-.1zM38 52.6c-.5 0-.9-.1-1.3-.3l-2.2-1c-1.9-.8-2.9-3.1-2.2-5L37 34.6c.8-2 3.1-3 5-2.2l2.2 1c.9.3 1.6 1.1 2.1 2 .5 1 .5 2 .1 3l-4.7 11.9c-.4.9-1.1 1.7-2 2.1-.6.1-1.1.2-1.7.2zm2.7-17.5c-.3 0-.7.3-.9.6l-4.7 11.9c-.2.4.1.9.6 1.1l2.2 1c.3.1.9-.2 1-.6l4.7-11.9c.1-.2.1-.4 0-.6-.1-.2-.3-.4-.5-.5l-2.2-1h-.2zm-.4 14.5zm3.7 2.9c-.2 0-.5-.1-.7-.2-.7-.4-1-1.3-.6-2 .1-.1 6.8-12.6 6.8-23.8 0-12.7-10.3-23-23-23s-23 10.3-23 23c0 11.1 6.7 23.7 6.8 23.8.4.7.1 1.6-.6 2-.7.4-1.6.1-2-.6C7.4 51.2.5 38.4.5 26.5c0-14.3 11.7-26 26-26s26 11.7 26 26c0 11.9-6.9 24.7-7.2 25.2-.3.5-.8.8-1.3.8z"/></symbol><symbol viewBox="0 0 512 512" id="headset" xmlns="http://www.w3.org/2000/svg"><path d="M192 208c0-17.67-14.33-32-32-32h-16c-35.35 0-64 28.65-64 64v48c0 35.35 28.65 64 64 64h16c17.67 0 32-14.33 32-32V208zm176 144c35.35 0 64-28.65 64-64v-48c0-35.35-28.65-64-64-64h-16c-17.67 0-32 14.33-32 32v112c0 17.67 14.33 32 32 32h16zM256 0C113.18 0 4.58 118.83 0 256v16c0 8.84 7.16 16 16 16h16c8.84 0 16-7.16 16-16v-16c0-114.69 93.31-208 208-208s208 93.31 208 208h-.12c.08 2.43.12 165.72.12 165.72 0 23.35-18.93 42.28-42.28 42.28H320c0-26.51-21.49-48-48-48h-32c-26.51 0-48 21.49-48 48s21.49 48 48 48h181.72c49.86 0 90.28-40.42 90.28-90.28V256C507.42 118.83 398.82 0 256 0z"/></symbol><symbol class="assvg-inline--fa asfa-history asfa-w-16" viewBox="0 0 512 512" id="history-regular" xmlns="http://www.w3.org/2000/svg"><path fill="currentColor" d="M504 255.532c.252 136.64-111.182 248.372-247.822 248.468-64.014.045-122.373-24.163-166.394-63.942-5.097-4.606-5.3-12.543-.443-17.4l16.96-16.96c4.529-4.529 11.776-4.659 16.555-.395C158.208 436.843 204.848 456 256 456c110.549 0 200-89.468 200-200 0-110.549-89.468-200-200-200-55.52 0-105.708 22.574-141.923 59.043l49.091 48.413c7.641 7.535 2.305 20.544-8.426 20.544H26.412c-6.627 0-12-5.373-12-12V45.443c0-10.651 12.843-16.023 20.426-8.544l45.097 44.474C124.866 36.067 187.15 8 256 8c136.811 0 247.747 110.781 248 247.532zm-167.058 90.173l14.116-19.409c3.898-5.36 2.713-12.865-2.647-16.763L280 259.778V116c0-6.627-5.373-12-12-12h-24c-6.627 0-12 5.373-12 12v168.222l88.179 64.13c5.36 3.897 12.865 2.712 16.763-2.647z"/></symbol><symbol viewBox="0 0 10 16" id="lightning" xmlns="http://www.w3.org/2000/svg"><path d="M3.339 9.491L.488 8.394a.733.733 0 01-.292-1.187L6.621.254C7.16-.332 8.156.179 7.95.938l-1.51 5.57 2.85 1.098a.733.733 0 01.292 1.187l-6.425 6.953c-.541.586-1.535.075-1.33-.684l1.512-5.57z"/></symbol><symbol viewBox="0 0 448 512" id="lock" xmlns="http://www.w3.org/2000/svg"><path d="M400 192h-32v-46.6C368 65.8 304 .2 224.4 0 144.8-.2 80 64.5 80 144v48H48c-26.5 0-48 21.5-48 48v224c0 26.5 21.5 48 48 48h352c26.5 0 48-21.5 48-48V240c0-26.5-21.5-48-48-48zm-272-48c0-52.9 43.1-96 96-96s96 43.1 96 96v48H128v-48zm272 320H48V240h352v224z"/></symbol><symbol viewBox="0 0 63.6 81.5" id="medielogin" xmlns="http://www.w3.org/2000/svg"><path d="M0 70.7h63.3v10.9H0z"/><path d="M0 81.5l21.2-19.7v-14L0 67.5z"/><path d="M31.8 0C14.2 0 0 14.2 0 31.8c0 13.8 8.9 25.6 21.2 30v-14c-5.2-3.4-8.6-9.3-8.6-16 0-10.6 8.6-19.2 19.2-19.2S51 21.2 51 31.8c0 6.7-3.4 12.5-8.6 16v14c12.3-4.4 21.2-16.1 21.2-30C63.6 14.2 49.3 0 31.8 0z"/><path d="M63.6 81.5L42.4 61.7V47.8l21.2 19.7z"/></symbol><symbol viewBox="0 0 30 30" id="menu-bars" xmlns="http://www.w3.org/2000/svg"><path d="M0 4.3h30v4H0zM0 12.3h30v4H0zM0 20.3h30v4H0z"/></symbol><symbol viewBox="0 0 512 512" id="miteb-regular" xmlns="http://www.w3.org/2000/svg"><path d="M210.3 26.5H22.5C10 26.5-.1 36.5-.1 48.8v115.4c0 12.3 10.1 22.3 22.6 22.3h187.8c12.5 0 22.6-10 22.6-22.3V48.8c.1-12.3-10.1-22.3-22.6-22.3zm-23.3 115H45.8V71.7H187v69.8zm302.4-115H301.6c-12.5 0-22.6 10-22.6 22.3v231.1c0 12.3 10.1 22.3 22.6 22.3h187.8c12.5 0 22.6-10 22.6-22.3V48.8c0-12.3-10.1-22.3-22.6-22.3zm-23.3 230.7H324.9V71.7h141.2v185.5zm-255.8-21.9H22.5c-12.5 0-22.6 10-22.6 22.3v205.6c0 12.3 10.1 22.3 22.6 22.3h187.8c12.5 0 22.6-10 22.6-22.3V257.6c.1-12.3-10.1-22.3-22.6-22.3zM187 440.5H45.8v-160H187v160zm302.4-90.4H301.6c-12.5 0-22.6 10-22.6 22.3v90.8c0 12.3 10.1 22.3 22.6 22.3h187.8c12.5 0 22.6-10 22.6-22.3v-90.8c0-12.3-10.1-22.3-22.6-22.3zm-23.3 90.4H324.9v-45.2h141.2v45.2z"/></symbol><symbol viewBox="0 0 512 512" id="miteb-solid" xmlns="http://www.w3.org/2000/svg"><path d="M210.3 26.5H22.5C10 26.5-.1 36.5-.1 48.8v115.4c0 12.3 10.1 22.3 22.6 22.3h187.8c12.5 0 22.6-10 22.6-22.3V48.8c.1-12.3-10.1-22.3-22.6-22.3zm279.1 0H301.6c-12.5 0-22.6 10-22.6 22.3v231.1c0 12.3 10.1 22.3 22.6 22.3h187.8c12.5 0 22.6-10 22.6-22.3V48.8c0-12.3-10.1-22.3-22.6-22.3zM210.3 235.3H22.5c-12.5 0-22.6 10-22.6 22.3v205.6c0 12.3 10.1 22.3 22.6 22.3h187.8c12.5 0 22.6-10 22.6-22.3V257.6c.1-12.3-10.1-22.3-22.6-22.3zm279.1 114.8H301.6c-12.5 0-22.6 10-22.6 22.3v90.8c0 12.3 10.1 22.3 22.6 22.3h187.8c12.5 0 22.6-10 22.6-22.3v-90.8c0-12.3-10.1-22.3-22.6-22.3z"/></symbol><symbol viewBox="0 0 42 39" id="newspaper" xmlns="http://www.w3.org/2000/svg"><path d="M35.8 38.5H6.2c-3.5 0-6.2-2.7-6.2-6.2V2.7C0 1.2 1.2 0 2.7 0h26.1c1.6 0 2.7 1.2 2.7 2.7v29.6c0 2.4 1.8 4.2 4.2 4.2s4.2-1.8 4.2-4.2V6.2c0-.6.4-1 1-1s1 .4 1 1v26.1c.1 3.5-2.6 6.2-6.1 6.2zM2.7 2c-.5 0-.7.2-.7.7v29.6c0 2.4 1.8 4.2 4.2 4.2h25c-1-1.1-1.6-2.6-1.6-4.2V2.7c0-.5-.2-.7-.7-.7H2.7zm33.1 31.8c-.6 0-1-.4-1-1V6.2c0-.6.4-1 1-1s1 .4 1 1v26.5c0 .6-.5 1.1-1 1.1zm-10.5-4H6.2c-.6 0-1-.4-1-1s.4-1 1-1h19.1c.6 0 1 .4 1 1s-.4 1-1 1zm0-5.2H6.2c-.6 0-1-.4-1-1s.4-1 1-1h19.1c.6 0 1 .4 1 1s-.4 1-1 1zm0-5.2h-4.9c-.6 0-1-.4-1-1s.4-1 1-1h4.9c.6 0 1 .4 1 1s-.4 1-1 1zm-9.5 0H7.1c-1.1 0-1.9-.8-1.9-1.9V8.8C5.2 7.8 6 7 7.1 7h8.7c1.1 0 1.9.8 1.9 1.9v8.7c0 1-.9 1.8-1.9 1.8zm-8.6-2h8.4V9H7.2v8.4zm18.1-3.2h-4.9c-.6 0-1-.4-1-1s.4-1 1-1h4.9c.6 0 1 .4 1 1s-.4 1-1 1zm0-5.2h-4.9c-.6 0-1-.4-1-1s.4-1 1-1h4.9c.6 0 1 .4 1 1s-.4 1-1 1z"/></symbol><symbol viewBox="0 0 15 15" id="phone" xmlns="http://www.w3.org/2000/svg"><path d="M12.9 14.2h-.2c-6.3-.6-11.3-5.7-12-12 0-.5.1-.9.4-1.3.4-.3.9-.5 1.4-.5h2.3c.8 0 1.5.5 1.7 1.2l.7 2.2c.2.6 0 1.3-.4 1.8l-.4.4s-.1.1 0 .2c.7 1 1.3 1.6 2.4 2.4H9l.4-.4c.5-.5 1.2-.6 1.8-.4l2.2.7c.7.2 1.2.9 1.2 1.7v2.3c0 .5-.2 1-.6 1.3-.3.2-.7.4-1.1.4zM2.5 1.4c-.2 0-.4.1-.6.2-.1.2-.2.3-.1.5.5 5.9 5.2 10.5 11 11.1.2 0 .4 0 .5-.2.2-.1.2-.3.2-.6v-2.3c0-.3-.2-.6-.5-.7l-2.2-.7c-.3-.1-.6 0-.8.2l-.4.3c-.4.4-1 .4-1.4.1C7 8.5 6.3 7.9 5.6 6.7c-.3-.4-.2-1 .1-1.4l.4-.3c.2-.2.3-.5.2-.8l-.8-2.3c-.1-.3-.4-.5-.7-.5H2.5zM14 5.2c-.3 0-.5-.2-.5-.5 0-1.9-1.5-3.4-3.4-3.4-.3 0-.5-.2-.5-.5s.2-.5.5-.5c2.4 0 4.4 2 4.4 4.4 0 .3-.2.5-.5.5zm-2.5 0c-.3 0-.5-.2-.5-.4 0-.5-.4-.8-.8-.8-.3 0-.5-.3-.5-.5s.2-.5.5-.5c1 0 1.8.8 1.8 1.8 0 .2-.2.4-.5.4z"/></symbol><symbol class="bbsvg-inline--fa bbfa-play-circle bbfa-w-16" viewBox="0 0 512 512" id="play" xmlns="http://www.w3.org/2000/svg"><path d="M256 504c137 0 248-111 248-248S393 8 256 8 8 119 8 256s111 248 248 248zM40 256c0-118.7 96.1-216 216-216 118.7 0 216 96.1 216 216 0 118.7-96.1 216-216 216-118.7 0-216-96.1-216-216zm331.7-18l-176-107c-15.8-8.8-35.7 2.5-35.7 21v208c0 18.4 19.8 29.8 35.7 21l176-101c16.4-9.1 16.4-32.8 0-42zM192 335.8V176.9c0-4.7 5.1-7.6 9.1-5.1l134.5 81.7c3.9 2.4 3.8 8.1-.1 10.3L201 341c-4 2.3-9-.6-9-5.2z"/></symbol><symbol viewBox="0 0 24 10" id="rss" xmlns="http://www.w3.org/2000/svg"><path d="M0 9V.4h3.7c.9 0 1.6.1 2 .2.4.2.8.4 1 .8.2.5.3.9.3 1.4 0 .7-.2 1.2-.5 1.6-.4.4-1 .7-1.7.8.4.2.7.5.9.7.2.3.6.7 1 1.4l1 1.7H5.6L4.4 7.1c-.5-.6-.8-1.1-.9-1.2-.2-.2-.4-.3-.5-.4-.2-.1-.5-.1-.9-.1h-.4V9H0zm1.7-5H3c.8 0 1.4 0 1.6-.1s.4-.2.5-.4c.1-.2.2-.4.2-.6 0-.3-.1-.5-.2-.7-.2-.1-.5-.3-.7-.3H1.7V4zM8.2 6.2L9.9 6c.1.6.3 1 .6 1.2.3.3.7.4 1.3.4.6 0 1-.1 1.3-.4.3-.2.4-.5.4-.8 0-.2-.1-.4-.2-.5-.1-.1-.3-.3-.6-.4-.2-.1-.7-.2-1.4-.4-.9-.2-1.6-.5-2-.8-.5-.5-.8-1-.8-1.7 0-.4.1-.8.4-1.2.3-.3.6-.6 1.1-.8.5-.2 1-.3 1.7-.3 1.1 0 1.9.2 2.4.7.5.5.8 1.1.9 1.9l-1.7.1c-.1-.5-.3-.8-.5-1-.2-.2-.6-.3-1.1-.3-.5 0-.9.1-1.2.3-.2.1-.3.3-.3.5s.1.4.3.5c.2.2.8.4 1.6.6.8.2 1.5.4 1.9.6.4.2.7.5.9.9.2.4.3.8.3 1.4 0 .5-.1 1-.4 1.4-.3.4-.7.8-1.2 1-.5.2-1.1.3-1.9.3-1.1 0-1.9-.2-2.5-.8-.5-.5-.9-1.2-1-2.2zM16.2 6.2l1.7-.2c.1.6.3 1 .6 1.2.3.3.7.4 1.3.4.6 0 1-.1 1.3-.4.3-.2.4-.5.4-.8 0-.2-.1-.4-.2-.5-.1-.1-.3-.3-.6-.4-.2-.1-.7-.2-1.4-.4-.9-.2-1.6-.5-2-.8-.5-.5-.8-1-.8-1.7 0-.4.1-.8.4-1.2.2-.4.6-.7 1.1-.9.5-.2 1-.3 1.7-.3 1.1 0 1.9.2 2.4.7.5.5.8 1.1.9 1.9l-1.7.1c-.1-.4-.3-.7-.5-.9-.2-.2-.6-.3-1.1-.3-.5 0-.9.1-1.2.3-.2.1-.3.3-.3.5s.1.4.3.5c.2.2.8.4 1.6.6.8.2 1.5.4 1.9.6.4.2.7.5.9.9.2.4.3.8.3 1.4 0 .5-.1 1-.4 1.4-.3.4-.7.8-1.2 1-.5.2-1.1.3-1.9.3-1.1 0-1.9-.2-2.5-.8-.5-.5-.9-1.2-1-2.2z"/></symbol><symbol viewBox="0 0 320 512" id="smartphone" xmlns="http://www.w3.org/2000/svg"><path d="M272 0H48C21.5 0 0 21.5 0 48v416c0 26.5 21.5 48 48 48h224c26.5 0 48-21.5 48-48V48c0-26.5-21.5-48-48-48zM160 480c-17.7 0-32-14.3-32-32s14.3-32 32-32 32 14.3 32 32-14.3 32-32 32zm112-108c0 6.6-5.4 12-12 12H60c-6.6 0-12-5.4-12-12V60c0-6.6 5.4-12 12-12h200c6.6 0 12 5.4 12 12v312z"/></symbol><symbol class="besvg-inline--fa befa-star befa-w-18" viewBox="0 0 576 512" id="star-regular" xmlns="http://www.w3.org/2000/svg"><path fill="currentColor" d="M528.1 171.5L382 150.2 316.7 17.8c-11.7-23.6-45.6-23.9-57.4 0L194 150.2 47.9 171.5c-26.2 3.8-36.7 36.1-17.7 54.6l105.7 103-25 145.5c-4.5 26.3 23.2 46 46.4 33.7L288 439.6l130.7 68.7c23.2 12.2 50.9-7.4 46.4-33.7l-25-145.5 105.7-103c19-18.5 8.5-50.8-17.7-54.6zM388.6 312.3l23.7 138.4L288 385.4l-124.3 65.3 23.7-138.4-100.6-98 139-20.2 62.2-126 62.2 126 139 20.2-100.6 98z"/></symbol><symbol class="bfsvg-inline--fa bffa-tag bffa-w-16" viewBox="0 0 512 512" id="tag-regular" xmlns="http://www.w3.org/2000/svg"><path d="M497.941 225.941L286.059 14.059A48 48 0 00252.118 0H48C21.49 0 0 21.49 0 48v204.118a47.998 47.998 0 0014.059 33.941l211.882 211.882c18.745 18.745 49.137 18.746 67.882 0l204.118-204.118c18.745-18.745 18.745-49.137 0-67.882zM259.886 463.996L48 252.118V48h204.118L464 259.882 259.886 463.996zM192 144c0 26.51-21.49 48-48 48s-48-21.49-48-48 21.49-48 48-48 48 21.49 48 48z"/></symbol><symbol class="bgsvg-inline--fa bgfa-tag bgfa-w-16" viewBox="0 0 512 512" id="tag-solid" xmlns="http://www.w3.org/2000/svg"><path d="M0 252.118V48C0 21.49 21.49 0 48 0h204.118a48 48 0 0133.941 14.059l211.882 211.882c18.745 18.745 18.745 49.137 0 67.882L293.823 497.941c-18.745 18.745-49.137 18.745-67.882 0L14.059 286.059A48 48 0 010 252.118zM112 64c-26.51 0-48 21.49-48 48s21.49 48 48 48 48-21.49 48-48-21.49-48-48-48z"/></symbol><symbol class="bhsvg-inline--fa bhfa-tags bhfa-w-20" viewBox="0 0 640 512" id="tags-regular" xmlns="http://www.w3.org/2000/svg"><path d="M625.941 293.823L421.823 497.941c-18.746 18.746-49.138 18.745-67.882 0l-.36-.36L592 259.882 331.397 0h48.721a48 48 0 0133.941 14.059l211.882 211.882c18.745 18.745 18.745 49.137 0 67.882zm-128 0L293.823 497.941C284.451 507.314 272.166 512 259.882 512c-12.284 0-24.569-4.686-33.941-14.059L14.059 286.059A48 48 0 010 252.118V48C0 21.49 21.49 0 48 0h204.118a47.998 47.998 0 0133.941 14.059l211.882 211.882c18.745 18.745 18.745 49.137 0 67.882zM464 259.882L252.118 48H48v204.118l211.886 211.878L464 259.882zM144 96c-26.51 0-48 21.49-48 48s21.49 48 48 48 48-21.49 48-48-21.49-48-48-48z"/></symbol><symbol class="bisvg-inline--fa bifa-tags bifa-w-20" viewBox="0 0 640 512" id="tags-solid" xmlns="http://www.w3.org/2000/svg"><path d="M497.941 225.941L286.059 14.059A48 48 0 00252.118 0H48C21.49 0 0 21.49 0 48v204.118a48 48 0 0014.059 33.941l211.882 211.882c18.744 18.745 49.136 18.746 67.882 0l204.118-204.118c18.745-18.745 18.745-49.137 0-67.882zM112 160c-26.51 0-48-21.49-48-48s21.49-48 48-48 48 21.49 48 48-21.49 48-48 48zm513.941 133.823L421.823 497.941c-18.745 18.745-49.137 18.745-67.882 0l-.36-.36L527.64 323.522c16.999-16.999 26.36-39.6 26.36-63.64s-9.362-46.641-26.36-63.64L331.397 0h48.721a48 48 0 0133.941 14.059l211.882 211.882c18.745 18.745 18.745 49.137 0 67.882z"/></symbol><symbol class="bjsvg-inline--fa bjfa-toggle-off bjfa-w-18" viewBox="0 0 576 512" id="toggle-off" xmlns="http://www.w3.org/2000/svg"><path fill="currentColor" d="M384 64H192C85.961 64 0 149.961 0 256s85.961 192 192 192h192c106.039 0 192-85.961 192-192S490.039 64 384 64zM48 256c0-79.583 64.404-144 144-144 79.582 0 144 64.404 144 144 0 79.582-64.404 144-144 144-79.582 0-144-64.404-144-144zm336 144h-65.02c86.704-76.515 86.683-211.504 0-288H384c79.582 0 144 64.404 144 144 0 79.582-64.404 144-144 144z"/></symbol><symbol class="bksvg-inline--fa bkfa-toggle-on bkfa-w-18" viewBox="0 0 576 512" id="toggle-on" xmlns="http://www.w3.org/2000/svg"><path fill="currentColor" d="M384 64H192C86 64 0 150 0 256s86 192 192 192h192c106 0 192-86 192-192S490 64 384 64zm0 336c-79.6 0-144-64.4-144-144s64.4-144 144-144 144 64.4 144 144-64.4 144-144 144z"/></symbol><symbol viewBox="0 0 51 48" id="video" xmlns="http://www.w3.org/2000/svg"><path d="M45 47.5H6.1C3 47.5.5 45 .5 41.9V6.1C.5 3 3 .5 6.1.5H45c3.1 0 5.6 2.5 5.6 5.6v35.8c0 3.1-2.5 5.6-5.6 5.6zM6.1 3.5c-1.4 0-2.6 1.2-2.6 2.6v35.8c0 1.4 1.2 2.6 2.6 2.6H45c1.4 0 2.6-1.2 2.6-2.6V6.1c0-1.4-1.2-2.6-2.6-2.6H6.1zm24.6 39.9c-2.1 0-3.5-1.5-3.5-3.5v-.5h-19c-.8 0-1.5-.7-1.5-1.5s.7-1.5 1.5-1.5h19v-.5c0-2.1 1.5-3.5 3.5-3.5s3.5 1.5 3.5 3.5v.5H43c.8 0 1.5.7 1.5 1.5s-.7 1.5-1.5 1.5h-8.7v.5c-.1 2-1.5 3.5-3.6 3.5zm-.6-5.6v2c0 .4.1.5.5.5s.5-.1.5-.5v-4.1c0-.4-.1-.5-.5-.5s-.5.1-.5.5v2.1zm-9.9-7.5c-.5 0-.9-.1-1.3-.4-.8-.5-1.3-1.3-1.3-2.3V13.7c0-1 .6-1.9 1.4-2.4.9-.5 1.9-.4 2.6.1l12 6.9c.8.4 1.4 1.3 1.4 2.3 0 1-.6 1.9-1.4 2.4l-12 6.9h-.1c-.4.3-.9.4-1.3.4zm.6-1.6zm.1-1.1zm-.2-13.3V27l11-6.3-11-6.4zM32.2 21zm0-.6zm-12.4-6.6z"/></symbol></svg>