<?xml version="1.0" encoding="utf-8"?><svg xmlns="http://www.w3.org/2000/svg" xmlns:xlink="http://www.w3.org/1999/xlink"><symbol fill="currentColor" viewBox="0 0 28 28" id="angle-down" xmlns="http://www.w3.org/2000/svg"><path fill-rule="evenodd" clip-rule="evenodd" d="M20.354 11.521a.5.5 0 00-.708 0l-5.771 5.772-5.771-5.772a.5.5 0 00-.708.708l6.125 6.125a.5.5 0 00.708 0l6.125-6.125a.5.5 0 000-.708z"/></symbol><symbol fill="currentColor" viewBox="0 0 28 28" id="angle-left" xmlns="http://www.w3.org/2000/svg"><path fill-rule="evenodd" clip-rule="evenodd" d="M16.479 7.646a.5.5 0 010 .708l-5.772 5.771 5.772 5.771a.5.5 0 01-.708.708l-6.125-6.125a.5.5 0 010-.708l6.125-6.125a.5.5 0 01.708 0z"/></symbol><symbol fill="currentColor" viewBox="0 0 28 28" id="angle-right" xmlns="http://www.w3.org/2000/svg"><path fill-rule="evenodd" clip-rule="evenodd" d="M11.521 7.646a.5.5 0 000 .708l5.772 5.771-5.772 5.771a.5.5 0 00.708.708l6.125-6.125a.5.5 0 000-.708l-6.125-6.125a.5.5 0 00-.708 0z"/></symbol><symbol fill="currentColor" viewBox="0 0 28 28" id="angle-up" xmlns="http://www.w3.org/2000/svg"><path fill-rule="evenodd" clip-rule="evenodd" d="M20.354 16.479a.5.5 0 01-.708 0l-5.771-5.772-5.771 5.772a.5.5 0 01-.708-.708l6.125-6.125a.5.5 0 01.708 0l6.125 6.125a.5.5 0 010 .708z"/></symbol><symbol fill="currentColor" viewBox="0 0 28 28" id="arrow" xmlns="http://www.w3.org/2000/svg"><path fill-rule="evenodd" clip-rule="evenodd" d="M16.271 7.521a.5.5 0 000 .708l5.272 5.271H3.456a.5.5 0 000 1h18.087l-5.271 5.271a.5.5 0 00.707.708l6.125-6.125a.5.5 0 000-.708l-6.125-6.125a.5.5 0 00-.707 0z"/></symbol><symbol fill="currentColor" viewBox="0 0 56 56" id="article" xmlns="http://www.w3.org/2000/svg"><path fill-rule="evenodd" clip-rule="evenodd" d="M6.057 9.052c-.009.01-.057.061-.057.22V25.79c0 .158.048.21.057.22.008.007.053.051.198.051h19.428c.145 0 .19-.044.198-.052.009-.009.057-.061.057-.22V9.272c0-.158-.048-.21-.057-.219-.008-.008-.053-.052-.198-.052H6.255c-.145 0-.19.044-.198.052zM4.633 7.647C5.066 7.21 5.647 7 6.255 7h19.428c.607 0 1.19.21 1.621.647.43.436.634 1.02.634 1.624v16.52c0 .605-.203 1.188-.634 1.624-.431.438-1.014.647-1.621.647H6.255c-.608 0-1.19-.21-1.622-.647-.43-.436-.633-1.02-.633-1.624V9.27c0-.604.203-1.188.633-1.624zM35.544 8a1 1 0 011-1H52a1 1 0 110 2H36.542a1 1 0 01-1-1zm0 8.95a1 1 0 011-1H52a1 1 0 010 2H36.542a1 1 0 01-1-1zm0 10.112a1 1 0 011-1H52a1 1 0 110 2H36.542a1 1 0 01-1-1zM4 37.174a1 1 0 011-1h47a1 1 0 110 2H5a1 1 0 01-1-1zm0 10.112a1 1 0 011-1h13a1 1 0 110 2H5a1 1 0 01-1-1zm20.5 0a1 1 0 011-1H30a1 1 0 110 2h-4.5a1 1 0 01-1-1z"/></symbol><symbol fill="currentColor" viewBox="0 0 28 28" id="at" xmlns="http://www.w3.org/2000/svg"><path fill-rule="evenodd" clip-rule="evenodd" d="M14 4C8.477 4 4 8.477 4 14s4.477 10 10 10a1 1 0 110 2C7.373 26 2 20.627 2 14S7.373 2 14 2s12 5.373 12 12v2a4 4 0 01-7.49 1.957A6 6 0 1118 9.528V9a1 1 0 112 0v7a2 2 0 104 0v-2c0-5.523-4.477-10-10-10zm4 10a4 4 0 10-8 0 4 4 0 008 0z"/></symbol><symbol fill="currentColor" viewBox="0 0 28 28" id="bookmark" xmlns="http://www.w3.org/2000/svg"><path fill-rule="evenodd" clip-rule="evenodd" d="M6.574 5.5H5c-.414 0-.797.14-1.079.421-.28.282-.421.665-.421 1.079v15c0 .414.14.797.421 1.079.282.28.665.421 1.079.421h18c.414 0 .797-.14 1.079-.421.28-.282.421-.665.421-1.079V7c0-.414-.14-.797-.421-1.079-.282-.28-.665-.421-1.079-.421h-8.574a1.409 1.409 0 00-.347-.579c-.282-.28-.665-.421-1.079-.421H8c-.414 0-.797.14-1.079.421-.163.164-.278.361-.347.579zM7.5 6c0-.186.06-.303.129-.371.068-.07.185-.129.371-.129h5c.186 0 .303.06.371.129.07.068.129.185.129.371v8.67l-2.624-3a.5.5 0 00-.752 0l-2.624 3V6zm7 .5V15c0 .17-.025.347-.093.507a.78.78 0 01-.421.432.76.76 0 01-.638-.045 1.403 1.403 0 01-.431-.373L10.5 12.76l-2.424 2.77a1.504 1.504 0 01-.444.332.81.81 0 01-.576.055.74.74 0 01-.456-.406 1.205 1.205 0 01-.1-.51V6.5H5c-.186 0-.303.06-.371.129-.07.068-.129.185-.129.371v15c0 .186.06.303.129.371.068.07.185.129.371.129h18c.186 0 .303-.06.371-.129.07-.068.129-.185.129-.371V7c0-.186-.06-.303-.129-.371-.068-.07-.185-.129-.371-.129h-8.5z"/><path fill-rule="evenodd" clip-rule="evenodd" d="M16.5 11a.5.5 0 01.5-.5h4a.5.5 0 010 1h-4a.5.5 0 01-.5-.5zM16.5 14a.5.5 0 01.5-.5h4a.5.5 0 010 1h-4a.5.5 0 01-.5-.5zM6.5 19a.5.5 0 01.5-.5h14a.5.5 0 010 1H7a.5.5 0 01-.5-.5z"/></symbol><symbol fill="currentColor" viewBox="0 0 28 28" id="calendar" xmlns="http://www.w3.org/2000/svg"><path fill-rule="evenodd" clip-rule="evenodd" d="M9 2.5a.5.5 0 01.5.5v1.501h9V3a.5.5 0 011 0v1.501h3.497c.828 0 1.498.67 1.498 1.499v3.934a.51.51 0 010 .137V23c0 .829-.67 1.499-1.498 1.499H4.998c-.828 0-1.498-.67-1.498-1.498V6c0-.828.67-1.499 1.498-1.499H8.5V3a.5.5 0 01.5-.5zm-.5 3.001H4.998A.497.497 0 004.5 6v3.503h18.995V6a.497.497 0 00-.498-.499H19.5V7a.5.5 0 01-1 0V5.501h-9V7a.5.5 0 01-1 0V5.501zm14.995 5.002H4.5v12.499c0 .276.222.498.498.498h18a.497.497 0 00.497-.498v-12.5z"/></symbol><symbol fill="currentColor" viewBox="0 0 28 28" id="check" xmlns="http://www.w3.org/2000/svg"><path fill-rule="evenodd" clip-rule="evenodd" d="M24.67 5.258a1 1 0 01.072 1.412L10.954 21.936a1 1 0 01-1.396.087L3.347 16.66a1 1 0 111.307-1.514l5.47 4.724L23.259 5.33a1 1 0 011.412-.072z"/></symbol><symbol fill="currentColor" viewBox="0 0 28 28" id="check-circle" xmlns="http://www.w3.org/2000/svg"><path fill-rule="evenodd" clip-rule="evenodd" d="M14 3C7.925 3 3 7.925 3 14s4.925 11 11 11 11-4.925 11-11S20.075 3 14 3zM1 14C1 6.82 6.82 1 14 1s13 5.82 13 13-5.82 13-13 13S1 21.18 1 14zm19.003-4.742a1 1 0 01.072 1.412l-7.013 7.765a1 1 0 01-1.389.092L8.02 15.43a1 1 0 111.293-1.525l2.914 2.471 6.364-7.045a1 1 0 011.412-.072z"/></symbol><symbol fill="currentColor" viewBox="0 0 28 28" id="clock" xmlns="http://www.w3.org/2000/svg"><path d="M14 8.5a.5.5 0 00-1 0v4.951c0 .513.262.99.695 1.265l5.037 3.206a.5.5 0 10.536-.844l-5.036-3.205A.5.5 0 0114 13.45V8.5z"/><path fill-rule="evenodd" clip-rule="evenodd" d="M14 2C7.324 2 2 7.324 2 14s5.324 12 12 12 12-5.324 12-12S20.676 2 14 2zM3 14C3 7.876 7.876 3 14 3s11 4.876 11 11-4.876 11-11 11S3 20.124 3 14z"/></symbol><symbol fill="currentColor" viewBox="0 0 28 28" id="cog" xmlns="http://www.w3.org/2000/svg"><path fill-rule="evenodd" clip-rule="evenodd" d="M13.048 3.636l-.488 1.273c-.214.884-.904 1.5-1.63 1.792a3.026 3.026 0 01-2.387-.034l-1.22-.613c-.302-.119-.731-.06-1.133.276-.2.168-.326.593-.144 1.031l.62 1.348a3.051 3.051 0 01-.013 2.435 3.264 3.264 0 01-1.672 1.53.97.97 0 01-.077.028l-1.297.401a1.07 1.07 0 00-.607.95c0 .413.258.793.633.961l1.267.49c.884.215 1.496.91 1.786 1.637a3.051 3.051 0 01-.034 2.388l-.61 1.226c-.12.308-.06.743.275 1.148.167.2.585.324 1.016.144l1.342-.622a3.025 3.025 0 012.435.014 3.267 3.267 0 011.52 1.668l.518 1.247c.166.386.548.646.956.646.396 0 .766-.244.94-.61l.387-1.261c.203-.905.903-1.534 1.64-1.83a3.025 3.025 0 012.386.034l1.223.614a.93.93 0 001.064-.216c.02-.021.043-.042.066-.061.199-.167.324-.585.15-1.019l-.612-1.227a3.051 3.051 0 010-2.463 3.264 3.264 0 011.67-1.53l.013-.006 1.336-.516a1.07 1.07 0 00.633-.961 1.07 1.07 0 00-.607-.95l-1.255-.388c-.905-.205-1.53-.91-1.824-1.646a3.051 3.051 0 01.034-2.388l.611-1.227c.154-.382.095-.769-.215-1.08a1.006 1.006 0 01-.061-.067c-.167-.2-.585-.325-1.016-.144l-1.342.622a3.026 3.026 0 01-2.434-.014 3.267 3.267 0 01-1.524-1.676.998.998 0 01-.028-.077L14.94 3.61A1.06 1.06 0 0014 3a1.06 1.06 0 00-.952.636zm-1.846-.77C11.662 1.785 12.74 1 14 1s2.338.786 2.798 1.865c.014.033.026.066.036.1l.404 1.317c.112.258.325.471.516.579.259.095.496.092.756-.008l1.33-.616a.871.871 0 01.026-.011c1.014-.437 2.447-.359 3.326.663.908.937 1.052 2.201.597 3.268a.953.953 0 01-.024.053l-.605 1.216c-.101.273-.097.523.012.798.118.296.308.416.416.438.033.006.066.014.099.024l1.356.42c.034.01.067.023.1.037A3.07 3.07 0 0127 13.948a3.07 3.07 0 01-1.892 2.819l-1.35.521c-.266.109-.49.33-.601.53-.094.258-.093.497.003.756l.605 1.216a.98.98 0 01.024.053c.433 1.014.357 2.449-.66 3.33-.934.914-2.197 1.06-3.264.601a.958.958 0 01-.053-.024l-1.21-.608c-.269-.1-.515-.096-.786.013-.291.117-.413.306-.435.42a.968.968 0 01-.025.098l-.417 1.362c-.01.034-.023.067-.037.1-.46 1.079-1.538 1.865-2.798 1.865s-2.337-.786-2.798-1.865l-.004-.01-.521-1.257-.006-.013a1.285 1.285 0 00-.529-.611 1.018 1.018 0 00-.756.008l-1.33.616a1.135 1.135 0 01-.026.011c-1.025.442-2.48.357-3.356-.699-.7-.843-1.062-2.074-.567-3.232a.997.997 0 01.024-.053l.605-1.216a1.05 1.05 0 00-.013-.798c-.117-.296-.307-.416-.415-.438a.999.999 0 01-.164-.047l-1.356-.524A3.07 3.07 0 011 14.052a3.07 3.07 0 011.857-2.805.99.99 0 01.1-.037l1.31-.405c.256-.112.469-.324.576-.518a1.044 1.044 0 00-.007-.77l-.614-1.335a1 1 0 01-.011-.025c-.438-1.026-.355-2.482.695-3.36.84-.704 2.07-1.07 3.228-.571a.999.999 0 01.054.024l1.21.608c.269.1.515.096.786-.013.291-.117.413-.306.435-.42.011-.056.027-.11.047-.163l.522-1.362.014-.035zM8.304 14.051A5.686 5.686 0 0114 8.336a5.686 5.686 0 015.696 5.716A5.686 5.686 0 0114 19.77a5.686 5.686 0 01-5.696-5.717zM14 10.336a3.687 3.687 0 00-3.696 3.716A3.687 3.687 0 0014 17.77a3.687 3.687 0 003.696-3.717A3.687 3.687 0 0014 10.336z"/></symbol><symbol fill="currentColor" viewBox="0 0 28 28" id="creditcard" xmlns="http://www.w3.org/2000/svg"><path d="M4 19a1 1 0 011-1h3a1 1 0 110 2H5a1 1 0 01-1-1zM12 18a1 1 0 100 2h2a1 1 0 100-2h-2z"/><path fill-rule="evenodd" clip-rule="evenodd" d="M3.5 4A3.5 3.5 0 000 7.5v13A3.5 3.5 0 003.5 24h21a3.5 3.5 0 003.5-3.5v-13A3.5 3.5 0 0024.5 4h-21zM2 7.5A1.5 1.5 0 013.5 6h21A1.5 1.5 0 0126 7.5V9H2V7.5zM2 13v7.5A1.5 1.5 0 003.5 22h21a1.5 1.5 0 001.5-1.5V13H2z"/></symbol><symbol fill="currentColor" viewBox="0 0 28 28" id="creditcard-solid" xmlns="http://www.w3.org/2000/svg"><path d="M0 7.5A3.5 3.5 0 013.5 4h21A3.5 3.5 0 0128 7.5V9H0V7.5z"/><path fill-rule="evenodd" clip-rule="evenodd" d="M0 13h28v7.5a3.5 3.5 0 01-3.5 3.5h-21A3.5 3.5 0 010 20.5V13zm4 6a1 1 0 011-1h3a1 1 0 110 2H5a1 1 0 01-1-1zm7 0a1 1 0 011-1h2a1 1 0 110 2h-2a1 1 0 01-1-1z"/></symbol><symbol viewBox="0 122.1 595.3 597.4" id="ebplus" xmlns="http://www.w3.org/2000/svg"><path d="M237.4 122.1h120.5v238.5h237.4V481H357.9v238.5H237.4V481H0V360.5h237.4V122.1z"/></symbol><symbol viewBox="0 0 72.8 72.8" id="ebplus-circle-solid" xmlns="http://www.w3.org/2000/svg"><path d="M36.4 0C16.3 0 0 16.3 0 36.4s16.3 36.4 36.4 36.4 36.4-16.3 36.4-36.4S56.5 0 36.4 0zm20.1 41.9H42.2v14.2H30.6V41.9H16.3V31.4h14.2V17.2h11.7v14.1h14.2v10.6z"/></symbol><symbol fill="currentColor" viewBox="0 0 28 28" id="edit" xmlns="http://www.w3.org/2000/svg"><path fill-rule="evenodd" clip-rule="evenodd" d="M17.431 4.82a2.802 2.802 0 013.962 0l1.956 1.957a2.801 2.801 0 010 3.962L11.92 22.17h7.493a1 1 0 010 2H5.901A1.9 1.9 0 014 22.27v-3.23c0-.505.2-.988.557-1.345L17.43 4.821zM9.09 22.17l9.809-9.81-3.09-3.089L6 19.081v3.089h3.09zm8.134-14.313l3.09 3.09 1.621-1.623a.801.801 0 000-1.133L19.98 6.235a.801.801 0 00-1.133 0l-1.622 1.622z"/></symbol><symbol viewBox="0 0 100 88" id="ekstrabladet" xmlns="http://www.w3.org/2000/svg"><path fill="#B30000" d="M0-.9h100V78l-49.5 9.5L0 77.6V-.9z"/><path fill="#FFF" d="M23 42.3H10.6v-4.5h9.8v-3.4h-9.8v-4.6h11.5v-3.3h-16v19.6h17zM39.7 46.1l-6-8.8 5-5.4h-4.8l-5.2 5.6v-11h-3.9v19.6h3.9v-3.9l2.3-2.3 3.8 6.2z"/><path fill="#FFF" d="M46.3 43.9c-2.4 0-3.1-.5-3.5-2h-3.7c0 3.1 2.5 4.9 6.7 4.9 4.7 0 7.5-1.8 7.5-4.8 0-2-1.6-3.7-3.6-4.1l-5.6-.9c-.6-.1-1.2-.7-1.2-1.4 0-.8.8-1.4 2.3-1.4 3 0 3.5.4 3.6 2h3.8v-.5c0-2.4-2.8-4.5-6.5-4.5-4.2 0-6.9 1.8-6.9 4.9 0 1.8 1.3 3.6 3 3.8l5.8 1c.8.1 1.3.5 1.3 1.2.1 1.2-.8 1.8-3 1.8zM56.5 42.6c0 2.6 1.7 4.2 4.7 4.2 1.1 0 2-.2 3.6-1v-1.9c-.7.1-1.7.1-2 .1-1.6 0-2.2-.6-2.2-1.8v-7.6h3.8V32h-3.8v-5.4h-2.9l-.1 1.2c-.6 3.8-.7 4.2-1.8 4.2h-2.5v2.6h3.4l-.2 8zM70.8 39.9c0-3.1 1.7-4.8 4.7-4.8h1.7v-3.6H76c-2.3 0-4.1 1.1-5.3 3.2V32h-3.8v14.2h4v-6.3zM91 41.5v-5.9c0-1.7-.2-2.3-1-2.8-1.3-1.1-3.4-1.6-5.8-1.6-4.3 0-6.3 1.4-6.6 4.8h3.7c.2-1.6 1-2 3-2 2.2 0 2.9.6 2.9 2.3 0 .7-.2 1-1.1 1.1l-4.1.5c-4.1.5-5.6 1.8-5.6 4.6 0 2.6 2 4.2 5.4 4.2 2.5 0 4.1-.8 5.5-2.9.8 2.2 1.8 2.9 3.7 2.9 1 0 1.8-.2 3.4-1.1v-1.8c-.8.1-1.4.1-1.7.1-1.2 0-1.7-.7-1.7-2.4zm-8 2.4c-1.4 0-2.3-.7-2.3-1.8 0-1.6.7-1.9 5.3-2.8l1.2-.2c0 3.2-1.3 4.8-4.2 4.8zM20.1 58.8c2.8-.6 4.2-2.2 4.2-4.4 0-2.6-2.4-4.7-5.5-4.7H6.1v19.5h12.5c3.7 0 6.4-2.2 6.4-5.3 0-2.7-1.6-4.2-4.9-5.1zm-9.5-6h5.9c2.3 0 3.1.6 3.1 2.3 0 1.8-.8 2.4-3.1 2.4h-5.9v-4.7zm5.9 12.9h-6v-5.3h6c2.4 0 3.5.8 3.5 2.6 0 2.1-.9 2.7-3.5 2.7zM26.9 49.8H31v19.5h-4.1zM47.4 64.9l-.1-6.9c-.1-2.3-2.5-3.6-6.6-3.6-5.1 0-6.9 1.2-7.1 4.8h3.8c.2-1.4.8-1.9 2.9-1.9 2.4 0 3.1.5 3.1 2.2 0 .7-.4 1-1.2 1.1-.2 0-1.9.1-4.1.5-3.8.5-5.4 1.8-5.4 4.6 0 2.6 1.9 4.2 5.3 4.2 2.6 0 4.1-.7 5.6-2.9.7 2 1.8 2.9 3.9 2.9 1 0 1.7-.2 2.9-.8v-2c-.5.1-.8.1-1.2.1-1.3-.1-1.8-.7-1.8-2.3zm-8 2.1c-1.7 0-2.5-.6-2.5-1.7 0-1.3 1-2 3.1-2.4 1.9-.2 1.8-.2 3.2-.6.1 3.1-1.2 4.7-3.8 4.7zM61.7 57.3c-1.3-1.9-2.8-2.8-4.9-2.8-3.8 0-6.7 3.2-6.7 7.6 0 4.8 2.5 7.8 6.6 7.8 2.3 0 3.4-.6 5.2-2.8v2.3h3.9V49.8h-4v7.5zm-4.1 9.8c-2.4 0-3.5-1.7-3.5-4.9 0-3 1.2-4.7 3.5-4.7 2.2 0 3.6 1.9 3.6 4.7 0 3-1.4 4.9-3.6 4.9zM75.5 54.6c-4.5 0-7.8 3.4-7.8 7.7 0 4.6 3.2 7.8 7.8 7.8 4.4 0 7.2-1.8 7.7-5.1h-3.8c-.5 1.6-1.3 2-3.4 2-2.8 0-4.1-1.3-4.1-4h11.3c0-5-3-8.4-7.7-8.4zM72 60.9c.2-2.3 1.3-3.5 3.4-3.5 2.2 0 3.2 1.1 3.4 3.5H72zM90.3 65.7v-7.6h4v-2.9h-4v-5.3h-2.9l-.1 1.1c-.7 4.2-.6 4.2-1.7 4.2h-2.3v2.9h3l-.1 6.9v.5c0 3.2 1.4 4.7 4.6 4.7 1.6 0 2.4-.1 3.7-.8v-2.2c-.8.1-1.7.1-2 .1-1.6-.1-2.2-.5-2.2-1.6z"/></symbol><symbol fill="currentColor" viewBox="0 0 28 28" id="entertainment" xmlns="http://www.w3.org/2000/svg"><path fill-rule="evenodd" clip-rule="evenodd" d="M4.82 22.827c-1.334-1.377-2.163-3.116-2.3-4.713a.5.5 0 01-.02-.14V3.997a2.497 2.497 0 114.993 0v4.988a2.493 2.493 0 013.495.501 2.493 2.493 0 013.492-.502v-2.99a2.497 2.497 0 114.994 0v8.485a.5.5 0 11-1 0V5.993a1.496 1.496 0 10-2.994 0v4.88l.003.111v3.495a2.498 2.498 0 01-2.702 2.488 2.497 2.497 0 01-2.293 1.507H9.82a4.485 4.485 0 011.667 3.493.5.5 0 11-1 0 3.493 3.493 0 00-3.494-3.493.5.5 0 110-1h3.495a1.496 1.496 0 100-2.994H6.966c-.745 0-1.472.236-2.076.673l-.012.008a3.162 3.162 0 00-1.378 2.5c.003 1.408.722 3.111 2.039 4.47 1.31 1.352 3.182 2.33 5.448 2.33.27 0 .54-.015.812-.043a.5.5 0 11.104.994 8.842 8.842 0 01-.916.049c-2.57 0-4.693-1.113-6.166-2.634zM4.998 2.5C4.17 2.5 3.5 3.17 3.5 3.997v11.067c.234-.273.506-.518.81-.726a4.545 4.545 0 012.183-.833V3.997c0-.827-.67-1.497-1.496-1.497zm7.988 13.475a1.5 1.5 0 001.498-1.496v-3.445a.509.509 0 01-.003-.05v-.086a1.497 1.497 0 00-2.99.086v2.705a2.497 2.497 0 011.495 2.286zm-2.496-2.495v-2.446a.485.485 0 01-.002-.05 1.497 1.497 0 10-2.994 0v2.496h2.996z"/><path d="M18.634 20.1a.5.5 0 10-.392-.92l-1.739.74a.5.5 0 10.392.92l1.739-.74zM19.684 21.032a.5.5 0 01-.264.655l-1.74.74a.5.5 0 11-.391-.92l1.74-.74a.5.5 0 01.655.265z"/><path fill-rule="evenodd" clip-rule="evenodd" d="M22.769 14.992a1.436 1.436 0 011.923.66l.16.381a1.003 1.003 0 01-.357 1.214.836.836 0 00-.345.96.832.832 0 00.95.412.996.996 0 011.097.597l.16.377.015.039a1.436 1.436 0 01-.877 1.802l-9.16 3.898a1.437 1.437 0 01-1.923-.66l-.162-.383a1 1 0 01.38-1.225.748.748 0 00-.579-1.367.997.997 0 01-1.145-.587l-.16-.38a1.435 1.435 0 01.864-1.84l9.159-3.898zm1.01 1.07a.436.436 0 00-.573-.17.448.448 0 01-.032.014l-2.855 1.215 2.068 4.549 2.73-1.163a.468.468 0 01.033-.012.436.436 0 00.277-.533l-.151-.357a1.833 1.833 0 01-2.058-1.032 1.836 1.836 0 01.713-2.151l-.151-.36zm-9.793 3.755l5.413-2.304 2.068 4.548-5.538 2.357a.598.598 0 00-.031.015.437.437 0 01-.575-.172l-.15-.356a1.747 1.747 0 00-1.345-3.183l-.151-.359a.435.435 0 01.275-.533.457.457 0 00.034-.013z"/><path d="M24.729 4.553a.5.5 0 01.513.024l2.247 1.496a.5.5 0 11-.554.832l-1.47-.978v3.557a.508.508 0 01-.005.068 1.997 1.997 0 01-3.99-.064 1.997 1.997 0 012.995-1.728V4.993a.5.5 0 01.264-.44z"/></symbol><symbol viewBox="0 0 512 384" id="envelope" xmlns="http://www.w3.org/2000/svg"><path d="M464 0H48C21.5 0 0 21.5 0 48v288c0 26.5 21.5 48 48 48h416c26.5 0 48-21.5 48-48V48c0-26.5-21.5-48-48-48zM48 32h416c8.8 0 16 7.2 16 16v41.4c-21.9 18.5-53.2 44-150.6 121.3-16.9 13.4-50.2 45.7-73.4 45.3-23.2.4-56.6-31.9-73.4-45.3C85.2 133.4 53.9 107.9 32 89.4V48c0-8.8 7.2-16 16-16zm416 320H48c-8.8 0-16-7.2-16-16V131c22.8 18.7 58.8 47.6 130.7 104.7 20.5 16.4 56.7 52.5 93.3 52.3 36.4.3 72.3-35.5 93.3-52.3 71.9-57.1 107.9-86 130.7-104.7v205c0 8.8-7.2 16-16 16z"/></symbol><symbol fill="currentColor" viewBox="0 0 28 28" id="external-link" xmlns="http://www.w3.org/2000/svg"><path d="M17.2 5.5a.5.5 0 000 1h3.593l-7.147 7.146a.5.5 0 00.708.708L21.5 7.207V10.8a.5.5 0 001 0V5.5h-5.3z"/><path d="M6.5 9.6A1.5 1.5 0 018 8.1h6.4a.5.5 0 000-1H8a2.5 2.5 0 00-2.5 2.5V20A2.5 2.5 0 008 22.5h10.4a2.5 2.5 0 002.5-2.5v-6.4a.5.5 0 10-1 0V20a1.5 1.5 0 01-1.5 1.5H8A1.5 1.5 0 016.5 20V9.6z"/></symbol><symbol fill="currentColor" viewBox="0 0 28 28" id="facebook" xmlns="http://www.w3.org/2000/svg"><path fill-rule="evenodd" clip-rule="evenodd" d="M19.223 3.556v4.178h-2.09c-.72 0-1.044.846-1.044 1.566v2.611h3.134v4.179h-3.134v8.355h-4.178V16.09H8.778v-4.178h3.133V7.734a4.178 4.178 0 014.178-4.178h3.134z"/></symbol><symbol viewBox="0 0 34 16.4" id="figcaption-pin" xmlns="http://www.w3.org/2000/svg"><path d="M15.6.8c.8-.8 2-.8 2.8 0l6.7 6.7c1.9 1.9 4.4 2.9 7.1 2.9H34v6H0v-6h1.9c2.7 0 5.2-1.1 7.1-2.9L15.6.8z" fill="#fff"/><path d="M9.7 12.9l6.6-6.6c.4-.4 1-.4 1.4 0l6.6 6.6c.6.6.2 1.7-.7 1.7H10.4c-.9 0-1.3-1-.7-1.7z"/></symbol><symbol fill="currentColor" viewBox="0 0 56 56" id="gallery" xmlns="http://www.w3.org/2000/svg"><path fill-rule="evenodd" clip-rule="evenodd" d="M4.316 4.316C4.14 4.49 4 4.776 4 5.213v29.988h3.568c.125-1.807.589-3.602 1.38-5.382.006-.014.012-.028.02-.041.608-1.219 2.01-2.114 3.592-2.864 1.635-.775 3.732-1.51 6.046-2.281a.59.59 0 00.127-.217c.095-.237.16-.586.172-.998a4.724 4.724 0 00-.103-1.137 1.936 1.936 0 00-.135-.418c-.01-.022-.01-.022.005-.006a.955.955 0 01-.04-.043c-1.93-2.17-2.92-4.856-2.688-7.789.007-1.934.503-3.712 1.782-5.246C19.04 7.2 20.883 6.427 22.92 6.427c2.11 0 3.9 1.052 5.134 2.285.02.021.041.043.06.067 1.269 1.522 1.79 3.314 1.565 5.308.208 2.825-.716 5.677-2.616 7.651a3.064 3.064 0 00-.109.48c-.056.349-.086.777-.074 1.2.012.43.067.8.153 1.057a.945.945 0 00.085.198c.705.268 1.4.524 2.071.772 1.468.542 2.829 1.044 3.956 1.54.84.371 1.605.76 2.23 1.193.62.429 1.172.947 1.498 1.6a.959.959 0 01.02.04c.79 1.78 1.254 3.576 1.38 5.383h3.567V5.213c0-.436-.141-.723-.316-.897-.174-.175-.46-.316-.897-.316H5.213c-.436 0-.723.141-.897.316zm39.525.897c0-.89-.301-1.711-.901-2.311-.6-.6-1.42-.902-2.312-.902H5.213c-.89 0-1.711.301-2.311.902-.6.6-.902 1.42-.902 2.311v35.415c0 .891.301 1.712.902 2.312.6.6 1.42.901 2.311.901h35.415c.891 0 1.712-.301 2.312-.901.6-.6.901-1.42.901-2.312V5.213zm-2 31.988H4v3.427c0 .437.141.723.316.898.174.174.46.315.897.315h35.415c.437 0 .723-.141.898-.316.174-.174.315-.46.315-.897V37.2zm-5.573-2c-.121-1.503-.515-3.017-1.191-4.546-.12-.23-.37-.508-.839-.832-.474-.328-1.107-.658-1.899-1.007-1.07-.472-2.334-.938-3.763-1.466-.71-.262-1.46-.539-2.249-.839l-.015-.006c-.693-.277-1.018-.925-1.176-1.397-.17-.511-.24-1.096-.255-1.633-.015-.546.023-1.1.099-1.573.067-.42.187-.945.429-1.307.036-.055.078-.106.125-.152 1.54-1.54 2.345-3.896 2.145-6.293a1.003 1.003 0 01.004-.207c.186-1.49-.173-2.75-1.075-3.85-.977-.963-2.273-1.666-3.687-1.666-1.504 0-2.76.554-3.659 1.632-.925 1.11-1.318 2.417-1.318 4.008 0 .028 0 .055-.003.083-.196 2.357.578 4.52 2.171 6.32.361.378.542.935.64 1.368a6.72 6.72 0 01.152 1.637c-.015.556-.103 1.161-.318 1.692-.211.522-.611 1.118-1.333 1.358-2.329.777-4.322 1.479-5.837 2.197-1.555.736-2.366 1.384-2.651 1.932-.677 1.53-1.07 3.043-1.191 4.547h26.694zm10.016-21.534a1 1 0 011.163-.805l4.863.884c1.982.335 2.89 2.286 2.579 3.837L47.82 52.481c-.032.456-.24.88-.44 1.18-.225.337-.566.706-.994.92a.998.998 0 01-.13.055 9.082 9.082 0 00-.206.072c-.515.185-1.238.445-2.134.17l-32.705-6.63a1 1 0 01.398-1.96l32.758 6.64c.04.008.079.019.117.032.149.05.247.048.373.023.079-.016.172-.042.302-.086.064-.02.13-.044.207-.07l.005-.002.148-.052a1.107 1.107 0 00.294-.405.367.367 0 00.012-.035 1.01 1.01 0 01.02-.173l7.082-34.969c.131-.66-.287-1.362-.955-1.473l-.014-.003-4.87-.885a1 1 0 01-.805-1.163z"/></symbol><symbol fill="currentColor" viewBox="0 0 28 28" id="globe" xmlns="http://www.w3.org/2000/svg"><path fill-rule="evenodd" clip-rule="evenodd" d="M14 2C7.371 2 2 7.371 2 14s5.371 12 12 12 12-5.371 12-12S20.629 2 14 2zM3 14C3 7.924 7.924 3 14 3c.457 0 .907.028 1.35.082l-1.703.975a1.002 1.002 0 00.128 1.8l.282.115h.001a1.5 1.5 0 01.941 1.395v1.145l-.001.002h-3.451l-.01-.002h-.006l-1.288-.26a2.495 2.495 0 00-2.392.829l-1.725 2.023a.999.999 0 00-.198.941l.666 2.189a2.508 2.508 0 002.396 1.775h1.702l.773 1.547a.026.026 0 01.002.01v.002l-.206.832a2.507 2.507 0 00.499 2.206l.002.002 1.53 1.834.001.001a.996.996 0 001.402.13l1.901-1.578c.575-.477.903-1.18.903-1.921v-2.447l.002-.006 1.583-3.161a.998.998 0 00-.043-.971.992.992 0 00-.85-.48h-.382l-.547-1.09v-.002l2.127-.267a2.507 2.507 0 002.012-1.552l.919-2.295A10.958 10.958 0 0125 14c0 6.076-4.924 11-11 11S3 20.076 3 14zm18.56-7.991a10.982 10.982 0 00-4.707-2.636L14.14 4.927l.005.003.283.114c.95.38 1.57 1.3 1.57 2.323v1.145c0 .552-.449 1.002-1 1.002h-3.45c-.074 0-.136-.01-.168-.014h-.005a.49.49 0 01-.028-.005l-1.301-.263a1.496 1.496 0 00-1.435.496l-1.725 2.025v.001l-.002.002.665 2.185a1.509 1.509 0 001.44 1.068h1.703c.372 0 .724.208.894.554l.78 1.56c.1.209.127.45.072.678v.004l-.208.837v.002c-.117.464-.005.954.3 1.325l.001.002 1.528 1.83 1.897-1.575c.346-.287.542-.707.542-1.152v-2.447c0-.16.038-.305.098-.433l.005-.012 1.587-3.169-.002-.003h-.378a.996.996 0 01-.895-.554l-.546-1.088a.994.994 0 01.009-.917.981.981 0 01.76-.526l2.127-.267a1.507 1.507 0 001.209-.932L21.56 6.01z"/></symbol><symbol fill="currentColor" viewBox="0 0 28 28" id="grid" xmlns="http://www.w3.org/2000/svg"><path fill-rule="evenodd" clip-rule="evenodd" d="M12.5 5H5v5.368h7.5V5zM5 4a1 1 0 00-1 1v5.368a1 1 0 001 1h7.5a1 1 0 001-1V5a1 1 0 00-1-1H5zM12.5 13.421H5V23h7.5v-9.579zm-7.5-1a1 1 0 00-1 1V23a1 1 0 001 1h7.5a1 1 0 001-1v-9.579a1 1 0 00-1-1H5zM23 5h-7.5v9.579H23V5zm-7.5-1a1 1 0 00-1 1v9.579a1 1 0 001 1H23a1 1 0 001-1V5a1 1 0 00-1-1h-7.5zM23 17.632h-7.5V23H23v-5.368zm-7.5-1a1 1 0 00-1 1V23a1 1 0 001 1H23a1 1 0 001-1v-5.368a1 1 0 00-1-1h-7.5z"/></symbol><symbol fill="currentColor" viewBox="0 0 28 28" id="grid-solid" xmlns="http://www.w3.org/2000/svg"><path d="M3 5a1 1 0 011-1h8a1 1 0 011 1v5a1 1 0 01-1 1H4a1 1 0 01-1-1V5zM3 14a1 1 0 011-1h8a1 1 0 011 1v9a1 1 0 01-1 1H4a1 1 0 01-1-1v-9zM15 5a1 1 0 011-1h8a1 1 0 011 1v10a1 1 0 01-1 1h-8a1 1 0 01-1-1V5zM15 19a1 1 0 011-1h8a1 1 0 011 1v4a1 1 0 01-1 1h-8a1 1 0 01-1-1v-4z"/></symbol><symbol viewBox="0 0 53 53" id="headphones" xmlns="http://www.w3.org/2000/svg"><path d="M14.9 52.7c-.5 0-1.1-.1-1.6-.3-.9-.4-1.6-1.2-2-2.3L6.7 38.3c-.4-1-.4-2.1.1-3 .4-.9 1.2-1.6 2.2-1.9l2-.9c1-.4 2.1-.4 3.1 0 .9.4 1.6 1.2 2 2.3l4.6 11.8c.4 1 .4 2.1-.1 3-.4.9-1.2 1.6-2.2 1.9l-2 .9c-.5.2-1 .3-1.5.3zm-2.4-17.6c-.1 0-.2 0-.3.1l-2 .9s-.1 0-.1.1c-.2.1-.4.2-.5.4-.1.2-.1.4 0 .7l4.7 11.9c.1.3.2.5.4.6.2.1.4.1.7 0l2-.9s.1 0 .1-.1c.2-.1.4-.2.5-.4.1-.2.1-.4 0-.7l-4.7-11.9c-.1-.3-.2-.5-.4-.6-.2-.1-.3-.1-.4-.1zM38 52.6c-.5 0-.9-.1-1.3-.3l-2.2-1c-1.9-.8-2.9-3.1-2.2-5L37 34.6c.8-2 3.1-3 5-2.2l2.2 1c.9.3 1.6 1.1 2.1 2 .5 1 .5 2 .1 3l-4.7 11.9c-.4.9-1.1 1.7-2 2.1-.6.1-1.1.2-1.7.2zm2.7-17.5c-.3 0-.7.3-.9.6l-4.7 11.9c-.2.4.1.9.6 1.1l2.2 1c.3.1.9-.2 1-.6l4.7-11.9c.1-.2.1-.4 0-.6-.1-.2-.3-.4-.5-.5l-2.2-1h-.2zm-.4 14.5zm3.7 2.9c-.2 0-.5-.1-.7-.2-.7-.4-1-1.3-.6-2 .1-.1 6.8-12.6 6.8-23.8 0-12.7-10.3-23-23-23s-23 10.3-23 23c0 11.1 6.7 23.7 6.8 23.8.4.7.1 1.6-.6 2-.7.4-1.6.1-2-.6C7.4 51.2.5 38.4.5 26.5c0-14.3 11.7-26 26-26s26 11.7 26 26c0 11.9-6.9 24.7-7.2 25.2-.3.5-.8.8-1.3.8z"/></symbol><symbol viewBox="0 0 512 512" id="headset" xmlns="http://www.w3.org/2000/svg"><path d="M192 208c0-17.67-14.33-32-32-32h-16c-35.35 0-64 28.65-64 64v48c0 35.35 28.65 64 64 64h16c17.67 0 32-14.33 32-32V208zm176 144c35.35 0 64-28.65 64-64v-48c0-35.35-28.65-64-64-64h-16c-17.67 0-32 14.33-32 32v112c0 17.67 14.33 32 32 32h16zM256 0C113.18 0 4.58 118.83 0 256v16c0 8.84 7.16 16 16 16h16c8.84 0 16-7.16 16-16v-16c0-114.69 93.31-208 208-208s208 93.31 208 208h-.12c.08 2.43.12 165.72.12 165.72 0 23.35-18.93 42.28-42.28 42.28H320c0-26.51-21.49-48-48-48h-32c-26.51 0-48 21.49-48 48s21.49 48 48 48h181.72c49.86 0 90.28-40.42 90.28-90.28V256C507.42 118.83 398.82 0 256 0z"/></symbol><symbol fill="currentColor" viewBox="0 0 28 28" id="heart" xmlns="http://www.w3.org/2000/svg"><path fill-rule="evenodd" clip-rule="evenodd" d="M14 8.56a2 2 0 01-1.431-.602C10.152 5.48 6.37 5.47 4.597 7.288c-2.035 2.086-2.14 5.38-.23 7.63 3.276 3.858 7.327 6.826 9.633 8.423 2.306-1.597 6.357-4.565 9.633-8.423 1.91-2.25 1.805-5.544-.23-7.63-1.774-1.817-5.555-1.807-7.972.67A2 2 0 0114 8.56zm.87 15.378l.003.002-.003-.002zm-.618 1.655c2.01-1.368 6.97-4.745 10.906-9.381 2.568-3.025 2.443-7.486-.324-10.32-2.64-2.706-7.495-2.449-10.544.386a8.322 8.322 0 00-.29.283 8.322 8.322 0 00-.29-.283c-3.049-2.835-7.903-3.092-10.544-.387C.4 8.726.274 13.187 2.842 16.211c3.936 4.637 8.897 8.014 10.906 9.382a.446.446 0 00.504 0z"/></symbol><symbol fill="currentColor" viewBox="0 0 28 28" id="heart-solid" xmlns="http://www.w3.org/2000/svg"><path d="M13.748 25.593c-2.01-1.368-6.97-4.745-10.906-9.381C.274 13.187.4 8.726 3.166 5.892 5.892 3.097 10.977 3.462 14 6.56c3.023-3.098 8.108-3.463 10.834-.67 2.767 2.835 2.892 7.296.324 10.32-3.936 4.637-8.897 8.014-10.906 9.382a.446.446 0 01-.504 0z"/></symbol><symbol fill="currentColor" viewBox="0 0 28 28" id="history" xmlns="http://www.w3.org/2000/svg"><path d="M7.533 7.066H5.428C7.436 4.579 10.515 3 14 3c6.124 0 11 4.876 11 11s-4.876 11-11 11C9.17 25 5.12 21.969 3.62 17.689a.5.5 0 10-.943.33C4.315 22.693 8.738 26 14 26c6.676 0 12-5.324 12-12S20.676 2 14 2c-3.633 0-6.868 1.577-9.06 4.093V4.426a.5.5 0 10-1 0v3.14a.5.5 0 00.5.5h3.093a.5.5 0 000-1z"/><path d="M14 8.5a.5.5 0 10-1 0v4.951c0 .513.262.99.695 1.265l5.037 3.206a.5.5 0 10.537-.844l-5.037-3.205A.5.5 0 0114 13.45V8.5z"/></symbol><symbol fill="currentColor" viewBox="0 0 28 28" id="info-circle" xmlns="http://www.w3.org/2000/svg"><path fill-rule="evenodd" clip-rule="evenodd" d="M14 5a9 9 0 100 18 9 9 0 000-18zM3 14C3 7.925 7.925 3 14 3s11 4.925 11 11-4.925 11-11 11S3 20.075 3 14z"/><path fill-rule="evenodd" clip-rule="evenodd" d="M11.5 13.5a1 1 0 011-1H14a1 1 0 011 1v3h.5a1 1 0 110 2h-3a1 1 0 110-2h.5v-2h-.5a1 1 0 01-1-1zM14 8.5a1 1 0 011 1v.5a1 1 0 11-2 0v-.5a1 1 0 011-1z"/></symbol><symbol fill="currentColor" viewBox="0 0 28 28" id="info-circle-solid" xmlns="http://www.w3.org/2000/svg"><path fill-rule="evenodd" clip-rule="evenodd" d="M3 14C3 7.925 7.925 3 14 3s11 4.925 11 11-4.925 11-11 11S3 20.075 3 14zm12-4.5a1 1 0 10-2 0v.5a1 1 0 102 0v-.5zm-2.5 3a1 1 0 100 2h.5v2h-.5a1 1 0 100 2h3a1 1 0 100-2H15v-3a1 1 0 00-1-1h-1.5z"/></symbol><symbol fill="currentColor" viewBox="0 0 28 28" id="laptop" xmlns="http://www.w3.org/2000/svg"><path fill-rule="evenodd" clip-rule="evenodd" d="M1 6a3 3 0 013-3h20a3 3 0 013 3v14a3 3 0 01-3 3H4a3 3 0 01-3-3V6zm3-1a1 1 0 00-1 1v14a1 1 0 001 1h20a1 1 0 001-1V6a1 1 0 00-1-1H4zM0 25a1 1 0 011-1h26a1 1 0 110 2H1a1 1 0 01-1-1z"/></symbol><symbol viewBox="0 0 10 16" id="lightning" xmlns="http://www.w3.org/2000/svg"><path d="M3.339 9.491L.488 8.394a.733.733 0 01-.292-1.187L6.621.254C7.16-.332 8.156.179 7.95.938l-1.51 5.57 2.85 1.098a.733.733 0 01.292 1.187l-6.425 6.953c-.541.586-1.535.075-1.33-.684l1.512-5.57z"/></symbol><symbol fill="currentColor" viewBox="0 0 28 28" id="linkedin" xmlns="http://www.w3.org/2000/svg"><path fill-rule="evenodd" clip-rule="evenodd" d="M14 8.573v2.494c2.2-4.254 10.707-4.4 11 1.906v11.294h-4.4v-8.8c0-6.16-6.307-4.4-6.6-.294V24.267H9.6V8.573H14zm-6.6.294v15.4H3v-15.4h4.4zM5.2 3c1.173 0 2.2 1.027 2.2 2.2 0 1.173-1.027 2.2-2.2 2.2C4.027 7.4 3 6.373 3 5.2 3 4.027 4.027 3 5.2 3z"/></symbol><symbol viewBox="0 0 448 512" id="lock" xmlns="http://www.w3.org/2000/svg"><path d="M400 192h-32v-46.6C368 65.8 304 .2 224.4 0 144.8-.2 80 64.5 80 144v48H48c-26.5 0-48 21.5-48 48v224c0 26.5 21.5 48 48 48h352c26.5 0 48-21.5 48-48V240c0-26.5-21.5-48-48-48zm-272-48c0-52.9 43.1-96 96-96s96 43.1 96 96v48H128v-48zm272 320H48V240h352v224z"/></symbol><symbol fill="currentColor" viewBox="0 0 28 28" id="mail" xmlns="http://www.w3.org/2000/svg"><path d="M5.614 7.21a1 1 0 00-1.228 1.58l9 7a1 1 0 001.228 0l9-7a1 1 0 00-1.228-1.58L14 13.734 5.614 7.211z"/><path fill-rule="evenodd" clip-rule="evenodd" d="M3.5 3A3.5 3.5 0 000 6.5v15A3.5 3.5 0 003.5 25h21a3.5 3.5 0 003.5-3.5v-15A3.5 3.5 0 0024.5 3h-21zM2 6.5A1.5 1.5 0 013.5 5h21A1.5 1.5 0 0126 6.5v15a1.5 1.5 0 01-1.5 1.5h-21A1.5 1.5 0 012 21.5v-15z"/></symbol><symbol fill="currentColor" viewBox="0 0 28 28" id="mappin" xmlns="http://www.w3.org/2000/svg"><path fill-rule="evenodd" clip-rule="evenodd" d="M14 3.5A7.5 7.5 0 006.5 11c0 2.973 1.321 5.818 2.91 8.155 1.583 2.332 3.4 4.111 4.318 4.944.16.145.384.145.544 0 .918-.833 2.735-2.612 4.319-4.944C20.179 16.818 21.5 13.973 21.5 11A7.5 7.5 0 0014 3.5zM5.5 11a8.5 8.5 0 0117 0c0 3.259-1.441 6.302-3.082 8.717-1.645 2.422-3.524 4.26-4.474 5.123a1.394 1.394 0 01-1.888 0c-.95-.862-2.829-2.701-4.474-5.123C6.942 17.302 5.5 14.26 5.5 11z"/><path fill-rule="evenodd" clip-rule="evenodd" d="M14 8a3 3 0 100 6 3 3 0 000-6zm-4 3a4 4 0 118 0 4 4 0 01-8 0z"/></symbol><symbol fill="currentColor" viewBox="0 0 28 28" id="mappin-solid" xmlns="http://www.w3.org/2000/svg"><path fill-rule="evenodd" clip-rule="evenodd" d="M5.5 11a8.5 8.5 0 0117 0c0 3.259-1.441 6.302-3.082 8.717-1.645 2.422-3.524 4.26-4.474 5.123a1.394 1.394 0 01-1.888 0c-.95-.862-2.829-2.701-4.474-5.123C6.942 17.302 5.5 14.26 5.5 11zm8.5 3a3 3 0 100-6 3 3 0 000 6z"/></symbol><symbol viewBox="0 0 63.6 81.5" id="medielogin" xmlns="http://www.w3.org/2000/svg"><path d="M0 70.7h63.3v10.9H0z"/><path d="M0 81.5l21.2-19.7v-14L0 67.5z"/><path d="M31.8 0C14.2 0 0 14.2 0 31.8c0 13.8 8.9 25.6 21.2 30v-14c-5.2-3.4-8.6-9.3-8.6-16 0-10.6 8.6-19.2 19.2-19.2S51 21.2 51 31.8c0 6.7-3.4 12.5-8.6 16v14c12.3-4.4 21.2-16.1 21.2-30C63.6 14.2 49.3 0 31.8 0z"/><path d="M63.6 81.5L42.4 61.7V47.8l21.2 19.7z"/></symbol><symbol viewBox="0 0 30 30" id="menu-bars" xmlns="http://www.w3.org/2000/svg"><path d="M0 4.3h30v4H0zM0 12.3h30v4H0zM0 20.3h30v4H0z"/></symbol><symbol fill="currentColor" viewBox="0 0 28 28" id="moneycheck-solid" xmlns="http://www.w3.org/2000/svg"><path fill-rule="evenodd" clip-rule="evenodd" d="M2.5 2A2.5 2.5 0 000 4.5V6h28V4.5A2.5 2.5 0 0025.5 2h-23zM0 23.5V8h28v15.5a2.5 2.5 0 01-2.5 2.5h-23A2.5 2.5 0 010 23.5zM5 13a1 1 0 100 2h9a1 1 0 100-2H5zm0 4a1 1 0 100 2h5a1 1 0 100-2H5zm13 1a1 1 0 011-1h4a1 1 0 011 1v3a1 1 0 01-1 1h-4a1 1 0 01-1-1v-3z"/></symbol><symbol fill="currentColor" viewBox="0 0 56 56" id="newspaper" xmlns="http://www.w3.org/2000/svg"><path fill-rule="evenodd" clip-rule="evenodd" d="M6.257 8.257C6.12 8.394 6 8.627 6 9v34c0 2.848 2.152 5 5 5h29.036C38.769 46.743 38 44.986 38 43V9c0-.373-.12-.606-.257-.743S37.373 8 37 8H7c-.373 0-.606.12-.743.257zM45 48c2.848 0 5-2.152 5-5V13a1 1 0 112 0v30c0 3.952-3.048 7-7 7H11c-3.952 0-7-3.048-7-7V9c0-.827.28-1.594.843-2.157S6.173 6 7 6h30c.827 0 1.594.28 2.157.843S40 8.173 40 9v34c0 2.848 2.152 5 5 5zm0-36a1 1 0 011 1v30.522a1 1 0 11-2 0V13a1 1 0 011-1zm-33 4v10h10V16H12zm-1.432-1.432C10.956 14.18 11.473 14 12 14h10c.527 0 1.044.18 1.432.568.388.388.568.905.568 1.432v10c0 .527-.18 1.044-.568 1.432-.388.388-.905.568-1.432.568H12c-.527 0-1.044-.18-1.432-.568C10.18 27.044 10 26.527 10 26V16c0-.527.18-1.044.568-1.432zM26.37 15a1 1 0 011-1H33a1 1 0 110 2h-5.63a1 1 0 01-1-1zm0 6a1 1 0 011-1H33a1 1 0 110 2h-5.63a1 1 0 01-1-1zm0 6a1 1 0 011-1H33a1 1 0 110 2h-5.63a1 1 0 01-1-1zM10 33a1 1 0 011-1h22a1 1 0 110 2H11a1 1 0 01-1-1zm0 6a1 1 0 011-1h22a1 1 0 110 2H11a1 1 0 01-1-1z"/></symbol><symbol fill="currentColor" viewBox="0 0 28 28" id="phone" xmlns="http://www.w3.org/2000/svg"><path fill-rule="evenodd" clip-rule="evenodd" d="M5.41 5.5c-.581 0-.95.454-.906.899.89 8.976 8.031 16.117 17.008 17.007.444.045.898-.324.898-.906v-3.558a1 1 0 00-.683-.95l-3.46-1.152a1 1 0 00-1.023.241l-.554.554a1.98 1.98 0 01-2.518.242c-1.891-1.293-2.993-2.387-4.167-4.156a1.975 1.975 0 01.258-2.488l.566-.566a1 1 0 00.242-1.023l-1.153-3.46a1 1 0 00-.95-.684H5.41zM2.514 6.596C2.34 4.842 3.784 3.5 5.41 3.5H8.97a3 3 0 012.846 2.051l1.153 3.46a3 3 0 01-.725 3.07l-.556.557c1.01 1.516 1.918 2.426 3.595 3.576l.547-.547a3 3 0 013.07-.725l3.46 1.154a3 3 0 012.051 2.846V22.5c0 1.627-1.342 3.07-3.095 2.897-9.926-.984-17.817-8.876-18.801-18.801zM16.41 4.5a1 1 0 011-1 7 7 0 017 7 1 1 0 11-2 0 5 5 0 00-5-5 1 1 0 01-1-1zm0 4a1 1 0 011-1 3 3 0 013 3 1 1 0 11-2 0 1 1 0 00-1-1 1 1 0 01-1-1z"/></symbol><symbol class="bvsvg-inline--fa bvfa-play-circle bvfa-w-16" viewBox="0 0 512 512" id="play-circle" xmlns="http://www.w3.org/2000/svg"><path d="M256 504c137 0 248-111 248-248S393 8 256 8 8 119 8 256s111 248 248 248zM40 256c0-118.7 96.1-216 216-216 118.7 0 216 96.1 216 216 0 118.7-96.1 216-216 216-118.7 0-216-96.1-216-216zm331.7-18l-176-107c-15.8-8.8-35.7 2.5-35.7 21v208c0 18.4 19.8 29.8 35.7 21l176-101c16.4-9.1 16.4-32.8 0-42zM192 335.8V176.9c0-4.7 5.1-7.6 9.1-5.1l134.5 81.7c3.9 2.4 3.8 8.1-.1 10.3L201 341c-4 2.3-9-.6-9-5.2z"/></symbol><symbol fill="currentColor" viewBox="0 0 28 28" id="questionmark-circle" xmlns="http://www.w3.org/2000/svg"><path fill-rule="evenodd" clip-rule="evenodd" d="M14 5a9 9 0 100 18 9 9 0 000-18zM3 14C3 7.925 7.925 3 14 3s11 4.925 11 11-4.925 11-11 11S3 20.075 3 14z"/><path fill-rule="evenodd" clip-rule="evenodd" d="M14.116 10.41c-.477 0-.982.296-1.308.826a1 1 0 01-1.704-1.047c.61-.992 1.7-1.779 3.012-1.779.821 0 1.686.363 2.302.963.643.626 1.071 1.576.813 2.69-.218.937-.83 1.471-1.302 1.813-.115.084-.23.162-.33.228-.105.07-.19.128-.267.184a1.17 1.17 0 00-.256.224.538.538 0 00-.063.112.14.14 0 00-.013.049v.678a1 1 0 11-2 0v-.678c0-.603.264-1.067.454-1.33.217-.3.489-.518.705-.675.106-.077.216-.15.311-.215l.01-.007c.103-.069.192-.129.276-.19.334-.241.472-.412.527-.647.072-.31-.024-.572-.26-.803-.264-.257-.636-.396-.907-.396zM14 17.25a1 1 0 011 1v.5a1 1 0 11-2 0v-.5a1 1 0 011-1z"/></symbol><symbol fill="currentColor" viewBox="0 0 28 28" id="questionmark-circle-solid" xmlns="http://www.w3.org/2000/svg"><path fill-rule="evenodd" clip-rule="evenodd" d="M3 14C3 7.925 7.925 3 14 3s11 4.925 11 11-4.925 11-11 11S3 20.075 3 14zm9.808-2.764c.326-.53.83-.826 1.308-.826.271 0 .643.139.906.396.237.23.333.493.26.803-.054.235-.192.406-.526.647a9.854 9.854 0 01-.276.19l-.01.007c-.095.064-.205.138-.311.216a3.064 3.064 0 00-.705.674c-.19.263-.454.727-.454 1.33v.678a1 1 0 102 0v-.678c0-.004 0-.02.013-.05a.543.543 0 01.063-.11 1.17 1.17 0 01.256-.225c.078-.056.162-.113.266-.183l.002-.001c.098-.066.214-.144.33-.228.47-.341 1.083-.876 1.3-1.814.26-1.113-.17-2.063-.812-2.69-.616-.6-1.48-.962-2.302-.962-1.312 0-2.402.787-3.011 1.78a1 1 0 001.703 1.046zM15 18.25a1 1 0 10-2 0v.5a1 1 0 102 0v-.5z"/></symbol><symbol fill="currentColor" viewBox="0 0 28 28" id="refresh" xmlns="http://www.w3.org/2000/svg"><path fill-rule="evenodd" clip-rule="evenodd" d="M19.882 8.681c-1.997-2.187-5.04-3.137-7.888-2.472l-.008.001c-2.177.474-4.081 1.898-5.225 3.803-.987 1.645-1.404 3.57-1.135 5.467l2.543-3.02a.5.5 0 01.765.644l-3.227 3.833a.5.5 0 01-.799-.045l-2.824-4.236a.5.5 0 01.832-.555l1.632 2.448A9.418 9.418 0 015.904 9.5C7.181 7.37 9.31 5.769 11.77 5.234c3.203-.746 6.613.322 8.85 2.773a.5.5 0 01-.738.674zm1.992 3.73L18.86 15.99a.5.5 0 00.765.644l2.352-2.793c.001 3.708-2.53 7.083-6.274 7.934l-.007.002c-2.747.663-5.5-.186-7.506-2.095a.5.5 0 00-.69.724c2.231 2.124 5.326 3.091 8.428 2.344 4.117-.938 6.915-4.576 7.045-8.616l1.905 2.859a.5.5 0 00.832-.555l-2.824-4.236a.5.5 0 00-.465-.22.5.5 0 00-.547.43z"/></symbol><symbol fill="currentColor" viewBox="0 0 33 28" id="rss-solid" xmlns="http://www.w3.org/2000/svg"><path d="M6.734 13.043h1.284c.832 0 1.351-.035 1.558-.105a.934.934 0 00.486-.364c.118-.172.176-.386.176-.644 0-.29-.078-.522-.234-.698-.152-.18-.37-.292-.65-.34-.141-.019-.563-.029-1.266-.029H6.734v2.18z"/><path fill-rule="evenodd" clip-rule="evenodd" d="M4 2a4 4 0 00-4 4v16a4 4 0 004 4h25a4 4 0 004-4V6a4 4 0 00-4-4H4zm9.227 13.205l1.687-.164c.102.566.307.982.615 1.248.313.266.733.398 1.26.398.559 0 .979-.117 1.26-.351.285-.238.428-.516.428-.832a.763.763 0 00-.182-.516c-.117-.144-.324-.27-.621-.375-.203-.07-.666-.195-1.389-.375-.93-.23-1.582-.513-1.957-.85-.527-.472-.79-1.048-.79-1.728 0-.437.122-.845.368-1.225.25-.382.608-.673 1.072-.873.47-.199 1.034-.298 1.694-.298 1.078 0 1.889.236 2.431.709.547.472.834 1.103.862 1.892l-1.735.076c-.074-.441-.234-.757-.48-.949-.242-.195-.607-.293-1.096-.293-.504 0-.898.104-1.183.31a.626.626 0 00-.276.534.66.66 0 00.258.522c.219.183.75.375 1.594.574.844.199 1.467.406 1.869.62.406.212.723.503.95.874.23.367.345.822.345 1.365 0 .492-.137.953-.41 1.383-.274.43-.66.75-1.16.96-.5.208-1.123.311-1.87.311-1.086 0-1.92-.25-2.502-.75-.582-.504-.93-1.236-1.042-2.197zM5 18V9.41h3.65c.918 0 1.584.078 1.998.235.418.152.752.425 1.002.82.25.394.375.845.375 1.353 0 .645-.19 1.178-.568 1.6-.379.418-.945.682-1.7.791.376.219.684.459.927.72.246.262.576.727.99 1.395L12.723 18h-2.075l-1.253-1.87c-.446-.667-.75-1.087-.915-1.259a1.29 1.29 0 00-.521-.357c-.184-.067-.475-.1-.873-.1h-.352V18H5zm17.918-2.959l-1.688.164c.114.961.461 1.693 1.043 2.197.582.5 1.416.75 2.502.75.747 0 1.37-.103 1.87-.31.5-.211.886-.531 1.16-.961.273-.43.41-.89.41-1.383 0-.543-.115-.998-.346-1.365a2.358 2.358 0 00-.95-.873c-.401-.215-1.024-.422-1.868-.621-.844-.2-1.375-.391-1.594-.574a.66.66 0 01-.258-.522c0-.223.092-.4.276-.533.285-.207.68-.31 1.183-.31.488 0 .854.097 1.096.292.246.192.406.508.48.95l1.735-.077c-.028-.789-.315-1.42-.862-1.892-.543-.473-1.353-.71-2.431-.71-.66 0-1.225.1-1.694.3-.464.199-.822.49-1.072.872-.246.38-.369.788-.369 1.225 0 .68.264 1.256.791 1.729.375.336 1.027.619 1.957.85.723.179 1.186.304 1.389.374.297.106.504.23.62.375.122.14.183.313.183.516 0 .316-.143.594-.428.832-.282.234-.701.352-1.26.352-.527 0-.947-.133-1.26-.399-.308-.266-.514-.682-.615-1.248z"/></symbol><symbol fill="currentColor" viewBox="0 0 28 28" id="search" xmlns="http://www.w3.org/2000/svg"><path fill-rule="evenodd" clip-rule="evenodd" d="M13.182 6.5C9.497 6.5 6.5 9.524 6.5 13.268c0 3.743 2.997 6.768 6.682 6.768 3.685 0 6.682-3.025 6.682-6.768 0-3.744-2.997-6.768-6.682-6.768zM5.5 13.268C5.5 8.983 8.934 5.5 13.182 5.5s7.682 3.483 7.682 7.768a7.79 7.79 0 01-1.821 5.022l3.813 3.859a.5.5 0 11-.712.702l-3.792-3.837a7.605 7.605 0 01-5.17 2.022c-4.248 0-7.682-3.484-7.682-7.768z"/></symbol><symbol fill="currentColor" viewBox="0 0 28 28" id="smartphone" xmlns="http://www.w3.org/2000/svg"><path fill-rule="evenodd" clip-rule="evenodd" d="M7 5a3 3 0 013-3h8a3 3 0 013 3v18a3 3 0 01-3 3h-8a3 3 0 01-3-3V5zm3-1a1 1 0 00-1 1v18a1 1 0 001 1h8a1 1 0 001-1V5a1 1 0 00-1-1h-8z"/><path fill-rule="evenodd" clip-rule="evenodd" d="M12.5 21.5a1 1 0 011-1h1a1 1 0 110 2h-1a1 1 0 01-1-1z"/></symbol><symbol fill="currentColor" viewBox="0 0 28 28" id="speechbubble-solid" xmlns="http://www.w3.org/2000/svg"><path d="M3 8.143A3.143 3.143 0 016.143 5h15.714A3.143 3.143 0 0125 8.143v9.428a3.143 3.143 0 01-3.143 3.143H9.286L3 25.43V8.143z"/></symbol><symbol fill="currentColor" viewBox="0 0 28 28" id="sport" xmlns="http://www.w3.org/2000/svg"><path fill-rule="evenodd" clip-rule="evenodd" d="M14 2C7.37 2 2 7.37 2 14c0 5.678 3.939 10.432 9.234 11.68A12.05 12.05 0 0014 26a12.044 12.044 0 002.78-.323C22.07 24.423 26 19.673 26 14a12 12 0 00-7.429-11.1C17.163 2.32 15.62 2 14 2zm3.73 22.352a11.02 11.02 0 004.977-3.627l-3.263.752-1.714 2.875zm5.793-4.841a10.933 10.933 0 001.422-4.404l-2.79-3.209-2.621 1.285-1.796 5.556 1.56 1.745 4.225-.973zm-5.017 1.587l-1.555-1.74h-5.873l-1.559 1.738 2.193 3.666c.738.156 1.503.238 2.288.238.798 0 1.576-.085 2.326-.246l2.18-3.657zm-9.785-.61l1.57-1.749-1.8-5.55-2.623-1.285-2.81 3.23a10.933 10.933 0 001.418 4.375l4.245.98zm-2.505-9.527l2.628 1.288 4.668-3.402V5.584L9.605 3.912a11.022 11.022 0 00-3.77 2.716l.381 4.333zm12.958 1.284l2.633-1.29.382-4.301a11.023 11.023 0 00-3.78-2.736l-3.897 1.666v3.263l4.662 3.398zm3.917-4.442a10.945 10.945 0 011.903 5.837l-2.197-2.527.294-3.31zM8.586 21.483l-3.294-.76a11.02 11.02 0 005.018 3.643l-1.724-2.883zM14 3c1.05 0 2.066.147 3.027.421l-3.015 1.29-3.023-1.294A11.017 11.017 0 0114 3zM3.005 13.67l2.221-2.552-.295-3.347a10.946 10.946 0 00-1.926 5.9zm6.482-.652l4.524-3.298 4.525 3.298-1.726 5.34h-5.592l-1.73-5.34z"/></symbol><symbol fill="currentColor" viewBox="0 0 28 28" id="star" xmlns="http://www.w3.org/2000/svg"><path fill-rule="evenodd" clip-rule="evenodd" d="M18.117 9.814L15.296 3.27a1.465 1.465 0 00-2.579 0L9.892 9.814H4.395a1.343 1.343 0 00-.942 2.35l4.77 4.243-2.64 6.073a1.44 1.44 0 002.047 1.8l6.377-3.596 6.376 3.596a1.438 1.438 0 002.046-1.8l-2.64-6.073 4.762-4.243a1.346 1.346 0 00-.946-2.35h-5.488zm3.392 13.056l-2.637-6.065a1 1 0 01.252-1.145l4.76-4.24a.345.345 0 00-.24-.606h-5.527a1 1 0 01-.918-.604l-2.8-6.493a.465.465 0 00-.785 0L10.81 10.21a1 1 0 01-.918.603H4.395a1 1 0 01-.039 0 .343.343 0 00-.33.216l-.002.003a.341.341 0 00.093.383l4.771 4.243a1 1 0 01.253 1.146L6.504 22.87a.44.44 0 00.625.544l.01-.006 6.376-3.595a1 1 0 01.983 0l6.386 3.601a.435.435 0 00.504-.05l.004-.004a.438.438 0 00.117-.49z"/></symbol><symbol fill="currentColor" viewBox="0 0 28 28" id="star-half" xmlns="http://www.w3.org/2000/svg"><path fill-rule="evenodd" clip-rule="evenodd" d="M7.139 23.409l5.868-3.309V5.123L10.81 10.21a1 1 0 01-.918.604H4.395a1 1 0 01-.039 0 .343.343 0 00-.33.216l-.002.003a.341.341 0 00.093.383l4.771 4.243a1 1 0 01.253 1.146L6.504 22.87a.44.44 0 00.625.544l.01-.006zm-1.556-.93l2.64-6.072-4.77-4.243a1.343 1.343 0 01.942-2.35h5.497l2.825-6.544c.175-.325.463-.566.8-.685.26-.093.49.139.49.415v17.392a.5.5 0 01-.255.436L7.63 24.28a1.44 1.44 0 01-2.046-1.8z"/></symbol><symbol fill="currentColor" viewBox="0 0 28 28" id="star-half-solid" xmlns="http://www.w3.org/2000/svg"><path d="M7.63 24.28l6.122-3.452a.5.5 0 00.255-.436V3c0-.276-.23-.508-.49-.415-.337.12-.625.36-.8.685L9.892 9.814H4.395a1.343 1.343 0 00-.942 2.35l4.77 4.243-2.64 6.073a1.44 1.44 0 002.047 1.8z"/></symbol><symbol fill="currentColor" viewBox="0 0 28 28" id="star-solid" xmlns="http://www.w3.org/2000/svg"><path d="M15.296 3.27l2.82 6.544h5.489a1.346 1.346 0 01.946 2.35l-4.762 4.243 2.64 6.073a1.438 1.438 0 01-2.046 1.8l-6.376-3.596L7.63 24.28a1.44 1.44 0 01-2.046-1.8l2.64-6.073-4.77-4.243a1.343 1.343 0 01.942-2.35h5.496l2.825-6.544a1.464 1.464 0 012.579 0z"/></symbol><symbol fill="currentColor" viewBox="0 0 28 28" id="tablet" xmlns="http://www.w3.org/2000/svg"><path fill-rule="evenodd" clip-rule="evenodd" d="M3 4.5A3.5 3.5 0 016.5 1h15A3.5 3.5 0 0125 4.5v19a3.5 3.5 0 01-3.5 3.5h-15A3.5 3.5 0 013 23.5v-19zM6.5 3A1.5 1.5 0 005 4.5v19A1.5 1.5 0 006.5 25h15a1.5 1.5 0 001.5-1.5v-19A1.5 1.5 0 0021.5 3h-15z"/><path fill-rule="evenodd" clip-rule="evenodd" d="M12.5 22.5a1 1 0 011-1h1a1 1 0 110 2h-1a1 1 0 01-1-1z"/></symbol><symbol fill="currentColor" viewBox="0 0 28 28" id="tag" xmlns="http://www.w3.org/2000/svg"><path fill-rule="evenodd" clip-rule="evenodd" d="M18.858 9.098a2.5 2.5 0 10-3.535 3.536 2.5 2.5 0 003.535-3.536zm-2.828.707a1.5 1.5 0 112.121 2.122 1.5 1.5 0 01-2.12-2.122z"/><path fill-rule="evenodd" clip-rule="evenodd" d="M23.248 6.21a1.5 1.5 0 00-1.5-1.5h-6.536a4.5 4.5 0 00-3.182 1.317l-8.02 8.021a2.5 2.5 0 000 3.536l6.363 6.364a2.5 2.5 0 003.536 0l8.02-8.021a4.5 4.5 0 001.319-3.182V6.209zm-1.5-.5a.5.5 0 01.5.5v6.535a3.5 3.5 0 01-1.026 2.475l-8.02 8.02a1.5 1.5 0 01-2.122 0l-6.364-6.363a1.5 1.5 0 010-2.122l8.021-8.02a3.5 3.5 0 012.475-1.026h6.536z"/></symbol><symbol fill="currentColor" viewBox="0 0 28 28" id="tag-solid" xmlns="http://www.w3.org/2000/svg"><path fill-rule="evenodd" clip-rule="evenodd" d="M15.212 4.71a4.5 4.5 0 00-3.182 1.317l-8.02 8.021a2.5 2.5 0 000 3.536l6.363 6.364a2.5 2.5 0 003.536 0l8.02-8.021a4.5 4.5 0 001.318-3.182V6.209a1.5 1.5 0 00-1.5-1.5h-6.535zm.515 4.792a1.929 1.929 0 112.728 2.728 1.929 1.929 0 01-2.728-2.728z"/></symbol><symbol fill="currentColor" viewBox="0 0 28 28" id="tags" xmlns="http://www.w3.org/2000/svg"><path fill-rule="evenodd" clip-rule="evenodd" d="M23.634 7.398c.199 0 .366.167.366.366v6.81c-.04.617-.28 1.201-.686 1.677l-8.92 8.312a.983.983 0 00-.026.025.375.375 0 01-.26.107.375.375 0 01-.258-.107l-7.641-7.641a.375.375 0 01-.107-.26c0-.09.037-.184.099-.25l8.934-8.334a2.816 2.816 0 011.688-.705h6.81zM26 7.764a2.37 2.37 0 00-2.366-2.366h-6.84a4.816 4.816 0 00-2.999 1.22l-.016.015-8.96 8.358a2.375 2.375 0 00-.718 1.697c0 .627.253 1.232.694 1.673l7.64 7.64c.441.442 1.047.694 1.674.694.62 0 1.22-.247 1.659-.679l8.948-8.338a1 1 0 00.069-.07A4.866 4.866 0 0026 14.605v-6.84z"/><path fill-rule="evenodd" clip-rule="evenodd" d="M21.808 3a1 1 0 00-1-1h-8.451c-.974 0-1.932.379-2.634 1.087l-8.639 8.25-.016.015a2.375 2.375 0 00-.693 1.674c0 .627.252 1.232.693 1.673l.4.4a1 1 0 001.414-1.414l-.4-.4a.375.375 0 01-.107-.26c0-.092.038-.186.102-.253l8.638-8.249A1.709 1.709 0 0112.357 4h8.45a1 1 0 001-1zM21.892 12.556a3.049 3.049 0 10-6.098-.001 3.049 3.049 0 006.098 0zm-3.05-1.05a1.049 1.049 0 11.001 2.098 1.049 1.049 0 010-2.098z"/></symbol><symbol fill="currentColor" viewBox="0 0 28 28" id="tags-solid" xmlns="http://www.w3.org/2000/svg"><path d="M20.808 2a1 1 0 110 2h-8.451a1.709 1.709 0 00-1.242.523l-8.638 8.25a.375.375 0 00-.102.253c0 .095.04.192.107.259l.4.4a1 1 0 11-1.414 1.414l-.4-.4a2.375 2.375 0 01-.693-1.673c0-.627.252-1.233.693-1.674l.016-.016 8.64-8.249A3.709 3.709 0 0112.356 2h8.45zM18.843 11.506a1.049 1.049 0 110 2.098 1.049 1.049 0 010-2.098z"/><path fill-rule="evenodd" clip-rule="evenodd" d="M23.634 5.398A2.37 2.37 0 0126 7.764v6.84l-.001.057a4.867 4.867 0 01-1.214 2.947.977.977 0 01-.07.07l-8.947 8.338a2.375 2.375 0 01-1.659.679 2.375 2.375 0 01-1.673-.693l-7.641-7.64a2.375 2.375 0 01-.693-1.674 2.374 2.374 0 01.718-1.697l8.96-8.358.015-.014a4.816 4.816 0 012.999-1.221h6.84zm-1.742 7.158a3.049 3.049 0 10-6.098-.001 3.049 3.049 0 006.098 0z"/></symbol><symbol fill="currentColor" viewBox="0 0 28 28" id="times" xmlns="http://www.w3.org/2000/svg"><path d="M20.646 6.646a.5.5 0 01.708.708L14.707 14l6.647 6.646a.5.5 0 01-.708.708L14 14.707l-6.646 6.647a.5.5 0 01-.708-.708L13.293 14 6.646 7.354a.5.5 0 11.708-.708L14 13.293l6.646-6.647z"/></symbol><symbol fill="currentColor" viewBox="0 0 16 16" id="times-circle" xmlns="http://www.w3.org/2000/svg"><path d="M11.354 4.646a.5.5 0 00-.708 0L8 7.293 5.354 4.646a.5.5 0 10-.708.708L7.293 8l-2.647 2.646a.5.5 0 00.708.708L8 8.707l2.646 2.647a.5.5 0 00.708-.708L8.707 8l2.647-2.646a.5.5 0 000-.708z"/><path fill-rule="evenodd" clip-rule="evenodd" d="M16 8A8 8 0 110 8a8 8 0 0116 0zm-1 0A7 7 0 111 8a7 7 0 0114 0z"/></symbol><symbol class="cpsvg-inline--fa cpfa-toggle-off cpfa-w-18" viewBox="0 0 576 512" id="toggle-off" xmlns="http://www.w3.org/2000/svg"><path fill="currentColor" d="M384 64H192C85.961 64 0 149.961 0 256s85.961 192 192 192h192c106.039 0 192-85.961 192-192S490.039 64 384 64zM48 256c0-79.583 64.404-144 144-144 79.582 0 144 64.404 144 144 0 79.582-64.404 144-144 144-79.582 0-144-64.404-144-144zm336 144h-65.02c86.704-76.515 86.683-211.504 0-288H384c79.582 0 144 64.404 144 144 0 79.582-64.404 144-144 144z"/></symbol><symbol class="cqsvg-inline--fa cqfa-toggle-on cqfa-w-18" viewBox="0 0 576 512" id="toggle-on" xmlns="http://www.w3.org/2000/svg"><path fill="currentColor" d="M384 64H192C86 64 0 150 0 256s86 192 192 192h192c106 0 192-86 192-192S490 64 384 64zm0 336c-79.6 0-144-64.4-144-144s64.4-144 144-144 144 64.4 144 144-64.4 144-144 144z"/></symbol><symbol fill="currentColor" viewBox="0 0 28 28" id="twitter" xmlns="http://www.w3.org/2000/svg"><path fill-rule="evenodd" clip-rule="evenodd" d="M26.751 6.342c-.902.41-1.874.68-2.881.808a5.034 5.034 0 002.202-2.787c-.972.586-2.05.996-3.186 1.23C21.961 4.586 20.661 4 19.186 4c-2.753 0-5.002 2.249-5.002 5.024 0 .399.047.785.13 1.148A14.282 14.282 0 013.96 4.925a4.97 4.97 0 00-.68 2.518c0 1.745.879 3.291 2.238 4.17-.832 0-1.605-.235-2.284-.586v.035a5.028 5.028 0 004.029 4.93 4.94 4.94 0 01-2.26.083c.632 1.98 2.47 3.455 4.684 3.49a9.98 9.98 0 01-6.242 2.155c-.399 0-.797-.023-1.195-.07a14.223 14.223 0 007.706 2.26c9.23 0 14.3-7.66 14.3-14.3 0-.223 0-.433-.011-.656a10.039 10.039 0 002.506-2.612z"/></symbol><symbol fill="currentColor" viewBox="0 0 28 28" id="user-circle" xmlns="http://www.w3.org/2000/svg"><path fill-rule="evenodd" clip-rule="evenodd" d="M9.308 11.692c0-2.561 2.129-4.649 4.692-4.649 2.593 0 4.692 2.205 4.692 4.736 0 2.562-2.129 4.649-4.692 4.649-2.594 0-4.692-2.205-4.692-4.736zM14 9.043c-1.481 0-2.692 1.215-2.692 2.65 0 1.465 1.241 2.735 2.692 2.735 1.48 0 2.692-1.214 2.692-2.649 0-1.465-1.242-2.736-2.692-2.736z"/><path fill-rule="evenodd" clip-rule="evenodd" d="M26 14c0 6.678-5.322 12-12 12S2 20.678 2 14 7.322 2 14 2s12 5.322 12 12zm-4.96 7.14C22.872 19.334 24 16.813 24 14c0-5.574-4.426-10-10-10S4 8.426 4 14c0 2.813 1.127 5.334 2.96 7.14l.958-1.435a4.692 4.692 0 013.904-2.09h4.356c1.569 0 3.034.784 3.904 2.09l.957 1.436zm-1.566 1.258l-1.056-1.584a2.692 2.692 0 00-2.24-1.199h-4.356c-.9 0-1.74.45-2.24 1.2l-1.055 1.583A10.02 10.02 0 0014 24c2.03 0 3.907-.587 5.474-1.602z"/></symbol><symbol fill="currentColor" viewBox="0 0 28 28" id="user-circle-solid" xmlns="http://www.w3.org/2000/svg"><path d="M11.308 11.692c0-1.434 1.211-2.649 2.692-2.649 1.45 0 2.692 1.27 2.692 2.736 0 1.435-1.211 2.649-2.692 2.649-1.45 0-2.692-1.27-2.692-2.736z"/><path fill-rule="evenodd" clip-rule="evenodd" d="M26 14c0 6.678-5.322 12-12 12S2 20.678 2 14 7.322 2 14 2s12 5.322 12 12zM14 7.043c-2.563 0-4.692 2.088-4.692 4.65 0 2.53 2.098 4.735 4.692 4.735 2.563 0 4.692-2.087 4.692-4.649 0-2.531-2.099-4.736-4.692-4.736zM8.855 22.018l.739-1.22a2.692 2.692 0 012.229-1.183h4.355c.893 0 1.728.443 2.229 1.182l.737 1.22a1 1 0 001.712-1.034l-.761-1.26-.013-.018a4.693 4.693 0 00-3.904-2.09h-4.355a4.692 4.692 0 00-3.905 2.09l-.012.018-.762 1.26a1 1 0 101.711 1.035z"/></symbol><symbol fill="currentColor" viewBox="0 0 56 56" id="video" xmlns="http://www.w3.org/2000/svg"><path fill-rule="evenodd" clip-rule="evenodd" d="M8.1 7A3.111 3.111 0 005 10.1v35.8C5 47.604 6.397 49 8.1 49h38.944c1.702 0 3.099-1.397 3.099-3.1V10.1c0-1.703-1.397-3.1-3.1-3.1H8.1zM3 10.1C3 7.291 5.292 5 8.1 5h38.944c2.806 0 5.099 2.292 5.099 5.1v35.8c0 2.808-2.293 5.1-5.1 5.1H8.1A5.111 5.111 0 013 45.9V10.1zm19.318 7.456a.623.623 0 00-.073.031.086.086 0 00-.04.037.192.192 0 00-.022.093v13.938c0 .041.01.073.022.093.01.016.02.027.04.038l.058.03a.589.589 0 00.052-.02l12.062-6.951c.017-.01.034-.02.052-.028a.086.086 0 00.04-.038.192.192 0 00.022-.093c0-.04-.01-.073-.022-.093a.087.087 0 00-.04-.037 1.044 1.044 0 01-.052-.028l-12.093-6.969-.006-.003zm1.086-1.682a1.632 1.632 0 00-1.017-.335c-.361 0-.719.1-1.036.26-.796.397-1.168 1.185-1.168 1.918v13.938c0 .695.334 1.438 1.045 1.853.32.249.696.326 1.006.326a2.34 2.34 0 001.088-.287l12.072-6.957c.774-.402 1.137-1.18 1.137-1.904s-.363-1.5-1.137-1.903l-11.99-6.91zm7.099 21.684c.571-.571 1.35-.856 2.193-.856.842 0 1.621.285 2.193.856.571.572.856 1.351.856 2.194v1.05h9.249a1 1 0 010 2h-9.249v1.049c0 .842-.285 1.622-.856 2.193-.572.572-1.351.857-2.193.857-.842 0-1.622-.286-2.193-.857-.572-.571-.857-1.35-.857-2.193V42.8H10.149a1 1 0 110-2h19.497v-1.05c0-.842.285-1.621.857-2.193zm1.143 6.293c0 .388.125.633.27.779.147.146.392.27.78.27.387 0 .633-.124.779-.27.145-.146.27-.391.27-.78v-4.098c0-.388-.124-.634-.27-.78-.146-.145-.392-.27-.78-.27-.387 0-.632.125-.778.27-.146.146-.271.392-.271.78v4.099z"/></symbol><symbol fill="currentColor" viewBox="0 0 28 28" id="warning-circle" xmlns="http://www.w3.org/2000/svg"><path fill-rule="evenodd" clip-rule="evenodd" d="M14 5a9 9 0 100 18 9 9 0 000-18zM3 14C3 7.925 7.925 3 14 3s11 4.925 11 11-4.925 11-11 11S3 20.075 3 14z"/><path fill-rule="evenodd" clip-rule="evenodd" d="M14 9a1 1 0 011 1v5a1 1 0 11-2 0v-5a1 1 0 011-1zM14 17a1 1 0 011 1v.5a1 1 0 11-2 0V18a1 1 0 011-1z"/></symbol><symbol fill="currentColor" viewBox="0 0 28 28" id="warning-circle-solid" xmlns="http://www.w3.org/2000/svg"><path fill-rule="evenodd" clip-rule="evenodd" d="M14 3C7.925 3 3 7.925 3 14s4.925 11 11 11 11-4.925 11-11S20.075 3 14 3zm0 6a1 1 0 011 1v5a1 1 0 11-2 0v-5a1 1 0 011-1zm0 8a1 1 0 011 1v.5a1 1 0 11-2 0V18a1 1 0 011-1z"/></symbol><symbol fill="currentColor" viewBox="0 0 28 28" id="warning-triangle" xmlns="http://www.w3.org/2000/svg"><path d="M15 11.5a1 1 0 10-2 0v4a1 1 0 102 0v-4zM15 18.5a1 1 0 10-2 0v.5a1 1 0 102 0v-.5z"/><path fill-rule="evenodd" clip-rule="evenodd" d="M16.144 4.63c-.971-1.62-3.317-1.62-4.288 0l-9.35 15.584c-1 1.666.2 3.786 2.143 3.786h18.702c1.943 0 3.143-2.12 2.143-3.786l-9.35-15.585zM13.57 5.657a.5.5 0 01.858 0l9.35 15.585a.5.5 0 01-.428.757H4.649a.5.5 0 01-.428-.757l9.35-15.585z"/></symbol></svg>